<?xml version="1.0" encoding="UTF-8" standalone="no"?>
<svg
   height="24px"
   viewBox="0 0 24 24"
   width="24px"
   fill="#000000"
   version="1.1"
   id="svg1"
   xmlns="http://www.w3.org/2000/svg"
   xmlns:svg="http://www.w3.org/2000/svg">
  <defs
     id="defs1" />
  <path
     d="M 12 22.0001 q -2.0749 0 -3.9 -0.7875 T 4.9249 19.075 q -1.35 -1.35 -2.1375 -3.175 T 1.9999 12 h 1.9999 q 0 2.875 1.8124 5.075 T 10.4501 19.8499 l -1.4501 -1.4501 1.4 -1.4 L 14.95 21.55 q -0.7249 0.25 -1.4625 0.3499 T 12 22.0001 Z m 0.5 -7 v -6 h 3 q 0.4249 0 0.7125 0.2876 T 16.5 10 v 4 q 0 0.4249 -0.2876 0.7125 T 15.4999 15 H 12.4999 Z m -5 0 v -1.5 h 2.5 v -1 h -1.5 v -1 h 1.5 v -1 H 7.5 v -1.5 h 3 q 0.4249 0 0.7125 0.2876 T 11.5 10 v 4 q 0 0.4249 -0.2876 0.7125 T 10.5 15 H 7.5 Z m 6.5 -1.5 h 1 v -3 h -1 v 3 Z m 6 -1.5 q 0 -2.875 -1.8124 -5.075 T 13.55 4.1501 l 1.4501 1.4501 -1.4 1.4 -4.5499 -4.5499 q 0.7249 -0.25 1.4625 -0.3499 t 1.4876 -0.1001 q 2.0749 0 3.9 0.7875 T 19.075 4.9249 q 1.35 1.35 2.1375 3.175 T 22.0001 12 h -1.9999 Z"
     id="path1" />
</svg>
