<?xml version="1.0" encoding="UTF-8" standalone="no"?>
<svg
   height="24px"
   viewBox="0 0 32 32"
   width="24px"
   fill="#000000"
   version="1.1"
   id="svg1"
   xmlns="http://www.w3.org/2000/svg"
   xmlns:svg="http://www.w3.org/2000/svg">
  <defs
     id="defs1" />
  <path
     d="M 16 29.3333 q -2.7667 0 -5.2 -1.05 T 6.5667 25.4333 q -1.8 -1.8 -2.85 -4.2333 T 2.6667 16 h 2.6667 q 0 3.8333 2.4167 6.7667 T 13.9333 26.4667 l -1.9333 -1.9333 1.8667 -1.8667 L 19.9333 28.7333 q -0.9667 0.3333 -1.95 0.4667 T 16 29.3333 Z m 0.6667 -9.3333 v -8 h 4 q 0.5667 0 0.95 0.3833 T 22 13.3333 v 5.3333 q 0 0.5667 -0.3833 0.95 T 20.6667 20 H 16.6667 Z m -6.6667 0 v -2 h 3.3333 v -1.3333 h -2 v -1.3333 h 2 v -1.3333 H 10 v -2 h 4 q 0.5667 0 0.95 0.3833 T 15.3333 13.3333 v 5.3333 q 0 0.5667 -0.3833 0.95 T 14 20 H 10 Z m 8.6667 -2 h 1.3333 v -4 h -1.3333 v 4 Z m 8 -2 q 0 -3.8333 -2.4167 -6.7667 T 18.0667 5.5333 l 1.9333 1.9333 -1.8667 1.8667 -6.0667 -6.0667 q 0.9667 -0.3333 1.95 -0.4667 t 1.9833 -0.1333 q 2.7667 0 5.2 1.05 T 25.4333 6.5667 q 1.8 1.8 2.85 4.2333 T 29.3333 16 h -2.6667 Z"
     id="path1" />
</svg>
