<?xml version="1.0" encoding="UTF-8" standalone="no"?>
<svg
   height="24px"
   viewBox="0 0 16 16"
   width="24px"
   fill="#000000"
   version="1.1"
   id="svg1"
   xmlns="http://www.w3.org/2000/svg"
   xmlns:svg="http://www.w3.org/2000/svg">
  <defs
     id="defs1" />
  <path
     d="M 8 14.6667 q -1.3833 0 -2.6 -0.525 T 3.2833 12.7167 q -0.9 -0.9 -1.425 -2.1167 T 1.3333 8 h 1.3333 q 0 1.9167 1.2083 3.3833 T 6.9667 13.2333 l -0.9667 -0.9667 0.9333 -0.9333 L 9.9667 14.3667 q -0.4833 0.1667 -0.975 0.2333 T 8 14.6667 Z m 0.3333 -4.6667 v -4 h 2 q 0.2833 0 0.475 0.1917 T 11 6.6667 v 2.6667 q 0 0.2833 -0.1917 0.475 T 10.3333 10 H 8.3333 Z m -3.3333 0 v -1 h 1.6667 v -0.6667 h -1 v -0.6667 h 1 v -0.6667 H 5 v -1 h 2 q 0.2833 0 0.475 0.1917 T 7.6667 6.6667 v 2.6667 q 0 0.2833 -0.1917 0.475 T 7 10 H 5 Z m 4.3333 -1 h 0.6667 v -2 h -0.6667 v 2 Z m 4 -1 q 0 -1.9167 -1.2083 -3.3833 T 9.0333 2.7667 l 0.9667 0.9667 -0.9333 0.9333 -3.0333 -3.0333 q 0.4833 -0.1667 0.975 -0.2333 t 0.9917 -0.0667 q 1.3833 0 2.6 0.525 T 12.7167 3.2833 q 0.9 0.9 1.425 2.1167 T 14.6667 8 h -1.3333 Z"
     id="path1" />
</svg>
