<?xml version="1.0" encoding="UTF-8" standalone="no"?>
<svg
   height="24px"
   viewBox="0 0 32 32"
   width="24px"
   fill="#000000"
   version="1.1"
   id="svg1"
   xmlns="http://www.w3.org/2000/svg"
   xmlns:svg="http://www.w3.org/2000/svg">
  <defs
     id="defs1" />
  <path
     d="M 17.3333 20 h 4 q 1.1 0 1.8833 -0.7833 T 24 17.3333 v -2.6667 q 0 -1.1 -0.7833 -1.8833 T 21.3333 12 H 17.3333 v 8 Z m 2 -2 v -4 h 2 q 0.2667 0 0.4667 0.2 t 0.2 0.4667 v 2.6667 q 0 0.2667 -0.2 0.4667 t -0.4667 0.2 h -2 Z m -10.6667 2 h 4.6667 q 0.5667 0 0.95 -0.3833 T 14.6667 18.6667 v -1.3333 q 0 -0.5667 -0.3833 -0.95 T 13.3333 16 q 0.5667 0 0.95 -0.3833 T 14.6667 14.6667 v -1.3333 q 0 -0.5667 -0.3833 -0.95 T 13.3333 12 H 8.6667 v 2 h 4 v 1 h -2.6667 v 2 h 2.6667 v 1 H 8.6667 v 2 Z M 5.3333 26.6667 q -1.1 0 -1.8833 -0.7833 T 2.6667 24 v -16 q 0 -1.1 0.7833 -1.8833 T 5.3333 5.3333 h 21.3333 q 1.1 0 1.8833 0.7833 T 29.3333 8 v 16 q 0 1.1 -0.7833 1.8833 T 26.6667 26.6667 H 5.3333 Z m 0 -2.6667 h 21.3333 v -16 H 5.3333 v 16 Z m 0 0 v -16 16 Z"
     id="path1" />
</svg>
