<?xml version="1.0" encoding="UTF-8" standalone="no"?>
<svg
   height="24px"
   viewBox="0 0 16 16"
   width="24px"
   fill="#000000"
   version="1.1"
   id="svg1"
   xmlns="http://www.w3.org/2000/svg"
   xmlns:svg="http://www.w3.org/2000/svg">
  <defs
     id="defs1" />
  <path
     d="M 8.6667 10 h 2 q 0.55 0 0.9416 -0.3916 T 12 8.6667 v -1.3334 q 0 -0.55 -0.3916 -0.9416 T 10.6667 6 H 8.6667 v 4 Z m 1 -1 v -2 h 1 q 0.1333 0 0.2334 0.1 t 0.1 0.2334 v 1.3334 q 0 0.1333 -0.1 0.2334 t -0.2334 0.1 h -1 Z m -5.3334 1 h 2.3333 q 0.2833 0 0.475 -0.1916 T 7.3334 9.3333 v -0.6666 q 0 -0.2833 -0.1916 -0.475 T 6.6666 8 q 0.2833 0 0.475 -0.1916 T 7.3334 7.3334 v -0.6666 q 0 -0.2833 -0.1916 -0.475 T 6.6666 6 H 4.3334 v 1 h 2 v 0.5 h -1.3334 v 1 h 1.3334 v 0.5 H 4.3334 v 1 Z M 2.6667 13.3333 q -0.55 0 -0.9416 -0.3916 T 1.3334 12 v -8 q 0 -0.55 0.3916 -0.9416 T 2.6667 2.6667 h 10.6667 q 0.55 0 0.9416 0.3916 T 14.6667 4 v 8 q 0 0.55 -0.3916 0.9416 T 13.3333 13.3333 H 2.6667 Z m 0 -1.3334 h 10.6667 v -8 H 2.6667 v 8 Z m 0 0 v -8 8 Z"
     id="path1" />
</svg>
