<?xml version="1.0" encoding="UTF-8" standalone="no"?>
<svg
   height="24px"
   viewBox="0 0 24 24"
   width="24px"
   fill="#000000"
   version="1.1"
   id="svg1"
   xmlns="http://www.w3.org/2000/svg"
   xmlns:svg="http://www.w3.org/2000/svg">
  <defs
     id="defs1" />
  <path
     d="M 13.0001 15 h 3 q 0.825 0 1.4124 -0.5874 T 18 13.0001 v -2.0001 q 0 -0.825 -0.5874 -1.4124 T 16.0001 9 H 13.0001 v 6 Z m 1.5 -1.5 v -3 h 1.5 q 0.2 0 0.3501 0.15 t 0.15 0.3501 v 2.0001 q 0 0.2 -0.15 0.3501 t -0.3501 0.15 h -1.5 Z m -8.0001 1.5 h 3.5 q 0.4249 0 0.7125 -0.2874 T 11.0001 13.9999 v -0.9999 q 0 -0.4249 -0.2874 -0.7125 T 9.9999 12 q 0.4249 0 0.7125 -0.2874 T 11.0001 11.0001 v -0.9999 q 0 -0.4249 -0.2874 -0.7125 T 9.9999 9 H 6.5001 v 1.5 h 3 v 0.75 h -2.0001 v 1.5 h 2.0001 v 0.75 H 6.5001 v 1.5 Z M 4 19.9999 q -0.825 0 -1.4124 -0.5874 T 2.0001 18 v -12 q 0 -0.825 0.5874 -1.4124 T 4 4 h 16.0001 q 0.825 0 1.4124 0.5874 T 22.0001 6 v 12 q 0 0.825 -0.5874 1.4124 T 19.9999 19.9999 H 4 Z m 0 -2.0001 h 16.0001 v -12 H 4 v 12 Z m 0 0 v -12 12 Z"
     id="path1" />
</svg>
