<?xml version="1.0" encoding="UTF-8" standalone="no"?>
<svg
   height="24px"
   viewBox="0 0 16 16"
   width="24px"
   fill="#000000"
   version="1.1"
   id="svg1"
   sodipodi:docname="addon-symbolic.svg"
   inkscape:version="1.4.3 (0d15f75042, 2025-12-25)"
   xmlns:inkscape="http://www.inkscape.org/namespaces/inkscape"
   xmlns:sodipodi="http://sodipodi.sourceforge.net/DTD/sodipodi-0.dtd"
   xmlns="http://www.w3.org/2000/svg"
   xmlns:svg="http://www.w3.org/2000/svg">
  <defs
     id="defs1" />
  <sodipodi:namedview
     id="namedview1"
     pagecolor="#ffffff"
     bordercolor="#000000"
     borderopacity="0.25"
     inkscape:showpageshadow="2"
     inkscape:pageopacity="0.0"
     inkscape:pagecheckerboard="0"
     inkscape:deskcolor="#d1d1d1"
     inkscape:zoom="36.916667"
     inkscape:cx="11.986456"
     inkscape:cy="11.986456"
     inkscape:window-width="3291"
     inkscape:window-height="1701"
     inkscape:window-x="50"
     inkscape:window-y="82"
     inkscape:window-maximized="0"
     inkscape:current-layer="svg1" />
  <path
     d="M 5.8666 14 H 3.3333 q -0.55 0 -0.9416 -0.3916 T 2 12.6667 v -2.5333 q 0.8 0 1.4 -0.5083 t 0.6 -1.2916 q 0 -0.7833 -0.6 -1.2916 T 2 6.5334 v -2.5333 q 0 -0.55 0.3916 -0.9416 T 3.3333 2.6667 h 2.6667 q 0 -0.7 0.4834 -1.1833 t 1.1833 -0.4834 q 0.7 0 1.1833 0.4834 t 0.4834 1.1833 h 2.6667 q 0.55 0 0.9416 0.3916 T 13.3333 4 v 2.6667 q 0.7 0 1.1833 0.4834 t 0.4834 1.1833 q 0 0.7 -0.4834 1.1833 t -1.1833 0.4834 v 2.6667 q 0 0.55 -0.3916 0.9416 T 12 14 H 9.4666 q 0 -0.8334 -0.525 -1.4166 T 7.6666 12 q -0.75 0 -1.275 0.5834 T 5.8666 14 Z m -2.5333 -1.3334 h 1.4166 q 0.4 -1.1 1.2833 -1.55 t 1.6334 -0.45 q 0.75 0 1.6334 0.45 t 1.2833 1.55 h 1.4166 v -4 h 1.3334 q 0.1333 0 0.2334 -0.1 t 0.1 -0.2334 q 0 -0.1333 -0.1 -0.2334 t -0.2334 -0.1 h -1.3334 v -4 H 8 v -1.3334 q 0 -0.1333 -0.1 -0.2334 t -0.2334 -0.1 q -0.1333 0 -0.2334 0.1 t -0.1 0.2334 v 1.3334 H 3.3333 v 1.4667 q 0.9 0.3333 1.45 1.1166 t 0.55 1.75 q 0 0.95 -0.55 1.7333 t -1.45 1.1334 v 1.4667 Z m 4.3334 -4.3334 Z"
     id="path1" />
</svg>
