<?xml version="1.0" encoding="UTF-8" standalone="no"?>
<svg
   height="24px"
   viewBox="0 0 32 32"
   width="24px"
   fill="#000000"
   version="1.1"
   id="svg1"
   sodipodi:docname="addon-builtin-symbolic.svg"
   inkscape:version="1.4.3 (0d15f75042, 2025-12-25)"
   xmlns:inkscape="http://www.inkscape.org/namespaces/inkscape"
   xmlns:sodipodi="http://sodipodi.sourceforge.net/DTD/sodipodi-0.dtd"
   xmlns="http://www.w3.org/2000/svg"
   xmlns:svg="http://www.w3.org/2000/svg">
  <defs
     id="defs1" />
  <sodipodi:namedview
     id="namedview1"
     pagecolor="#ffffff"
     bordercolor="#000000"
     borderopacity="0.25"
     inkscape:showpageshadow="2"
     inkscape:pageopacity="0.0"
     inkscape:pagecheckerboard="0"
     inkscape:deskcolor="#d1d1d1"
     inkscape:zoom="36.916667"
     inkscape:cx="12.13544"
     inkscape:cy="10.781038"
     inkscape:window-width="3207"
     inkscape:window-height="1598"
     inkscape:window-x="50"
     inkscape:window-y="82"
     inkscape:window-maximized="0"
     inkscape:current-layer="svg1" />
  <path
     d="m 12.9443 13.6194 h 3.6669 q 2.7938 0 2.7938 -2.4824 0 -2.4824 -2.7938 -2.4824 H 12.9443 Z m 0 13.7954 H 7.1239 v -22.8295 h 9.6037 q 4.1907 0 6.0532 1.7092 1.9207 1.7092 1.9207 4.7612 0 1.5057 -0.3492 2.5637 -0.291 1.0581 -0.9313 1.7906 -0.582 0.6918 -1.4551 1.1394 -0.8731 0.4476 -1.9207 0.7325 1.5133 1.1801 2.27 5.0461 0.8149 3.9067 2.561 5.0868 H 18.8229 q -1.5133 -1.2208 -2.0953 -4.924 -0.6402 -3.7846 -2.4446 -4.8019 h -1.3387 z"
     id="text1"
     style="font-size:31.6055px;font-family:Pakenham;-inkscape-font-specification:'Pakenham, Normal';letter-spacing:0px;word-spacing:0px;stroke-width:1.8693"
     aria-label="R" />
</svg>
