<?xml version="1.0" encoding="UTF-8" standalone="no"?>
<svg
   height="24px"
   viewBox="0 0 24 24"
   width="24px"
   fill="#000000"
   version="1.1"
   id="svg1"
   sodipodi:docname="addon-builtin-symbolic.svg"
   inkscape:version="1.4.3 (0d15f75042, 2025-12-25)"
   xmlns:inkscape="http://www.inkscape.org/namespaces/inkscape"
   xmlns:sodipodi="http://sodipodi.sourceforge.net/DTD/sodipodi-0.dtd"
   xmlns="http://www.w3.org/2000/svg"
   xmlns:svg="http://www.w3.org/2000/svg">
  <defs
     id="defs1" />
  <sodipodi:namedview
     id="namedview1"
     pagecolor="#ffffff"
     bordercolor="#000000"
     borderopacity="0.25"
     inkscape:showpageshadow="2"
     inkscape:pageopacity="0.0"
     inkscape:pagecheckerboard="0"
     inkscape:deskcolor="#d1d1d1"
     inkscape:zoom="36.916667"
     inkscape:cx="12.13544"
     inkscape:cy="10.781038"
     inkscape:window-width="3207"
     inkscape:window-height="1598"
     inkscape:window-x="50"
     inkscape:window-y="82"
     inkscape:window-maximized="0"
     inkscape:current-layer="svg1" />
  <path
     d="m 9.7083 10.2146 h 2.7502 q 2.0953 0 2.0953 -1.8618 0 -1.8618 -2.0953 -1.8618 H 9.7083 Z m 0 10.3466 H 5.3429 v -17.1221 h 7.2027 q 3.1429 0 4.5399 1.2819 1.4406 1.2819 1.4406 3.5709 0 1.1294 -0.2619 1.9227 -0.2182 0.7936 -0.6986 1.343 -0.4365 0.5189 -1.0914 0.8545 -0.6547 0.3357 -1.4406 0.5494 1.1351 0.885 1.7025 3.7847 0.6111 2.9299 1.9207 3.8151 H 14.1173 q -1.1351 -0.9156 -1.5714 -3.693 -0.4801 -2.8384 -1.8335 -3.6014 h -1.0041 z"
     id="text1"
     style="font-size:23.704px;font-family:Pakenham;-inkscape-font-specification:'Pakenham, Normal';letter-spacing:0px;word-spacing:0px;stroke-width:1.4019"
     aria-label="R" />
</svg>
