<?xml version="1.0" encoding="UTF-8" standalone="no"?>
<svg
   height="24px"
   viewBox="0 0 16 16"
   width="24px"
   fill="#000000"
   version="1.1"
   id="svg1"
   sodipodi:docname="addon-builtin-symbolic.svg"
   inkscape:version="1.4.3 (0d15f75042, 2025-12-25)"
   xmlns:inkscape="http://www.inkscape.org/namespaces/inkscape"
   xmlns:sodipodi="http://sodipodi.sourceforge.net/DTD/sodipodi-0.dtd"
   xmlns="http://www.w3.org/2000/svg"
   xmlns:svg="http://www.w3.org/2000/svg">
  <defs
     id="defs1" />
  <sodipodi:namedview
     id="namedview1"
     pagecolor="#ffffff"
     bordercolor="#000000"
     borderopacity="0.25"
     inkscape:showpageshadow="2"
     inkscape:pageopacity="0.0"
     inkscape:pagecheckerboard="0"
     inkscape:deskcolor="#d1d1d1"
     inkscape:zoom="36.916667"
     inkscape:cx="12.13544"
     inkscape:cy="10.781038"
     inkscape:window-width="3207"
     inkscape:window-height="1598"
     inkscape:window-x="50"
     inkscape:window-y="82"
     inkscape:window-maximized="0"
     inkscape:current-layer="svg1" />
  <path
     d="m 6.4722 6.8097 h 1.8335 q 1.3969 0 1.3969 -1.2412 0 -1.2412 -1.3969 -1.2412 H 6.4722 Z m 0 6.8977 H 3.5619 v -11.4147 h 4.8018 q 2.0953 0 3.0266 0.8546 0.9604 0.8546 0.9604 2.3806 0 0.7529 -0.1746 1.2818 -0.1455 0.5291 -0.4657 0.8953 -0.291 0.3459 -0.7276 0.5697 -0.4365 0.2238 -0.9604 0.3663 0.7567 0.59 1.135 2.5231 0.4074 1.9533 1.2805 2.5434 H 9.4115 q -0.7567 -0.6104 -1.0476 -2.462 -0.3201 -1.8923 -1.2223 -2.4009 h -0.6694 z"
     id="text1"
     style="font-size:15.8027px;font-family:Pakenham;-inkscape-font-specification:'Pakenham, Normal';letter-spacing:0px;word-spacing:0px;stroke-width:0.9346"
     aria-label="R" />
</svg>
