<?xml version="1.0" encoding="UTF-8" standalone="no"?>
<svg
   height="24px"
   viewBox="0 0 32 32"
   width="24px"
   fill="#000000"
   version="1.1"
   id="svg1"
   sodipodi:docname="addon-symbolic.svg"
   inkscape:version="1.4.3 (0d15f75042, 2025-12-25)"
   xmlns:inkscape="http://www.inkscape.org/namespaces/inkscape"
   xmlns:sodipodi="http://sodipodi.sourceforge.net/DTD/sodipodi-0.dtd"
   xmlns="http://www.w3.org/2000/svg"
   xmlns:svg="http://www.w3.org/2000/svg">
  <defs
     id="defs1" />
  <sodipodi:namedview
     id="namedview1"
     pagecolor="#ffffff"
     bordercolor="#000000"
     borderopacity="0.25"
     inkscape:showpageshadow="2"
     inkscape:pageopacity="0.0"
     inkscape:pagecheckerboard="0"
     inkscape:deskcolor="#d1d1d1"
     inkscape:zoom="36.916667"
     inkscape:cx="11.986456"
     inkscape:cy="11.986456"
     inkscape:window-width="3291"
     inkscape:window-height="1701"
     inkscape:window-x="50"
     inkscape:window-y="82"
     inkscape:window-maximized="0"
     inkscape:current-layer="svg1" />
  <path
     d="M 11.7333 28 H 6.6667 q -1.1 0 -1.8833 -0.7833 T 4 25.3333 v -5.0667 q 1.6 0 2.8 -1.0167 t 1.2 -2.5833 q 0 -1.5667 -1.2 -2.5833 T 4 13.0667 v -5.0667 q 0 -1.1 0.7833 -1.8833 T 6.6667 5.3333 h 5.3333 q 0 -1.4 0.9667 -2.3667 t 2.3667 -0.9667 q 1.4 0 2.3667 0.9667 t 0.9667 2.3667 h 5.3333 q 1.1 0 1.8833 0.7833 T 26.6667 8 v 5.3333 q 1.4 0 2.3667 0.9667 t 0.9667 2.3667 q 0 1.4 -0.9667 2.3667 t -2.3667 0.9667 v 5.3333 q 0 1.1 -0.7833 1.8833 T 24 28 H 18.9333 q 0 -1.6667 -1.05 -2.8333 T 15.3333 24 q -1.5 0 -2.55 1.1667 T 11.7333 28 Z m -5.0667 -2.6667 h 2.8333 q 0.8 -2.2 2.5667 -3.1 t 3.2667 -0.9 q 1.5 0 3.2667 0.9 t 2.5667 3.1 h 2.8333 v -8 h 2.6667 q 0.2667 0 0.4667 -0.2 t 0.2 -0.4667 q 0 -0.2667 -0.2 -0.4667 t -0.4667 -0.2 h -2.6667 v -8 H 16 v -2.6667 q 0 -0.2667 -0.2 -0.4667 t -0.4667 -0.2 q -0.2667 0 -0.4667 0.2 t -0.2 0.4667 v 2.6667 H 6.6667 v 2.9333 q 1.8 0.6667 2.9 2.2333 t 1.1 3.5 q 0 1.9 -1.1 3.4667 t -2.9 2.2667 v 2.9333 Z m 8.6667 -8.6667 Z"
     id="path1" />
</svg>
