<?xml version="1.0" encoding="UTF-8" standalone="no"?>
<svg
   height="24px"
   viewBox="0 0 24 24"
   width="24px"
   fill="#000000"
   version="1.1"
   id="svg1"
   sodipodi:docname="addon-symbolic.svg"
   inkscape:version="1.4.3 (0d15f75042, 2025-12-25)"
   xmlns:inkscape="http://www.inkscape.org/namespaces/inkscape"
   xmlns:sodipodi="http://sodipodi.sourceforge.net/DTD/sodipodi-0.dtd"
   xmlns="http://www.w3.org/2000/svg"
   xmlns:svg="http://www.w3.org/2000/svg">
  <defs
     id="defs1" />
  <sodipodi:namedview
     id="namedview1"
     pagecolor="#ffffff"
     bordercolor="#000000"
     borderopacity="0.25"
     inkscape:showpageshadow="2"
     inkscape:pageopacity="0.0"
     inkscape:pagecheckerboard="0"
     inkscape:deskcolor="#d1d1d1"
     inkscape:zoom="36.916667"
     inkscape:cx="11.986456"
     inkscape:cy="11.986456"
     inkscape:window-width="3291"
     inkscape:window-height="1701"
     inkscape:window-x="50"
     inkscape:window-y="82"
     inkscape:window-maximized="0"
     inkscape:current-layer="svg1" />
  <path
     d="M 8.7999 21 H 5 q -0.825 0 -1.4124 -0.5874 T 3 19.0001 v -3.7999 q 1.2 0 2.1 -0.7624 t 0.9 -1.9374 q 0 -1.1749 -0.9 -1.9374 T 3 9.8001 v -3.7999 q 0 -0.825 0.5874 -1.4124 T 5 4 h 4 q 0 -1.05 0.7251 -1.775 t 1.775 -0.7251 q 1.05 0 1.775 0.7251 t 0.7251 1.775 h 4 q 0.825 0 1.4124 0.5874 T 19.9999 6 v 4 q 1.05 0 1.775 0.7251 t 0.7251 1.775 q 0 1.05 -0.7251 1.775 t -1.775 0.7251 v 4 q 0 0.825 -0.5874 1.4124 T 18 21 H 14.1999 q 0 -1.2501 -0.7875 -2.1249 T 11.4999 18 q -1.125 0 -1.9125 0.8751 T 8.7999 21 Z m -3.7999 -2.0001 h 2.1249 q 0.6 -1.65 1.925 -2.325 t 2.4501 -0.675 q 1.125 0 2.4501 0.675 t 1.925 2.325 h 2.1249 v -6 h 2.0001 q 0.2 0 0.3501 -0.15 t 0.15 -0.3501 q 0 -0.2 -0.15 -0.3501 t -0.3501 -0.15 h -2.0001 v -6 H 12 v -2.0001 q 0 -0.2 -0.15 -0.3501 t -0.3501 -0.15 q -0.2 0 -0.3501 0.15 t -0.15 0.3501 v 2.0001 H 5 v 2.2001 q 1.35 0.5 2.175 1.6749 t 0.825 2.625 q 0 1.425 -0.825 2.6 t -2.175 1.7001 v 2.2001 Z m 6.5001 -6.5001 Z"
     id="path1" />
</svg>
