<?xml version="1.0" encoding="UTF-8" standalone="no"?>
<svg
   height="24px"
   viewBox="0 0 32 32"
   width="24px"
   fill="#000000"
   version="1.1"
   id="svg1"
   sodipodi:docname="ai-symbolic.svg"
   inkscape:version="1.4.3 (0d15f75042, 2025-12-25)"
   xmlns:inkscape="http://www.inkscape.org/namespaces/inkscape"
   xmlns:sodipodi="http://sodipodi.sourceforge.net/DTD/sodipodi-0.dtd"
   xmlns="http://www.w3.org/2000/svg"
   xmlns:svg="http://www.w3.org/2000/svg">
  <defs
     id="defs1" />
  <sodipodi:namedview
     id="namedview1"
     pagecolor="#ffffff"
     bordercolor="#000000"
     borderopacity="0.25"
     inkscape:showpageshadow="2"
     inkscape:pageopacity="0.0"
     inkscape:pagecheckerboard="0"
     inkscape:deskcolor="#d1d1d1"
     inkscape:zoom="36.916667"
     inkscape:cx="11.986456"
     inkscape:cy="11.986456"
     inkscape:window-width="2663"
     inkscape:window-height="1387"
     inkscape:window-x="150"
     inkscape:window-y="182"
     inkscape:window-maximized="0"
     inkscape:current-layer="svg1" />
  <path
     d="M 13 28 q -1.7 0 -2.9333 -1.1833 T 8.6667 23.9667 q -2 -0.2667 -3.3333 -1.7667 t -1.3333 -3.5333 q 0 -0.7 0.1833 -1.3833 T 4.7333 16 q -0.3667 -0.6 -0.55 -1.2667 t -0.1833 -1.4 q 0 -2.0333 1.3333 -3.5167 t 3.3 -1.75 q 0.1 -1.7 1.3667 -2.8833 t 3 -1.1833 q 0.8667 0 1.6167 0.3333 t 1.3833 0.9 q 0.6 -0.5667 1.3667 -0.9 t 1.6333 -0.3333 q 1.7333 0 2.9833 1.1667 t 1.35 2.8667 q 1.9667 0.2667 3.3167 1.7667 T 28 13.3333 q 0 0.7333 -0.1833 1.4 T 27.2667 16 q 0.3667 0.6 0.55 1.2833 T 28 18.6667 q 0 2.0667 -1.35 3.55 T 23.3 23.9667 q -0.1667 1.6667 -1.3833 2.85 T 19 28 q -0.8333 0 -1.6167 -0.3167 T 16 26.8 q -0.6333 0.5667 -1.4 0.8833 t -1.6 0.3167 Z m 4.3333 -19.6667 v 15.3333 q 0 0.7 0.4833 1.1833 T 19 25.3333 q 0.6667 0 1.15 -0.5333 t 0.5167 -1.2 q -0.7 -0.2667 -1.2833 -0.7167 T 18.3333 21.8 q -0.3333 -0.4667 -0.25 -1 t 0.55 -0.8667 q 0.4667 -0.3333 1 -0.25 t 0.8667 0.55 q 0.3667 0.5333 0.9333 0.8167 t 1.2333 0.2833 q 1.1 0 1.8833 -0.7833 T 25.3333 18.6667 q 0 -0.1667 -0.0167 -0.3333 t -0.0833 -0.3333 q -0.5667 0.3333 -1.2167 0.5 t -1.35 0.1667 q -0.5667 0 -0.95 -0.3833 T 21.3333 17.3333 q 0 -0.5667 0.3833 -0.95 T 22.6667 16 q 1.1 0 1.8833 -0.7833 T 25.3333 13.3333 q 0 -1.1 -0.7833 -1.8667 T 22.6667 10.6667 q -0.3667 0.6 -0.95 1.05 T 20.4333 12.4333 q -0.5333 0.2 -1.0333 -0.0333 t -0.6667 -0.7667 q -0.1667 -0.5333 0.05 -1.0333 t 0.75 -0.6667 q 0.5 -0.1667 0.8167 -0.6 t 0.3167 -1 q 0 -0.7 -0.4833 -1.1833 T 19 6.6667 q -0.7 0 -1.1833 0.4833 T 17.3333 8.3333 Z m -2.6667 15.3333 v -15.3333 q 0 -0.7 -0.4833 -1.1833 T 13 6.6667 q -0.7 0 -1.1833 0.4833 T 11.3333 8.3333 q 0 0.5333 0.3 0.9833 t 0.8 0.6167 q 0.5333 0.1667 0.7667 0.6667 t 0.0667 1.0333 q -0.2 0.5333 -0.7 0.7667 t -1.0333 0.0333 q -0.7 -0.2667 -1.2833 -0.7167 T 9.3 10.6667 q -1.0667 0.0333 -1.85 0.8167 T 6.6667 13.3333 q 0 1.1 0.7833 1.8833 T 9.3333 16 q 0.5667 0 0.95 0.3833 T 10.6667 17.3333 q 0 0.5667 -0.3833 0.95 T 9.3333 18.6667 q -0.7 0 -1.35 -0.1667 T 6.7667 18 q -0.0667 0.1667 -0.0833 0.3333 t -0.0167 0.3333 q 0 1.1 0.7833 1.8833 T 9.3333 21.3333 q 0.6667 0 1.2333 -0.2833 t 0.9333 -0.8167 q 0.3333 -0.4667 0.8667 -0.55 t 1 0.25 q 0.4667 0.3333 0.55 0.8667 t -0.25 1 q -0.4667 0.6333 -1.0667 1.1 t -1.3 0.7333 q 0.0333 0.6667 0.5333 1.1833 t 1.1667 0.5167 q 0.7 0 1.1833 -0.4833 T 14.6667 23.6667 Z m 1.3333 -7.6667 Z"
     id="path1" />
</svg>
