<?xml version="1.0" encoding="UTF-8" standalone="no"?>
<svg
   height="24px"
   viewBox="0 0 16 16"
   width="24px"
   fill="#000000"
   version="1.1"
   id="svg1"
   sodipodi:docname="ai-symbolic.svg"
   inkscape:version="1.4.3 (0d15f75042, 2025-12-25)"
   xmlns:inkscape="http://www.inkscape.org/namespaces/inkscape"
   xmlns:sodipodi="http://sodipodi.sourceforge.net/DTD/sodipodi-0.dtd"
   xmlns="http://www.w3.org/2000/svg"
   xmlns:svg="http://www.w3.org/2000/svg">
  <defs
     id="defs1" />
  <sodipodi:namedview
     id="namedview1"
     pagecolor="#ffffff"
     bordercolor="#000000"
     borderopacity="0.25"
     inkscape:showpageshadow="2"
     inkscape:pageopacity="0.0"
     inkscape:pagecheckerboard="0"
     inkscape:deskcolor="#d1d1d1"
     inkscape:zoom="36.916667"
     inkscape:cx="11.986456"
     inkscape:cy="11.986456"
     inkscape:window-width="2663"
     inkscape:window-height="1387"
     inkscape:window-x="150"
     inkscape:window-y="182"
     inkscape:window-maximized="0"
     inkscape:current-layer="svg1" />
  <path
     d="M 6.5 14 q -0.85 0 -1.4667 -0.5917 T 4.3334 11.9833 q -1 -0.1333 -1.6666 -0.8833 t -0.6666 -1.7667 q 0 -0.35 0.0916 -0.6916 T 2.3666 8 q -0.1834 -0.3 -0.275 -0.6333 t -0.0916 -0.7 q 0 -1.0167 0.6666 -1.7584 t 1.65 -0.875 q 0.05 -0.85 0.6834 -1.4417 t 1.5 -0.5917 q 0.4334 0 0.8084 0.1666 t 0.6916 0.45 q 0.3 -0.2833 0.6834 -0.45 t 0.8166 -0.1666 q 0.8667 0 1.4916 0.5834 t 0.675 1.4333 q 0.9833 0.1333 1.6583 0.8833 T 14 6.6666 q 0 0.3666 -0.0916 0.7 T 13.6334 8 q 0.1834 0.3 0.275 0.6417 T 14 9.3333 q 0 1.0333 -0.675 1.775 T 11.65 11.9833 q -0.0833 0.8334 -0.6916 1.425 T 9.5 14 q -0.4167 0 -0.8084 -0.1583 T 8 13.4 q -0.3166 0.2833 -0.7 0.4416 t -0.8 0.1583 Z m 2.1667 -9.8333 v 7.6666 q 0 0.35 0.2417 0.5917 T 9.5 12.6667 q 0.3333 0 0.575 -0.2666 t 0.2584 -0.6 q -0.35 -0.1333 -0.6417 -0.3584 T 9.1667 10.9 q -0.1666 -0.2334 -0.125 -0.5 t 0.275 -0.4334 q 0.2334 -0.1666 0.5 -0.125 t 0.4334 0.275 q 0.1834 0.2666 0.4667 0.4083 t 0.6167 0.1416 q 0.55 0 0.9416 -0.3916 T 12.6667 9.3333 q 0 -0.0833 -0.0083 -0.1666 t -0.0416 -0.1666 q -0.2833 0.1666 -0.6083 0.25 t -0.675 0.0833 q -0.2833 0 -0.475 -0.1916 T 10.6667 8.6667 q 0 -0.2833 0.1916 -0.475 T 11.3333 8 q 0.55 0 0.9416 -0.3916 T 12.6667 6.6666 q 0 -0.55 -0.3916 -0.9334 T 11.3333 5.3334 q -0.1834 0.3 -0.475 0.525 T 10.2166 6.2166 q -0.2666 0.1 -0.5167 -0.0167 t -0.3333 -0.3834 q -0.0833 -0.2666 0.025 -0.5167 t 0.375 -0.3333 q 0.25 -0.0833 0.4083 -0.3 t 0.1583 -0.5 q 0 -0.35 -0.2417 -0.5917 T 9.5 3.3333 q -0.35 0 -0.5917 0.2417 T 8.6667 4.1666 Z m -1.3334 7.6666 v -7.6666 q 0 -0.35 -0.2417 -0.5917 T 6.5 3.3333 q -0.35 0 -0.5917 0.2417 T 5.6666 4.1666 q 0 0.2666 0.15 0.4916 t 0.4 0.3084 q 0.2666 0.0833 0.3834 0.3333 t 0.0333 0.5167 q -0.1 0.2666 -0.35 0.3834 t -0.5167 0.0167 q -0.35 -0.1333 -0.6417 -0.3584 T 4.65 5.3334 q -0.5333 0.0167 -0.925 0.4083 T 3.3333 6.6666 q 0 0.55 0.3916 0.9416 T 4.6666 8 q 0.2833 0 0.475 0.1916 T 5.3334 8.6667 q 0 0.2833 -0.1916 0.475 T 4.6666 9.3333 q -0.35 0 -0.675 -0.0833 T 3.3834 9 q -0.0333 0.0833 -0.0416 0.1666 t -0.0083 0.1666 q 0 0.55 0.3916 0.9416 T 4.6666 10.6667 q 0.3333 0 0.6167 -0.1416 t 0.4667 -0.4083 q 0.1666 -0.2334 0.4334 -0.275 t 0.5 0.125 q 0.2334 0.1666 0.275 0.4334 t -0.125 0.5 q -0.2334 0.3166 -0.5333 0.55 t -0.65 0.3666 q 0.0167 0.3333 0.2666 0.5917 t 0.5834 0.2584 q 0.35 0 0.5917 -0.2417 T 7.3334 11.8333 Z m 0.6666 -3.8333 Z"
     id="path1" />
</svg>
