<?xml version="1.0" encoding="UTF-8" standalone="no"?>
<svg
   height="24px"
   viewBox="0 0 24 24"
   width="24px"
   fill="#000000"
   version="1.1"
   id="svg1"
   sodipodi:docname="ai-symbolic.svg"
   inkscape:version="1.4.3 (0d15f75042, 2025-12-25)"
   xmlns:inkscape="http://www.inkscape.org/namespaces/inkscape"
   xmlns:sodipodi="http://sodipodi.sourceforge.net/DTD/sodipodi-0.dtd"
   xmlns="http://www.w3.org/2000/svg"
   xmlns:svg="http://www.w3.org/2000/svg">
  <defs
     id="defs1" />
  <sodipodi:namedview
     id="namedview1"
     pagecolor="#ffffff"
     bordercolor="#000000"
     borderopacity="0.25"
     inkscape:showpageshadow="2"
     inkscape:pageopacity="0.0"
     inkscape:pagecheckerboard="0"
     inkscape:deskcolor="#d1d1d1"
     inkscape:zoom="36.916667"
     inkscape:cx="11.986456"
     inkscape:cy="11.986456"
     inkscape:window-width="2663"
     inkscape:window-height="1387"
     inkscape:window-x="150"
     inkscape:window-y="182"
     inkscape:window-maximized="0"
     inkscape:current-layer="svg1" />
  <path
     d="M 9.75 21 q -1.275 0 -2.2001 -0.8876 T 6.5001 17.9749 q -1.5 -0.2 -2.4999 -1.3249 t -0.9999 -2.65 q 0 -0.525 0.1374 -1.0374 T 3.5499 12 q -0.2751 -0.45 -0.4125 -0.9499 t -0.1374 -1.05 q 0 -1.525 0.9999 -2.6376 t 2.475 -1.3125 q 0.075 -1.275 1.0251 -2.1625 t 2.25 -0.8876 q 0.6501 0 1.2126 0.2499 t 1.0374 0.675 q 0.45 -0.4249 1.0251 -0.675 t 1.2249 -0.2499 q 1.3001 0 2.2374 0.8751 t 1.0125 2.15 q 1.4749 0.2 2.4874 1.3249 T 21 9.9999 q 0 0.5499 -0.1374 1.05 T 20.4501 12 q 0.2751 0.45 0.4125 0.9626 T 21 13.9999 q 0 1.55 -1.0125 2.6625 T 17.475 17.9749 q -0.125 1.2501 -1.0374 2.1375 T 14.25 21 q -0.625 0 -1.2126 -0.2374 T 12 20.1 q -0.4749 0.4249 -1.05 0.6624 t -1.2 0.2374 Z m 3.25 -14.7499 v 11.4999 q 0 0.525 0.3625 0.8876 T 14.25 19.0001 q 0.5 0 0.8625 -0.3999 t 0.3876 -0.9 q -0.525 -0.2 -0.9626 -0.5376 T 13.7501 16.35 q -0.2499 -0.3501 -0.1875 -0.75 t 0.4125 -0.6501 q 0.3501 -0.2499 0.75 -0.1875 t 0.6501 0.4125 q 0.2751 0.3999 0.7001 0.6124 t 0.9251 0.2124 q 0.825 0 1.4124 -0.5874 T 19.0001 13.9999 q 0 -0.125 -0.0124 -0.2499 t -0.0624 -0.2499 q -0.4249 0.2499 -0.9124 0.375 t -1.0125 0.125 q -0.4249 0 -0.7125 -0.2874 T 16.0001 13.0001 q 0 -0.4249 0.2874 -0.7125 T 16.9999 12 q 0.825 0 1.4124 -0.5874 T 19.0001 9.9999 q 0 -0.825 -0.5874 -1.4001 T 16.9999 8.0001 q -0.2751 0.45 -0.7125 0.7875 T 15.3249 9.3249 q -0.3999 0.15 -0.7751 -0.025 t -0.5 -0.5751 q -0.125 -0.3999 0.0375 -0.7751 t 0.5625 -0.5 q 0.375 -0.125 0.6124 -0.45 t 0.2374 -0.75 q 0 -0.525 -0.3625 -0.8876 T 14.25 5 q -0.525 0 -0.8876 0.3625 T 13.0001 6.2499 Z m -2.0001 11.4999 v -11.4999 q 0 -0.525 -0.3625 -0.8876 T 9.75 5 q -0.525 0 -0.8876 0.3625 T 8.4999 6.2499 q 0 0.3999 0.225 0.7374 t 0.6 0.4626 q 0.3999 0.125 0.5751 0.5 t 0.05 0.7751 q -0.15 0.3999 -0.525 0.5751 t -0.7751 0.025 q -0.525 -0.2 -0.9626 -0.5376 T 6.975 8.0001 q -0.7999 0.025 -1.3875 0.6124 T 5 9.9999 q 0 0.825 0.5874 1.4124 T 6.9999 12 q 0.4249 0 0.7125 0.2874 T 8.0001 13.0001 q 0 0.4249 -0.2874 0.7125 T 6.9999 13.9999 q -0.525 0 -1.0125 -0.125 T 5.0751 13.5 q -0.05 0.125 -0.0624 0.2499 t -0.0124 0.2499 q 0 0.825 0.5874 1.4124 T 6.9999 16.0001 q 0.5 0 0.9251 -0.2124 t 0.7001 -0.6124 q 0.2499 -0.3501 0.6501 -0.4125 t 0.75 0.1875 q 0.3501 0.2499 0.4125 0.6501 t -0.1875 0.75 q -0.3501 0.4749 -0.7999 0.825 t -0.975 0.5499 q 0.025 0.5 0.3999 0.8876 t 0.8751 0.3876 q 0.525 0 0.8876 -0.3625 T 11.0001 17.7499 Z m 0.9999 -5.75 Z"
     id="path1" />
</svg>
