<?xml version="1.0" encoding="UTF-8" standalone="no"?>
<svg
   height="24px"
   viewBox="0 0 16 16"
   width="24px"
   fill="#000000"
   version="1.1"
   id="svg1"
   xmlns="http://www.w3.org/2000/svg"
   xmlns:svg="http://www.w3.org/2000/svg">
  <defs
     id="defs1" />
  <path
     d="M 3.3333 13.3333 v -1.3334 h 1.0667 l 1.3167 -4.3834 q 0.1333 -0.4334 0.4916 -0.6916 T 7 6.6666 h 2 q 0.4334 0 0.7916 0.2584 T 10.2834 7.6166 l 1.3167 4.3834 h 1.0667 v 1.3334 H 3.3333 Z m 2.4667 -1.3334 h 4.4 l -1.2 -4 H 7 l -1.2 4 Z m 1.5333 -6.6666 v -3.3333 h 1.3334 v 3.3333 h -1.3334 Z m 3.9667 1.65 -0.95 -0.95 2.3666 -2.35 0.9334 0.9334 -2.35 2.3666 Z m 0.7 3.0166 v -1.3334 h 3.3333 v 1.3334 H 12 Z M 4.7 6.9833 2.35 4.6166 l 0.9334 -0.9334 2.3666 2.35 -0.95 0.95 Z M 0.6666 10 v -1.3334 h 3.3333 v 1.3334 H 0.6666 Z m 7.3334 2 Z"
     id="path1" />
</svg>
