<?xml version="1.0" encoding="UTF-8" standalone="no"?>
<svg
   height="24px"
   viewBox="0 0 24 24"
   width="24px"
   fill="#000000"
   version="1.1"
   id="svg1"
   xmlns="http://www.w3.org/2000/svg"
   xmlns:svg="http://www.w3.org/2000/svg">
  <defs
     id="defs1" />
  <path
     d="M 5 19.9999 v -2.0001 h 1.6 l 1.975 -6.5751 q 0.2 -0.6501 0.7374 -1.0374 T 10.5 9.9999 h 3 q 0.6501 0 1.1874 0.3876 T 15.4251 11.4249 l 1.975 6.5751 h 1.6 v 2.0001 H 5 Z m 3.7001 -2.0001 h 6.6 l -1.8 -6 H 10.5 l -1.8 6 Z m 2.2999 -9.9999 v -5 h 2.0001 v 5 h -2.0001 Z m 5.9501 2.475 -1.425 -1.425 3.5499 -3.525 1.4001 1.4001 -3.525 3.5499 Z m 1.05 4.5249 v -2.0001 h 5 v 2.0001 H 18 Z M 7.05 10.4749 3.525 6.9249 l 1.4001 -1.4001 3.5499 3.525 -1.425 1.425 Z M 0.9999 15 v -2.0001 h 5 v 2.0001 H 0.9999 Z m 11.0001 3 Z"
     id="path1" />
</svg>
