<?xml version="1.0" encoding="UTF-8" standalone="no"?>
<svg
   height="24px"
   viewBox="0 0 32 32"
   width="24px"
   fill="#000000"
   version="1.1"
   id="svg1"
   xmlns="http://www.w3.org/2000/svg"
   xmlns:svg="http://www.w3.org/2000/svg">
  <defs
     id="defs1" />
  <path
     d="M 6.6667 26.6667 v -2.6667 h 2.1333 l 2.6333 -8.7667 q 0.2667 -0.8667 0.9833 -1.3833 T 14 13.3333 h 4 q 0.8667 0 1.5833 0.5167 T 20.5667 15.2333 l 2.6333 8.7667 h 2.1333 v 2.6667 H 6.6667 Z m 4.9333 -2.6667 h 8.8 l -2.4 -8 H 14 l -2.4 8 Z m 3.0667 -13.3333 v -6.6667 h 2.6667 v 6.6667 h -2.6667 Z m 7.9333 3.3 -1.9 -1.9 4.7333 -4.7 1.8667 1.8667 -4.7 4.7333 Z m 1.4 6.0333 v -2.6667 h 6.6667 v 2.6667 H 24 Z M 9.4 13.9667 4.7 9.2333 l 1.8667 -1.8667 4.7333 4.7 -1.9 1.9 Z M 1.3333 20 v -2.6667 h 6.6667 v 2.6667 H 1.3333 Z m 14.6667 4 Z"
     id="path1" />
</svg>
