<?xml version="1.0" encoding="UTF-8" standalone="no"?>
<svg
   height="24px"
   viewBox="0 0 24 24"
   width="24px"
   fill="#000000"
   version="1.1"
   id="svg1"
   xmlns="http://www.w3.org/2000/svg"
   xmlns:svg="http://www.w3.org/2000/svg">
  <defs
     id="defs1" />
  <path
     d="m 4.4 21 -1.4001 -1.4001 7.5251 -7.5501 -4.5249 -1.125 4.95 -3.075 -0.4249 -5.85 4.4751 3.7749 5.4 -2.2001 -2.175 5.4249 3.7749 4.4501 -5.85 -0.3999 -3.1 4.95 -1.125 -4.5249 -7.5251 7.5251 Z m 0.6 -13.0001 -2.0001 -2.0001 2.0001 -2.0001 2.0001 2.0001 -2.0001 2.0001 Z m 8.8749 4.9249 1.2 -1.975 2.325 0.175 -1.5 -1.775 0.8751 -2.15 -2.15 0.8751 -1.775 -1.4749 0.175 2.2999 -1.975 1.2249 2.25 0.5499 0.5751 2.25 Z m 4.125 8.0751 -2.0001 -2.0001 2.0001 -2.0001 2.0001 2.0001 -2.0001 2.0001 Z M 14.2249 9.75 Z"
     id="path1" />
</svg>
