<?xml version="1.0" encoding="UTF-8" standalone="no"?>
<svg
   height="24px"
   viewBox="0 0 16 16"
   width="24px"
   fill="#000000"
   version="1.1"
   id="svg1"
   xmlns="http://www.w3.org/2000/svg"
   xmlns:svg="http://www.w3.org/2000/svg">
  <defs
     id="defs1" />
  <path
     d="m 2.9333 14 -0.9334 -0.9334 5.0167 -5.0334 -3.0166 -0.75 3.3 -2.05 -0.2833 -3.9 2.9834 2.5166 3.6 -1.4667 -1.45 3.6166 2.5166 2.9667 -3.9 -0.2666 -2.0667 3.3 -0.75 -3.0166 -5.0167 5.0167 Z m 0.4 -8.6667 -1.3334 -1.3334 1.3334 -1.3334 1.3334 1.3334 -1.3334 1.3334 Z m 5.9166 3.2833 0.8 -1.3167 1.55 0.1167 -1 -1.1833 0.5834 -1.4333 -1.4333 0.5834 -1.1833 -0.9833 0.1167 1.5333 -1.3167 0.8166 1.5 0.3666 0.3834 1.5 Z m 2.75 5.3834 -1.3334 -1.3334 1.3334 -1.3334 1.3334 1.3334 -1.3334 1.3334 Z M 9.4833 6.5 Z"
     id="path1" />
</svg>
