<?xml version="1.0" encoding="UTF-8" standalone="no"?>
<svg
   height="24px"
   viewBox="0 0 32 32"
   width="24px"
   fill="#000000"
   version="1.1"
   id="svg1"
   xmlns="http://www.w3.org/2000/svg"
   xmlns:svg="http://www.w3.org/2000/svg">
  <defs
     id="defs1" />
  <path
     d="m 5.8667 28 -1.8667 -1.8667 10.0333 -10.0667 -6.0333 -1.5 6.6 -4.1 -0.5667 -7.8 5.9667 5.0333 7.2 -2.9333 -2.9 7.2333 5.0333 5.9333 -7.8 -0.5333 -4.1333 6.6 -1.5 -6.0333 -10.0333 10.0333 Z m 0.8 -17.3333 -2.6667 -2.6667 2.6667 -2.6667 2.6667 2.6667 -2.6667 2.6667 Z m 11.8333 6.5667 1.6 -2.6333 3.1 0.2333 -2 -2.3667 1.1667 -2.8667 -2.8667 1.1667 -2.3667 -1.9667 0.2333 3.0667 -2.6333 1.6333 3 0.7333 0.7667 3 Z m 5.5 10.7667 -2.6667 -2.6667 2.6667 -2.6667 2.6667 2.6667 -2.6667 2.6667 Z M 18.9667 13 Z"
     id="path1" />
</svg>
