<?xml version="1.0" encoding="UTF-8" standalone="no"?>
<svg
   height="24px"
   viewBox="0 0 16 16"
   width="24px"
   fill="#000000"
   version="1.1"
   id="svg1"
   sodipodi:docname="batch-symbolic.svg"
   inkscape:version="1.4.2 (ebf0e940d0, 2025-05-08)"
   xmlns:inkscape="http://www.inkscape.org/namespaces/inkscape"
   xmlns:sodipodi="http://sodipodi.sourceforge.net/DTD/sodipodi-0.dtd"
   xmlns="http://www.w3.org/2000/svg"
   xmlns:svg="http://www.w3.org/2000/svg">
  <defs
     id="defs1" />
  <sodipodi:namedview
     id="namedview1"
     pagecolor="#ffffff"
     bordercolor="#000000"
     borderopacity="0.25"
     inkscape:showpageshadow="2"
     inkscape:pageopacity="0.0"
     inkscape:pagecheckerboard="0"
     inkscape:deskcolor="#d1d1d1"
     inkscape:zoom="36.916667"
     inkscape:cx="12"
     inkscape:cy="12"
     inkscape:window-width="3840"
     inkscape:window-height="2020"
     inkscape:window-x="0"
     inkscape:window-y="32"
     inkscape:window-maximized="1"
     inkscape:current-layer="svg1" />
  <path
     d="m 4.6666 14.6667 c -0.3666 0 -0.6805 -0.1305 -0.9416 -0.3916 C 3.4639 14.0139 3.3333 13.7 3.3333 13.3333 v -6.6666 c 0 -0.3666 0.1305 -0.6805 0.3916 -0.9416 0.2611 -0.2611 0.575 -0.3916 0.9416 -0.3916 h 6.6666 c 0.3666 0 0.6805 0.1305 0.9416 0.3916 0.2611 0.2611 0.3916 0.575 0.3916 0.9416 v 6.6666 c 0 0.3666 -0.1305 0.6805 -0.3916 0.9416 C 12.0139 14.5361 11.7 14.6667 11.3333 14.6667 Z m 0 -1.3334 H 11.3333 V 6.6666 H 4.6666 Z m -0.6666 -9 c 0 -0.2778 0.0972 -0.5139 0.2917 -0.7084 0.1945 -0.1945 0.4305 -0.2917 0.7084 -0.2917 h 6 c 0.2778 0 0.5139 0.0972 0.7084 0.2917 0.1945 0.1945 0.2917 0.4305 0.2917 0.7084 z m 0.6666 -2 c 0 -0.2778 0.0972 -0.5139 0.2917 -0.7084 0.1945 -0.1945 0.4305 -0.2917 0.7084 -0.2917 h 4.6666 c 0.2778 0 0.5139 0.0972 0.7084 0.2917 0.1945 0.1945 0.2917 0.4305 0.2917 0.7084 z"
     id="path1"
     sodipodi:nodetypes="sssssssssssssccccccsssscccsssscc" />
</svg>
