<?xml version="1.0" encoding="UTF-8" standalone="no"?>
<svg
   height="24px"
   viewBox="0 0 24 24"
   width="24px"
   fill="#000000"
   version="1.1"
   id="svg1"
   sodipodi:docname="batch-symbolic.svg"
   inkscape:version="1.4.2 (ebf0e940d0, 2025-05-08)"
   xmlns:inkscape="http://www.inkscape.org/namespaces/inkscape"
   xmlns:sodipodi="http://sodipodi.sourceforge.net/DTD/sodipodi-0.dtd"
   xmlns="http://www.w3.org/2000/svg"
   xmlns:svg="http://www.w3.org/2000/svg">
  <defs
     id="defs1" />
  <sodipodi:namedview
     id="namedview1"
     pagecolor="#ffffff"
     bordercolor="#000000"
     borderopacity="0.25"
     inkscape:showpageshadow="2"
     inkscape:pageopacity="0.0"
     inkscape:pagecheckerboard="0"
     inkscape:deskcolor="#d1d1d1"
     inkscape:zoom="36.916667"
     inkscape:cx="12"
     inkscape:cy="12"
     inkscape:window-width="3840"
     inkscape:window-height="2020"
     inkscape:window-x="0"
     inkscape:window-y="32"
     inkscape:window-maximized="1"
     inkscape:current-layer="svg1" />
  <path
     d="m 6.9999 22.0001 c -0.5499 0 -1.0208 -0.1958 -1.4124 -0.5874 C 5.1959 21.0208 5 20.55 5 19.9999 v -9.9999 c 0 -0.5499 0.1958 -1.0208 0.5874 -1.4124 0.3916 -0.3916 0.8625 -0.5874 1.4124 -0.5874 h 9.9999 c 0.5499 0 1.0208 0.1958 1.4124 0.5874 0.3916 0.3916 0.5874 0.8625 0.5874 1.4124 v 9.9999 c 0 0.5499 -0.1958 1.0208 -0.5874 1.4124 C 18.0208 21.8041 17.55 22.0001 16.9999 22.0001 Z m 0 -2.0001 H 16.9999 V 9.9999 H 6.9999 Z m -0.9999 -13.5 c 0 -0.4167 0.1458 -0.7709 0.4375 -1.0626 0.2918 -0.2918 0.6458 -0.4375 1.0626 -0.4375 h 9 c 0.4167 0 0.7709 0.1458 1.0626 0.4375 0.2918 0.2918 0.4375 0.6458 0.4375 1.0626 z m 0.9999 -3 c 0 -0.4167 0.1458 -0.7709 0.4375 -1.0626 0.2918 -0.2918 0.6458 -0.4375 1.0626 -0.4375 h 6.9999 c 0.4167 0 0.7709 0.1458 1.0626 0.4375 0.2918 0.2918 0.4375 0.6458 0.4375 1.0626 z"
     id="path1"
     sodipodi:nodetypes="sssssssssssssccccccsssscccsssscc" />
</svg>
