<?xml version="1.0" encoding="UTF-8" standalone="no"?>
<svg
   height="24px"
   viewBox="0 0 32 32"
   width="24px"
   fill="#000000"
   version="1.1"
   id="svg1"
   sodipodi:docname="batch-symbolic.svg"
   inkscape:version="1.4.2 (ebf0e940d0, 2025-05-08)"
   xmlns:inkscape="http://www.inkscape.org/namespaces/inkscape"
   xmlns:sodipodi="http://sodipodi.sourceforge.net/DTD/sodipodi-0.dtd"
   xmlns="http://www.w3.org/2000/svg"
   xmlns:svg="http://www.w3.org/2000/svg">
  <defs
     id="defs1" />
  <sodipodi:namedview
     id="namedview1"
     pagecolor="#ffffff"
     bordercolor="#000000"
     borderopacity="0.25"
     inkscape:showpageshadow="2"
     inkscape:pageopacity="0.0"
     inkscape:pagecheckerboard="0"
     inkscape:deskcolor="#d1d1d1"
     inkscape:zoom="36.916667"
     inkscape:cx="12"
     inkscape:cy="12"
     inkscape:window-width="3840"
     inkscape:window-height="2020"
     inkscape:window-x="0"
     inkscape:window-y="32"
     inkscape:window-maximized="1"
     inkscape:current-layer="svg1" />
  <path
     d="m 9.3333 29.3333 c -0.7333 0 -1.3611 -0.2611 -1.8833 -0.7833 C 6.9278 28.0278 6.6667 27.4 6.6667 26.6667 v -13.3333 c 0 -0.7333 0.2611 -1.3611 0.7833 -1.8833 0.5222 -0.5222 1.15 -0.7833 1.8833 -0.7833 h 13.3333 c 0.7333 0 1.3611 0.2611 1.8833 0.7833 0.5222 0.5222 0.7833 1.15 0.7833 1.8833 v 13.3333 c 0 0.7333 -0.2611 1.3611 -0.7833 1.8833 C 24.0278 29.0722 23.4 29.3333 22.6667 29.3333 Z m 0 -2.6667 H 22.6667 V 13.3333 H 9.3333 Z m -1.3333 -18 c 0 -0.5556 0.1944 -1.0278 0.5833 -1.4167 0.3889 -0.3889 0.8611 -0.5833 1.4167 -0.5833 h 12 c 0.5556 0 1.0278 0.1944 1.4167 0.5833 0.3889 0.3889 0.5833 0.8611 0.5833 1.4167 z m 1.3333 -4 c 0 -0.5556 0.1944 -1.0278 0.5833 -1.4167 0.3889 -0.3889 0.8611 -0.5833 1.4167 -0.5833 h 9.3333 c 0.5556 0 1.0278 0.1944 1.4167 0.5833 0.3889 0.3889 0.5833 0.8611 0.5833 1.4167 z"
     id="path1"
     sodipodi:nodetypes="sssssssssssssccccccsssscccsssscc" />
</svg>
