<?xml version="1.0" encoding="UTF-8" standalone="no"?>
<svg
   height="24px"
   viewBox="0 -960 960 960"
   width="24px"
   fill="#000000"
   version="1.1"
   id="svg1"
   sodipodi:docname="bottom-left-symbolic.svg"
   inkscape:version="1.4.3 (0d15f75042, 2025-12-25)"
   xmlns:inkscape="http://www.inkscape.org/namespaces/inkscape"
   xmlns:sodipodi="http://sodipodi.sourceforge.net/DTD/sodipodi-0.dtd"
   xmlns="http://www.w3.org/2000/svg"
   xmlns:svg="http://www.w3.org/2000/svg">
  <defs
     id="defs1" />
  <sodipodi:namedview
     id="namedview1"
     pagecolor="#ffffff"
     bordercolor="#000000"
     borderopacity="0.25"
     inkscape:showpageshadow="2"
     inkscape:pageopacity="0.0"
     inkscape:pagecheckerboard="0"
     inkscape:deskcolor="#d1d1d1"
     inkscape:zoom="36.916667"
     inkscape:cx="12"
     inkscape:cy="12"
     inkscape:window-width="3840"
     inkscape:window-height="2020"
     inkscape:window-x="0"
     inkscape:window-y="32"
     inkscape:window-maximized="1"
     inkscape:current-layer="svg1" />
  <path
     d="m 120,-840 h 80 v 640 h 640 v 80 H 200 q -33,0 -56.5,-23.5 Q 120,-167 120,-200 Z m 183.5,423.5 Q 327,-440 360,-440 q 33,0 56.5,23.5 23.5,23.5 23.5,56.5 0,33 -23.5,56.5 Q 393,-280 360,-280 327,-280 303.5,-303.5 280,-327 280,-360 q 0,-33 23.5,-56.5 z M 480,-760 h 80 v 144 l 224,-224 56,56 -224,224 h 144 v 80 H 480 Z"
     id="path1" />
</svg>
