<?xml version="1.0" encoding="UTF-8" standalone="no"?>
<svg
   height="24px"
   viewBox="0 0 16 16"
   width="24px"
   fill="#000000"
   version="1.1"
   id="svg1"
   sodipodi:docname="bottom-left-symbolic.svg"
   inkscape:version="1.4.3 (0d15f75042, 2025-12-25)"
   xmlns:inkscape="http://www.inkscape.org/namespaces/inkscape"
   xmlns:sodipodi="http://sodipodi.sourceforge.net/DTD/sodipodi-0.dtd"
   xmlns="http://www.w3.org/2000/svg"
   xmlns:svg="http://www.w3.org/2000/svg">
  <defs
     id="defs1" />
  <sodipodi:namedview
     id="namedview1"
     pagecolor="#ffffff"
     bordercolor="#000000"
     borderopacity="0.25"
     inkscape:showpageshadow="2"
     inkscape:pageopacity="0.0"
     inkscape:pagecheckerboard="0"
     inkscape:deskcolor="#d1d1d1"
     inkscape:zoom="36.916667"
     inkscape:cx="12"
     inkscape:cy="12"
     inkscape:window-width="3840"
     inkscape:window-height="2020"
     inkscape:window-x="0"
     inkscape:window-y="32"
     inkscape:window-maximized="1"
     inkscape:current-layer="svg1" />
  <path
     d="m 2 2 h 1.3334 v 10.6667 h 10.6667 v 1.3334 H 3.3333 q -0.55 0 -0.9416 -0.3916 Q 2 13.2166 2 12.6667 Z m 3.0583 7.0583 Q 5.45 8.6667 6 8.6667 q 0.55 0 0.9416 0.3916 0.3916 0.3916 0.3916 0.9416 0 0.55 -0.3916 0.9416 Q 6.55 11.3333 6 11.3333 5.45 11.3333 5.0583 10.9416 4.6666 10.55 4.6666 10 q 0 -0.55 0.3916 -0.9416 z M 8 3.3333 h 1.3334 v 2.4 l 3.7334 -3.7334 0.9334 0.9334 -3.7334 3.7334 h 2.4 v 1.3334 H 8 Z"
     id="path1" />
</svg>
