<?xml version="1.0" encoding="UTF-8" standalone="no"?>
<svg
   height="24px"
   viewBox="0 0 32 32"
   width="24px"
   fill="#000000"
   version="1.1"
   id="svg1"
   sodipodi:docname="bottom-left-symbolic.svg"
   inkscape:version="1.4.3 (0d15f75042, 2025-12-25)"
   xmlns:inkscape="http://www.inkscape.org/namespaces/inkscape"
   xmlns:sodipodi="http://sodipodi.sourceforge.net/DTD/sodipodi-0.dtd"
   xmlns="http://www.w3.org/2000/svg"
   xmlns:svg="http://www.w3.org/2000/svg">
  <defs
     id="defs1" />
  <sodipodi:namedview
     id="namedview1"
     pagecolor="#ffffff"
     bordercolor="#000000"
     borderopacity="0.25"
     inkscape:showpageshadow="2"
     inkscape:pageopacity="0.0"
     inkscape:pagecheckerboard="0"
     inkscape:deskcolor="#d1d1d1"
     inkscape:zoom="36.916667"
     inkscape:cx="12"
     inkscape:cy="12"
     inkscape:window-width="3840"
     inkscape:window-height="2020"
     inkscape:window-x="0"
     inkscape:window-y="32"
     inkscape:window-maximized="1"
     inkscape:current-layer="svg1" />
  <path
     d="m 4 4 h 2.6667 v 21.3333 h 21.3333 v 2.6667 H 6.6667 q -1.1 0 -1.8833 -0.7833 Q 4 26.4333 4 25.3333 Z m 6.1167 14.1167 Q 10.9 17.3333 12 17.3333 q 1.1 0 1.8833 0.7833 0.7833 0.7833 0.7833 1.8833 0 1.1 -0.7833 1.8833 Q 13.1 22.6667 12 22.6667 10.9 22.6667 10.1167 21.8833 9.3333 21.1 9.3333 20 q 0 -1.1 0.7833 -1.8833 z M 16 6.6667 h 2.6667 v 4.8 l 7.4667 -7.4667 1.8667 1.8667 -7.4667 7.4667 h 4.8 v 2.6667 H 16 Z"
     id="path1" />
</svg>
