<?xml version="1.0" encoding="UTF-8" standalone="no"?>
<svg
   height="24px"
   viewBox="0 0 24 24"
   width="24px"
   fill="#000000"
   version="1.1"
   id="svg1"
   sodipodi:docname="bottom-left-symbolic.svg"
   inkscape:version="1.4.3 (0d15f75042, 2025-12-25)"
   xmlns:inkscape="http://www.inkscape.org/namespaces/inkscape"
   xmlns:sodipodi="http://sodipodi.sourceforge.net/DTD/sodipodi-0.dtd"
   xmlns="http://www.w3.org/2000/svg"
   xmlns:svg="http://www.w3.org/2000/svg">
  <defs
     id="defs1" />
  <sodipodi:namedview
     id="namedview1"
     pagecolor="#ffffff"
     bordercolor="#000000"
     borderopacity="0.25"
     inkscape:showpageshadow="2"
     inkscape:pageopacity="0.0"
     inkscape:pagecheckerboard="0"
     inkscape:deskcolor="#d1d1d1"
     inkscape:zoom="36.916667"
     inkscape:cx="12"
     inkscape:cy="12"
     inkscape:window-width="3840"
     inkscape:window-height="2020"
     inkscape:window-x="0"
     inkscape:window-y="32"
     inkscape:window-maximized="1"
     inkscape:current-layer="svg1" />
  <path
     d="m 3 3 h 2.0001 v 16.0001 h 16.0001 v 2.0001 H 5 q -0.825 0 -1.4124 -0.5874 Q 3 19.8249 3 19.0001 Z m 4.5875 10.5875 Q 8.175 13.0001 9 13.0001 q 0.825 0 1.4124 0.5874 0.5874 0.5874 0.5874 1.4124 0 0.825 -0.5874 1.4124 Q 9.825 16.9999 9 16.9999 8.175 16.9999 7.5875 16.4124 6.9999 15.825 6.9999 15 q 0 -0.825 0.5874 -1.4124 z M 12 5 h 2.0001 v 3.6 l 5.6001 -5.6001 1.4001 1.4001 -5.6001 5.6001 h 3.6 v 2.0001 H 12 Z"
     id="path1" />
</svg>
