<?xml version="1.0" encoding="UTF-8" standalone="no"?>
<svg
   height="24px"
   viewBox="0 0 24 24"
   width="24px"
   fill="#000000"
   version="1.1"
   id="svg1"
   xmlns="http://www.w3.org/2000/svg"
   xmlns:svg="http://www.w3.org/2000/svg">
  <defs
     id="defs1" />
  <path
     d="m 22.0001 19.125 -2.0001 -2.0001 v -10.125 H 15.9501 l -1.825 -2.0001 H 9.8751 l -0.9499 1.05 -1.425 -1.425 1.5 -1.6251 h 6 l 1.85 2.0001 h 3.15 q 0.825 0 1.4124 0.5874 T 22.0001 6.9999 v 12.1249 Z m -18 1.875 q -0.825 0 -1.4124 -0.5874 T 2.0001 19.0001 v -12 q 0 -0.825 0.5874 -1.4124 T 4 5 h 1.0251 l 2.0001 2.0001 H 4 v 12 h 15.0251 l 2.0001 2.0001 H 4 Z m 11.6501 -5.375 q -0.625 0.8499 -1.5624 1.3624 T 12 17.5001 q -1.875 0 -3.1875 -1.3125 T 7.5 13.0001 q 0 -1.1501 0.5126 -2.0875 T 9.375 9.3499 l 1.4501 1.4501 q -0.6 0.3251 -0.9626 0.9 T 9.5001 13.0001 q 0 1.05 0.7251 1.775 t 1.775 0.7251 q 0.7251 0 1.3001 -0.3625 t 0.9 -0.9626 l 1.4501 1.4501 Z m -0.45 -5.8251 q 0.625 0.6 0.9626 1.425 t 0.3375 1.775 v 0.3 q 0 0.15 -0.025 0.3 L 11.4 8.525 q 0.15 -0.025 0.3 -0.025 h 0.3 q 0.9499 0 1.775 0.3375 t 1.425 0.9626 Z M 20.475 23.3001 0.675 3.5 l 1.425 -1.425 L 21.9 21.8749 l -1.425 1.425 Z M 10.1751 13.0001 Z m 4.275 -1.425 Z"
     id="path1" />
</svg>
