<?xml version="1.0" encoding="UTF-8" standalone="no"?>
<svg
   height="24px"
   viewBox="0 0 16 16"
   width="24px"
   fill="#000000"
   version="1.1"
   id="svg1"
   xmlns="http://www.w3.org/2000/svg"
   xmlns:svg="http://www.w3.org/2000/svg">
  <defs
     id="defs1" />
  <path
     d="m 14.6667 12.75 -1.3334 -1.3334 v -6.75 H 10.6334 l -1.2167 -1.3334 H 6.5834 l -0.6333 0.7 -0.95 -0.95 1 -1.0834 h 4 l 1.2333 1.3334 h 2.1 q 0.55 0 0.9416 0.3916 T 14.6667 4.6666 v 8.0833 Z m -12 1.25 q -0.55 0 -0.9416 -0.3916 T 1.3334 12.6667 v -8 q 0 -0.55 0.3916 -0.9416 T 2.6667 3.3333 h 0.6834 l 1.3334 1.3334 H 2.6667 v 8 h 10.0167 l 1.3334 1.3334 H 2.6667 Z m 7.7667 -3.5833 q -0.4167 0.5666 -1.0416 0.9083 T 8 11.6667 q -1.25 0 -2.125 -0.875 T 5 8.6667 q 0 -0.7667 0.3417 -1.3917 T 6.25 6.2333 l 0.9667 0.9667 q -0.4 0.2167 -0.6417 0.6 T 6.3334 8.6667 q 0 0.7 0.4834 1.1833 t 1.1833 0.4834 q 0.4834 0 0.8667 -0.2417 t 0.6 -0.6417 l 0.9667 0.9667 Z m -0.3 -3.8834 q 0.4167 0.4 0.6417 0.95 t 0.225 1.1833 v 0.2 q 0 0.1 -0.0167 0.2 L 7.6 5.6833 q 0.1 -0.0167 0.2 -0.0167 h 0.2 q 0.6333 0 1.1833 0.225 t 0.95 0.6417 Z M 13.65 15.5334 0.45 2.3333 l 0.95 -0.95 L 14.6 14.5833 l -0.95 0.95 Z M 6.7834 8.6667 Z m 2.85 -0.95 Z"
     id="path1" />
</svg>
