<?xml version="1.0" encoding="UTF-8" standalone="no"?>
<svg
   height="24px"
   viewBox="0 0 32 32"
   width="24px"
   fill="#000000"
   version="1.1"
   id="svg1"
   xmlns="http://www.w3.org/2000/svg"
   xmlns:svg="http://www.w3.org/2000/svg">
  <defs
     id="defs1" />
  <path
     d="M 16 23.3333 q 2.5 0 4.25 -1.75 T 22 17.3333 q 0 -2.5 -1.75 -4.25 T 16 11.3333 q -2.5 0 -4.25 1.75 T 10 17.3333 q 0 2.5 1.75 4.25 T 16 23.3333 Z m 0 -2.6667 q -1.4 0 -2.3667 -0.9667 t -0.9667 -2.3667 q 0 -1.4 0.9667 -2.3667 t 2.3667 -0.9667 q 1.4 0 2.3667 0.9667 t 0.9667 2.3667 q 0 1.4 -0.9667 2.3667 t -2.3667 0.9667 Z M 5.3333 28 q -1.1 0 -1.8833 -0.7833 T 2.6667 25.3333 v -16 q 0 -1.1 0.7833 -1.8833 T 5.3333 6.6667 h 4.2 l 2.4667 -2.6667 h 8 l 2.4667 2.6667 h 4.2 q 1.1 0 1.8833 0.7833 T 29.3333 9.3333 v 16 q 0 1.1 -0.7833 1.8833 T 26.6667 28 H 5.3333 Z m 0 -2.6667 h 21.3333 v -16 H 21.2667 l -2.4333 -2.6667 H 13.1667 l -2.4333 2.6667 H 5.3333 v 16 Z m 10.6667 -8 Z"
     id="path1" />
</svg>
