<?xml version="1.0" encoding="UTF-8" standalone="no"?>
<svg
   height="24px"
   viewBox="0 0 24 24"
   width="24px"
   fill="#000000"
   version="1.1"
   id="svg1"
   xmlns="http://www.w3.org/2000/svg"
   xmlns:svg="http://www.w3.org/2000/svg">
  <defs
     id="defs1" />
  <path
     d="M 12 17.5001 q 1.875 0 3.1875 -1.3125 T 16.5 13.0001 q 0 -1.875 -1.3125 -3.1875 T 12 8.4999 q -1.875 0 -3.1875 1.3125 T 7.5 13.0001 q 0 1.875 1.3125 3.1875 T 12 17.5001 Z m 0 -2.0001 q -1.05 0 -1.775 -0.7251 t -0.7251 -1.775 q 0 -1.05 0.7251 -1.775 t 1.775 -0.7251 q 1.05 0 1.775 0.7251 t 0.7251 1.775 q 0 1.05 -0.7251 1.775 t -1.775 0.7251 Z M 4 21 q -0.825 0 -1.4124 -0.5874 T 2.0001 19.0001 v -12 q 0 -0.825 0.5874 -1.4124 T 4 5 h 3.15 l 1.85 -2.0001 h 6 l 1.85 2.0001 h 3.15 q 0.825 0 1.4124 0.5874 T 22.0001 6.9999 v 12 q 0 0.825 -0.5874 1.4124 T 19.9999 21 H 4 Z m 0 -2.0001 h 16.0001 v -12 H 15.9501 l -1.825 -2.0001 H 9.8751 l -1.825 2.0001 H 4 v 12 Z m 8.0001 -6 Z"
     id="path1" />
</svg>
