<?xml version="1.0" encoding="UTF-8" standalone="no"?>
<svg
   height="24px"
   viewBox="0 0 16 16"
   width="24px"
   fill="#000000"
   version="1.1"
   id="svg1"
   xmlns="http://www.w3.org/2000/svg"
   xmlns:svg="http://www.w3.org/2000/svg">
  <defs
     id="defs1" />
  <path
     d="M 8 11.6667 q 1.25 0 2.125 -0.875 T 11 8.6667 q 0 -1.25 -0.875 -2.125 T 8 5.6666 q -1.25 0 -2.125 0.875 T 5 8.6667 q 0 1.25 0.875 2.125 T 8 11.6667 Z m 0 -1.3334 q -0.7 0 -1.1833 -0.4834 t -0.4834 -1.1833 q 0 -0.7 0.4834 -1.1833 t 1.1833 -0.4834 q 0.7 0 1.1833 0.4834 t 0.4834 1.1833 q 0 0.7 -0.4834 1.1833 t -1.1833 0.4834 Z M 2.6667 14 q -0.55 0 -0.9416 -0.3916 T 1.3334 12.6667 v -8 q 0 -0.55 0.3916 -0.9416 T 2.6667 3.3333 h 2.1 l 1.2333 -1.3334 h 4 l 1.2333 1.3334 h 2.1 q 0.55 0 0.9416 0.3916 T 14.6667 4.6666 v 8 q 0 0.55 -0.3916 0.9416 T 13.3333 14 H 2.6667 Z m 0 -1.3334 h 10.6667 v -8 H 10.6334 l -1.2167 -1.3334 H 6.5834 l -1.2167 1.3334 H 2.6667 v 8 Z m 5.3334 -4 Z"
     id="path1" />
</svg>
