<?xml version="1.0" encoding="UTF-8" standalone="no"?>
<svg
   height="24px"
   viewBox="0 0 32 32"
   width="24px"
   fill="#000000"
   version="1.1"
   id="svg1"
   xmlns="http://www.w3.org/2000/svg"
   xmlns:svg="http://www.w3.org/2000/svg">
  <defs
     id="defs1" />
  <path
     d="m 29.3333 25.5 -2.6667 -2.6667 v -13.5 H 21.2667 l -2.4333 -2.6667 H 13.1667 l -1.2667 1.4 -1.9 -1.9 2 -2.1667 h 8 l 2.4667 2.6667 h 4.2 q 1.1 0 1.8833 0.7833 T 29.3333 9.3333 v 16.1667 Z m -24 2.5 q -1.1 0 -1.8833 -0.7833 T 2.6667 25.3333 v -16 q 0 -1.1 0.7833 -1.8833 T 5.3333 6.6667 h 1.3667 l 2.6667 2.6667 H 5.3333 v 16 h 20.0333 l 2.6667 2.6667 H 5.3333 Z m 15.5333 -7.1667 q -0.8333 1.1333 -2.0833 1.8167 T 16 23.3333 q -2.5 0 -4.25 -1.75 T 10 17.3333 q 0 -1.5333 0.6833 -2.7833 T 12.5 12.4667 l 1.9333 1.9333 q -0.8 0.4333 -1.2833 1.2 T 12.6667 17.3333 q 0 1.4 0.9667 2.3667 t 2.3667 0.9667 q 0.9667 0 1.7333 -0.4833 t 1.2 -1.2833 l 1.9333 1.9333 Z m -0.6 -7.7667 q 0.8333 0.8 1.2833 1.9 t 0.45 2.3667 v 0.4 q 0 0.2 -0.0333 0.4 L 15.2 11.3667 q 0.2 -0.0333 0.4 -0.0333 h 0.4 q 1.2667 0 2.3667 0.45 t 1.9 1.2833 Z M 27.3 31.0667 0.9 4.6667 l 1.9 -1.9 L 29.2 29.1667 l -1.9 1.9 Z M 13.5667 17.3333 Z m 5.7 -1.9 Z"
     id="path1" />
</svg>
