<?xml version="1.0" encoding="UTF-8" standalone="no"?>
<svg
   height="24px"
   viewBox="0 0 16 16"
   width="24px"
   fill="#000000"
   version="1.1"
   id="svg1"
   sodipodi:docname="center-symbolic.svg"
   inkscape:version="1.4.3 (0d15f75042, 2025-12-25)"
   xmlns:inkscape="http://www.inkscape.org/namespaces/inkscape"
   xmlns:sodipodi="http://sodipodi.sourceforge.net/DTD/sodipodi-0.dtd"
   xmlns="http://www.w3.org/2000/svg"
   xmlns:svg="http://www.w3.org/2000/svg">
  <defs
     id="defs1" />
  <sodipodi:namedview
     id="namedview1"
     pagecolor="#ffffff"
     bordercolor="#000000"
     borderopacity="0.25"
     inkscape:showpageshadow="2"
     inkscape:pageopacity="0.0"
     inkscape:pagecheckerboard="0"
     inkscape:deskcolor="#d1d1d1"
     inkscape:zoom="36.916667"
     inkscape:cx="12"
     inkscape:cy="12"
     inkscape:window-width="3840"
     inkscape:window-height="2020"
     inkscape:window-x="0"
     inkscape:window-y="32"
     inkscape:window-maximized="1"
     inkscape:current-layer="svg1" />
  <path
     d="M 7.3334 15.3333 v -2.7833 l -0.7333 0.7167 -0.9334 -0.9334 2.3333 -2.3333 2.3333 2.3333 -0.9334 0.9334 -0.7333 -0.7167 v 2.7833 h -1.3334 Z M 3.6667 10.3333 l -0.9334 -0.9334 0.7167 -0.7333 H 0.6666 v -1.3334 h 2.7833 l -0.7167 -0.7333 0.9334 -0.9334 2.3333 2.3333 -2.3333 2.3333 Z m 8.6667 0 L 10 8 l 2.3333 -2.3333 0.9334 0.9334 -0.7167 0.7333 h 2.7833 v 1.3334 H 12.55 l 0.7167 0.7333 -0.9334 0.9334 Z m -4.3334 -1.3334 q -0.4167 0 -0.7084 -0.2917 T 7 8 q 0 -0.4167 0.2917 -0.7084 T 8 7 q 0.4167 0 0.7084 0.2917 T 9 8 q 0 0.4167 -0.2917 0.7084 T 8 9 Z m 0 -3 L 5.6666 3.6667 l 0.9334 -0.9334 0.7333 0.7167 v -2.7833 h 1.3334 v 2.7833 l 0.7333 -0.7167 0.9334 0.9334 -2.3333 2.3333 Z"
     id="path1" />
</svg>
