<?xml version="1.0" encoding="UTF-8" standalone="no"?>
<svg
   height="24px"
   viewBox="0 0 32 32"
   width="24px"
   fill="#000000"
   version="1.1"
   id="svg1"
   xmlns="http://www.w3.org/2000/svg"
   xmlns:svg="http://www.w3.org/2000/svg">
  <defs
     id="defs1" />
  <path
     d="m 21.4667 17.0667 -1.8667 -1.9333 4.0667 -3.1333 -7.6667 -5.9333 -3.1333 2.4 -1.8667 -1.9333 5 -3.8667 12 9.3333 -6.5333 5.0667 Z m 3.8333 3.8 -1.9333 -1.9333 2.4333 -1.8667 2.2 1.6667 -2.7 2.1333 Z m 1.1 8.6 L 21.0667 24.1333 16 28.0667 4 18.7333 l 2.2 -1.6667 9.8 7.6 3.1333 -2.4333 -1.9 -1.8667 -1.2333 0.9667 -12 -9.3333 2.7667 -2.1667 L 1.8333 4.9667 l 1.9 -1.9 24.5333 24.5333 -1.8667 1.8667 Z M 16.2333 11.8 Z"
     id="path1" />
</svg>
