<?xml version="1.0" encoding="UTF-8" standalone="no"?>
<svg
   height="24px"
   viewBox="0 0 24 24"
   width="24px"
   fill="#000000"
   version="1.1"
   id="svg1"
   xmlns="http://www.w3.org/2000/svg"
   xmlns:svg="http://www.w3.org/2000/svg">
  <defs
     id="defs1" />
  <path
     d="m 5 19.9999 v -2.0001 h 1.6 l 1.975 -6.5751 c 0.1334 -0.4334 0.3792 -0.7791 0.7374 -1.0374 0.3584 -0.2583 0.7542 -0.3876 1.1874 -0.3876 h 3 c 0.4334 0 0.8292 0.1291 1.1874 0.3876 0.3584 0.2583 0.6042 0.6042 0.7374 1.0374 l 1.975 6.5751 h 1.6 v 2.0001 z m 3.7001 -2.0001 H 15.3 L 13.5 12 H 10.5 Z m 2.2999 -9.9999 v -5 h 2.0001 v 5 z m 5.9501 2.475 -1.425 -1.425 3.5499 -3.525 1.4001 1.4001 z m 1.05 4.5249 v -2.0001 h 5 v 2.0001 z m -10.95 -4.5249 -3.525 -3.5499 1.4001 -1.4001 3.5499 3.525 z M 0.9999 15 v -2.0001 h 5 v 2.0001 z"
     id="path1" />
  <path
     style="fill:none;stroke-width:1.6;stroke-dasharray:none;fill-opacity:1;stroke:#000000;stroke-opacity:1"
     d="M 2.0045 2.5734 21.8871 21.9143"
     id="path2" />
</svg>
