<?xml version="1.0" encoding="UTF-8" standalone="no"?>
<svg
   height="24px"
   viewBox="0 0 16 16"
   width="24px"
   fill="#000000"
   version="1.1"
   id="svg1"
   xmlns="http://www.w3.org/2000/svg"
   xmlns:svg="http://www.w3.org/2000/svg">
  <defs
     id="defs1" />
  <path
     d="m 10.7333 8.5334 -0.9334 -0.9667 2.0333 -1.5667 -3.8333 -2.9667 -1.5667 1.2 -0.9334 -0.9667 2.5 -1.9333 6 4.6666 -3.2666 2.5333 Z m 1.9166 1.9 -0.9667 -0.9667 1.2167 -0.9334 1.1 0.8334 -1.35 1.0667 Z m 0.55 4.3 L 10.5334 12.0666 8 14.0334 2 9.3666 l 1.1 -0.8334 4.9 3.8 1.5667 -1.2167 -0.95 -0.9334 -0.6167 0.4834 -6 -4.6666 1.3834 -1.0834 L 0.9166 2.4834 l 0.95 -0.95 12.2667 12.2667 -0.9334 0.9334 Z M 8.1166 5.9 Z"
     id="path1" />
</svg>
