<?xml version="1.0" encoding="UTF-8" standalone="no"?>
<svg
   height="24px"
   viewBox="0 0 16 16"
   width="24px"
   fill="#000000"
   version="1.1"
   id="svg1"
   xmlns="http://www.w3.org/2000/svg"
   xmlns:svg="http://www.w3.org/2000/svg">
  <defs
     id="defs1" />
  <path
     d="m 3.3333 13.3333 v -1.3334 h 1.0667 l 1.3167 -4.3834 c 0.0889 -0.2889 0.2528 -0.5194 0.4916 -0.6916 0.2389 -0.1722 0.5028 -0.2584 0.7916 -0.2584 h 2 c 0.2889 0 0.5528 0.0861 0.7916 0.2584 0.2389 0.1722 0.4028 0.4028 0.4916 0.6916 l 1.3167 4.3834 h 1.0667 v 1.3334 z m 2.4667 -1.3334 H 10.2 L 9 8 H 7 Z m 1.5333 -6.6666 v -3.3333 h 1.3334 v 3.3333 z m 3.9667 1.65 -0.95 -0.95 2.3666 -2.35 0.9334 0.9334 z m 0.7 3.0166 v -1.3334 h 3.3333 v 1.3334 z m -7.3 -3.0166 -2.35 -2.3666 0.9334 -0.9334 2.3666 2.35 z M 0.6666 10 v -1.3334 h 3.3333 v 1.3334 z"
     id="path1" />
  <path
     style="fill:none;stroke-width:1.0667;stroke-dasharray:none;fill-opacity:1;stroke:#000000;stroke-opacity:1"
     d="M 1.3363 1.7156 14.5914 14.6095"
     id="path2" />
</svg>
