<?xml version="1.0" encoding="UTF-8" standalone="no"?>
<svg
   height="24px"
   viewBox="0 0 24 24"
   width="24px"
   fill="#000000"
   version="1.1"
   id="svg1"
   xmlns="http://www.w3.org/2000/svg"
   xmlns:svg="http://www.w3.org/2000/svg">
  <defs
     id="defs1" />
  <path
     d="m 16.0999 12.8001 -1.4001 -1.4501 3.0499 -2.35 -5.75 -4.4501 -2.35 1.8 -1.4001 -1.4501 3.75 -2.9 9 6.9999 -4.8999 3.7999 Z m 2.8749 2.85 -1.4501 -1.4501 1.825 -1.4001 1.65 1.2501 -2.025 1.6 Z m 0.825 6.45 L 15.8001 18.0999 12 21.0501 3 14.0499 l 1.65 -1.2501 7.35 5.7 2.35 -1.825 -1.425 -1.4001 -0.9251 0.7251 -9 -6.9999 2.0751 -1.6251 L 1.3749 3.7251 l 1.425 -1.425 18.4001 18.4001 -1.4001 1.4001 Z M 12.1749 8.85 Z"
     id="path1" />
</svg>
