<?xml version="1.0" encoding="UTF-8" standalone="no"?>
<svg
   height="24px"
   viewBox="0 0 32 32"
   width="24px"
   fill="#000000"
   version="1.1"
   id="svg1"
   xmlns="http://www.w3.org/2000/svg"
   xmlns:svg="http://www.w3.org/2000/svg">
  <defs
     id="defs1" />
  <path
     d="m 6.6667 26.6667 v -2.6667 h 2.1333 l 2.6333 -8.7667 c 0.1778 -0.5778 0.5056 -1.0389 0.9833 -1.3833 0.4778 -0.3444 1.0056 -0.5167 1.5833 -0.5167 h 4 c 0.5778 0 1.1056 0.1722 1.5833 0.5167 0.4778 0.3444 0.8056 0.8056 0.9833 1.3833 l 2.6333 8.7667 h 2.1333 v 2.6667 z m 4.9333 -2.6667 H 20.4 L 18 16 H 14 Z m 3.0667 -13.3333 v -6.6667 h 2.6667 v 6.6667 z m 7.9333 3.3 -1.9 -1.9 4.7333 -4.7 1.8667 1.8667 z m 1.4 6.0333 v -2.6667 h 6.6667 v 2.6667 z m -14.6 -6.0333 -4.7 -4.7333 1.8667 -1.8667 4.7333 4.7 z M 1.3333 20 v -2.6667 h 6.6667 v 2.6667 z"
     id="path1" />
  <path
     style="fill:none;stroke-width:2.1333;stroke-dasharray:none;fill-opacity:1;stroke:#000000;stroke-opacity:1"
     d="M 2.6727 3.4312 29.1828 29.219"
     id="path2" />
</svg>
