<?xml version="1.0" encoding="UTF-8" standalone="no"?>
<svg
   height="24px"
   viewBox="0 0 16 16"
   width="24px"
   fill="#000000"
   version="1.1"
   id="svg1"
   xmlns="http://www.w3.org/2000/svg"
   xmlns:svg="http://www.w3.org/2000/svg">
  <defs
     id="defs1" />
  <path
     d="M 4 2.6667 v 3.3333 -3.3333 10.6667 -0.1583 0.1583 -10.6667 Z m 0 12 q -0.55 0 -0.9416 -0.3916 T 2.6667 13.3333 v -10.6667 q 0 -0.55 0.3916 -0.9416 T 4 1.3334 h 5.3334 l 4 4 v 2.9 q -0.3166 -0.1167 -0.65 -0.175 t -0.6834 -0.0583 v -2 H 8.6667 v -3.3333 H 4 v 10.6667 h 4.2333 q 0.1333 0.3834 0.3333 0.7167 t 0.4667 0.6167 H 4 Z m 6.6 -0.3333 -0.9334 -0.9334 1.4 -1.4 -1.4 -1.4 0.9334 -0.9334 1.4 1.4 1.4 -1.4 0.9334 0.9334 -1.3834 1.4 1.3834 1.4 -0.9334 0.9334 -1.4 -1.3834 -1.4 1.3834 Z"
     id="path1" />
</svg>
