<?xml version="1.0" encoding="UTF-8" standalone="no"?>
<svg
   height="24px"
   viewBox="0 0 32 32"
   width="24px"
   fill="#000000"
   version="1.1"
   id="svg1"
   xmlns="http://www.w3.org/2000/svg"
   xmlns:svg="http://www.w3.org/2000/svg">
  <defs
     id="defs1" />
  <path
     d="M 8 5.3333 v 6.6667 -6.6667 21.3333 -0.3167 0.3167 -21.3333 Z m 0 24 q -1.1 0 -1.8833 -0.7833 T 5.3333 26.6667 v -21.3333 q 0 -1.1 0.7833 -1.8833 T 8 2.6667 h 10.6667 l 8 8 v 5.8 q -0.6333 -0.2333 -1.3 -0.35 t -1.3667 -0.1167 v -4 H 17.3333 v -6.6667 H 8 v 21.3333 h 8.4667 q 0.2667 0.7667 0.6667 1.4333 t 0.9333 1.2333 H 8 Z m 13.2 -0.6667 -1.8667 -1.8667 2.8 -2.8 -2.8 -2.8 1.8667 -1.8667 2.8 2.8 2.8 -2.8 1.8667 1.8667 -2.7667 2.8 2.7667 2.8 -1.8667 1.8667 -2.8 -2.7667 -2.8 2.7667 Z"
     id="path1" />
</svg>
