<?xml version="1.0" encoding="UTF-8" standalone="no"?>
<svg
   height="24px"
   viewBox="0 0 24 24"
   width="24px"
   fill="#000000"
   version="1.1"
   id="svg1"
   xmlns="http://www.w3.org/2000/svg"
   xmlns:svg="http://www.w3.org/2000/svg">
  <defs
     id="defs1" />
  <path
     d="M 6 4 v 5 -5 16.0001 -0.2374 0.2374 -16.0001 Z m 0 18 q -0.825 0 -1.4124 -0.5874 T 4 19.9999 v -16.0001 q 0 -0.825 0.5874 -1.4124 T 6 2.0001 h 8.0001 l 6 6 v 4.35 q -0.4749 -0.175 -0.975 -0.2625 t -1.0251 -0.0874 v -3 H 13.0001 v -5 H 6 v 16.0001 h 6.3499 q 0.2 0.5751 0.5 1.0751 t 0.7001 0.9251 H 6 Z m 9.9 -0.5 -1.4001 -1.4001 2.1 -2.1 -2.1 -2.1 1.4001 -1.4001 2.1 2.1 2.1 -2.1 1.4001 1.4001 -2.0751 2.1 2.0751 2.1 -1.4001 1.4001 -2.1 -2.0751 -2.1 2.0751 Z"
     id="path1" />
</svg>
