<?xml version="1.0" encoding="UTF-8" standalone="no"?>
<svg
   height="24px"
   viewBox="0 0 24 24"
   width="24px"
   fill="#000000"
   version="1.1"
   id="svg1"
   xmlns="http://www.w3.org/2000/svg"
   xmlns:svg="http://www.w3.org/2000/svg">
  <defs
     id="defs1" />
  <path
     d="m 9.6 15.6 1.4001 -1.425 -2.175 -2.175 2.175 -2.175 -1.4001 -1.425 -3.6 3.6 3.6 3.6 Z m 4.8 0 3.6 -3.6 -3.6 -3.6 -1.4001 1.425 2.175 2.175 -2.175 2.175 1.4001 1.425 Z M 5 21 q -0.825 0 -1.4124 -0.5874 T 3 19.0001 v -13.9999 q 0 -0.825 0.5874 -1.4124 T 5 3 h 13.9999 q 0.825 0 1.4124 0.5874 T 21 5 v 13.9999 q 0 0.825 -0.5874 1.4124 T 19.0001 21 H 5 Z m 0 -2.0001 h 13.9999 v -13.9999 H 5 v 13.9999 Z m 0 -13.9999 v 13.9999 -13.9999 Z"
     id="path1" />
</svg>
