<?xml version="1.0" encoding="UTF-8" standalone="no"?>
<svg
   height="24px"
   viewBox="0 0 16 16"
   width="24px"
   fill="#000000"
   version="1.1"
   id="svg1"
   xmlns="http://www.w3.org/2000/svg"
   xmlns:svg="http://www.w3.org/2000/svg">
  <defs
     id="defs1" />
  <path
     d="m 6.4 10.4 0.9334 -0.95 -1.45 -1.45 1.45 -1.45 -0.9334 -0.95 -2.4 2.4 2.4 2.4 Z m 3.2 0 2.4 -2.4 -2.4 -2.4 -0.9334 0.95 1.45 1.45 -1.45 1.45 0.9334 0.95 Z M 3.3333 14 q -0.55 0 -0.9416 -0.3916 T 2 12.6667 v -9.3333 q 0 -0.55 0.3916 -0.9416 T 3.3333 2 h 9.3333 q 0.55 0 0.9416 0.3916 T 14 3.3333 v 9.3333 q 0 0.55 -0.3916 0.9416 T 12.6667 14 H 3.3333 Z m 0 -1.3334 h 9.3333 v -9.3333 H 3.3333 v 9.3333 Z m 0 -9.3333 v 9.3333 -9.3333 Z"
     id="path1" />
</svg>
