<?xml version="1.0" encoding="UTF-8" standalone="no"?>
<svg
   height="24px"
   viewBox="0 0 24 24"
   width="24px"
   fill="#000000"
   version="1.1"
   id="svg1"
   xmlns="http://www.w3.org/2000/svg"
   xmlns:svg="http://www.w3.org/2000/svg">
  <defs
     id="defs1" />
  <path
     d="m 7.5 16.5 6.9999 -2.0001 2.0001 -6.9999 -6.9999 2.0001 -2.0001 6.9999 Z m 4.5 -3 q -0.625 0 -1.0626 -0.4375 T 10.5 12 q 0 -0.625 0.4375 -1.0626 T 12 10.5 q 0.625 0 1.0626 0.4375 T 13.5 12 q 0 0.625 -0.4375 1.0626 T 12 13.5 Z m 0 8.4999 q -2.0751 0 -3.9 -0.7875 T 4.9249 19.0749 q -1.35 -1.35 -2.1375 -3.1749 T 2.0001 12 q 0 -2.0751 0.7875 -3.9 T 4.9249 4.9249 q 1.35 -1.35 3.1749 -2.1375 T 12 2.0001 q 2.0751 0 3.9 0.7875 T 19.0749 4.9249 q 1.35 1.35 2.1375 3.1749 T 22.0001 12 q 0 2.0751 -0.7875 3.9 T 19.0749 19.0749 q -1.35 1.35 -3.1749 2.1375 T 12 22.0001 Z m 0 -2.0001 q 3.3251 0 5.6625 -2.3375 T 19.9999 12 q 0 -3.3251 -2.3375 -5.6625 T 12 4 q -3.3251 0 -5.6625 2.3375 T 4 12 q 0 3.3251 2.3375 5.6625 T 12 19.9999 Z m 0 -8.0001 Z"
     id="path1" />
</svg>
