<?xml version="1.0" encoding="UTF-8" standalone="no"?>
<svg
   height="24px"
   viewBox="0 0 16 16"
   width="24px"
   fill="#000000"
   version="1.1"
   id="svg1"
   xmlns="http://www.w3.org/2000/svg"
   xmlns:svg="http://www.w3.org/2000/svg">
  <defs
     id="defs1" />
  <path
     d="m 5 11 4.6666 -1.3334 1.3334 -4.6666 -4.6666 1.3334 -1.3334 4.6666 Z m 3 -2 q -0.4167 0 -0.7084 -0.2917 T 7 8 q 0 -0.4167 0.2917 -0.7084 T 8 7 q 0.4167 0 0.7084 0.2917 T 9 8 q 0 0.4167 -0.2917 0.7084 T 8 9 Z m 0 5.6666 q -1.3834 0 -2.6 -0.525 T 3.2833 12.7166 q -0.9 -0.9 -1.425 -2.1166 T 1.3334 8 q 0 -1.3834 0.525 -2.6 T 3.2833 3.2833 q 0.9 -0.9 2.1166 -1.425 T 8 1.3334 q 1.3834 0 2.6 0.525 T 12.7166 3.2833 q 0.9 0.9 1.425 2.1166 T 14.6667 8 q 0 1.3834 -0.525 2.6 T 12.7166 12.7166 q -0.9 0.9 -2.1166 1.425 T 8 14.6667 Z m 0 -1.3334 q 2.2167 0 3.775 -1.5583 T 13.3333 8 q 0 -2.2167 -1.5583 -3.775 T 8 2.6667 q -2.2167 0 -3.775 1.5583 T 2.6667 8 q 0 2.2167 1.5583 3.775 T 8 13.3333 Z m 0 -5.3334 Z"
     id="path1" />
</svg>
