<?xml version="1.0" encoding="UTF-8" standalone="no"?>
<svg
   height="24px"
   viewBox="0 0 24 24"
   width="24px"
   fill="#000000"
   version="1.1"
   id="svg1"
   sodipodi:docname="crosshair-symbolic.svg"
   inkscape:version="1.4.3 (0d15f75042, 2025-12-25)"
   xmlns:inkscape="http://www.inkscape.org/namespaces/inkscape"
   xmlns:sodipodi="http://sodipodi.sourceforge.net/DTD/sodipodi-0.dtd"
   xmlns="http://www.w3.org/2000/svg"
   xmlns:svg="http://www.w3.org/2000/svg">
  <defs
     id="defs1" />
  <sodipodi:namedview
     id="namedview1"
     pagecolor="#ffffff"
     bordercolor="#000000"
     borderopacity="0.25"
     inkscape:showpageshadow="2"
     inkscape:pageopacity="0.0"
     inkscape:pagecheckerboard="0"
     inkscape:deskcolor="#d1d1d1"
     inkscape:zoom="36.916667"
     inkscape:cx="11.986456"
     inkscape:cy="12"
     inkscape:window-width="2656"
     inkscape:window-height="1394"
     inkscape:window-x="100"
     inkscape:window-y="132"
     inkscape:window-maximized="0"
     inkscape:current-layer="svg1" />
  <path
     d="M 11.0001 22.95 v -2.0001 q -3.125 -0.3501 -5.3625 -2.5875 T 3.0499 13.0001 H 1.05 v -2.0001 h 2.0001 q 0.3501 -3.125 2.5875 -5.3625 T 11.0001 3.0499 v -2.0001 h 2.0001 v 2.0001 q 3.125 0.3501 5.3625 2.5875 T 20.9499 11.0001 h 2.0001 v 2.0001 h -2.0001 q -0.3501 3.125 -2.5875 5.3625 T 13.0001 20.9499 v 2.0001 h -2.0001 Z m 5.9501 -6 q 2.0499 -2.0499 2.0499 -4.95 t -2.0499 -4.95 q -2.0499 -2.0499 -4.95 -2.0499 t -4.95 2.0499 q -2.0499 2.0499 -2.0499 4.95 t 2.0499 4.95 q 2.0499 2.0499 4.95 2.0499 t 4.95 -2.0499 Z m -7.775 -2.1249 q -1.1749 -1.1749 -1.1749 -2.8251 t 1.1749 -2.8251 q 1.1749 -1.1749 2.8251 -1.1749 t 2.8251 1.1749 q 1.1749 1.1749 1.1749 2.8251 t -1.1749 2.8251 q -1.1749 1.1749 -2.8251 1.1749 t -2.8251 -1.1749 Z m 4.2375 -1.4124 Q 13.9999 12.825 13.9999 12 t -0.5874 -1.4124 Q 12.825 9.9999 12 9.9999 t -1.4124 0.5874 Q 9.9999 11.175 9.9999 12 t 0.5874 1.4124 Q 11.175 13.9999 12 13.9999 t 1.4124 -0.5874 Z M 12 12 Z"
     id="path1" />
</svg>
