<?xml version="1.0" encoding="UTF-8" standalone="no"?>
<svg
   height="24px"
   viewBox="0 0 16 16"
   width="24px"
   fill="#000000"
   version="1.1"
   id="svg1"
   sodipodi:docname="crosshair-symbolic.svg"
   inkscape:version="1.4.3 (0d15f75042, 2025-12-25)"
   xmlns:inkscape="http://www.inkscape.org/namespaces/inkscape"
   xmlns:sodipodi="http://sodipodi.sourceforge.net/DTD/sodipodi-0.dtd"
   xmlns="http://www.w3.org/2000/svg"
   xmlns:svg="http://www.w3.org/2000/svg">
  <defs
     id="defs1" />
  <sodipodi:namedview
     id="namedview1"
     pagecolor="#ffffff"
     bordercolor="#000000"
     borderopacity="0.25"
     inkscape:showpageshadow="2"
     inkscape:pageopacity="0.0"
     inkscape:pagecheckerboard="0"
     inkscape:deskcolor="#d1d1d1"
     inkscape:zoom="36.916667"
     inkscape:cx="11.986456"
     inkscape:cy="12"
     inkscape:window-width="2656"
     inkscape:window-height="1394"
     inkscape:window-x="100"
     inkscape:window-y="132"
     inkscape:window-maximized="0"
     inkscape:current-layer="svg1" />
  <path
     d="M 7.3334 15.3 v -1.3334 q -2.0833 -0.2334 -3.575 -1.725 T 2.0333 8.6667 H 0.7 v -1.3334 h 1.3334 q 0.2334 -2.0833 1.725 -3.575 T 7.3334 2.0333 v -1.3334 h 1.3334 v 1.3334 q 2.0833 0.2334 3.575 1.725 T 13.9666 7.3334 h 1.3334 v 1.3334 h -1.3334 q -0.2334 2.0833 -1.725 3.575 T 8.6667 13.9666 v 1.3334 h -1.3334 Z m 3.9667 -4 q 1.3666 -1.3666 1.3666 -3.3 t -1.3666 -3.3 q -1.3666 -1.3666 -3.3 -1.3666 t -3.3 1.3666 q -1.3666 1.3666 -1.3666 3.3 t 1.3666 3.3 q 1.3666 1.3666 3.3 1.3666 t 3.3 -1.3666 Z m -5.1833 -1.4166 q -0.7833 -0.7833 -0.7833 -1.8834 t 0.7833 -1.8834 q 0.7833 -0.7833 1.8834 -0.7833 t 1.8834 0.7833 q 0.7833 0.7833 0.7833 1.8834 t -0.7833 1.8834 q -0.7833 0.7833 -1.8834 0.7833 t -1.8834 -0.7833 Z m 2.825 -0.9416 Q 9.3333 8.55 9.3333 8 t -0.3916 -0.9416 Q 8.55 6.6666 8 6.6666 t -0.9416 0.3916 Q 6.6666 7.45 6.6666 8 t 0.3916 0.9416 Q 7.45 9.3333 8 9.3333 t 0.9416 -0.3916 Z M 8 8 Z"
     id="path1" />
</svg>
