<?xml version="1.0" encoding="UTF-8" standalone="no"?>
<svg
   height="24px"
   viewBox="0 -960 960 960"
   width="24px"
   fill="#000000"
   version="1.1"
   id="svg1"
   sodipodi:docname="crosshair-symbolic.svg"
   inkscape:version="1.4.3 (0d15f75042, 2025-12-25)"
   xmlns:inkscape="http://www.inkscape.org/namespaces/inkscape"
   xmlns:sodipodi="http://sodipodi.sourceforge.net/DTD/sodipodi-0.dtd"
   xmlns="http://www.w3.org/2000/svg"
   xmlns:svg="http://www.w3.org/2000/svg">
  <defs
     id="defs1" />
  <sodipodi:namedview
     id="namedview1"
     pagecolor="#ffffff"
     bordercolor="#000000"
     borderopacity="0.25"
     inkscape:showpageshadow="2"
     inkscape:pageopacity="0.0"
     inkscape:pagecheckerboard="0"
     inkscape:deskcolor="#d1d1d1"
     inkscape:zoom="36.916667"
     inkscape:cx="11.986456"
     inkscape:cy="12"
     inkscape:window-width="2656"
     inkscape:window-height="1394"
     inkscape:window-x="100"
     inkscape:window-y="132"
     inkscape:window-maximized="0"
     inkscape:current-layer="svg1" />
  <path
     d="M440-42v-80q-125-14-214.5-103.5T122-440H42v-80h80q14-125 103.5-214.5T440-838v-80h80v80q125 14 214.5 103.5T838-520h80v80h-80q-14 125-103.5 214.5T520-122v80h-80Zm238-240q82-82 82-198t-82-198q-82-82-198-82t-198 82q-82 82-82 198t82 198q82 82 198 82t198-82Zm-311-85q-47-47-47-113t47-113q47-47 113-47t113 47q47 47 47 113t-47 113q-47 47-113 47t-113-47Zm169.5-56.5Q560-447 560-480t-23.5-56.5Q513-560 480-560t-56.5 23.5Q400-513 400-480t23.5 56.5Q447-400 480-400t56.5-23.5ZM480-480Z"
     id="path1" />
</svg>
