<?xml version="1.0" encoding="UTF-8" standalone="no"?>
<svg
   height="24px"
   viewBox="0 0 32 32"
   width="24px"
   fill="#000000"
   version="1.1"
   id="svg1"
   sodipodi:docname="crosshair-symbolic.svg"
   inkscape:version="1.4.3 (0d15f75042, 2025-12-25)"
   xmlns:inkscape="http://www.inkscape.org/namespaces/inkscape"
   xmlns:sodipodi="http://sodipodi.sourceforge.net/DTD/sodipodi-0.dtd"
   xmlns="http://www.w3.org/2000/svg"
   xmlns:svg="http://www.w3.org/2000/svg">
  <defs
     id="defs1" />
  <sodipodi:namedview
     id="namedview1"
     pagecolor="#ffffff"
     bordercolor="#000000"
     borderopacity="0.25"
     inkscape:showpageshadow="2"
     inkscape:pageopacity="0.0"
     inkscape:pagecheckerboard="0"
     inkscape:deskcolor="#d1d1d1"
     inkscape:zoom="36.916667"
     inkscape:cx="11.986456"
     inkscape:cy="12"
     inkscape:window-width="2656"
     inkscape:window-height="1394"
     inkscape:window-x="100"
     inkscape:window-y="132"
     inkscape:window-maximized="0"
     inkscape:current-layer="svg1" />
  <path
     d="M 14.6667 30.6 v -2.6667 q -4.1667 -0.4667 -7.15 -3.45 T 4.0667 17.3333 H 1.4 v -2.6667 h 2.6667 q 0.4667 -4.1667 3.45 -7.15 T 14.6667 4.0667 v -2.6667 h 2.6667 v 2.6667 q 4.1667 0.4667 7.15 3.45 T 27.9333 14.6667 h 2.6667 v 2.6667 h -2.6667 q -0.4667 4.1667 -3.45 7.15 T 17.3333 27.9333 v 2.6667 h -2.6667 Z m 7.9333 -8 q 2.7333 -2.7333 2.7333 -6.6 t -2.7333 -6.6 q -2.7333 -2.7333 -6.6 -2.7333 t -6.6 2.7333 q -2.7333 2.7333 -2.7333 6.6 t 2.7333 6.6 q 2.7333 2.7333 6.6 2.7333 t 6.6 -2.7333 Z m -10.3667 -2.8333 q -1.5667 -1.5667 -1.5667 -3.7667 t 1.5667 -3.7667 q 1.5667 -1.5667 3.7667 -1.5667 t 3.7667 1.5667 q 1.5667 1.5667 1.5667 3.7667 t -1.5667 3.7667 q -1.5667 1.5667 -3.7667 1.5667 t -3.7667 -1.5667 Z m 5.65 -1.8833 Q 18.6667 17.1 18.6667 16 t -0.7833 -1.8833 Q 17.1 13.3333 16 13.3333 t -1.8833 0.7833 Q 13.3333 14.9 13.3333 16 t 0.7833 1.8833 Q 14.9 18.6667 16 18.6667 t 1.8833 -0.7833 Z M 16 16 Z"
     id="path1" />
</svg>
