<?xml version="1.0" encoding="UTF-8" standalone="no"?>
<svg
   height="24px"
   viewBox="0 0 16 16"
   width="24px"
   fill="#000000"
   version="1.1"
   id="svg1"
   sodipodi:docname="crown-symbolic.svg"
   inkscape:version="1.4.3 (0d15f75042, 2025-12-25)"
   xmlns:inkscape="http://www.inkscape.org/namespaces/inkscape"
   xmlns:sodipodi="http://sodipodi.sourceforge.net/DTD/sodipodi-0.dtd"
   xmlns="http://www.w3.org/2000/svg"
   xmlns:svg="http://www.w3.org/2000/svg">
  <defs
     id="defs1" />
  <sodipodi:namedview
     id="namedview1"
     pagecolor="#ffffff"
     bordercolor="#000000"
     borderopacity="0.25"
     inkscape:showpageshadow="2"
     inkscape:pageopacity="0.0"
     inkscape:pagecheckerboard="0"
     inkscape:deskcolor="#d1d1d1"
     inkscape:zoom="36.916667"
     inkscape:cx="12"
     inkscape:cy="12"
     inkscape:window-width="3840"
     inkscape:window-height="2020"
     inkscape:window-x="0"
     inkscape:window-y="32"
     inkscape:window-maximized="1"
     inkscape:current-layer="svg1" />
  <path
     d="M 3.3333 13.3333 v -1.3334 h 9.3333 v 1.3334 H 3.3333 Z m 0 -2.3333 -0.85 -5.35 q -0.0333 0 -0.075 0.0083 t -0.075 0.0083 q -0.4167 0 -0.7084 -0.2917 T 1.3334 4.6666 q 0 -0.4167 0.2917 -0.7084 T 2.3333 3.6667 q 0.4167 0 0.7084 0.2917 T 3.3333 4.6666 q 0 0.1167 -0.025 0.2167 t -0.0583 0.1834 l 2.0833 0.9334 2.0833 -2.85 q -0.1834 -0.1333 -0.3 -0.35 t -0.1167 -0.4667 q 0 -0.4167 0.2917 -0.7084 T 8 1.3334 q 0.4167 0 0.7084 0.2917 T 9 2.3333 q 0 0.25 -0.1167 0.4667 t -0.3 0.35 l 2.0833 2.85 2.0833 -0.9334 q -0.0333 -0.0833 -0.0583 -0.1834 t -0.025 -0.2167 q 0 -0.4167 0.2917 -0.7084 T 13.6667 3.6667 q 0.4167 0 0.7084 0.2917 T 14.6667 4.6666 q 0 0.4167 -0.2917 0.7084 T 13.6667 5.6666 q -0.0333 0 -0.075 -0.0083 t -0.075 -0.0083 l -0.85 5.35 H 3.3333 Z m 1.1334 -1.3334 h 7.0667 l 0.4334 -2.7833 -1.75 0.7667 -2.2167 -3.05 -2.2167 3.05 -1.75 -0.7667 0.4334 2.7833 Z m 3.5333 0 Z"
     id="path1" />
</svg>
