<?xml version="1.0" encoding="UTF-8" standalone="no"?>
<svg
   height="24px"
   viewBox="0 0 24 24"
   width="24px"
   fill="#000000"
   version="1.1"
   id="svg1"
   sodipodi:docname="crown-symbolic.svg"
   inkscape:version="1.4.3 (0d15f75042, 2025-12-25)"
   xmlns:inkscape="http://www.inkscape.org/namespaces/inkscape"
   xmlns:sodipodi="http://sodipodi.sourceforge.net/DTD/sodipodi-0.dtd"
   xmlns="http://www.w3.org/2000/svg"
   xmlns:svg="http://www.w3.org/2000/svg">
  <defs
     id="defs1" />
  <sodipodi:namedview
     id="namedview1"
     pagecolor="#ffffff"
     bordercolor="#000000"
     borderopacity="0.25"
     inkscape:showpageshadow="2"
     inkscape:pageopacity="0.0"
     inkscape:pagecheckerboard="0"
     inkscape:deskcolor="#d1d1d1"
     inkscape:zoom="36.916667"
     inkscape:cx="12"
     inkscape:cy="12"
     inkscape:window-width="3840"
     inkscape:window-height="2020"
     inkscape:window-x="0"
     inkscape:window-y="32"
     inkscape:window-maximized="1"
     inkscape:current-layer="svg1" />
  <path
     d="M 5 19.9999 v -2.0001 h 13.9999 v 2.0001 H 5 Z m 0 -3.5 -1.275 -8.025 q -0.05 0 -0.1125 0.0124 t -0.1125 0.0124 q -0.625 0 -1.0626 -0.4375 T 2.0001 6.9999 q 0 -0.625 0.4375 -1.0626 T 3.5 5.5 q 0.625 0 1.0626 0.4375 T 5 6.9999 q 0 0.175 -0.0375 0.3251 t -0.0874 0.2751 l 3.125 1.4001 3.125 -4.275 q -0.2751 -0.2 -0.45 -0.525 t -0.175 -0.7001 q 0 -0.625 0.4375 -1.0626 T 12 2.0001 q 0.625 0 1.0626 0.4375 T 13.5 3.5 q 0 0.375 -0.175 0.7001 t -0.45 0.525 l 3.125 4.275 3.125 -1.4001 q -0.05 -0.125 -0.0874 -0.2751 t -0.0375 -0.3251 q 0 -0.625 0.4375 -1.0626 T 20.5001 5.5 q 0.625 0 1.0626 0.4375 T 22.0001 6.9999 q 0 0.625 -0.4375 1.0626 T 20.5001 8.4999 q -0.05 0 -0.1125 -0.0124 t -0.1125 -0.0124 l -1.275 8.025 H 5 Z m 1.7001 -2.0001 h 10.6 l 0.6501 -4.1749 -2.625 1.1501 -3.3251 -4.575 -3.3251 4.575 -2.625 -1.1501 0.6501 4.1749 Z m 5.2999 0 Z"
     id="path1" />
</svg>
