<?xml version="1.0" encoding="UTF-8" standalone="no"?>
<svg
   height="24px"
   viewBox="0 0 32 32"
   width="24px"
   fill="#000000"
   version="1.1"
   id="svg1"
   sodipodi:docname="crown-symbolic.svg"
   inkscape:version="1.4.3 (0d15f75042, 2025-12-25)"
   xmlns:inkscape="http://www.inkscape.org/namespaces/inkscape"
   xmlns:sodipodi="http://sodipodi.sourceforge.net/DTD/sodipodi-0.dtd"
   xmlns="http://www.w3.org/2000/svg"
   xmlns:svg="http://www.w3.org/2000/svg">
  <defs
     id="defs1" />
  <sodipodi:namedview
     id="namedview1"
     pagecolor="#ffffff"
     bordercolor="#000000"
     borderopacity="0.25"
     inkscape:showpageshadow="2"
     inkscape:pageopacity="0.0"
     inkscape:pagecheckerboard="0"
     inkscape:deskcolor="#d1d1d1"
     inkscape:zoom="36.916667"
     inkscape:cx="12"
     inkscape:cy="12"
     inkscape:window-width="3840"
     inkscape:window-height="2020"
     inkscape:window-x="0"
     inkscape:window-y="32"
     inkscape:window-maximized="1"
     inkscape:current-layer="svg1" />
  <path
     d="M 6.6667 26.6667 v -2.6667 h 18.6667 v 2.6667 H 6.6667 Z m 0 -4.6667 -1.7 -10.7 q -0.0667 0 -0.15 0.0167 t -0.15 0.0167 q -0.8333 0 -1.4167 -0.5833 T 2.6667 9.3333 q 0 -0.8333 0.5833 -1.4167 T 4.6667 7.3333 q 0.8333 0 1.4167 0.5833 T 6.6667 9.3333 q 0 0.2333 -0.05 0.4333 t -0.1167 0.3667 l 4.1667 1.8667 4.1667 -5.7 q -0.3667 -0.2667 -0.6 -0.7 t -0.2333 -0.9333 q 0 -0.8333 0.5833 -1.4167 T 16 2.6667 q 0.8333 0 1.4167 0.5833 T 18 4.6667 q 0 0.5 -0.2333 0.9333 t -0.6 0.7 l 4.1667 5.7 4.1667 -1.8667 q -0.0667 -0.1667 -0.1167 -0.3667 t -0.05 -0.4333 q 0 -0.8333 0.5833 -1.4167 T 27.3333 7.3333 q 0.8333 0 1.4167 0.5833 T 29.3333 9.3333 q 0 0.8333 -0.5833 1.4167 T 27.3333 11.3333 q -0.0667 0 -0.15 -0.0167 t -0.15 -0.0167 l -1.7 10.7 H 6.6667 Z m 2.2667 -2.6667 h 14.1333 l 0.8667 -5.5667 -3.5 1.5333 -4.4333 -6.1 -4.4333 6.1 -3.5 -1.5333 0.8667 5.5667 Z m 7.0667 0 Z"
     id="path1" />
</svg>
