<?xml version="1.0" encoding="UTF-8" standalone="no"?>
<svg
   height="24px"
   viewBox="0 -960 960 960"
   width="24px"
   fill="#000000"
   version="1.1"
   id="svg1"
   sodipodi:docname="crown-symbolic.svg"
   inkscape:version="1.4.3 (0d15f75042, 2025-12-25)"
   xmlns:inkscape="http://www.inkscape.org/namespaces/inkscape"
   xmlns:sodipodi="http://sodipodi.sourceforge.net/DTD/sodipodi-0.dtd"
   xmlns="http://www.w3.org/2000/svg"
   xmlns:svg="http://www.w3.org/2000/svg">
  <defs
     id="defs1" />
  <sodipodi:namedview
     id="namedview1"
     pagecolor="#ffffff"
     bordercolor="#000000"
     borderopacity="0.25"
     inkscape:showpageshadow="2"
     inkscape:pageopacity="0.0"
     inkscape:pagecheckerboard="0"
     inkscape:deskcolor="#d1d1d1"
     inkscape:zoom="36.916667"
     inkscape:cx="12"
     inkscape:cy="12"
     inkscape:window-width="3840"
     inkscape:window-height="2020"
     inkscape:window-x="0"
     inkscape:window-y="32"
     inkscape:window-maximized="1"
     inkscape:current-layer="svg1" />
  <path
     d="M200-160v-80h560v80H200Zm0-140-51-321q-2 0-4.5.5t-4.5.5q-25 0-42.5-17.5T80-680q0-25 17.5-42.5T140-740q25 0 42.5 17.5T200-680q0 7-1.5 13t-3.5 11l125 56 125-171q-11-8-18-21t-7-28q0-25 17.5-42.5T480-880q25 0 42.5 17.5T540-820q0 15-7 28t-18 21l125 171 125-56q-2-5-3.5-11t-1.5-13q0-25 17.5-42.5T820-740q25 0 42.5 17.5T880-680q0 25-17.5 42.5T820-620q-2 0-4.5-.5t-4.5-.5l-51 321H200Zm68-80h424l26-167-105 46-133-183-133 183-105-46 26 167Zm212 0Z"
     id="path1" />
</svg>
