<?xml version="1.0" encoding="UTF-8" standalone="no"?>
<svg
   height="24px"
   viewBox="0 0 32 32"
   width="24px"
   fill="#000000"
   version="1.1"
   id="svg1"
   sodipodi:docname="cut-symbolic.svg"
   inkscape:version="1.4.2 (ebf0e940d0, 2025-05-08)"
   xmlns:inkscape="http://www.inkscape.org/namespaces/inkscape"
   xmlns:sodipodi="http://sodipodi.sourceforge.net/DTD/sodipodi-0.dtd"
   xmlns="http://www.w3.org/2000/svg"
   xmlns:svg="http://www.w3.org/2000/svg">
  <defs
     id="defs1" />
  <sodipodi:namedview
     id="namedview1"
     pagecolor="#ffffff"
     bordercolor="#000000"
     borderopacity="0.25"
     inkscape:showpageshadow="2"
     inkscape:pageopacity="0.0"
     inkscape:pagecheckerboard="0"
     inkscape:deskcolor="#d1d1d1"
     inkscape:zoom="36.916667"
     inkscape:cx="12"
     inkscape:cy="12"
     inkscape:window-width="3840"
     inkscape:window-height="2020"
     inkscape:window-x="0"
     inkscape:window-y="32"
     inkscape:window-maximized="1"
     inkscape:current-layer="svg1" />
  <path
     d="M 20.6333 28.4 q -0.3667 0.3667 -0.85 0.5667 T 18.7667 29.1667 q -0.5333 0 -1.0333 -0.2 t -0.8667 -0.5667 l -1.8667 -1.8667 q -0.3667 -0.3667 -0.55 -0.8167 T 14.2333 24.8 q -0.0333 -0.4667 0.1167 -0.9333 t 0.45 -0.8667 l 0.2 -0.2667 -10.8667 -15.5333 5.2 -5.2 16.9667 16.9667 q 0.3667 0.3667 0.5667 0.85 t 0.2 1.0167 q 0 0.5333 -0.2 1.0333 t -0.5667 0.8667 L 20.6333 28.4 Z M 16.9 20.8333 l 3.7667 -3.7333 -11.3333 -11.3333 -1.7333 1.7333 9.3 13.3333 Z m 1.8667 5.6667 5.6333 -5.6333 -1.8667 -1.9 -5.6667 5.6667 1.9 1.8667 Z m -1.8667 -5.6667 3.7667 -3.7333 -3.7667 3.7333 Z"
     id="path1" />
</svg>
