<?xml version="1.0" encoding="UTF-8" standalone="no"?>
<svg
   height="24px"
   viewBox="0 0 24 24"
   width="24px"
   fill="#000000"
   version="1.1"
   id="svg1"
   sodipodi:docname="cut-symbolic.svg"
   inkscape:version="1.4.2 (ebf0e940d0, 2025-05-08)"
   xmlns:inkscape="http://www.inkscape.org/namespaces/inkscape"
   xmlns:sodipodi="http://sodipodi.sourceforge.net/DTD/sodipodi-0.dtd"
   xmlns="http://www.w3.org/2000/svg"
   xmlns:svg="http://www.w3.org/2000/svg">
  <defs
     id="defs1" />
  <sodipodi:namedview
     id="namedview1"
     pagecolor="#ffffff"
     bordercolor="#000000"
     borderopacity="0.25"
     inkscape:showpageshadow="2"
     inkscape:pageopacity="0.0"
     inkscape:pagecheckerboard="0"
     inkscape:deskcolor="#d1d1d1"
     inkscape:zoom="36.916667"
     inkscape:cx="12"
     inkscape:cy="12"
     inkscape:window-width="3840"
     inkscape:window-height="2020"
     inkscape:window-x="0"
     inkscape:window-y="32"
     inkscape:window-maximized="1"
     inkscape:current-layer="svg1" />
  <path
     d="M 15.4749 21.3 q -0.2751 0.2751 -0.6375 0.4249 T 14.0751 21.8749 q -0.3999 0 -0.7751 -0.15 t -0.6501 -0.4249 l -1.4001 -1.4001 q -0.2751 -0.2751 -0.4125 -0.6124 T 10.6749 18.6 q -0.025 -0.3501 0.0874 -0.7001 t 0.3375 -0.6501 l 0.15 -0.2 -8.15 -11.6501 3.9 -3.9 12.7249 12.7249 q 0.2751 0.2751 0.4249 0.6375 t 0.15 0.7624 q 0 0.3999 -0.15 0.7751 t -0.4249 0.6501 L 15.4749 21.3 Z M 12.675 15.6251 l 2.8251 -2.7999 -8.4999 -8.4999 -1.3001 1.3001 6.975 9.9999 Z m 1.4001 4.25 4.225 -4.225 -1.4001 -1.425 -4.25 4.25 1.425 1.4001 Z m -1.4001 -4.25 2.8251 -2.7999 -2.8251 2.7999 Z"
     id="path1" />
</svg>
