<?xml version="1.0" encoding="UTF-8" standalone="no"?>
<svg
   height="24px"
   viewBox="0 0 16 16"
   width="24px"
   fill="#000000"
   version="1.1"
   id="svg1"
   sodipodi:docname="cut-symbolic.svg"
   inkscape:version="1.4.2 (ebf0e940d0, 2025-05-08)"
   xmlns:inkscape="http://www.inkscape.org/namespaces/inkscape"
   xmlns:sodipodi="http://sodipodi.sourceforge.net/DTD/sodipodi-0.dtd"
   xmlns="http://www.w3.org/2000/svg"
   xmlns:svg="http://www.w3.org/2000/svg">
  <defs
     id="defs1" />
  <sodipodi:namedview
     id="namedview1"
     pagecolor="#ffffff"
     bordercolor="#000000"
     borderopacity="0.25"
     inkscape:showpageshadow="2"
     inkscape:pageopacity="0.0"
     inkscape:pagecheckerboard="0"
     inkscape:deskcolor="#d1d1d1"
     inkscape:zoom="36.916667"
     inkscape:cx="12"
     inkscape:cy="12"
     inkscape:window-width="3840"
     inkscape:window-height="2020"
     inkscape:window-x="0"
     inkscape:window-y="32"
     inkscape:window-maximized="1"
     inkscape:current-layer="svg1" />
  <path
     d="M 10.3166 14.2 q -0.1834 0.1834 -0.425 0.2833 T 9.3834 14.5833 q -0.2666 0 -0.5167 -0.1 t -0.4334 -0.2833 l -0.9334 -0.9334 q -0.1834 -0.1834 -0.275 -0.4083 T 7.1166 12.4 q -0.0167 -0.2334 0.0583 -0.4667 t 0.225 -0.4334 l 0.1 -0.1333 -5.4333 -7.7667 2.6 -2.6 8.4833 8.4833 q 0.1834 0.1834 0.2833 0.425 t 0.1 0.5083 q 0 0.2666 -0.1 0.5167 t -0.2833 0.4334 L 10.3166 14.2 Z M 8.45 10.4167 l 1.8834 -1.8666 -5.6666 -5.6666 -0.8667 0.8667 4.65 6.6666 Z m 0.9334 2.8333 2.8167 -2.8167 -0.9334 -0.95 -2.8333 2.8333 0.95 0.9334 Z m -0.9334 -2.8333 1.8834 -1.8666 -1.8834 1.8666 Z"
     id="path1" />
</svg>
