<?xml version="1.0" encoding="UTF-8" standalone="no"?>
<svg
   height="24px"
   viewBox="0 0 24 24"
   width="24px"
   fill="#000000"
   version="1.1"
   id="svg1"
   xmlns="http://www.w3.org/2000/svg"
   xmlns:svg="http://www.w3.org/2000/svg">
  <defs
     id="defs1" />
  <path
     d="M 7.8499 21.1249 q -2.6 -1.2 -4.225 -3.625 T 2.0001 12.0251 q 0 -0.6501 0.0624 -1.275 t 0.2124 -1.2249 l -1.1501 0.675 -0.9999 -1.725 4.775 -2.7501 2.7501 4.75 -1.7499 0.9999 -1.35 -2.35 q -0.2751 0.675 -0.4125 1.4001 t -0.1374 1.5 q 0 2.4249 1.3249 4.4125 T 8.85 19.3751 l -0.9999 1.7499 Z m 7.65 -12.1249 v -2.0001 h 2.725 q -1.1501 -1.425 -2.775 -2.2125 T 12 4 q -1.3749 0 -2.6 0.4249 t -2.25 1.2 l -0.9999 -1.7499 q 1.2501 -0.8751 2.725 -1.3749 t 3.125 -0.5 q 1.975 0 3.7749 0.7374 T 19.0001 4.875 v -1.3749 h 2.0001 v 5.5 H 15.4999 Z M 14.85 24 10.0749 21.2501 l 2.7501 -4.75 1.725 0.9999 -1.425 2.4501 q 2.9501 -0.4249 4.9125 -2.6749 T 19.9999 12 q 0 -0.2751 -0.0124 -0.5126 T 19.9251 11.0001 h 2.025 q 0.025 0.2499 0.0375 0.4875 t 0.0124 0.5126 q 0 3.375 -2.0126 6.0375 T 14.7499 21.6251 l 1.0999 0.6501 -0.9999 1.725 Z"
     id="path1" />
</svg>
