<?xml version="1.0" encoding="UTF-8" standalone="no"?>
<svg
   height="24px"
   viewBox="0 0 16 16"
   width="24px"
   fill="#000000"
   version="1.1"
   id="svg1"
   xmlns="http://www.w3.org/2000/svg"
   xmlns:svg="http://www.w3.org/2000/svg">
  <defs
     id="defs1" />
  <path
     d="M 5.2333 14.0833 q -1.7333 -0.8 -2.8167 -2.4167 T 1.3334 8.0167 q 0 -0.4334 0.0416 -0.85 t 0.1416 -0.8166 l -0.7667 0.45 -0.6666 -1.15 3.1833 -1.8334 1.8334 3.1667 -1.1666 0.6666 -0.9 -1.5667 q -0.1834 0.45 -0.275 0.9334 t -0.0916 1 q 0 1.6166 0.8833 2.9417 T 5.9 12.9167 l -0.6666 1.1666 Z m 5.1 -8.0833 v -1.3334 h 1.8167 q -0.7667 -0.95 -1.85 -1.475 T 8 2.6667 q -0.9166 0 -1.7333 0.2833 t -1.5 0.8 l -0.6666 -1.1666 q 0.8334 -0.5834 1.8167 -0.9166 t 2.0833 -0.3333 q 1.3167 0 2.5166 0.4916 T 12.6667 3.25 v -0.9166 h 1.3334 v 3.6667 H 10.3333 Z M 9.9 16 6.7166 14.1667 l 1.8334 -3.1667 1.15 0.6666 -0.95 1.6334 q 1.9667 -0.2833 3.275 -1.7833 T 13.3333 8 q 0 -0.1834 -0.0083 -0.3417 T 13.2834 7.3334 h 1.35 q 0.0167 0.1666 0.025 0.325 t 0.0083 0.3417 q 0 2.25 -1.3417 4.025 T 9.8333 14.4167 l 0.7333 0.4334 -0.6666 1.15 Z"
     id="path1" />
</svg>
