<?xml version="1.0" encoding="UTF-8" standalone="no"?>
<svg
   height="24px"
   viewBox="0 0 32 32"
   width="24px"
   fill="#000000"
   version="1.1"
   id="svg1"
   xmlns="http://www.w3.org/2000/svg"
   xmlns:svg="http://www.w3.org/2000/svg">
  <defs
     id="defs1" />
  <path
     d="M 10.4667 28.1667 q -3.4667 -1.6 -5.6333 -4.8333 T 2.6667 16.0333 q 0 -0.8667 0.0833 -1.7 t 0.2833 -1.6333 l -1.5333 0.9 -1.3333 -2.3 6.3667 -3.6667 3.6667 6.3333 -2.3333 1.3333 -1.8 -3.1333 q -0.3667 0.9 -0.55 1.8667 t -0.1833 2 q 0 3.2333 1.7667 5.8833 T 11.8 25.8333 l -1.3333 2.3333 Z m 10.2 -16.1667 v -2.6667 h 3.6333 q -1.5333 -1.9 -3.7 -2.95 T 16 5.3333 q -1.8333 0 -3.4667 0.5667 t -3 1.6 l -1.3333 -2.3333 q 1.6667 -1.1667 3.6333 -1.8333 t 4.1667 -0.6667 q 2.6333 0 5.0333 0.9833 T 25.3333 6.5 v -1.8333 h 2.6667 v 7.3333 H 20.6667 Z M 19.8 32 13.4333 28.3333 l 3.6667 -6.3333 2.3 1.3333 -1.9 3.2667 q 3.9333 -0.5667 6.55 -3.5667 T 26.6667 16 q 0 -0.3667 -0.0167 -0.6833 T 26.5667 14.6667 h 2.7 q 0.0333 0.3333 0.05 0.65 t 0.0167 0.6833 q 0 4.5 -2.6833 8.05 T 19.6667 28.8333 l 1.4667 0.8667 -1.3333 2.3 Z"
     id="path1" />
</svg>
