<?xml version="1.0" encoding="UTF-8" standalone="no"?>
<svg
   height="24px"
   viewBox="0 0 32 32"
   width="24px"
   fill="#000000"
   version="1.1"
   id="svg1"
   xmlns="http://www.w3.org/2000/svg"
   xmlns:svg="http://www.w3.org/2000/svg">
  <defs
     id="defs1" />
  <path
     d="M 12 26.6667 q -1.1 0 -1.8833 -0.7833 T 9.3333 24 q 0 -1.1 0.7833 -1.8833 T 12 21.3333 q 1.1 0 1.8833 0.7833 T 14.6667 24 q 0 1.1 -0.7833 1.8833 T 12 26.6667 Z m 8 0 q -1.1 0 -1.8833 -0.7833 T 17.3333 24 q 0 -1.1 0.7833 -1.8833 T 20 21.3333 q 1.1 0 1.8833 0.7833 T 22.6667 24 q 0 1.1 -0.7833 1.8833 T 20 26.6667 Z M 12 18.6667 q -1.1 0 -1.8833 -0.7833 T 9.3333 16 q 0 -1.1 0.7833 -1.8833 T 12 13.3333 q 1.1 0 1.8833 0.7833 T 14.6667 16 q 0 1.1 -0.7833 1.8833 T 12 18.6667 Z m 8 0 q -1.1 0 -1.8833 -0.7833 T 17.3333 16 q 0 -1.1 0.7833 -1.8833 T 20 13.3333 q 1.1 0 1.8833 0.7833 T 22.6667 16 q 0 1.1 -0.7833 1.8833 T 20 18.6667 Z M 12 10.6667 q -1.1 0 -1.8833 -0.7833 T 9.3333 8 q 0 -1.1 0.7833 -1.8833 T 12 5.3333 q 1.1 0 1.8833 0.7833 T 14.6667 8 q 0 1.1 -0.7833 1.8833 T 12 10.6667 Z m 8 0 q -1.1 0 -1.8833 -0.7833 T 17.3333 8 q 0 -1.1 0.7833 -1.8833 T 20 5.3333 q 1.1 0 1.8833 0.7833 T 22.6667 8 q 0 1.1 -0.7833 1.8833 T 20 10.6667 Z"
     id="path1" />
</svg>
