<?xml version="1.0" encoding="UTF-8" standalone="no"?>
<svg
   height="24px"
   viewBox="0 0 24 24"
   width="24px"
   fill="#000000"
   version="1.1"
   id="svg1"
   xmlns="http://www.w3.org/2000/svg"
   xmlns:svg="http://www.w3.org/2000/svg">
  <defs
     id="defs1" />
  <path
     d="M 9 19.9999 q -0.825 0 -1.4124 -0.5874 T 6.9999 18 q 0 -0.825 0.5874 -1.4124 T 9 16.0001 q 0.825 0 1.4124 0.5874 T 11.0001 18 q 0 0.825 -0.5874 1.4124 T 9 19.9999 Z m 6 0 q -0.825 0 -1.4124 -0.5874 T 13.0001 18 q 0 -0.825 0.5874 -1.4124 T 15 16.0001 q 0.825 0 1.4124 0.5874 T 16.9999 18 q 0 0.825 -0.5874 1.4124 T 15 19.9999 Z M 9 13.9999 q -0.825 0 -1.4124 -0.5874 T 6.9999 12 q 0 -0.825 0.5874 -1.4124 T 9 9.9999 q 0.825 0 1.4124 0.5874 T 11.0001 12 q 0 0.825 -0.5874 1.4124 T 9 13.9999 Z m 6 0 q -0.825 0 -1.4124 -0.5874 T 13.0001 12 q 0 -0.825 0.5874 -1.4124 T 15 9.9999 q 0.825 0 1.4124 0.5874 T 16.9999 12 q 0 0.825 -0.5874 1.4124 T 15 13.9999 Z M 9 8.0001 q -0.825 0 -1.4124 -0.5874 T 6.9999 6 q 0 -0.825 0.5874 -1.4124 T 9 4 q 0.825 0 1.4124 0.5874 T 11.0001 6 q 0 0.825 -0.5874 1.4124 T 9 8.0001 Z m 6 0 q -0.825 0 -1.4124 -0.5874 T 13.0001 6 q 0 -0.825 0.5874 -1.4124 T 15 4 q 0.825 0 1.4124 0.5874 T 16.9999 6 q 0 0.825 -0.5874 1.4124 T 15 8.0001 Z"
     id="path1" />
</svg>
