<?xml version="1.0" encoding="UTF-8" standalone="no"?>
<svg
   height="24px"
   viewBox="0 0 16 16"
   width="24px"
   fill="#000000"
   version="1.1"
   id="svg1"
   xmlns="http://www.w3.org/2000/svg"
   xmlns:svg="http://www.w3.org/2000/svg">
  <defs
     id="defs1" />
  <path
     d="M 6 13.3333 q -0.55 0 -0.9416 -0.3916 T 4.6666 12 q 0 -0.55 0.3916 -0.9416 T 6 10.6667 q 0.55 0 0.9416 0.3916 T 7.3334 12 q 0 0.55 -0.3916 0.9416 T 6 13.3333 Z m 4 0 q -0.55 0 -0.9416 -0.3916 T 8.6667 12 q 0 -0.55 0.3916 -0.9416 T 10 10.6667 q 0.55 0 0.9416 0.3916 T 11.3333 12 q 0 0.55 -0.3916 0.9416 T 10 13.3333 Z M 6 9.3333 q -0.55 0 -0.9416 -0.3916 T 4.6666 8 q 0 -0.55 0.3916 -0.9416 T 6 6.6666 q 0.55 0 0.9416 0.3916 T 7.3334 8 q 0 0.55 -0.3916 0.9416 T 6 9.3333 Z m 4 0 q -0.55 0 -0.9416 -0.3916 T 8.6667 8 q 0 -0.55 0.3916 -0.9416 T 10 6.6666 q 0.55 0 0.9416 0.3916 T 11.3333 8 q 0 0.55 -0.3916 0.9416 T 10 9.3333 Z M 6 5.3334 q -0.55 0 -0.9416 -0.3916 T 4.6666 4 q 0 -0.55 0.3916 -0.9416 T 6 2.6667 q 0.55 0 0.9416 0.3916 T 7.3334 4 q 0 0.55 -0.3916 0.9416 T 6 5.3334 Z m 4 0 q -0.55 0 -0.9416 -0.3916 T 8.6667 4 q 0 -0.55 0.3916 -0.9416 T 10 2.6667 q 0.55 0 0.9416 0.3916 T 11.3333 4 q 0 0.55 -0.3916 0.9416 T 10 5.3334 Z"
     id="path1" />
</svg>
