<?xml version="1.0" encoding="UTF-8" standalone="no"?>
<svg
   height="24px"
   viewBox="0 0 32 32"
   width="24px"
   fill="#000000"
   version="1.1"
   id="svg1"
   sodipodi:docname="edit-symbolic.svg"
   inkscape:version="1.4.2 (ebf0e940d0, 2025-05-08)"
   xmlns:inkscape="http://www.inkscape.org/namespaces/inkscape"
   xmlns:sodipodi="http://sodipodi.sourceforge.net/DTD/sodipodi-0.dtd"
   xmlns="http://www.w3.org/2000/svg"
   xmlns:svg="http://www.w3.org/2000/svg">
  <defs
     id="defs1" />
  <sodipodi:namedview
     id="namedview1"
     pagecolor="#ffffff"
     bordercolor="#000000"
     borderopacity="0.25"
     inkscape:showpageshadow="2"
     inkscape:pageopacity="0.0"
     inkscape:pagecheckerboard="0"
     inkscape:deskcolor="#d1d1d1"
     inkscape:zoom="36.916667"
     inkscape:cx="12"
     inkscape:cy="12"
     inkscape:window-width="3840"
     inkscape:window-height="2020"
     inkscape:window-x="0"
     inkscape:window-y="32"
     inkscape:window-maximized="1"
     inkscape:current-layer="svg1" />
  <path
     d="M 6.6667 25.3333 h 1.9 l 13.0333 -13.0333 -1.9 -1.9 -13.0333 13.0333 v 1.9 Z m -2.6667 2.6667 v -5.6667 l 17.6 -17.5667 q 0.4 -0.3667 0.8833 -0.5667 t 1.0167 -0.2 q 0.5333 0 1.0333 0.2 t 0.8667 0.6 l 1.8333 1.8667 q 0.4 0.3667 0.5833 0.8667 t 0.1833 1 q 0 0.5333 -0.1833 1.0167 T 27.2333 10.4333 L 9.6667 28 H 4 Z m 21.3333 -19.4667 -1.8667 -1.8667 1.8667 1.8667 Z m -4.7 2.8333 -0.9333 -0.9667 1.9 1.9 -0.9667 -0.9333 Z"
     id="path1" />
</svg>
