<?xml version="1.0" encoding="UTF-8" standalone="no"?>
<svg
   height="24px"
   viewBox="0 0 16 16"
   width="24px"
   fill="#000000"
   version="1.1"
   id="svg1"
   sodipodi:docname="edit-symbolic.svg"
   inkscape:version="1.4.2 (ebf0e940d0, 2025-05-08)"
   xmlns:inkscape="http://www.inkscape.org/namespaces/inkscape"
   xmlns:sodipodi="http://sodipodi.sourceforge.net/DTD/sodipodi-0.dtd"
   xmlns="http://www.w3.org/2000/svg"
   xmlns:svg="http://www.w3.org/2000/svg">
  <defs
     id="defs1" />
  <sodipodi:namedview
     id="namedview1"
     pagecolor="#ffffff"
     bordercolor="#000000"
     borderopacity="0.25"
     inkscape:showpageshadow="2"
     inkscape:pageopacity="0.0"
     inkscape:pagecheckerboard="0"
     inkscape:deskcolor="#d1d1d1"
     inkscape:zoom="36.916667"
     inkscape:cx="12"
     inkscape:cy="12"
     inkscape:window-width="3840"
     inkscape:window-height="2020"
     inkscape:window-x="0"
     inkscape:window-y="32"
     inkscape:window-maximized="1"
     inkscape:current-layer="svg1" />
  <path
     d="M 3.3333 12.6667 h 0.95 l 6.5167 -6.5167 -0.95 -0.95 -6.5167 6.5167 v 0.95 Z m -1.3334 1.3334 v -2.8333 l 8.8 -8.7834 q 0.2 -0.1834 0.4416 -0.2833 t 0.5083 -0.1 q 0.2666 0 0.5167 0.1 t 0.4334 0.3 l 0.9166 0.9334 q 0.2 0.1834 0.2917 0.4334 t 0.0916 0.5 q 0 0.2666 -0.0916 0.5083 T 13.6166 5.2166 L 4.8334 14 H 2 Z m 10.6667 -9.7333 -0.9334 -0.9334 0.9334 0.9334 Z m -2.35 1.4166 -0.4667 -0.4834 0.95 0.95 -0.4834 -0.4667 Z"
     id="path1" />
</svg>
