<?xml version="1.0" encoding="UTF-8" standalone="no"?>
<svg
   height="24px"
   viewBox="0 0 24 24"
   width="24px"
   fill="#000000"
   version="1.1"
   id="svg1"
   sodipodi:docname="edit-symbolic.svg"
   inkscape:version="1.4.2 (ebf0e940d0, 2025-05-08)"
   xmlns:inkscape="http://www.inkscape.org/namespaces/inkscape"
   xmlns:sodipodi="http://sodipodi.sourceforge.net/DTD/sodipodi-0.dtd"
   xmlns="http://www.w3.org/2000/svg"
   xmlns:svg="http://www.w3.org/2000/svg">
  <defs
     id="defs1" />
  <sodipodi:namedview
     id="namedview1"
     pagecolor="#ffffff"
     bordercolor="#000000"
     borderopacity="0.25"
     inkscape:showpageshadow="2"
     inkscape:pageopacity="0.0"
     inkscape:pagecheckerboard="0"
     inkscape:deskcolor="#d1d1d1"
     inkscape:zoom="36.916667"
     inkscape:cx="12"
     inkscape:cy="12"
     inkscape:window-width="3840"
     inkscape:window-height="2020"
     inkscape:window-x="0"
     inkscape:window-y="32"
     inkscape:window-maximized="1"
     inkscape:current-layer="svg1" />
  <path
     d="M 5 19.0001 h 1.425 l 9.7751 -9.7751 -1.425 -1.425 -9.7751 9.7751 v 1.425 Z m -2.0001 2.0001 v -4.25 l 13.2 -13.1751 q 0.3 -0.2751 0.6624 -0.4249 t 0.7624 -0.15 q 0.3999 0 0.7751 0.15 t 0.6501 0.45 l 1.3749 1.4001 q 0.3 0.2751 0.4375 0.6501 t 0.1374 0.75 q 0 0.3999 -0.1374 0.7624 T 20.4249 7.8249 L 7.2501 21 H 3 Z m 16.0001 -14.5999 -1.4001 -1.4001 1.4001 1.4001 Z m -3.525 2.1249 -0.7001 -0.7251 1.425 1.425 -0.7251 -0.7001 Z"
     id="path1" />
</svg>
