<?xml version="1.0" encoding="UTF-8" standalone="no"?>
<svg
   height="24px"
   viewBox="0 0 32 32"
   width="24px"
   fill="#000000"
   version="1.1"
   id="svg1"
   sodipodi:docname="engrave-symbolic.svg"
   inkscape:version="1.4.2 (ebf0e940d0, 2025-05-08)"
   xmlns:inkscape="http://www.inkscape.org/namespaces/inkscape"
   xmlns:sodipodi="http://sodipodi.sourceforge.net/DTD/sodipodi-0.dtd"
   xmlns="http://www.w3.org/2000/svg"
   xmlns:svg="http://www.w3.org/2000/svg">
  <defs
     id="defs1" />
  <sodipodi:namedview
     id="namedview1"
     pagecolor="#ffffff"
     bordercolor="#000000"
     borderopacity="0.25"
     inkscape:showpageshadow="2"
     inkscape:pageopacity="0.0"
     inkscape:pagecheckerboard="0"
     inkscape:deskcolor="#d1d1d1"
     inkscape:zoom="36.916667"
     inkscape:cx="12"
     inkscape:cy="12"
     inkscape:window-width="3840"
     inkscape:window-height="2020"
     inkscape:window-x="0"
     inkscape:window-y="32"
     inkscape:window-maximized="1"
     inkscape:current-layer="svg1" />
  <path
     d="M 6.6667 29.3333 v -4 H 2.6667 v -2.6667 h 4 v -5.3333 H 2.6667 v -2.6667 h 4 v -5.3333 H 2.6667 v -2.6667 h 4 v -4 h 2.6667 v 4 h 5.3333 v -4 h 2.6667 v 4 h 5.3333 v -4 h 2.6667 v 4 h 4 v 2.6667 H 25.3333 v 5.3333 h 4 v 2.6667 H 25.3333 v 5.3333 h 4 v 2.6667 H 25.3333 v 4 h -2.6667 v -4 H 17.3333 v 4 h -2.6667 v -4 H 9.3333 v 4 h -2.6667 Z m 2.6667 -6.6667 h 5.3333 v -5.3333 H 9.3333 v 5.3333 Z m 8 0 h 5.3333 v -5.3333 H 17.3333 v 5.3333 Z M 9.3333 14.6667 h 5.3333 v -5.3333 H 9.3333 v 5.3333 Z m 8 0 h 5.3333 v -5.3333 H 17.3333 v 5.3333 Z"
     id="path1" />
</svg>
