<?xml version="1.0" encoding="UTF-8" standalone="no"?>
<svg
   height="16px"
   viewBox="0 0 32 32"
   width="16px"
   version="1.1"
   id="svg13"
   xmlns="http://www.w3.org/2000/svg"
   xmlns:svg="http://www.w3.org/2000/svg">
  <defs
     id="defs13" />
  <filter
     id="a"
     height="1"
     width="1"
     x="0"
     y="0">
    <feColorMatrix
       color-interpolation-filters="sRGB"
       values="0 0 0 0 1 0 0 0 0 1 0 0 0 0 1 0 0 0 1 0"
       id="feColorMatrix1" />
  </filter>
  <mask
     id="b">
    <g
       filter="url(#a)"
       id="g1">
      <path
         d="m -3.2 -3.2 h 38.4 v 38.4 h -38.4 z"
         fill-opacity="0.5"
         id="path1" />
    </g>
  </mask>
  <clipPath
     id="c">
    <path
       d="m 0 0 h 3200 v 2400 h -3200 z"
       id="path2" />
  </clipPath>
  <mask
     id="d">
    <g
       filter="url(#a)"
       id="g3">
      <path
         d="m -3.2 -3.2 h 38.4 v 38.4 h -38.4 z"
         fill-opacity="0.7"
         id="path3" />
    </g>
  </mask>
  <clipPath
     id="e">
    <path
       d="m 0 0 h 3200 v 2400 h -3200 z"
       id="path4" />
  </clipPath>
  <mask
     id="f">
    <g
       filter="url(#a)"
       id="g5">
      <path
         d="m -3.2 -3.2 h 38.4 v 38.4 h -38.4 z"
         fill-opacity="0.35"
         id="path5" />
    </g>
  </mask>
  <clipPath
     id="g">
    <path
       d="m 0 0 h 3200 v 2400 h -3200 z"
       id="path6" />
  </clipPath>
  <g
     mask="url(#b)"
     id="g8">
    <g
       clip-path="url(#c)"
       transform="matrix(1 0 0 1 -36 -916)"
       id="g7">
      <path
         d="m 1100 364 c -0.7031 0.0078 -1.3906 0.2031 -2 0.5625 v 6.875 c 0.6094 0.3594 1.2969 0.5547 2 0.5625 c 2.2109 0 4 -1.7891 4 -4 s -1.7891 -4 -4 -4 z m 0 10 c -0.6797 0 -1.3594 0.1172 -2 0.3516 v 13.6484 h 8 v -8 c 0 -3.3125 -2.6875 -6 -6 -6 z m 0 0"
         id="path7" />
    </g>
  </g>
  <g
     mask="url(#d)"
     id="g10">
    <g
       clip-path="url(#e)"
       transform="matrix(1 0 0 1 -36 -916)"
       id="g9">
      <path
         d="m 1138 364 v 8 c 2.2109 0 4 -1.7891 4 -4 s -1.7891 -4 -4 -4 z m 0 10 v 14 h 6 v -8 c 0 -3.3125 -2.6875 -6 -6 -6 z m 0 0"
         id="path8" />
    </g>
  </g>
  <g
     mask="url(#f)"
     id="g12">
    <g
       clip-path="url(#g)"
       transform="matrix(1 0 0 1 -36 -916)"
       id="g11">
      <path
         d="m 1146 364.5391 v 6.8984 c 1.2266 -0.7109 1.9922 -2.0156 2 -3.4375 c 0 -1.4297 -0.7656 -2.75 -2 -3.4609 z m 0 9.8125 v 13.6484 h 4 v -8 c 0 -2.5391 -1.6016 -4.8047 -4 -5.6484 z m 0 0"
         id="path10" />
    </g>
  </g>
  <g
     fill="#000000"
     id="g13">
    <path
       d="m 20.3125 2 c -0.3828 0.0234 -0.7578 0.2422 -1.1328 0.6094 l -17.1797 16.8672 l 4.6406 4.5547 h 11.2422 l 11.6328 -11.4219 c 0.6563 -0.6406 0.6094 -1.6016 0.0156 -2.1797 l -7.9922 -7.8516 c -0.4375 -0.4219 -0.8359 -0.6016 -1.2266 -0.5781 z m -7.9219 11.2578 l 5.5313 5.1406 c 0.4219 0.25 0.3984 1.1562 0.0703 1.4922 l -1.9922 2.1094 h -8.5 l -2.5547 -2.5156 l 6.1328 -6.1563 c 0.375 -0.375 1 -0.3828 1.3125 -0.0703 z m 0 0"
       id="path12" />
    <path
       d="m 18 22 h 12 v 2 h -12 z m 0 0"
       id="path13" />
  </g>
</svg>
