<?xml version="1.0" encoding="UTF-8" standalone="no"?>
<svg
   height="16px"
   viewBox="0 0 16 16"
   width="16px"
   version="1.1"
   id="svg13"
   xmlns="http://www.w3.org/2000/svg"
   xmlns:svg="http://www.w3.org/2000/svg">
  <defs
     id="defs13" />
  <filter
     id="a"
     height="1"
     width="1"
     x="0"
     y="0">
    <feColorMatrix
       color-interpolation-filters="sRGB"
       values="0 0 0 0 1 0 0 0 0 1 0 0 0 0 1 0 0 0 1 0"
       id="feColorMatrix1" />
  </filter>
  <mask
     id="b">
    <g
       filter="url(#a)"
       id="g1">
      <path
         d="m -1.6 -1.6 h 19.2 v 19.2 h -19.2 z"
         fill-opacity="0.5"
         id="path1" />
    </g>
  </mask>
  <clipPath
     id="c">
    <path
       d="m 0 0 h 1600 v 1200 h -1600 z"
       id="path2" />
  </clipPath>
  <mask
     id="d">
    <g
       filter="url(#a)"
       id="g3">
      <path
         d="m -1.6 -1.6 h 19.2 v 19.2 h -19.2 z"
         fill-opacity="0.7"
         id="path3" />
    </g>
  </mask>
  <clipPath
     id="e">
    <path
       d="m 0 0 h 1600 v 1200 h -1600 z"
       id="path4" />
  </clipPath>
  <mask
     id="f">
    <g
       filter="url(#a)"
       id="g5">
      <path
         d="m -1.6 -1.6 h 19.2 v 19.2 h -19.2 z"
         fill-opacity="0.35"
         id="path5" />
    </g>
  </mask>
  <clipPath
     id="g">
    <path
       d="m 0 0 h 1600 v 1200 h -1600 z"
       id="path6" />
  </clipPath>
  <g
     mask="url(#b)"
     id="g8">
    <g
       clip-path="url(#c)"
       transform="matrix(1 0 0 1 -36 -916)"
       id="g7">
      <path
         d="m 550 182 c -0.3515 0.0039 -0.6953 0.1016 -1 0.2812 v 3.4375 c 0.3047 0.1797 0.6484 0.2773 1 0.2812 c 1.1055 0 2 -0.8945 2 -2 s -0.8945 -2 -2 -2 z m 0 5 c -0.3398 0 -0.6797 0.0586 -1 0.1758 v 6.8242 h 4 v -4 c 0 -1.6562 -1.3438 -3 -3 -3 z m 0 0"
         id="path7" />
    </g>
  </g>
  <g
     mask="url(#d)"
     id="g10">
    <g
       clip-path="url(#e)"
       transform="matrix(1 0 0 1 -36 -916)"
       id="g9">
      <path
         d="m 569 182 v 4 c 1.1055 0 2 -0.8945 2 -2 s -0.8945 -2 -2 -2 z m 0 5 v 7 h 3 v -4 c 0 -1.6562 -1.3438 -3 -3 -3 z m 0 0"
         id="path8" />
    </g>
  </g>
  <g
     mask="url(#f)"
     id="g12">
    <g
       clip-path="url(#g)"
       transform="matrix(1 0 0 1 -36 -916)"
       id="g11">
      <path
         d="m 573 182.2696 v 3.4492 c 0.6133 -0.3554 0.9961 -1.0078 1 -1.7188 c 0 -0.7148 -0.3828 -1.375 -1 -1.7305 z m 0 4.9062 v 6.8242 h 2 v -4 c 0 -1.2695 -0.8008 -2.4024 -2 -2.8242 z m 0 0"
         id="path10" />
    </g>
  </g>
  <g
     fill="#000000"
     id="g13">
    <path
       d="m 10.1562 1 c -0.1914 0.0117 -0.3789 0.1211 -0.5664 0.3047 l -8.5899 8.4336 l 2.3203 2.2774 h 5.6211 l 5.8164 -5.711 c 0.3281 -0.3203 0.3047 -0.8008 0.0078 -1.0898 l -3.9961 -3.9258 c -0.2188 -0.2109 -0.4179 -0.3008 -0.6133 -0.289 z m -3.9609 5.6289 l 2.7656 2.5703 c 0.2109 0.125 0.1992 0.5781 0.0352 0.7461 l -0.9961 1.0547 h -4.25 l -1.2773 -1.2578 l 3.0664 -3.0781 c 0.1875 -0.1875 0.5 -0.1914 0.6562 -0.0352 z m 0 0"
       id="path12" />
    <path
       d="m 9 11 h 6 v 1 h -6 z m 0 0"
       id="path13" />
  </g>
</svg>
