<?xml version="1.0" encoding="UTF-8" standalone="no"?>
<svg
   height="16px"
   viewBox="0 0 24 24"
   width="16px"
   version="1.1"
   id="svg13"
   xmlns="http://www.w3.org/2000/svg"
   xmlns:svg="http://www.w3.org/2000/svg">
  <defs
     id="defs13" />
  <filter
     id="a"
     height="1"
     width="1"
     x="0"
     y="0">
    <feColorMatrix
       color-interpolation-filters="sRGB"
       values="0 0 0 0 1 0 0 0 0 1 0 0 0 0 1 0 0 0 1 0"
       id="feColorMatrix1" />
  </filter>
  <mask
     id="b">
    <g
       filter="url(#a)"
       id="g1">
      <path
         d="m -2.4 -2.4 h 28.8 v 28.8 h -28.8 z"
         fill-opacity="0.5"
         id="path1" />
    </g>
  </mask>
  <clipPath
     id="c">
    <path
       d="m 0 0 h 2400 v 1800 h -2400 z"
       id="path2" />
  </clipPath>
  <mask
     id="d">
    <g
       filter="url(#a)"
       id="g3">
      <path
         d="m -2.4 -2.4 h 28.8 v 28.8 h -28.8 z"
         fill-opacity="0.7"
         id="path3" />
    </g>
  </mask>
  <clipPath
     id="e">
    <path
       d="m 0 0 h 2400 v 1800 h -2400 z"
       id="path4" />
  </clipPath>
  <mask
     id="f">
    <g
       filter="url(#a)"
       id="g5">
      <path
         d="m -2.4 -2.4 h 28.8 v 28.8 h -28.8 z"
         fill-opacity="0.35"
         id="path5" />
    </g>
  </mask>
  <clipPath
     id="g">
    <path
       d="m 0 0 h 2400 v 1800 h -2400 z"
       id="path6" />
  </clipPath>
  <g
     mask="url(#b)"
     id="g8">
    <g
       clip-path="url(#c)"
       transform="matrix(1 0 0 1 -36 -916)"
       id="g7">
      <path
         d="m 825 273 c -0.5272 0.0058 -1.043 0.1524 -1.5 0.4218 v 5.1562 c 0.4571 0.2696 0.9726 0.4159 1.5 0.4218 c 1.6582 0 3 -1.3417 3 -3 s -1.3417 -3 -3 -3 z m 0 7.5 c -0.5097 0 -1.0195 0.0879 -1.5 0.2637 v 10.2363 h 6 v -6 c 0 -2.4843 -2.0157 -4.5 -4.5 -4.5 z m 0 0"
         id="path7" />
    </g>
  </g>
  <g
     mask="url(#d)"
     id="g10">
    <g
       clip-path="url(#e)"
       transform="matrix(1 0 0 1 -36 -916)"
       id="g9">
      <path
         d="m 853.5 273 v 6 c 1.6582 0 3 -1.3417 3 -3 s -1.3417 -3 -3 -3 z m 0 7.5 v 10.5 h 4.5 v -6 c 0 -2.4843 -2.0157 -4.5 -4.5 -4.5 z m 0 0"
         id="path8" />
    </g>
  </g>
  <g
     mask="url(#f)"
     id="g12">
    <g
       clip-path="url(#g)"
       transform="matrix(1 0 0 1 -36 -916)"
       id="g11">
      <path
         d="m 859.5 273.4044 v 5.1738 c 0.9199 -0.5331 1.4941 -1.5117 1.5 -2.5782 c 0 -1.0722 -0.5742 -2.0625 -1.5 -2.5957 z m 0 7.3593 v 10.2363 h 3 v -6 c 0 -1.9043 -1.2012 -3.6036 -3 -4.2363 z m 0 0"
         id="path10" />
    </g>
  </g>
  <g
     fill="#000000"
     id="g13">
    <path
       d="m 15.2343 1.5 c -0.2871 0.0175 -0.5684 0.1817 -0.8496 0.4571 l -12.8849 12.6504 l 3.4805 3.4161 h 8.4317 l 8.7246 -8.5665 c 0.4921 -0.4804 0.4571 -1.2012 0.0117 -1.6347 l -5.9942 -5.8887 c -0.3282 -0.3164 -0.6269 -0.4512 -0.9199 -0.4335 z m -5.9413 8.4433 l 4.1484 3.8555 c 0.3164 0.1875 0.2988 0.8671 0.0528 1.1191 l -1.4941 1.582 h -6.375 l -1.916 -1.8867 l 4.5996 -4.6172 c 0.2812 -0.2812 0.75 -0.2871 0.9843 -0.0528 z m 0 0"
       id="path12" />
    <path
       d="m 13.5 16.5 h 9 v 1.5 h -9 z m 0 0"
       id="path13" />
  </g>
</svg>
