<?xml version="1.0" encoding="UTF-8" standalone="no"?>
<svg
   height="24px"
   viewBox="0 0 16 16"
   width="24px"
   fill="#000000"
   version="1.1"
   id="svg1"
   sodipodi:docname="error-symbolic.svg"
   inkscape:version="1.4.2 (ebf0e940d0, 2025-05-08)"
   xmlns:inkscape="http://www.inkscape.org/namespaces/inkscape"
   xmlns:sodipodi="http://sodipodi.sourceforge.net/DTD/sodipodi-0.dtd"
   xmlns="http://www.w3.org/2000/svg"
   xmlns:svg="http://www.w3.org/2000/svg">
  <defs
     id="defs1" />
  <sodipodi:namedview
     id="namedview1"
     pagecolor="#ffffff"
     bordercolor="#000000"
     borderopacity="0.25"
     inkscape:showpageshadow="2"
     inkscape:pageopacity="0.0"
     inkscape:pagecheckerboard="0"
     inkscape:deskcolor="#d1d1d1"
     inkscape:zoom="36.916667"
     inkscape:cx="12"
     inkscape:cy="12"
     inkscape:window-width="3840"
     inkscape:window-height="2020"
     inkscape:window-x="0"
     inkscape:window-y="32"
     inkscape:window-maximized="1"
     inkscape:current-layer="svg1" />
  <path
     d="M 8 11.3333 q 0.2833 0 0.475 -0.1916 T 8.6667 10.6667 q 0 -0.2833 -0.1916 -0.475 T 8 10 q -0.2833 0 -0.475 0.1916 T 7.3334 10.6667 q 0 0.2833 0.1916 0.475 T 8 11.3333 Z m -0.6666 -2.6667 h 1.3334 v -4 h -1.3334 v 4 Z m 0.6666 6 q -1.3834 0 -2.6 -0.525 T 3.2833 12.7166 q -0.9 -0.9 -1.425 -2.1166 T 1.3334 8 q 0 -1.3834 0.525 -2.6 T 3.2833 3.2833 q 0.9 -0.9 2.1166 -1.425 T 8 1.3334 q 1.3834 0 2.6 0.525 T 12.7166 3.2833 q 0.9 0.9 1.425 2.1166 T 14.6667 8 q 0 1.3834 -0.525 2.6 T 12.7166 12.7166 q -0.9 0.9 -2.1166 1.425 T 8 14.6667 Z m 0 -1.3334 q 2.2334 0 3.7833 -1.55 t 1.55 -3.7833 q 0 -2.2334 -1.55 -3.7833 t -3.7833 -1.55 q -2.2334 0 -3.7833 1.55 t -1.55 3.7833 q 0 2.2334 1.55 3.7833 t 3.7833 1.55 Z m 0 -5.3334 Z"
     id="path1" />
</svg>
