<?xml version="1.0" encoding="UTF-8" standalone="no"?>
<svg
   height="24px"
   viewBox="0 0 24 24"
   width="24px"
   fill="#000000"
   version="1.1"
   id="svg1"
   sodipodi:docname="error-symbolic.svg"
   inkscape:version="1.4.2 (ebf0e940d0, 2025-05-08)"
   xmlns:inkscape="http://www.inkscape.org/namespaces/inkscape"
   xmlns:sodipodi="http://sodipodi.sourceforge.net/DTD/sodipodi-0.dtd"
   xmlns="http://www.w3.org/2000/svg"
   xmlns:svg="http://www.w3.org/2000/svg">
  <defs
     id="defs1" />
  <sodipodi:namedview
     id="namedview1"
     pagecolor="#ffffff"
     bordercolor="#000000"
     borderopacity="0.25"
     inkscape:showpageshadow="2"
     inkscape:pageopacity="0.0"
     inkscape:pagecheckerboard="0"
     inkscape:deskcolor="#d1d1d1"
     inkscape:zoom="36.916667"
     inkscape:cx="12"
     inkscape:cy="12"
     inkscape:window-width="3840"
     inkscape:window-height="2020"
     inkscape:window-x="0"
     inkscape:window-y="32"
     inkscape:window-maximized="1"
     inkscape:current-layer="svg1" />
  <path
     d="M 12 16.9999 q 0.4249 0 0.7125 -0.2874 T 13.0001 16.0001 q 0 -0.4249 -0.2874 -0.7125 T 12 15 q -0.4249 0 -0.7125 0.2874 T 11.0001 16.0001 q 0 0.4249 0.2874 0.7125 T 12 16.9999 Z m -0.9999 -4 h 2.0001 v -6 h -2.0001 v 6 Z m 0.9999 9 q -2.0751 0 -3.9 -0.7875 T 4.9249 19.0749 q -1.35 -1.35 -2.1375 -3.1749 T 2.0001 12 q 0 -2.0751 0.7875 -3.9 T 4.9249 4.9249 q 1.35 -1.35 3.1749 -2.1375 T 12 2.0001 q 2.0751 0 3.9 0.7875 T 19.0749 4.9249 q 1.35 1.35 2.1375 3.1749 T 22.0001 12 q 0 2.0751 -0.7875 3.9 T 19.0749 19.0749 q -1.35 1.35 -3.1749 2.1375 T 12 22.0001 Z m 0 -2.0001 q 3.3501 0 5.6749 -2.325 t 2.325 -5.6749 q 0 -3.3501 -2.325 -5.6749 t -5.6749 -2.325 q -3.3501 0 -5.6749 2.325 t -2.325 5.6749 q 0 3.3501 2.325 5.6749 t 5.6749 2.325 Z m 0 -8.0001 Z"
     id="path1" />
</svg>
