<?xml version="1.0" encoding="UTF-8" standalone="no"?>
<svg
   height="24px"
   viewBox="0 0 32 32"
   width="24px"
   fill="#000000"
   version="1.1"
   id="svg1"
   sodipodi:docname="error-symbolic.svg"
   inkscape:version="1.4.2 (ebf0e940d0, 2025-05-08)"
   xmlns:inkscape="http://www.inkscape.org/namespaces/inkscape"
   xmlns:sodipodi="http://sodipodi.sourceforge.net/DTD/sodipodi-0.dtd"
   xmlns="http://www.w3.org/2000/svg"
   xmlns:svg="http://www.w3.org/2000/svg">
  <defs
     id="defs1" />
  <sodipodi:namedview
     id="namedview1"
     pagecolor="#ffffff"
     bordercolor="#000000"
     borderopacity="0.25"
     inkscape:showpageshadow="2"
     inkscape:pageopacity="0.0"
     inkscape:pagecheckerboard="0"
     inkscape:deskcolor="#d1d1d1"
     inkscape:zoom="36.916667"
     inkscape:cx="12"
     inkscape:cy="12"
     inkscape:window-width="3840"
     inkscape:window-height="2020"
     inkscape:window-x="0"
     inkscape:window-y="32"
     inkscape:window-maximized="1"
     inkscape:current-layer="svg1" />
  <path
     d="M 16 22.6667 q 0.5667 0 0.95 -0.3833 T 17.3333 21.3333 q 0 -0.5667 -0.3833 -0.95 T 16 20 q -0.5667 0 -0.95 0.3833 T 14.6667 21.3333 q 0 0.5667 0.3833 0.95 T 16 22.6667 Z m -1.3333 -5.3333 h 2.6667 v -8 h -2.6667 v 8 Z m 1.3333 12 q -2.7667 0 -5.2 -1.05 T 6.5667 25.4333 q -1.8 -1.8 -2.85 -4.2333 T 2.6667 16 q 0 -2.7667 1.05 -5.2 T 6.5667 6.5667 q 1.8 -1.8 4.2333 -2.85 T 16 2.6667 q 2.7667 0 5.2 1.05 T 25.4333 6.5667 q 1.8 1.8 2.85 4.2333 T 29.3333 16 q 0 2.7667 -1.05 5.2 T 25.4333 25.4333 q -1.8 1.8 -4.2333 2.85 T 16 29.3333 Z m 0 -2.6667 q 4.4667 0 7.5667 -3.1 t 3.1 -7.5667 q 0 -4.4667 -3.1 -7.5667 t -7.5667 -3.1 q -4.4667 0 -7.5667 3.1 t -3.1 7.5667 q 0 4.4667 3.1 7.5667 t 7.5667 3.1 Z m 0 -10.6667 Z"
     id="path1" />
</svg>
