<?xml version="1.0" encoding="UTF-8" standalone="no"?>
<svg
   height="24px"
   viewBox="0 0 16 16"
   width="24px"
   fill="#000000"
   version="1.1"
   id="svg1"
   sodipodi:docname="export-symbolic.svg"
   inkscape:version="1.4.3 (0d15f75042, 2025-12-25)"
   xmlns:inkscape="http://www.inkscape.org/namespaces/inkscape"
   xmlns:sodipodi="http://sodipodi.sourceforge.net/DTD/sodipodi-0.dtd"
   xmlns="http://www.w3.org/2000/svg"
   xmlns:svg="http://www.w3.org/2000/svg">
  <defs
     id="defs1" />
  <sodipodi:namedview
     id="namedview1"
     pagecolor="#ffffff"
     bordercolor="#000000"
     borderopacity="0.25"
     inkscape:showpageshadow="2"
     inkscape:pageopacity="0.0"
     inkscape:pagecheckerboard="0"
     inkscape:deskcolor="#d1d1d1"
     inkscape:zoom="36.916667"
     inkscape:cx="12"
     inkscape:cy="12"
     inkscape:window-width="2366"
     inkscape:window-height="1574"
     inkscape:window-x="50"
     inkscape:window-y="82"
     inkscape:window-maximized="0"
     inkscape:current-layer="svg1" />
  <path
     d="m 10.8 13.6667 1.8666 -1.8666 v 1.5333 h 0.6666 v -2.6667 H 10.6667 v 0.6666 h 1.5333 L 10.3333 13.2 l 0.4667 0.4667 Z m -7.4666 0.3333 q -0.55 0 -0.9416 -0.3916 T 2 12.6667 v -9.3333 q 0 -0.55 0.3916 -0.9416 T 3.3333 2 h 9.3333 q 0.55 0 0.9416 0.3916 T 14 3.3333 v 4.4666 q -0.3166 -0.15 -0.65 -0.2584 t -0.6834 -0.1583 v -4.05 H 3.3333 v 9.3333 h 4.0334 q 0.05 0.3666 0.1583 0.7 t 0.2584 0.6333 H 3.3333 Z m 0 -2 v 0.6666 -9.3333 4.05 -0.05 4.6666 Z m 1.3334 -0.6666 h 2.7167 q 0.05 -0.35 0.1583 -0.6834 t 0.2417 -0.65 H 4.6666 v 1.3334 Z m 0 -2.6667 h 4.0667 q 0.5333 -0.5 1.1917 -0.8334 t 1.4083 -0.45 v -0.05 H 4.6666 v 1.3334 Z m 0 -2.6667 h 6.6666 v -1.3334 H 4.6666 v 1.3334 Z M 12 15.3333 q -1.3834 0 -2.3584 -0.975 T 8.6667 12 q 0 -1.3834 0.975 -2.3584 T 12 8.6667 q 1.3834 0 2.3584 0.975 T 15.3333 12 q 0 1.3834 -0.975 2.3584 T 12 15.3333 Z"
     id="path1" />
</svg>
