<?xml version="1.0" encoding="UTF-8" standalone="no"?>
<svg
   height="24px"
   viewBox="0 0 24 24"
   width="24px"
   fill="#000000"
   version="1.1"
   id="svg1"
   sodipodi:docname="export-symbolic.svg"
   inkscape:version="1.4.3 (0d15f75042, 2025-12-25)"
   xmlns:inkscape="http://www.inkscape.org/namespaces/inkscape"
   xmlns:sodipodi="http://sodipodi.sourceforge.net/DTD/sodipodi-0.dtd"
   xmlns="http://www.w3.org/2000/svg"
   xmlns:svg="http://www.w3.org/2000/svg">
  <defs
     id="defs1" />
  <sodipodi:namedview
     id="namedview1"
     pagecolor="#ffffff"
     bordercolor="#000000"
     borderopacity="0.25"
     inkscape:showpageshadow="2"
     inkscape:pageopacity="0.0"
     inkscape:pagecheckerboard="0"
     inkscape:deskcolor="#d1d1d1"
     inkscape:zoom="36.916667"
     inkscape:cx="12"
     inkscape:cy="12"
     inkscape:window-width="2366"
     inkscape:window-height="1574"
     inkscape:window-x="50"
     inkscape:window-y="82"
     inkscape:window-maximized="0"
     inkscape:current-layer="svg1" />
  <path
     d="m 16.2 20.5001 2.7999 -2.7999 v 2.2999 h 0.9999 v -4 H 16.0001 v 0.9999 h 2.2999 L 15.4999 19.8 l 0.7001 0.7001 Z m -11.1999 0.5 q -0.825 0 -1.4124 -0.5874 T 3 19.0001 v -13.9999 q 0 -0.825 0.5874 -1.4124 T 5 3 h 13.9999 q 0.825 0 1.4124 0.5874 T 21 5 v 6.6999 q -0.4749 -0.225 -0.975 -0.3876 t -1.0251 -0.2374 v -6.075 H 5 v 13.9999 h 6.0501 q 0.075 0.5499 0.2374 1.05 t 0.3876 0.9499 H 5 Z m 0 -3 v 0.9999 -13.9999 6.075 -0.075 6.9999 Z m 2.0001 -0.9999 h 4.0751 q 0.075 -0.525 0.2374 -1.0251 t 0.3625 -0.975 H 6.9999 v 2.0001 Z m 0 -4 h 6.1 q 0.7999 -0.75 1.7875 -1.2501 t 2.1124 -0.675 v -0.075 H 6.9999 v 2.0001 Z m 0 -4 h 9.9999 v -2.0001 H 6.9999 v 2.0001 Z M 18 22.9999 q -2.0751 0 -3.5376 -1.4625 T 13.0001 18 q 0 -2.0751 1.4625 -3.5376 T 18 13.0001 q 2.0751 0 3.5376 1.4625 T 22.9999 18 q 0 2.0751 -1.4625 3.5376 T 18 22.9999 Z"
     id="path1" />
</svg>
