<?xml version="1.0" encoding="UTF-8" standalone="no"?>
<svg
   height="24px"
   viewBox="0 0 32 32"
   width="24px"
   fill="#000000"
   version="1.1"
   id="svg1"
   sodipodi:docname="export-symbolic.svg"
   inkscape:version="1.4.3 (0d15f75042, 2025-12-25)"
   xmlns:inkscape="http://www.inkscape.org/namespaces/inkscape"
   xmlns:sodipodi="http://sodipodi.sourceforge.net/DTD/sodipodi-0.dtd"
   xmlns="http://www.w3.org/2000/svg"
   xmlns:svg="http://www.w3.org/2000/svg">
  <defs
     id="defs1" />
  <sodipodi:namedview
     id="namedview1"
     pagecolor="#ffffff"
     bordercolor="#000000"
     borderopacity="0.25"
     inkscape:showpageshadow="2"
     inkscape:pageopacity="0.0"
     inkscape:pagecheckerboard="0"
     inkscape:deskcolor="#d1d1d1"
     inkscape:zoom="36.916667"
     inkscape:cx="12"
     inkscape:cy="12"
     inkscape:window-width="2366"
     inkscape:window-height="1574"
     inkscape:window-x="50"
     inkscape:window-y="82"
     inkscape:window-maximized="0"
     inkscape:current-layer="svg1" />
  <path
     d="m 21.6 27.3333 3.7333 -3.7333 v 3.0667 h 1.3333 v -5.3333 H 21.3333 v 1.3333 h 3.0667 L 20.6667 26.4 l 0.9333 0.9333 Z m -14.9333 0.6667 q -1.1 0 -1.8833 -0.7833 T 4 25.3333 v -18.6667 q 0 -1.1 0.7833 -1.8833 T 6.6667 4 h 18.6667 q 1.1 0 1.8833 0.7833 T 28 6.6667 v 8.9333 q -0.6333 -0.3 -1.3 -0.5167 t -1.3667 -0.3167 v -8.1 H 6.6667 v 18.6667 h 8.0667 q 0.1 0.7333 0.3167 1.4 t 0.5167 1.2667 H 6.6667 Z m 0 -4 v 1.3333 -18.6667 8.1 -0.1 9.3333 Z m 2.6667 -1.3333 h 5.4333 q 0.1 -0.7 0.3167 -1.3667 t 0.4833 -1.3 H 9.3333 v 2.6667 Z m 0 -5.3333 h 8.1333 q 1.0667 -1 2.3833 -1.6667 t 2.8167 -0.9 v -0.1 H 9.3333 v 2.6667 Z m 0 -5.3333 h 13.3333 v -2.6667 H 9.3333 v 2.6667 Z M 24 30.6667 q -2.7667 0 -4.7167 -1.95 T 17.3333 24 q 0 -2.7667 1.95 -4.7167 T 24 17.3333 q 2.7667 0 4.7167 1.95 T 30.6667 24 q 0 2.7667 -1.95 4.7167 T 24 30.6667 Z"
     id="path1" />
</svg>
