<?xml version="1.0" encoding="UTF-8" standalone="no"?>
<svg
   height="24px"
   viewBox="0 0 24 24"
   width="24px"
   fill="#000000"
   version="1.1"
   id="svg1"
   sodipodi:docname="file-pdf-symbolic.svg"
   inkscape:version="1.4.3 (0d15f75042, 2025-12-25)"
   xmlns:inkscape="http://www.inkscape.org/namespaces/inkscape"
   xmlns:sodipodi="http://sodipodi.sourceforge.net/DTD/sodipodi-0.dtd"
   xmlns="http://www.w3.org/2000/svg"
   xmlns:svg="http://www.w3.org/2000/svg">
  <sodipodi:namedview
     id="namedview1"
     pagecolor="#ffffff"
     bordercolor="#000000"
     borderopacity="0.25"
     inkscape:showpageshadow="2"
     inkscape:pageopacity="0.0"
     inkscape:pagecheckerboard="0"
     inkscape:deskcolor="#d1d1d1"
     inkscape:zoom="36.916667"
     inkscape:cx="12"
     inkscape:cy="12"
     inkscape:window-width="3840"
     inkscape:window-height="2020"
     inkscape:window-x="0"
     inkscape:window-y="32"
     inkscape:window-maximized="1"
     inkscape:current-layer="svg1" />
  <defs
     id="defs1" />
  <path
     d="m 9,12.5 h 1 v -2 h 1 q 0.425,0 0.7125,-0.2875 Q 12,9.925 12,9.5 v -1 Q 12,8.075 11.7125,7.7875 11.425,7.5 11,7.5 H 9 Z m 1,-3 v -1 h 1 v 1 z m 3,3 h 2 q 0.425,0 0.7125,-0.2875 Q 16,11.925 16,11.5 v -3 Q 16,8.075 15.7125,7.7875 15.425,7.5 15,7.5 h -2 z m 1,-1 v -3 h 1 v 3 z m 3,1 h 1 v -2 h 1 v -1 h -1 v -1 h 1 v -1 H 17 Z M 8,18 Q 7.175,18 6.5875,17.4125 6,16.825 6,16 V 4 Q 6,3.175 6.5875,2.5875 7.175,2 8,2 H 20 Q 20.825,2 21.4125,2.5875 22,3.175 22,4 v 12 q 0,0.825 -0.5875,1.4125 Q 20.825,18 20,18 Z M 8,16 H 20 V 4 H 8 Z M 4,22 Q 3.175,22 2.5875,21.4125 2,20.825 2,20 V 6 h 2 v 14 h 14 v 2 z M 8,4 v 12 z"
     id="path1"
     style="stroke-width:0.025" />
</svg>
