<?xml version="1.0" encoding="UTF-8" standalone="no"?>
<svg
   height="24px"
   viewBox="0 0 24 24"
   width="24px"
   fill="#000000"
   version="1.1"
   id="svg1"
   sodipodi:docname="file-rd-symbolic.svg"
   inkscape:version="1.4.3 (0d15f75042, 2025-12-25)"
   xmlns:inkscape="http://www.inkscape.org/namespaces/inkscape"
   xmlns:sodipodi="http://sodipodi.sourceforge.net/DTD/sodipodi-0.dtd"
   xmlns="http://www.w3.org/2000/svg"
   xmlns:svg="http://www.w3.org/2000/svg">
  <sodipodi:namedview
     id="namedview1"
     pagecolor="#ffffff"
     bordercolor="#000000"
     borderopacity="0.25"
     inkscape:showpageshadow="2"
     inkscape:pageopacity="0.0"
     inkscape:pagecheckerboard="0"
     inkscape:deskcolor="#d1d1d1"
     inkscape:zoom="52.208051"
     inkscape:cx="10.113383"
     inkscape:cy="13.024811"
     inkscape:window-width="3840"
     inkscape:window-height="2020"
     inkscape:window-x="0"
     inkscape:window-y="32"
     inkscape:window-maximized="1"
     inkscape:current-layer="svg1" />
  <defs
     id="defs1" />
  <path
     d="m 14.155225,13.5 v -3 h 1 v 3 z m -1.5,1.5 h 3 c 0.283333,0 0.520833,-0.09583 0.7125,-0.2875 0.191667,-0.191667 0.2875,-0.429167 0.2875,-0.7125 v -4 c 0,-0.2833333 -0.09583,-0.5208333 -0.2875,-0.7125 C 16.176058,9.0958333 15.938558,9 15.655225,9 h -3 z M 9.8679133,15 H 11.367913 L 9.6532333,12.425376 H 8.1532329 Z M 4,20 C 3.45,20 2.9791667,19.804167 2.5875,19.4125 2.1958333,19.020833 2,18.55 2,18 V 6 C 2,5.45 2.1958333,4.9791667 2.5875,4.5875 2.9791667,4.1958333 3.45,4 4,4 h 16 c 0.55,0 1.020833,0.1958333 1.4125,0.5875 C 21.804167,4.9791667 22,5.45 22,6 v 12 c 0,0.55 -0.195833,1.020833 -0.5875,1.4125 C 21.020833,19.804167 20.55,20 20,20 Z M 4,18 H 20 V 6 H 4 Z m 0,0 V 6 Z m 0,0 V 6 Z"
     id="path1"
     style="stroke-width:0.025"
     sodipodi:nodetypes="ccccccsssssscccccccsssssssssssssccccccccccc" />
  <path
     d="m 7.3565999,14.998007 h 1.1851565 v -2.390744 h 1.1851568 c 0.3357938,0 0.6172678,-0.114553 0.8444238,-0.343669 0.227155,-0.229114 0.340733,-0.513014 0.340733,-0.851703 v -1.195373 c 0,-0.3386877 -0.113574,-0.6225887 -0.340733,-0.8517018 C 10.344181,9.1357032 10.062707,9.0211467 9.7269132,9.0211467 H 7.3565999 Z m 1.1851565,-3.586116 v -1.195373 h 1.1851568 v 1.195373 z"
     style="stroke-width:0.0297563"
     id="path1-2"
     sodipodi:nodetypes="cccssssssccccccc" />
</svg>
