<?xml version="1.0" encoding="UTF-8" standalone="no"?>
<svg
   height="24px"
   viewBox="0 0 24 24"
   width="24px"
   fill="#000000"
   version="1.1"
   id="svg1"
   sodipodi:docname="file-svg-symbolic.svg"
   inkscape:version="1.4.3 (0d15f75042, 2025-12-25)"
   xmlns:inkscape="http://www.inkscape.org/namespaces/inkscape"
   xmlns:sodipodi="http://sodipodi.sourceforge.net/DTD/sodipodi-0.dtd"
   xmlns="http://www.w3.org/2000/svg"
   xmlns:svg="http://www.w3.org/2000/svg">
  <sodipodi:namedview
     id="namedview1"
     pagecolor="#ffffff"
     bordercolor="#000000"
     borderopacity="0.25"
     inkscape:showpageshadow="2"
     inkscape:pageopacity="0.0"
     inkscape:pagecheckerboard="0"
     inkscape:deskcolor="#d1d1d1"
     inkscape:zoom="64"
     inkscape:cx="0.140625"
     inkscape:cy="18.5"
     inkscape:window-width="3840"
     inkscape:window-height="2020"
     inkscape:window-x="0"
     inkscape:window-y="32"
     inkscape:window-maximized="1"
     inkscape:current-layer="svg1" />
  <defs
     id="defs1" />
  <path
     d="m 16.5,15 h 1 c 0.416667,0 0.770833,-0.145833 1.0625,-0.4375 C 18.854167,14.270833 19,13.916667 19,13.5 V 12 h -1.5 v 1.5 h -1 v -3 H 19 C 19,10.083333 18.854167,9.7291667 18.5625,9.4375 18.270833,9.1458333 17.916667,9 17.5,9 h -1 C 16.083333,9 15.729167,9.1458333 15.4375,9.4375 15.145833,9.7291667 15,10.083333 15,10.5 v 3 c 0,0.416667 0.145833,0.770833 0.4375,1.0625 C 15.729167,14.854167 16.083333,15 16.5,15 Z m -5.404063,0 h 1.5 L 14,9 H 12.5 L 11.958239,12.758578 11.5,9 H 10 Z M 4,20 C 3.45,20 2.9791667,19.804167 2.5875,19.4125 2.1958333,19.020833 2,18.55 2,18 V 6 C 2,5.45 2.1958333,4.9791667 2.5875,4.5875 2.9791667,4.1958333 3.45,4 4,4 h 16 c 0.55,0 1.020833,0.1958333 1.4125,0.5875 C 21.804167,4.9791667 22,5.45 22,6 v 12 c 0,0.55 -0.195833,1.020833 -0.5875,1.4125 C 21.020833,19.804167 20.55,20 20,20 Z M 4,18 H 20 V 6 H 4 Z m 0,0 V 6 Z m 0,0 V 6 Z"
     id="path1"
     style="stroke-width:0.025"
     sodipodi:nodetypes="ssssccccccssssssssccccccccsssssssssssssccccccccccc" />
  <path
     id="path7"
     style="stroke-width:0.025"
     d="m 8.921875,9.015626 h -3 c -0.283333,-4.27e-4 -0.520833,0.09132 -0.7125,0.282985 -0.191667,0.191667 -0.2875,0.429167 -0.2875,0.7125 v 1.484375 c 0,0.283333 0.09583,0.520833 0.2875,0.7125 0.191667,0.191667 0.429167,0.2875 0.7125,0.2875 h 3 l -2.875,-0.998871 v -1.482118 h 2.875 z m -4,5.995484 h 3 c 0.283333,4.27e-4 0.520833,-0.09132 0.7125,-0.282985 0.191667,-0.191667 0.2875,-0.429167 0.2875,-0.7125 V 12.5 c 0,-0.283333 -0.09583,-0.520833 -0.2875,-0.7125 C 8.442708,11.595833 8.205208,11.5 7.921875,11.5 h -3 l 2.875,0.998871 v 1.513368 h -2.875 z"
     sodipodi:nodetypes="ccssssscccccccsssssccccc" />
</svg>
