<?xml version="1.0" encoding="UTF-8" standalone="no"?>
<svg
   height="24px"
   viewBox="0 0 24 24"
   width="24px"
   fill="#000000"
   version="1.1"
   id="svg1"
   sodipodi:docname="file-dxf-symbolic.svg"
   inkscape:version="1.4.3 (0d15f75042, 2025-12-25)"
   xmlns:inkscape="http://www.inkscape.org/namespaces/inkscape"
   xmlns:sodipodi="http://sodipodi.sourceforge.net/DTD/sodipodi-0.dtd"
   xmlns="http://www.w3.org/2000/svg"
   xmlns:svg="http://www.w3.org/2000/svg">
  <sodipodi:namedview
     id="namedview1"
     pagecolor="#ffffff"
     bordercolor="#000000"
     borderopacity="0.25"
     inkscape:showpageshadow="2"
     inkscape:pageopacity="0.0"
     inkscape:pagecheckerboard="0"
     inkscape:deskcolor="#d1d1d1"
     inkscape:zoom="52.208051"
     inkscape:cx="9.5196045"
     inkscape:cy="13.063119"
     inkscape:window-width="3840"
     inkscape:window-height="2020"
     inkscape:window-x="0"
     inkscape:window-y="32"
     inkscape:window-maximized="1"
     inkscape:current-layer="svg1" />
  <defs
     id="defs1" />
  <path
     d="m 6.8064661,13.5 v -3 h 1 v 3 z m -1.5,1.5 h 3 c 0.2833333,0 0.5208333,-0.09583 0.7125,-0.2875 0.1916667,-0.191667 0.2875,-0.429167 0.2875,-0.7125 v -4 c 0,-0.2833333 -0.095833,-0.5208333 -0.2875,-0.7125 C 8.8272994,9.0958333 8.5897994,9 8.3064661,9 h -3 z m 7.4999999,0 h 1.5 l -2.5,-6 h -1.5 z M 4,20 C 3.45,20 2.9791667,19.804167 2.5875,19.4125 2.1958333,19.020833 2,18.55 2,18 V 6 C 2,5.45 2.1958333,4.9791667 2.5875,4.5875 2.9791667,4.1958333 3.45,4 4,4 h 16 c 0.55,0 1.020833,0.1958333 1.4125,0.5875 C 21.804167,4.9791667 22,5.45 22,6 v 12 c 0,0.55 -0.195833,1.020833 -0.5875,1.4125 C 21.020833,19.804167 20.55,20 20,20 Z M 4,18 H 20 V 6 H 4 Z m 0,0 V 6 Z m 0,0 V 6 Z m 6.306466,-3 h 1.5 l 2.5,-6 h -1.5 z"
     id="path1"
     style="stroke-width:0.025"
     sodipodi:nodetypes="ccccccsssssscccccccssssssssssssscccccccccccccccc" />
  <path
     d="m 15.437331,15 h 1.323705 v -2.463454 h 1.66848 v -1.20878 h -1.66848 V 10.17645 h 1.66848 V 9 h -2.992185 z"
     style="stroke-width:0.0302195"
     id="path1-5"
     sodipodi:nodetypes="ccccccccccc" />
</svg>
