<?xml version="1.0" encoding="UTF-8" standalone="no"?>
<svg
   height="24px"
   viewBox="0 0 24 24"
   width="24px"
   fill="#000000"
   version="1.1"
   id="svg1"
   sodipodi:docname="file-png-symbolic.svg"
   inkscape:version="1.4.3 (0d15f75042, 2025-12-25)"
   xmlns:inkscape="http://www.inkscape.org/namespaces/inkscape"
   xmlns:sodipodi="http://sodipodi.sourceforge.net/DTD/sodipodi-0.dtd"
   xmlns="http://www.w3.org/2000/svg"
   xmlns:svg="http://www.w3.org/2000/svg">
  <sodipodi:namedview
     id="namedview1"
     pagecolor="#ffffff"
     bordercolor="#000000"
     borderopacity="0.25"
     inkscape:showpageshadow="2"
     inkscape:pageopacity="0.0"
     inkscape:pagecheckerboard="0"
     inkscape:deskcolor="#d1d1d1"
     inkscape:zoom="36.916667"
     inkscape:cx="12"
     inkscape:cy="12"
     inkscape:window-width="3840"
     inkscape:window-height="2020"
     inkscape:window-x="0"
     inkscape:window-y="32"
     inkscape:window-maximized="1"
     inkscape:current-layer="svg1" />
  <defs
     id="defs1" />
  <path
     d="m 6.5,11.5 v -1 h 1 v 1 z m 10,3.5 h 1 q 0.625,0 1.0625,-0.4375 Q 19,14.125 19,13.5 V 12 h -1.5 v 1.5 h -1 v -3 H 19 Q 19,9.875 18.5625,9.4375 18.125,9 17.5,9 h -1 Q 15.875,9 15.4375,9.4375 15,9.875 15,10.5 v 3 q 0,0.625 0.4375,1.0625 Q 15.875,15 16.5,15 Z M 5,15 H 6.5 V 13 H 8 Q 8.425,13 8.7125,12.7125 9,12.425 9,12 V 10 Q 9,9.575 8.7125,9.2875 8.425,9 8,9 H 5 Z m 5,0 h 1.5 v -2.4 l 1,2.4 H 14 V 9 h -1.5 v 2.35 L 11.5,9 H 10 Z M 4,20 Q 3.175,20 2.5875,19.4125 2,18.825 2,18 V 6 Q 2,5.175 2.5875,4.5875 3.175,4 4,4 H 20 Q 20.825,4 21.4125,4.5875 22,5.175 22,6 v 12 q 0,0.825 -0.5875,1.4125 Q 20.825,20 20,20 Z M 4,18 H 20 V 6 H 4 Z m 0,0 V 6 Z m 0,0 V 6 Z"
     id="path1"
     style="stroke-width:0.025" />
</svg>
