<?xml version="1.0" encoding="UTF-8" standalone="no"?>
<svg
   height="24px"
   viewBox="0 0 24 24"
   width="24px"
   fill="#000000"
   version="1.1"
   id="svg1"
   xmlns="http://www.w3.org/2000/svg"
   xmlns:svg="http://www.w3.org/2000/svg">
  <defs
     id="defs1" />
  <path
     d="m 3 9 v -4 q 0 -0.825 0.5874 -1.4124 Q 4.1749 3 5 3 h 13.9999 q 0.825 0 1.4124 0.5874 0.5874 0.5874 0.5874 1.4124 v 4 H 19.0001 V 5 H 5 v 4 z m -2.0001 2.0001 h 22.0001 v 2.0001 H 0.9999 Z m 2.0001 4 h 2.0001 v 2.0001 h -2.0001 z m 16.0001 0 h 2.0001 v 2.0001 h -2.0001 z m -16.0001 4 h 2.0001 v 2.0001 q -0.825 0 -1.4124 -0.5874 Q 3 19.8249 3 19.0001 Z m 4 0 h 2.0001 v 2.0001 h -2.0001 z m 4 0 h 2.0001 v 2.0001 h -2.0001 z m 4 0 h 2.0001 v 2.0001 h -2.0001 z m 4 0 h 2.0001 q 0 0.825 -0.5874 1.4124 Q 19.8249 21 19.0001 21 Z"
     id="path1" />
</svg>
