<?xml version="1.0" encoding="UTF-8" standalone="no"?>
<svg
   height="24px"
   viewBox="0 0 32 32"
   width="24px"
   fill="#000000"
   version="1.1"
   id="svg1"
   xmlns="http://www.w3.org/2000/svg"
   xmlns:svg="http://www.w3.org/2000/svg">
  <defs
     id="defs1" />
  <path
     d="M 12 28 H 6.6667 q -1.1 0 -1.8833 -0.7833 T 4 25.3333 v -18.6667 q 0 -1.1 0.7833 -1.8833 T 6.6667 4 h 5.3333 v 2.6667 H 6.6667 v 18.6667 h 5.3333 v 2.6667 Z m 2.6667 2.6667 v -29.3333 h 2.6667 v 29.3333 h -2.6667 Z m 5.3333 -2.6667 v -2.6667 h 2.6667 v 2.6667 h -2.6667 Z m 0 -21.3333 v -2.6667 h 2.6667 v 2.6667 h -2.6667 Z m 5.3333 21.3333 v -2.6667 h 2.6667 q 0 1.1 -0.7833 1.8833 T 25.3333 28 Z m 0 -5.3333 v -2.6667 h 2.6667 v 2.6667 h -2.6667 Z m 0 -5.3333 v -2.6667 h 2.6667 v 2.6667 h -2.6667 Z m 0 -5.3333 v -2.6667 h 2.6667 v 2.6667 h -2.6667 Z m 0 -5.3333 v -2.6667 q 1.1 0 1.8833 0.7833 T 28 6.6667 h -2.6667 Z"
     id="path1" />
</svg>
