<?xml version="1.0" encoding="UTF-8" standalone="no"?>
<svg
   height="24px"
   viewBox="0 0 32 32"
   width="24px"
   fill="#000000"
   version="1.1"
   id="svg1"
   xmlns="http://www.w3.org/2000/svg"
   xmlns:svg="http://www.w3.org/2000/svg">
  <defs
     id="defs1" />
  <path
     d="m 4 12 v -5.3333 q 0 -1.1 0.7833 -1.8833 Q 5.5667 4 6.6667 4 h 18.6667 q 1.1 0 1.8833 0.7833 0.7833 0.7833 0.7833 1.8833 v 5.3333 H 25.3333 V 6.6667 H 6.6667 v 5.3333 z m -2.6667 2.6667 h 29.3333 v 2.6667 H 1.3333 Z m 2.6667 5.3333 h 2.6667 v 2.6667 h -2.6667 z m 21.3333 0 h 2.6667 v 2.6667 h -2.6667 z m -21.3333 5.3333 h 2.6667 v 2.6667 q -1.1 0 -1.8833 -0.7833 Q 4 26.4333 4 25.3333 Z m 5.3333 0 h 2.6667 v 2.6667 h -2.6667 z m 5.3333 0 h 2.6667 v 2.6667 h -2.6667 z m 5.3333 0 h 2.6667 v 2.6667 h -2.6667 z m 5.3333 0 h 2.6667 q 0 1.1 -0.7833 1.8833 Q 26.4333 28 25.3333 28 Z"
     id="path1" />
</svg>
