<?xml version="1.0" encoding="UTF-8" standalone="no"?>
<svg
   height="24px"
   viewBox="0 0 16 16"
   width="24px"
   fill="#000000"
   version="1.1"
   id="svg1"
   xmlns="http://www.w3.org/2000/svg"
   xmlns:svg="http://www.w3.org/2000/svg">
  <defs
     id="defs1" />
  <path
     d="m 2 6 v -2.6667 q 0 -0.55 0.3916 -0.9416 Q 2.7833 2 3.3333 2 h 9.3333 q 0.55 0 0.9416 0.3916 0.3916 0.3916 0.3916 0.9416 v 2.6667 H 12.6667 V 3.3333 H 3.3333 v 2.6667 z m -1.3334 1.3334 h 14.6667 v 1.3334 H 0.6666 Z m 1.3334 2.6667 h 1.3334 v 1.3334 h -1.3334 z m 10.6667 0 h 1.3334 v 1.3334 h -1.3334 z m -10.6667 2.6667 h 1.3334 v 1.3334 q -0.55 0 -0.9416 -0.3916 Q 2 13.2166 2 12.6667 Z m 2.6667 0 h 1.3334 v 1.3334 h -1.3334 z m 2.6667 0 h 1.3334 v 1.3334 h -1.3334 z m 2.6667 0 h 1.3334 v 1.3334 h -1.3334 z m 2.6667 0 h 1.3334 q 0 0.55 -0.3916 0.9416 Q 13.2166 14 12.6667 14 Z"
     id="path1" />
</svg>
