<?xml version="1.0" encoding="UTF-8" standalone="no"?>
<svg
   height="24px"
   viewBox="0 0 16 16"
   width="24px"
   fill="#000000"
   version="1.1"
   id="svg1"
   xmlns="http://www.w3.org/2000/svg"
   xmlns:svg="http://www.w3.org/2000/svg">
  <defs
     id="defs1" />
  <path
     d="M 6 14 H 3.3333 q -0.55 0 -0.9416 -0.3916 T 2 12.6667 v -9.3333 q 0 -0.55 0.3916 -0.9416 T 3.3333 2 h 2.6667 v 1.3334 H 3.3333 v 9.3333 h 2.6667 v 1.3334 Z m 1.3334 1.3334 v -14.6667 h 1.3334 v 14.6667 h -1.3334 Z m 2.6667 -1.3334 v -1.3334 h 1.3334 v 1.3334 h -1.3334 Z m 0 -10.6667 v -1.3334 h 1.3334 v 1.3334 h -1.3334 Z m 2.6667 10.6667 v -1.3334 h 1.3334 q 0 0.55 -0.3916 0.9416 T 12.6667 14 Z m 0 -2.6667 v -1.3334 h 1.3334 v 1.3334 h -1.3334 Z m 0 -2.6667 v -1.3334 h 1.3334 v 1.3334 h -1.3334 Z m 0 -2.6667 v -1.3334 h 1.3334 v 1.3334 h -1.3334 Z m 0 -2.6667 v -1.3334 q 0.55 0 0.9416 0.3916 T 14 3.3333 h -1.3334 Z"
     id="path1" />
</svg>
