<?xml version="1.0" encoding="UTF-8" standalone="no"?>
<svg
   height="24px"
   viewBox="0 0 16 16"
   width="24px"
   fill="#000000"
   version="1.1"
   id="svg1"
   sodipodi:docname="gcode-symbolic.svg"
   inkscape:version="1.4.2 (ebf0e940d0, 2025-05-08)"
   xmlns:inkscape="http://www.inkscape.org/namespaces/inkscape"
   xmlns:sodipodi="http://sodipodi.sourceforge.net/DTD/sodipodi-0.dtd"
   xmlns="http://www.w3.org/2000/svg"
   xmlns:svg="http://www.w3.org/2000/svg">
  <defs
     id="defs1" />
  <sodipodi:namedview
     id="namedview1"
     pagecolor="#ffffff"
     bordercolor="#000000"
     borderopacity="0.25"
     inkscape:showpageshadow="2"
     inkscape:pageopacity="0.0"
     inkscape:pagecheckerboard="0"
     inkscape:deskcolor="#d1d1d1"
     inkscape:zoom="36.916667"
     inkscape:cx="25.78781"
     inkscape:cy="18.555305"
     inkscape:window-width="3840"
     inkscape:window-height="2020"
     inkscape:window-x="0"
     inkscape:window-y="32"
     inkscape:window-maximized="1"
     inkscape:current-layer="svg1" />
  <path
     d="m 2.5187 15.0474 c -0.4306 0 -0.7994 -0.1533 -1.106 -0.4601 -0.3067 -0.3067 -0.4601 -0.6754 -0.4601 -1.106 v -10.9627 c 0 -0.4306 0.1533 -0.7994 0.4601 -1.106 0.3067 -0.3067 0.6754 -0.4601 1.106 -0.4601 h 10.9627 c 0.4306 0 0.7994 0.1533 1.106 0.4601 0.3067 0.3067 0.4601 0.6754 0.4601 1.106 v 10.9627 c 0 0.4306 -0.1533 0.7994 -0.4601 1.106 -0.3067 0.3067 -0.6754 0.4601 -1.106 0.4601 z M 2.2839 13.7161 H 13.7341 V 2.2839 H 2.2839 Z m 0 -11.4322 v 11.4322 z"
     id="path1"
     sodipodi:nodetypes="ssssssssssssscccccccc"
     style="stroke-width:0.0196" />
  <path
     d="m 8.1191 11.7393 q -1.026 0 -1.804 -0.4668 -0.7732 -0.4668 -1.2107 -1.308 -0.4328 -0.8412 -0.4328 -1.9596 0 -1.1573 0.4474 -1.9985 0.4474 -0.8412 1.2253 -1.2934 0.778 -0.4522 1.7505 -0.4522 0.6224 0 1.1719 0.1847 0.5494 0.1799 0.9725 0.5203 0.4279 0.3355 0.7002 0.8023 0.2723 0.4668 0.3404 1.0357 h -1.5171 q -0.0632 -0.2772 -0.1993 -0.5009 -0.1361 -0.2286 -0.3501 -0.389 -0.2091 -0.1605 -0.4814 -0.2432 -0.2675 -0.0876 -0.5933 -0.0876 -0.6078 0 -1.0503 0.2966 -0.4376 0.2918 -0.6759 0.8364 -0.2334 0.5397 -0.2334 1.2886 0 0.744 0.2382 1.2837 0.2382 0.5397 0.6807 0.8364 0.4425 0.2918 1.06 0.2918 0.5057 0 0.8899 -0.1897 0.3841 -0.1945 0.5981 -0.5397 0.2188 -0.3501 0.2188 -0.8072 l 0.3549 0.0291 H 8.2844 v -1.1379 h 3.044 v 0.9239 q 0 0.8995 -0.4133 1.5852 -0.4084 0.6856 -1.1329 1.0746 -0.7245 0.3841 -1.663 0.3841 z"
     id="text1"
     style="font-weight:bold;font-size:10.4447px;font-family:'Adwaita Sans';-inkscape-font-specification:'Adwaita Sans, Bold';letter-spacing:0px;word-spacing:0px;stroke-width:0.0143"
     aria-label="G" />
</svg>
