<?xml version="1.0" encoding="UTF-8" standalone="no"?>
<svg
   height="24px"
   viewBox="0 0 32 32"
   width="24px"
   fill="#000000"
   version="1.1"
   id="svg1"
   sodipodi:docname="gcode-symbolic.svg"
   inkscape:version="1.4.2 (ebf0e940d0, 2025-05-08)"
   xmlns:inkscape="http://www.inkscape.org/namespaces/inkscape"
   xmlns:sodipodi="http://sodipodi.sourceforge.net/DTD/sodipodi-0.dtd"
   xmlns="http://www.w3.org/2000/svg"
   xmlns:svg="http://www.w3.org/2000/svg">
  <defs
     id="defs1" />
  <sodipodi:namedview
     id="namedview1"
     pagecolor="#ffffff"
     bordercolor="#000000"
     borderopacity="0.25"
     inkscape:showpageshadow="2"
     inkscape:pageopacity="0.0"
     inkscape:pagecheckerboard="0"
     inkscape:deskcolor="#d1d1d1"
     inkscape:zoom="36.916667"
     inkscape:cx="25.78781"
     inkscape:cy="18.555305"
     inkscape:window-width="3840"
     inkscape:window-height="2020"
     inkscape:window-x="0"
     inkscape:window-y="32"
     inkscape:window-maximized="1"
     inkscape:current-layer="svg1" />
  <path
     d="m 5.0374 30.0948 c -0.8613 0 -1.5987 -0.3067 -2.2121 -0.9201 -0.6134 -0.6134 -0.9201 -1.3508 -0.9201 -2.2121 v -21.9253 c 0 -0.8613 0.3067 -1.5987 0.9201 -2.2121 0.6134 -0.6134 1.3508 -0.9201 2.2121 -0.9201 h 21.9253 c 0.8613 0 1.5987 0.3067 2.2121 0.9201 0.6134 0.6134 0.9201 1.3508 0.9201 2.2121 v 21.9253 c 0 0.8613 -0.3067 1.5987 -0.9201 2.2121 -0.6134 0.6134 -1.3508 0.9201 -2.2121 0.9201 z M 4.5678 27.4322 H 27.4683 V 4.5678 H 4.5678 Z m 0 -22.8643 v 22.8643 z"
     id="path1"
     sodipodi:nodetypes="ssssssssssssscccccccc"
     style="stroke-width:0.0392" />
  <path
     d="m 16.2383 23.4785 q -2.052 0 -3.608 -0.9336 -1.5463 -0.9336 -2.4215 -2.616 -0.8655 -1.6824 -0.8655 -3.9192 0 -2.3146 0.8947 -3.997 0.8947 -1.6824 2.4507 -2.5869 1.556 -0.9044 3.501 -0.9044 1.2448 0 2.3437 0.3695 1.0989 0.3598 1.945 1.0406 0.8558 0.671 1.4004 1.6046 0.5446 0.9336 0.6808 2.0714 h -3.0342 q -0.1264 -0.5543 -0.3987 -1.0017 -0.2723 -0.4571 -0.7002 -0.778 -0.4182 -0.3209 -0.9628 -0.4863 -0.5349 -0.1751 -1.1865 -0.1751 -1.2156 0 -2.1006 0.5932 -0.8753 0.5835 -1.3518 1.6727 -0.4668 1.0795 -0.4668 2.5771 0 1.4879 0.4765 2.5674 0.4765 1.0795 1.3615 1.6727 0.885 0.5835 2.1201 0.5835 1.0114 0 1.7797 -0.3793 0.7683 -0.389 1.1962 -1.0795 0.4376 -0.7002 0.4376 -1.6144 l 0.7099 0.0583 H 16.5689 v -2.2757 h 6.0879 v 1.8478 q 0 1.7991 -0.8266 3.1704 -0.8169 1.3712 -2.2659 2.1492 -1.449 0.7683 -3.326 0.7683 z"
     id="text1"
     style="font-weight:bold;font-size:20.8894px;font-family:'Adwaita Sans';-inkscape-font-specification:'Adwaita Sans, Bold';letter-spacing:0px;word-spacing:0px;stroke-width:0.0286"
     aria-label="G" />
</svg>
