<?xml version="1.0" encoding="UTF-8" standalone="no"?>
<svg
   height="24px"
   viewBox="0 0 24 24"
   width="24px"
   fill="#000000"
   version="1.1"
   id="svg1"
   sodipodi:docname="gcode-symbolic.svg"
   inkscape:version="1.4.2 (ebf0e940d0, 2025-05-08)"
   xmlns:inkscape="http://www.inkscape.org/namespaces/inkscape"
   xmlns:sodipodi="http://sodipodi.sourceforge.net/DTD/sodipodi-0.dtd"
   xmlns="http://www.w3.org/2000/svg"
   xmlns:svg="http://www.w3.org/2000/svg">
  <defs
     id="defs1" />
  <sodipodi:namedview
     id="namedview1"
     pagecolor="#ffffff"
     bordercolor="#000000"
     borderopacity="0.25"
     inkscape:showpageshadow="2"
     inkscape:pageopacity="0.0"
     inkscape:pagecheckerboard="0"
     inkscape:deskcolor="#d1d1d1"
     inkscape:zoom="36.916667"
     inkscape:cx="25.78781"
     inkscape:cy="18.555305"
     inkscape:window-width="3840"
     inkscape:window-height="2020"
     inkscape:window-x="0"
     inkscape:window-y="32"
     inkscape:window-maximized="1"
     inkscape:current-layer="svg1" />
  <path
     d="m 3.778 22.5711 c -0.6459 0 -1.1991 -0.2299 -1.659 -0.6902 -0.46 -0.46 -0.6902 -1.0131 -0.6902 -1.659 v -16.4441 c 0 -0.6459 0.2299 -1.1991 0.6902 -1.659 0.46 -0.46 1.0131 -0.6902 1.659 -0.6902 h 16.4441 c 0.6459 0 1.1991 0.2299 1.659 0.6902 0.46 0.46 0.6902 1.0131 0.6902 1.659 v 16.4441 c 0 0.6459 -0.2299 1.1991 -0.6902 1.659 -0.46 0.46 -1.0131 0.6902 -1.659 0.6902 z M 3.4259 20.5742 H 20.6012 V 3.4259 H 3.4259 Z m 0 -17.1483 v 17.1483 z"
     id="path1"
     sodipodi:nodetypes="ssssssssssssscccccccc"
     style="stroke-width:0.0294" />
  <path
     d="m 12.1786 17.609 q -1.539 0 -2.706 -0.7002 -1.1598 -0.7002 -1.8161 -1.962 -0.6492 -1.2618 -0.6492 -2.9394 0 -1.7359 0.6711 -2.9977 0.6711 -1.2618 1.838 -1.9401 1.167 -0.6783 2.6258 -0.6783 0.9336 0 1.7578 0.2771 0.8241 0.2699 1.4587 0.7804 0.6419 0.5032 1.0503 1.2035 0.4084 0.7002 0.5106 1.5535 h -2.2756 q -0.0948 -0.4158 -0.2989 -0.7513 -0.2041 -0.3429 -0.5252 -0.5835 -0.3136 -0.2408 -0.7221 -0.3648 -0.4012 -0.1314 -0.89 -0.1314 -0.9117 0 -1.5755 0.4449 -0.6564 0.4377 -1.0138 1.2546 -0.3501 0.8095 -0.3501 1.9329 0 1.116 0.3573 1.9256 0.3573 0.8095 1.0211 1.2546 0.6638 0.4377 1.59 0.4377 0.7586 0 1.3349 -0.2846 0.5761 -0.2918 0.8971 -0.8095 0.3282 -0.5252 0.3282 -1.2108 l 0.5323 0.0437 H 12.4266 v -1.7068 h 4.566 v 1.3859 q 0 1.3493 -0.62 2.3778 -0.6126 1.0284 -1.6993 1.6119 -1.0868 0.5761 -2.4945 0.5761 z"
     id="text1"
     style="font-weight:bold;font-size:15.667px;font-family:'Adwaita Sans';-inkscape-font-specification:'Adwaita Sans, Bold';letter-spacing:0px;word-spacing:0px;stroke-width:0.0215"
     aria-label="G" />
</svg>
