<?xml version="1.0" encoding="UTF-8" standalone="no"?>
<svg
   height="24px"
   viewBox="0 0 24 24"
   width="24px"
   fill="#000000"
   version="1.1"
   id="svg1"
   sodipodi:docname="general-symbolic.svg"
   inkscape:version="1.4.2 (ebf0e940d0, 2025-05-08)"
   xmlns:inkscape="http://www.inkscape.org/namespaces/inkscape"
   xmlns:sodipodi="http://sodipodi.sourceforge.net/DTD/sodipodi-0.dtd"
   xmlns="http://www.w3.org/2000/svg"
   xmlns:svg="http://www.w3.org/2000/svg">
  <defs
     id="defs1" />
  <sodipodi:namedview
     id="namedview1"
     pagecolor="#ffffff"
     bordercolor="#000000"
     borderopacity="0.25"
     inkscape:showpageshadow="2"
     inkscape:pageopacity="0.0"
     inkscape:pagecheckerboard="0"
     inkscape:deskcolor="#d1d1d1"
     inkscape:zoom="36.916667"
     inkscape:cx="12"
     inkscape:cy="12"
     inkscape:window-width="3840"
     inkscape:window-height="2020"
     inkscape:window-x="0"
     inkscape:window-y="32"
     inkscape:window-maximized="1"
     inkscape:current-layer="svg1" />
  <path
     d="M 17.1501 20.7 11.1 14.5999 q -0.5 0.2 -1.0125 0.3 t -1.0875 0.1001 q -2.4999 0 -4.25 -1.7499 t -1.7499 -4.25 q 0 -0.9 0.2499 -1.7125 t 0.7001 -1.5375 l 3.65 3.65 1.8 -1.8 -3.65 -3.65 q 0.7251 -0.45 1.5375 -0.7001 t 1.7125 -0.2499 q 2.4999 0 4.25 1.7499 t 1.7499 4.25 q 0 0.5751 -0.1001 1.0875 T 14.5999 11.1 l 6.1 6.0501 q 0.3 0.3 0.3 0.7251 t -0.3 0.7251 l -2.1 2.1 q -0.3 0.3 -0.7251 0.3 t -0.7251 -0.3 Z m 0.7251 -2.1249 0.675 -0.675 -6.4001 -6.4001 q 0.45 -0.5 0.6501 -1.1625 t 0.2 -1.3376 q 0 -1.5 -0.9626 -2.6124 T 9.65 5.0499 l 1.85 1.85 q 0.3 0.3 0.3 0.7001 t -0.3 0.7001 L 8.3001 11.4999 q -0.3 0.3 -0.7001 0.3 t -0.7001 -0.3 l -1.85 -1.85 q 0.225 1.425 1.3376 2.3876 T 9 13.0001 q 0.6501 0 1.3001 -0.2 t 1.1749 -0.625 l 6.4001 6.4001 Z M 11.7999 11.7999 Z"
     id="path1" />
</svg>
