<?xml version="1.0" encoding="UTF-8" standalone="no"?>
<svg
   height="24px"
   viewBox="0 0 16 16"
   width="24px"
   fill="#000000"
   version="1.1"
   id="svg1"
   sodipodi:docname="general-symbolic.svg"
   inkscape:version="1.4.2 (ebf0e940d0, 2025-05-08)"
   xmlns:inkscape="http://www.inkscape.org/namespaces/inkscape"
   xmlns:sodipodi="http://sodipodi.sourceforge.net/DTD/sodipodi-0.dtd"
   xmlns="http://www.w3.org/2000/svg"
   xmlns:svg="http://www.w3.org/2000/svg">
  <defs
     id="defs1" />
  <sodipodi:namedview
     id="namedview1"
     pagecolor="#ffffff"
     bordercolor="#000000"
     borderopacity="0.25"
     inkscape:showpageshadow="2"
     inkscape:pageopacity="0.0"
     inkscape:pagecheckerboard="0"
     inkscape:deskcolor="#d1d1d1"
     inkscape:zoom="36.916667"
     inkscape:cx="12"
     inkscape:cy="12"
     inkscape:window-width="3840"
     inkscape:window-height="2020"
     inkscape:window-x="0"
     inkscape:window-y="32"
     inkscape:window-maximized="1"
     inkscape:current-layer="svg1" />
  <path
     d="M 11.4334 13.8 7.4 9.7333 q -0.3333 0.1333 -0.675 0.2 t -0.725 0.0667 q -1.6666 0 -2.8333 -1.1666 t -1.1666 -2.8333 q 0 -0.6 0.1666 -1.1417 t 0.4667 -1.025 l 2.4333 2.4333 1.2 -1.2 -2.4333 -2.4333 q 0.4834 -0.3 1.025 -0.4667 t 1.1417 -0.1666 q 1.6666 0 2.8333 1.1666 t 1.1666 2.8333 q 0 0.3834 -0.0667 0.725 T 9.7333 7.4 l 4.0667 4.0334 q 0.2 0.2 0.2 0.4834 t -0.2 0.4834 l -1.4 1.4 q -0.2 0.2 -0.4834 0.2 t -0.4834 -0.2 Z m 0.4834 -1.4166 0.45 -0.45 -4.2667 -4.2667 q 0.3 -0.3333 0.4334 -0.775 t 0.1333 -0.8917 q 0 -1 -0.6417 -1.7416 T 6.4333 3.3666 l 1.2333 1.2333 q 0.2 0.2 0.2 0.4667 t -0.2 0.4667 L 5.5334 7.6666 q -0.2 0.2 -0.4667 0.2 t -0.4667 -0.2 l -1.2333 -1.2333 q 0.15 0.95 0.8917 1.5917 T 6 8.6667 q 0.4334 0 0.8667 -0.1333 t 0.7833 -0.4167 l 4.2667 4.2667 Z M 7.8666 7.8666 Z"
     id="path1" />
</svg>
