<?xml version="1.0" encoding="UTF-8" standalone="no"?>
<svg
   height="24px"
   viewBox="0 0 32 32"
   width="24px"
   fill="#000000"
   version="1.1"
   id="svg1"
   sodipodi:docname="general-symbolic.svg"
   inkscape:version="1.4.2 (ebf0e940d0, 2025-05-08)"
   xmlns:inkscape="http://www.inkscape.org/namespaces/inkscape"
   xmlns:sodipodi="http://sodipodi.sourceforge.net/DTD/sodipodi-0.dtd"
   xmlns="http://www.w3.org/2000/svg"
   xmlns:svg="http://www.w3.org/2000/svg">
  <defs
     id="defs1" />
  <sodipodi:namedview
     id="namedview1"
     pagecolor="#ffffff"
     bordercolor="#000000"
     borderopacity="0.25"
     inkscape:showpageshadow="2"
     inkscape:pageopacity="0.0"
     inkscape:pagecheckerboard="0"
     inkscape:deskcolor="#d1d1d1"
     inkscape:zoom="36.916667"
     inkscape:cx="12"
     inkscape:cy="12"
     inkscape:window-width="3840"
     inkscape:window-height="2020"
     inkscape:window-x="0"
     inkscape:window-y="32"
     inkscape:window-maximized="1"
     inkscape:current-layer="svg1" />
  <path
     d="M 22.8667 27.6 14.8 19.4667 q -0.6667 0.2667 -1.35 0.4 t -1.45 0.1333 q -3.3333 0 -5.6667 -2.3333 t -2.3333 -5.6667 q 0 -1.2 0.3333 -2.2833 t 0.9333 -2.05 l 4.8667 4.8667 2.4 -2.4 -4.8667 -4.8667 q 0.9667 -0.6 2.05 -0.9333 t 2.2833 -0.3333 q 3.3333 0 5.6667 2.3333 t 2.3333 5.6667 q 0 0.7667 -0.1333 1.45 T 19.4667 14.8 l 8.1333 8.0667 q 0.4 0.4 0.4 0.9667 t -0.4 0.9667 l -2.8 2.8 q -0.4 0.4 -0.9667 0.4 t -0.9667 -0.4 Z m 0.9667 -2.8333 0.9 -0.9 -8.5333 -8.5333 q 0.6 -0.6667 0.8667 -1.55 t 0.2667 -1.7833 q 0 -2 -1.2833 -3.4833 T 12.8667 6.7333 l 2.4667 2.4667 q 0.4 0.4 0.4 0.9333 t -0.4 0.9333 L 11.0667 15.3333 q -0.4 0.4 -0.9333 0.4 t -0.9333 -0.4 l -2.4667 -2.4667 q 0.3 1.9 1.7833 3.1833 T 12 17.3333 q 0.8667 0 1.7333 -0.2667 t 1.5667 -0.8333 l 8.5333 8.5333 Z M 15.7333 15.7333 Z"
     id="path1" />
</svg>
