<?xml version="1.0" encoding="UTF-8" standalone="no"?>
<svg
   height="24px"
   viewBox="0 0 16 16"
   width="24px"
   fill="#000000"
   version="1.1"
   id="svg1"
   sodipodi:docname="hardware-symbolic.svg"
   inkscape:version="1.4.3 (0d15f75042, 2025-12-25)"
   xmlns:inkscape="http://www.inkscape.org/namespaces/inkscape"
   xmlns:sodipodi="http://sodipodi.sourceforge.net/DTD/sodipodi-0.dtd"
   xmlns="http://www.w3.org/2000/svg"
   xmlns:svg="http://www.w3.org/2000/svg">
  <defs
     id="defs1" />
  <sodipodi:namedview
     id="namedview1"
     pagecolor="#ffffff"
     bordercolor="#000000"
     borderopacity="0.25"
     inkscape:showpageshadow="2"
     inkscape:pageopacity="0.0"
     inkscape:pagecheckerboard="0"
     inkscape:deskcolor="#d1d1d1"
     inkscape:zoom="36.916667"
     inkscape:cx="12"
     inkscape:cy="12"
     inkscape:window-width="2373"
     inkscape:window-height="1330"
     inkscape:window-x="50"
     inkscape:window-y="82"
     inkscape:window-maximized="0"
     inkscape:current-layer="svg1" />
  <path
     d="M 2.65 14 v -2 h 2.0667 L 3.0166 6.4333 q -0.45 -0.25 -0.7417 -0.7333 T 1.9833 4.6666 q 0 -0.8334 0.5834 -1.4166 t 1.4166 -0.5834 q 0.65 0 1.1583 0.375 T 5.85 4 h 2.1334 v -0.6666 q 0 -0.2833 0.1916 -0.475 T 8.65 2.6667 q 0.15 0 0.2917 0.0667 t 0.2417 0.2 l 1.1334 -1.0667 q 0.15 -0.15 0.3584 -0.1916 T 11.0833 1.7333 l 2.6 1.2 q 0.2 0.1 0.275 0.2917 T 13.95 3.6 q -0.1 0.2 -0.2917 0.2584 T 13.2834 3.8333 l -2.4 -1.1 -1.5667 1.4667 v 0.9334 l 1.5667 1.4333 2.4 -1.1 q 0.1834 -0.0833 0.3834 -0.0167 t 0.2833 0.25 q 0.1 0.2 0.0167 0.3834 t -0.2833 0.2833 l -2.6 1.2333 q -0.2 0.1 -0.4083 0.0583 T 10.3166 7.4666 l -1.1334 -1.0667 q -0.1 0.1 -0.2417 0.1834 t -0.2917 0.0833 q -0.2833 0 -0.475 -0.1916 T 7.9833 6 v -0.6666 H 5.85 q -0.05 0.1333 -0.1084 0.25 t -0.1583 0.25 l 3.3333 6.1666 h 2.4 v 2 H 2.65 Z m 1.8083 -8.8583 Q 4.65 4.95 4.65 4.6666 t -0.1916 -0.475 Q 4.2667 4 3.9834 4 t -0.475 0.1916 Q 3.3167 4.3834 3.3167 4.6666 t 0.1916 0.475 Q 3.7 5.3334 3.9834 5.3334 t 0.475 -0.1916 Z M 6.0834 12 h 1.3 L 4.5167 6.6666 h -0.0667 l 1.6334 5.3334 Z m 1.3 0 Z"
     id="path1" />
</svg>
