<?xml version="1.0" encoding="UTF-8" standalone="no"?>
<svg
   height="24px"
   viewBox="0 0 32 32"
   width="24px"
   fill="#000000"
   version="1.1"
   id="svg1"
   sodipodi:docname="hardware-symbolic.svg"
   inkscape:version="1.4.3 (0d15f75042, 2025-12-25)"
   xmlns:inkscape="http://www.inkscape.org/namespaces/inkscape"
   xmlns:sodipodi="http://sodipodi.sourceforge.net/DTD/sodipodi-0.dtd"
   xmlns="http://www.w3.org/2000/svg"
   xmlns:svg="http://www.w3.org/2000/svg">
  <defs
     id="defs1" />
  <sodipodi:namedview
     id="namedview1"
     pagecolor="#ffffff"
     bordercolor="#000000"
     borderopacity="0.25"
     inkscape:showpageshadow="2"
     inkscape:pageopacity="0.0"
     inkscape:pagecheckerboard="0"
     inkscape:deskcolor="#d1d1d1"
     inkscape:zoom="36.916667"
     inkscape:cx="12"
     inkscape:cy="12"
     inkscape:window-width="2373"
     inkscape:window-height="1330"
     inkscape:window-x="50"
     inkscape:window-y="82"
     inkscape:window-maximized="0"
     inkscape:current-layer="svg1" />
  <path
     d="M 5.3 28 v -4 h 4.1333 L 6.0333 12.8667 q -0.9 -0.5 -1.4833 -1.4667 T 3.9667 9.3333 q 0 -1.6667 1.1667 -2.8333 t 2.8333 -1.1667 q 1.3 0 2.3167 0.75 T 11.7 8 h 4.2667 v -1.3333 q 0 -0.5667 0.3833 -0.95 T 17.3 5.3333 q 0.3 0 0.5833 0.1333 t 0.4833 0.4 l 2.2667 -2.1333 q 0.3 -0.3 0.7167 -0.3833 T 22.1667 3.4667 l 5.2 2.4 q 0.4 0.2 0.55 0.5833 T 27.9 7.2 q -0.2 0.4 -0.5833 0.5167 T 26.5667 7.6667 l -4.8 -2.2 -3.1333 2.9333 v 1.8667 l 3.1333 2.8667 4.8 -2.2 q 0.3667 -0.1667 0.7667 -0.0333 t 0.5667 0.5 q 0.2 0.4 0.0333 0.7667 t -0.5667 0.5667 l -5.2 2.4667 q -0.4 0.2 -0.8167 0.1167 T 20.6333 14.9333 l -2.2667 -2.1333 q -0.2 0.2 -0.4833 0.3667 t -0.5833 0.1667 q -0.5667 0 -0.95 -0.3833 T 15.9667 12 v -1.3333 H 11.7 q -0.1 0.2667 -0.2167 0.5 t -0.3167 0.5 l 6.6667 12.3333 h 4.8 v 4 H 5.3 Z m 3.6167 -17.7167 Q 9.3 9.9 9.3 9.3333 t -0.3833 -0.95 Q 8.5333 8 7.9667 8 t -0.95 0.3833 Q 6.6333 8.7667 6.6333 9.3333 t 0.3833 0.95 Q 7.4 10.6667 7.9667 10.6667 t 0.95 -0.3833 Z M 12.1667 24 h 2.6 L 9.0333 13.3333 h -0.1333 l 3.2667 10.6667 Z m 2.6 0 Z"
     id="path1" />
</svg>
