<?xml version="1.0" encoding="UTF-8" standalone="no"?>
<svg
   height="24px"
   viewBox="0 0 24 24"
   width="24px"
   fill="#000000"
   version="1.1"
   id="svg1"
   sodipodi:docname="hardware-symbolic.svg"
   inkscape:version="1.4.3 (0d15f75042, 2025-12-25)"
   xmlns:inkscape="http://www.inkscape.org/namespaces/inkscape"
   xmlns:sodipodi="http://sodipodi.sourceforge.net/DTD/sodipodi-0.dtd"
   xmlns="http://www.w3.org/2000/svg"
   xmlns:svg="http://www.w3.org/2000/svg">
  <defs
     id="defs1" />
  <sodipodi:namedview
     id="namedview1"
     pagecolor="#ffffff"
     bordercolor="#000000"
     borderopacity="0.25"
     inkscape:showpageshadow="2"
     inkscape:pageopacity="0.0"
     inkscape:pagecheckerboard="0"
     inkscape:deskcolor="#d1d1d1"
     inkscape:zoom="36.916667"
     inkscape:cx="12"
     inkscape:cy="12"
     inkscape:window-width="2373"
     inkscape:window-height="1330"
     inkscape:window-x="50"
     inkscape:window-y="82"
     inkscape:window-maximized="0"
     inkscape:current-layer="svg1" />
  <path
     d="M 3.975 21 v -3 h 3.1 L 4.5249 9.65 q -0.675 -0.375 -1.1126 -1.0999 T 2.975 6.9999 q 0 -1.2501 0.8751 -2.1249 t 2.1249 -0.8751 q 0.975 0 1.7375 0.5625 T 8.775 6 h 3.2001 v -0.9999 q 0 -0.4249 0.2874 -0.7125 T 12.975 4 q 0.225 0 0.4375 0.1001 t 0.3625 0.3 l 1.7001 -1.6 q 0.225 -0.225 0.5376 -0.2874 T 16.6249 2.6 l 3.9 1.8 q 0.3 0.15 0.4125 0.4375 T 20.925 5.4 q -0.15 0.3 -0.4375 0.3876 T 19.9251 5.75 l -3.6 -1.65 -2.35 2.2001 v 1.4001 l 2.35 2.15 3.6 -1.65 q 0.2751 -0.125 0.5751 -0.025 t 0.4249 0.375 q 0.15 0.3 0.025 0.5751 t -0.4249 0.4249 l -3.9 1.85 q -0.3 0.15 -0.6124 0.0874 T 15.4749 11.1999 l -1.7001 -1.6 q -0.15 0.15 -0.3625 0.2751 t -0.4375 0.125 q -0.4249 0 -0.7125 -0.2874 T 11.9749 9 v -0.9999 H 8.775 q -0.075 0.2 -0.1626 0.375 t -0.2374 0.375 l 5 9.2499 h 3.6 v 3 H 3.975 Z m 2.7125 -13.2874 Q 6.975 7.425 6.975 6.9999 t -0.2874 -0.7125 Q 6.4001 6 5.9751 6 t -0.7125 0.2874 Q 4.975 6.5751 4.975 6.9999 t 0.2874 0.7125 Q 5.55 8.0001 5.9751 8.0001 t 0.7125 -0.2874 Z M 9.1251 18 h 1.95 L 6.7751 9.9999 h -0.1001 l 2.4501 8.0001 Z m 1.95 0 Z"
     id="path1" />
</svg>
