<?xml version="1.0" encoding="UTF-8" standalone="no"?>
<svg
   height="24px"
   viewBox="0 0 16 16"
   width="24px"
   fill="#000000"
   version="1.1"
   id="svg1"
   xmlns="http://www.w3.org/2000/svg"
   xmlns:svg="http://www.w3.org/2000/svg">
  <defs
     id="defs1" />
  <path
     d="M 2.6667 14 v -6.25 l -1.2 0.9166 -0.8 -1.0667 7.3334 -5.6 7.3334 5.6 -0.8 1.05 -1.2 -0.9 v 6.25 H 2.6667 Z m 1.3334 -1.3334 h 8 v -5.9333 L 8 3.6833 4 6.7333 v 5.9333 Z m 0 0 h 8 -8 Z m 1.3334 -2.6667 q -0.2833 0 -0.475 -0.1916 T 4.6666 9.3333 q 0 -0.2833 0.1916 -0.475 T 5.3334 8.6667 q 0.2833 0 0.475 0.1916 T 6 9.3333 q 0 0.2833 -0.1916 0.475 T 5.3334 10 Z m 2.6667 0 q -0.2833 0 -0.475 -0.1916 T 7.3334 9.3333 q 0 -0.2833 0.1916 -0.475 T 8 8.6667 q 0.2833 0 0.475 0.1916 T 8.6667 9.3333 q 0 0.2833 -0.1916 0.475 T 8 10 Z m 2.6667 0 q -0.2833 0 -0.475 -0.1916 T 10 9.3333 q 0 -0.2833 0.1916 -0.475 T 10.6667 8.6667 q 0.2833 0 0.475 0.1916 T 11.3333 9.3333 q 0 0.2833 -0.1916 0.475 T 10.6667 10 Z"
     id="path1" />
</svg>
