<?xml version="1.0" encoding="UTF-8" standalone="no"?>
<svg
   height="24px"
   viewBox="0 0 24 24"
   width="24px"
   fill="#000000"
   version="1.1"
   id="svg1"
   xmlns="http://www.w3.org/2000/svg"
   xmlns:svg="http://www.w3.org/2000/svg">
  <defs
     id="defs1" />
  <path
     d="M 4 21 v -9.375 l -1.8 1.3749 -1.2 -1.6 11.0001 -8.4 11.0001 8.4 -1.2 1.575 -1.8 -1.35 v 9.375 H 4 Z m 2.0001 -2.0001 h 12 v -8.9 L 12 5.525 6 10.0999 v 8.9 Z m 0 0 h 12 -12 Z m 2.0001 -4 q -0.4249 0 -0.7125 -0.2874 T 6.9999 13.9999 q 0 -0.4249 0.2874 -0.7125 T 8.0001 13.0001 q 0.4249 0 0.7125 0.2874 T 9 13.9999 q 0 0.4249 -0.2874 0.7125 T 8.0001 15 Z m 4 0 q -0.4249 0 -0.7125 -0.2874 T 11.0001 13.9999 q 0 -0.4249 0.2874 -0.7125 T 12 13.0001 q 0.4249 0 0.7125 0.2874 T 13.0001 13.9999 q 0 0.4249 -0.2874 0.7125 T 12 15 Z m 4 0 q -0.4249 0 -0.7125 -0.2874 T 15 13.9999 q 0 -0.4249 0.2874 -0.7125 T 16.0001 13.0001 q 0.4249 0 0.7125 0.2874 T 16.9999 13.9999 q 0 0.4249 -0.2874 0.7125 T 16.0001 15 Z"
     id="path1" />
</svg>
