<?xml version="1.0" encoding="UTF-8" standalone="no"?>
<svg
   height="24px"
   viewBox="0 0 32 32"
   width="24px"
   fill="#000000"
   version="1.1"
   id="svg1"
   xmlns="http://www.w3.org/2000/svg"
   xmlns:svg="http://www.w3.org/2000/svg">
  <defs
     id="defs1" />
  <path
     d="M 5.3333 28 v -12.5 l -2.4 1.8333 -1.6 -2.1333 14.6667 -11.2 14.6667 11.2 -1.6 2.1 -2.4 -1.8 v 12.5 H 5.3333 Z m 2.6667 -2.6667 h 16 v -11.8667 L 16 7.3667 8 13.4667 v 11.8667 Z m 0 0 h 16 -16 Z m 2.6667 -5.3333 q -0.5667 0 -0.95 -0.3833 T 9.3333 18.6667 q 0 -0.5667 0.3833 -0.95 T 10.6667 17.3333 q 0.5667 0 0.95 0.3833 T 12 18.6667 q 0 0.5667 -0.3833 0.95 T 10.6667 20 Z m 5.3333 0 q -0.5667 0 -0.95 -0.3833 T 14.6667 18.6667 q 0 -0.5667 0.3833 -0.95 T 16 17.3333 q 0.5667 0 0.95 0.3833 T 17.3333 18.6667 q 0 0.5667 -0.3833 0.95 T 16 20 Z m 5.3333 0 q -0.5667 0 -0.95 -0.3833 T 20 18.6667 q 0 -0.5667 0.3833 -0.95 T 21.3333 17.3333 q 0.5667 0 0.95 0.3833 T 22.6667 18.6667 q 0 0.5667 -0.3833 0.95 T 21.3333 20 Z"
     id="path1" />
</svg>
