<?xml version="1.0" encoding="UTF-8" standalone="no"?>
<svg
   height="24px"
   viewBox="0 0 24 24"
   width="24px"
   fill="#000000"
   version="1.1"
   id="svg1"
   xmlns="http://www.w3.org/2000/svg"
   xmlns:svg="http://www.w3.org/2000/svg">
  <defs
     id="defs1" />
  <path
     d="M 8.0001 19.9999 h 8.0001 v -3 q 0 -1.65 -1.1749 -2.8251 t -2.8251 -1.1749 q -1.65 0 -2.8251 1.1749 t -1.1749 2.8251 v 3 Z m 4 -9 q 1.65 0 2.8251 -1.1749 t 1.1749 -2.8251 v -3 H 8.0001 v 3 q 0 1.65 1.1749 2.8251 t 2.8251 1.1749 Z M 4 22.0001 v -2.0001 h 2.0001 v -3 q 0 -1.525 0.7125 -2.8624 T 8.7 12 q -1.275 -0.7999 -1.9875 -2.1375 T 6 6.9999 v -3 h -2.0001 v -2.0001 h 16.0001 v 2.0001 h -2.0001 v 3 q 0 1.525 -0.7125 2.8624 T 15.3 12 q 1.275 0.7999 1.9875 2.1375 T 18 16.9999 v 3 h 2.0001 v 2.0001 H 4 Z m 8.0001 -2.0001 Z m 0 -16.0001 Z"
     id="path1" />
</svg>
