<?xml version="1.0" encoding="UTF-8" standalone="no"?>
<svg
   height="24px"
   viewBox="0 0 32 32"
   width="24px"
   fill="#000000"
   version="1.1"
   id="svg1"
   xmlns="http://www.w3.org/2000/svg"
   xmlns:svg="http://www.w3.org/2000/svg">
  <defs
     id="defs1" />
  <path
     d="M 10.6667 26.6667 h 10.6667 v -4 q 0 -2.2 -1.5667 -3.7667 t -3.7667 -1.5667 q -2.2 0 -3.7667 1.5667 t -1.5667 3.7667 v 4 Z m 5.3333 -12 q 2.2 0 3.7667 -1.5667 t 1.5667 -3.7667 v -4 H 10.6667 v 4 q 0 2.2 1.5667 3.7667 t 3.7667 1.5667 Z M 5.3333 29.3333 v -2.6667 h 2.6667 v -4 q 0 -2.0333 0.95 -3.8167 T 11.6 16 q -1.7 -1.0667 -2.65 -2.85 T 8 9.3333 v -4 h -2.6667 v -2.6667 h 21.3333 v 2.6667 h -2.6667 v 4 q 0 2.0333 -0.95 3.8167 T 20.4 16 q 1.7 1.0667 2.65 2.85 T 24 22.6667 v 4 h 2.6667 v 2.6667 H 5.3333 Z m 10.6667 -2.6667 Z m 0 -21.3333 Z"
     id="path1" />
</svg>
