<?xml version="1.0" encoding="UTF-8" standalone="no"?>
<svg
   height="24px"
   viewBox="0 0 16 16"
   width="24px"
   fill="#000000"
   version="1.1"
   id="svg1"
   xmlns="http://www.w3.org/2000/svg"
   xmlns:svg="http://www.w3.org/2000/svg">
  <defs
     id="defs1" />
  <path
     d="M 5.3334 13.3333 h 5.3334 v -2 q 0 -1.1 -0.7833 -1.8834 t -1.8834 -0.7833 q -1.1 0 -1.8834 0.7833 t -0.7833 1.8834 v 2 Z m 2.6667 -6 q 1.1 0 1.8834 -0.7833 t 0.7833 -1.8834 v -2 H 5.3334 v 2 q 0 1.1 0.7833 1.8834 t 1.8834 0.7833 Z M 2.6667 14.6667 v -1.3334 h 1.3334 v -2 q 0 -1.0167 0.475 -1.9083 T 5.8 8 q -0.85 -0.5333 -1.325 -1.425 T 4 4.6666 v -2 h -1.3334 v -1.3334 h 10.6667 v 1.3334 h -1.3334 v 2 q 0 1.0167 -0.475 1.9083 T 10.2 8 q 0.85 0.5333 1.325 1.425 T 12 11.3333 v 2 h 1.3334 v 1.3334 H 2.6667 Z m 5.3334 -1.3334 Z m 0 -10.6667 Z"
     id="path1" />
</svg>
