<?xml version="1.0" encoding="UTF-8" standalone="no"?>
<svg
   height="24px"
   viewBox="0 0 24 24"
   width="24px"
   fill="#000000"
   version="1.1"
   id="svg1"
   xmlns="http://www.w3.org/2000/svg"
   xmlns:svg="http://www.w3.org/2000/svg">
  <defs
     id="defs1" />
  <path
     d="m 6.8001 13.0001 5.2001 3 5.2001 -3 -4.2 -2.4249 v 3.4249 h -2.0001 v -3.4249 l -4.2 2.4249 Z m 4.2 -4.725 v -0.4249 q -1.0999 -0.3251 -1.8 -1.2375 T 8.4999 4.5 q 0 -1.4501 1.0251 -2.475 t 2.475 -1.0251 q 1.4501 0 2.475 1.0251 t 1.0251 2.475 q 0 1.2 -0.7001 2.1124 T 13.0001 7.8499 v 0.4249 l 6.9999 4.025 q 0.4749 0.2751 0.7374 0.7374 T 21 14.0499 v 1.9 q 0 0.5499 -0.2625 1.0125 T 19.9999 17.7 L 13.0001 21.7249 q -0.4749 0.2751 -0.9999 0.2751 t -0.9999 -0.2751 L 4 17.7 q -0.4749 -0.2751 -0.7374 -0.7374 T 3 15.9501 v -1.9 q 0 -0.5499 0.2625 -1.0125 T 4 12.3 l 6.9999 -4.025 Z m 0 9.45 L 5 14.2751 v 1.6749 l 6.9999 4.05 6.9999 -4.05 v -1.6749 L 13.0001 17.7249 q -0.4749 0.2751 -0.9999 0.2751 t -0.9999 -0.2751 Z m 0.9999 -11.725 q 0.625 0 1.0626 -0.4375 T 13.5 4.5 q 0 -0.625 -0.4375 -1.0626 T 12 3 q -0.625 0 -1.0626 0.4375 T 10.5 4.5 q 0 0.625 0.4375 1.0626 T 12 6 Z m 0 13.9999 Z"
     id="path1" />
</svg>
