<?xml version="1.0" encoding="UTF-8" standalone="no"?>
<svg
   height="24px"
   viewBox="0 0 16 16"
   width="24px"
   fill="#000000"
   version="1.1"
   id="svg1"
   xmlns="http://www.w3.org/2000/svg"
   xmlns:svg="http://www.w3.org/2000/svg">
  <defs
     id="defs1" />
  <path
     d="m 4.5334 8.6667 3.4667 2 3.4667 -2 -2.8 -1.6166 v 2.2833 h -1.3334 v -2.2833 l -2.8 1.6166 Z m 2.8 -3.15 v -0.2833 q -0.7333 -0.2167 -1.2 -0.825 T 5.6666 3 q 0 -0.9667 0.6834 -1.65 t 1.65 -0.6834 q 0.9667 0 1.65 0.6834 t 0.6834 1.65 q 0 0.8 -0.4667 1.4083 T 8.6667 5.2333 v 0.2833 l 4.6666 2.6833 q 0.3166 0.1834 0.4916 0.4916 T 14 9.3666 v 1.2667 q 0 0.3666 -0.175 0.675 T 13.3333 11.8 L 8.6667 14.4833 q -0.3166 0.1834 -0.6666 0.1834 t -0.6666 -0.1834 L 2.6667 11.8 q -0.3166 -0.1834 -0.4916 -0.4916 T 2 10.6334 v -1.2667 q 0 -0.3666 0.175 -0.675 T 2.6667 8.2 l 4.6666 -2.6833 Z m 0 6.3 L 3.3333 9.5167 v 1.1166 l 4.6666 2.7 4.6666 -2.7 v -1.1166 L 8.6667 11.8166 q -0.3166 0.1834 -0.6666 0.1834 t -0.6666 -0.1834 Z m 0.6666 -7.8167 q 0.4167 0 0.7084 -0.2917 T 9 3 q 0 -0.4167 -0.2917 -0.7084 T 8 2 q -0.4167 0 -0.7084 0.2917 T 7 3 q 0 0.4167 0.2917 0.7084 T 8 4 Z m 0 9.3333 Z"
     id="path1" />
</svg>
