<?xml version="1.0" encoding="UTF-8" standalone="no"?>
<svg
   height="24px"
   viewBox="0 0 32 32"
   width="24px"
   fill="#000000"
   version="1.1"
   id="svg1"
   xmlns="http://www.w3.org/2000/svg"
   xmlns:svg="http://www.w3.org/2000/svg">
  <defs
     id="defs1" />
  <path
     d="m 9.0667 17.3333 6.9333 4 6.9333 -4 -5.6 -3.2333 v 4.5667 h -2.6667 v -4.5667 l -5.6 3.2333 Z m 5.6 -6.3 v -0.5667 q -1.4667 -0.4333 -2.4 -1.65 T 11.3333 6 q 0 -1.9333 1.3667 -3.3 t 3.3 -1.3667 q 1.9333 0 3.3 1.3667 t 1.3667 3.3 q 0 1.6 -0.9333 2.8167 T 17.3333 10.4667 v 0.5667 l 9.3333 5.3667 q 0.6333 0.3667 0.9833 0.9833 T 28 18.7333 v 2.5333 q 0 0.7333 -0.35 1.35 T 26.6667 23.6 L 17.3333 28.9667 q -0.6333 0.3667 -1.3333 0.3667 t -1.3333 -0.3667 L 5.3333 23.6 q -0.6333 -0.3667 -0.9833 -0.9833 T 4 21.2667 v -2.5333 q 0 -0.7333 0.35 -1.35 T 5.3333 16.4 l 9.3333 -5.3667 Z m 0 12.6 L 6.6667 19.0333 v 2.2333 l 9.3333 5.4 9.3333 -5.4 v -2.2333 L 17.3333 23.6333 q -0.6333 0.3667 -1.3333 0.3667 t -1.3333 -0.3667 Z m 1.3333 -15.6333 q 0.8333 0 1.4167 -0.5833 T 18 6 q 0 -0.8333 -0.5833 -1.4167 T 16 4 q -0.8333 0 -1.4167 0.5833 T 14 6 q 0 0.8333 0.5833 1.4167 T 16 8 Z m 0 18.6667 Z"
     id="path1" />
</svg>
