<?xml version="1.0" encoding="UTF-8" standalone="no"?>
<svg
   height="24px"
   viewBox="0 0 16 16"
   width="24px"
   fill="#000000"
   version="1.1"
   id="svg1"
   xmlns="http://www.w3.org/2000/svg"
   xmlns:svg="http://www.w3.org/2000/svg">
  <defs
     id="defs1" />
  <path
     d="m 6 14 -0.95 -0.9334 1.0667 -1.0667 h -0.1167 q -1.95 0 -3.3083 -1.3583 T 1.3334 7.3334 q 0 -1.95 1.3583 -3.3083 T 6 2.6667 h 4 q 1.95 0 3.3083 1.3583 T 14.6667 7.3334 q 0 1.95 -1.3583 3.3083 T 10 12 v -1.3334 q 1.3834 0 2.3584 -0.975 T 13.3333 7.3334 q 0 -1.3834 -0.975 -2.3584 T 10 4 H 6 q -1.3834 0 -2.3584 0.975 T 2.6667 7.3334 q 0 1.3834 0.975 2.375 T 6 10.8 h 0.2666 l -1.2 -1.2 0.9334 -0.9334 2.6667 2.6667 -2.6667 2.6667 Z"
     id="path1" />
</svg>
