<?xml version="1.0" encoding="UTF-8" standalone="no"?>
<svg
   height="24px"
   viewBox="0 0 32 32"
   width="24px"
   fill="#000000"
   version="1.1"
   id="svg1"
   xmlns="http://www.w3.org/2000/svg"
   xmlns:svg="http://www.w3.org/2000/svg">
  <defs
     id="defs1" />
  <path
     d="m 12 28 -1.9 -1.8667 2.1333 -2.1333 h -0.2333 q -3.9 0 -6.6167 -2.7167 T 2.6667 14.6667 q 0 -3.9 2.7167 -6.6167 T 12 5.3333 h 8 q 3.9 0 6.6167 2.7167 T 29.3333 14.6667 q 0 3.9 -2.7167 6.6167 T 20 24 v -2.6667 q 2.7667 0 4.7167 -1.95 T 26.6667 14.6667 q 0 -2.7667 -1.95 -4.7167 T 20 8 H 12 q -2.7667 0 -4.7167 1.95 T 5.3333 14.6667 q 0 2.7667 1.95 4.75 T 12 21.6 h 0.5333 l -2.4 -2.4 1.8667 -1.8667 5.3333 5.3333 -5.3333 5.3333 Z"
     id="path1" />
</svg>
