<?xml version="1.0" encoding="UTF-8" standalone="no"?>
<svg
   height="24px"
   viewBox="0 0 24 24"
   width="24px"
   fill="#000000"
   version="1.1"
   id="svg1"
   xmlns="http://www.w3.org/2000/svg"
   xmlns:svg="http://www.w3.org/2000/svg">
  <defs
     id="defs1" />
  <path
     d="m 9 21 -1.425 -1.4001 1.6 -1.6 h -0.175 q -2.925 0 -4.9625 -2.0375 T 2.0001 11.0001 q 0 -2.925 2.0375 -4.9625 T 9 4 h 6 q 2.925 0 4.9625 2.0375 T 22.0001 11.0001 q 0 2.925 -2.0375 4.9625 T 15 18 v -2.0001 q 2.0751 0 3.5376 -1.4625 T 19.9999 11.0001 q 0 -2.0751 -1.4625 -3.5376 T 15 6 H 9 q -2.0751 0 -3.5376 1.4625 T 4 11.0001 q 0 2.0751 1.4625 3.5625 T 9 16.2 h 0.3999 l -1.8 -1.8 1.4001 -1.4001 4 4 -4 4 Z"
     id="path1" />
</svg>
