<?xml version="1.0" encoding="UTF-8" standalone="no"?>
<svg
   height="24px"
   viewBox="0 0 16 16"
   width="24px"
   fill="#000000"
   version="1.1"
   id="svg1"
   sodipodi:docname="laser-off-symbolic.svg"
   inkscape:version="1.4.2 (ebf0e940d0, 2025-05-08)"
   xmlns:inkscape="http://www.inkscape.org/namespaces/inkscape"
   xmlns:sodipodi="http://sodipodi.sourceforge.net/DTD/sodipodi-0.dtd"
   xmlns="http://www.w3.org/2000/svg"
   xmlns:svg="http://www.w3.org/2000/svg">
  <defs
     id="defs1" />
  <sodipodi:namedview
     id="namedview1"
     pagecolor="#ffffff"
     bordercolor="#000000"
     borderopacity="0.25"
     inkscape:showpageshadow="2"
     inkscape:pageopacity="0.0"
     inkscape:pagecheckerboard="0"
     inkscape:deskcolor="#d1d1d1"
     inkscape:zoom="36.916667"
     inkscape:cx="12"
     inkscape:cy="12"
     inkscape:window-width="3840"
     inkscape:window-height="2020"
     inkscape:window-x="0"
     inkscape:window-y="32"
     inkscape:window-maximized="1"
     inkscape:current-layer="svg1" />
  <path
     id="path1"
     d="m 8 1.3334 c -0.9222 0 -1.7892 0.1747 -2.6002 0.5248 -0.3021 0.1303 -0.5892 0.2777 -0.862 0.4427 l 0.9648 0.957 C 6.2484 2.8636 7.0804 2.6667 8 2.6667 c 1.4889 0 2.7505 0.5161 3.7839 1.5495 1.0333 1.0333 1.5495 2.295 1.5495 3.7839 0 0.9017 -0.19 1.7198 -0.569 2.4545 l 0.9648 0.9557 c 0.1526 -0.2574 0.2906 -0.5268 0.4128 -0.8099 C 14.4919 9.7891 14.6667 8.9222 14.6667 8 c 0 -0.9222 -0.1747 -1.7892 -0.5248 -2.6002 -0.35 -0.8111 -0.8258 -1.5159 -1.4258 -2.1159 -0.6 -0.6 -1.3048 -1.0758 -2.1159 -1.4258 C 9.7891 1.508 8.9222 1.3334 8 1.3334 Z m -4.5377 1.7773 c -0.0606 0.0562 -0.1198 0.1146 -0.1784 0.1732 -0.6 0.6 -1.0758 1.3048 -1.4258 2.1159 C 1.508 6.2108 1.3334 7.0778 1.3334 8 c 0 0.9222 0.1747 1.7892 0.5248 2.6002 0.35 0.8111 0.8258 1.5159 1.4258 2.1159 0.6 0.6 1.3048 1.0758 2.1159 1.4258 C 6.2108 14.4919 7.0778 14.6667 8 14.6667 c 0.9222 0 1.7892 -0.1747 2.6002 -0.5248 0.8111 -0.35 1.5159 -0.8258 2.1159 -1.4258 0.0726 -0.0726 0.1434 -0.1457 0.2122 -0.2213 l -0.9375 -0.9297 c -0.0668 0.074 -0.1353 0.147 -0.2071 0.2188 -1.0333 1.0333 -2.295 1.5495 -3.7839 1.5495 -1.4889 0 -2.7505 -0.5161 -3.7839 -1.5495 C 3.1828 10.7505 2.6667 9.4889 2.6667 8 c 0 -1.4889 0.5161 -2.7505 1.5495 -3.7839 0.0604 -0.0604 0.1217 -0.119 0.1836 -0.1758 z M 8.289 6.0183 9.9792 7.6927 C 9.9194 7.2679 9.7319 6.8986 9.4167 6.5834 c -0.3195 -0.3195 -0.6956 -0.5081 -1.1276 -0.5651 z m -1.5039 0.3867 c -0.0696 0.0541 -0.1369 0.1134 -0.2018 0.1784 -0.3889 0.3889 -0.5834 0.8611 -0.5834 1.4166 0 0.5555 0.1945 1.0278 0.5834 1.4166 0.3889 0.3889 0.8611 0.5834 1.4166 0.5834 0.5555 0 1.0278 -0.1945 1.4166 -0.5834 0.0693 -0.0693 0.1318 -0.1416 0.1888 -0.2162 z"
     sodipodi:nodetypes="ssccsssccsssssscsssssssssccsssssccccsccssssscc" />
  <path
     style="opacity:1;fill:none;stroke:#000000;stroke-width:1.3334;stroke-dasharray:none;stroke-opacity:1"
     d="M 1.6975 2.2754 13.9774 14.4469"
     id="path2" />
</svg>
