<?xml version="1.0" encoding="UTF-8" standalone="no"?>
<svg
   height="24px"
   viewBox="0 0 32 32"
   width="24px"
   fill="#000000"
   version="1.1"
   id="svg1"
   sodipodi:docname="laser-off-symbolic.svg"
   inkscape:version="1.4.2 (ebf0e940d0, 2025-05-08)"
   xmlns:inkscape="http://www.inkscape.org/namespaces/inkscape"
   xmlns:sodipodi="http://sodipodi.sourceforge.net/DTD/sodipodi-0.dtd"
   xmlns="http://www.w3.org/2000/svg"
   xmlns:svg="http://www.w3.org/2000/svg">
  <defs
     id="defs1" />
  <sodipodi:namedview
     id="namedview1"
     pagecolor="#ffffff"
     bordercolor="#000000"
     borderopacity="0.25"
     inkscape:showpageshadow="2"
     inkscape:pageopacity="0.0"
     inkscape:pagecheckerboard="0"
     inkscape:deskcolor="#d1d1d1"
     inkscape:zoom="36.916667"
     inkscape:cx="12"
     inkscape:cy="12"
     inkscape:window-width="3840"
     inkscape:window-height="2020"
     inkscape:window-x="0"
     inkscape:window-y="32"
     inkscape:window-maximized="1"
     inkscape:current-layer="svg1" />
  <path
     id="path1"
     d="m 16 2.6667 c -1.8444 0 -3.5783 0.3495 -5.2005 1.0495 -0.6042 0.2607 -1.1784 0.5554 -1.724 0.8854 l 1.9297 1.9141 C 12.4968 5.7272 14.1608 5.3333 16 5.3333 c 2.9778 0 5.501 1.0323 7.5677 3.099 2.0667 2.0667 3.099 4.5899 3.099 7.5677 0 1.8034 -0.38 3.4396 -1.138 4.9089 l 1.9297 1.9115 c 0.3052 -0.5147 0.5812 -1.0536 0.8255 -1.6198 C 28.9839 19.5783 29.3333 17.8444 29.3333 16 c 0 -1.8444 -0.3495 -3.5783 -1.0495 -5.2005 -0.7 -1.6222 -1.6516 -3.0318 -2.8516 -4.2318 -1.2 -1.2 -2.6095 -2.1516 -4.2318 -2.8516 C 19.5783 3.0161 17.8444 2.6667 16 2.6667 Z m -9.0755 3.5547 c -0.1212 0.1124 -0.2396 0.2292 -0.3568 0.3464 -1.2 1.2 -2.1516 2.6095 -2.8516 4.2318 C 3.0161 12.4217 2.6667 14.1556 2.6667 16 c 0 1.8444 0.3495 3.5783 1.0495 5.2005 0.7 1.6222 1.6516 3.0318 2.8516 4.2318 1.2 1.2 2.6095 2.1516 4.2318 2.8516 C 12.4217 28.9839 14.1556 29.3333 16 29.3333 c 1.8444 0 3.5783 -0.3495 5.2005 -1.0495 1.6222 -0.7 3.0318 -1.6516 4.2318 -2.8516 0.1451 -0.1451 0.2867 -0.2914 0.4245 -0.4427 l -1.875 -1.8594 c -0.1335 0.1479 -0.2706 0.294 -0.4141 0.4375 -2.0667 2.0667 -4.5899 3.099 -7.5677 3.099 -2.9778 0 -5.501 -1.0323 -7.5677 -3.099 C 6.3656 21.501 5.3333 18.9778 5.3333 16 c 0 -2.9778 1.0323 -5.501 3.099 -7.5677 0.1207 -0.1207 0.2434 -0.2379 0.3672 -0.3516 z M 16.5781 12.0365 19.9583 15.3854 C 19.8389 14.5359 19.4638 13.7971 18.8333 13.1667 c -0.639 -0.639 -1.3912 -1.0162 -2.2552 -1.1302 z m -3.0078 0.7734 c -0.1391 0.1082 -0.2738 0.2269 -0.4036 0.3568 -0.7778 0.7778 -1.1667 1.7222 -1.1667 2.8333 0 1.1111 0.3889 2.0556 1.1667 2.8333 0.7778 0.7778 1.7222 1.1667 2.8333 1.1667 1.1111 0 2.0556 -0.3889 2.8333 -1.1667 0.1386 -0.1386 0.2637 -0.2831 0.3776 -0.4323 z"
     sodipodi:nodetypes="ssccsssccsssssscsssssssssccsssssccccsccssssscc" />
  <path
     style="opacity:1;fill:none;stroke:#000000;stroke-width:2.6667;stroke-dasharray:none;stroke-opacity:1"
     d="M 3.395 4.5508 27.9549 28.8939"
     id="path2" />
</svg>
