<?xml version="1.0" encoding="UTF-8" standalone="no"?>
<svg
   height="24px"
   viewBox="0 0 16 16"
   width="24px"
   fill="#000000"
   version="1.1"
   id="svg1"
   xmlns="http://www.w3.org/2000/svg"
   xmlns:svg="http://www.w3.org/2000/svg">
  <defs
     id="defs1" />
  <path
     d="M 6 14.6667 q -0.8334 0 -1.4166 -0.5834 t -0.5834 -1.4166 q 0 -0.8334 0.5834 -1.4166 t 1.4166 -0.5834 q 0.8334 0 1.4166 0.5834 t 0.5834 1.4166 q 0 0.8334 -0.5834 1.4166 t -1.4166 0.5834 Z m 2.9834 -2.3167 q -0.1 -0.9166 -0.6834 -1.6166 t -1.45 -0.95 l 1.7667 -1.7833 H 3.9333 q -0.5333 0 -0.9 -0.3666 t -0.3666 -0.9 q 0 -0.3333 0.175 -0.625 T 3.3 5.6334 l 8.1 -4.85 q 0.3 -0.1834 0.6333 -0.0916 t 0.5167 0.3916 q 0.1834 0.3 0.0916 0.625 T 12.2667 2.2167 L 6 6 h 6.0667 q 0.5333 0 0.9 0.3666 t 0.3666 0.9 q 0 0.3 -0.075 0.5917 T 12.9666 8.3666 L 8.9833 12.35 Z"
     id="path1" />
</svg>
