<?xml version="1.0" encoding="UTF-8" standalone="no"?>
<svg
   height="24px"
   viewBox="0 0 32 32"
   width="24px"
   fill="#000000"
   version="1.1"
   id="svg1"
   xmlns="http://www.w3.org/2000/svg"
   xmlns:svg="http://www.w3.org/2000/svg">
  <defs
     id="defs1" />
  <path
     d="M 12 29.3333 q -1.6667 0 -2.8333 -1.1667 t -1.1667 -2.8333 q 0 -1.6667 1.1667 -2.8333 t 2.8333 -1.1667 q 1.6667 0 2.8333 1.1667 t 1.1667 2.8333 q 0 1.6667 -1.1667 2.8333 t -2.8333 1.1667 Z m 5.9667 -4.6333 q -0.2 -1.8333 -1.3667 -3.2333 t -2.9 -1.9 l 3.5333 -3.5667 H 7.8667 q -1.0667 0 -1.8 -0.7333 t -0.7333 -1.8 q 0 -0.6667 0.35 -1.25 T 6.6 11.2667 l 16.2 -9.7 q 0.6 -0.3667 1.2667 -0.1833 t 1.0333 0.7833 q 0.3667 0.6 0.1833 1.25 T 24.5333 4.4333 L 12 12 h 12.1333 q 1.0667 0 1.8 0.7333 t 0.7333 1.8 q 0 0.6 -0.15 1.1833 T 25.9333 16.7333 L 17.9667 24.7 Z"
     id="path1" />
</svg>
