<?xml version="1.0" encoding="UTF-8" standalone="no"?>
<svg
   height="24px"
   viewBox="0 0 24 24"
   width="24px"
   fill="#000000"
   version="1.1"
   id="svg1"
   xmlns="http://www.w3.org/2000/svg"
   xmlns:svg="http://www.w3.org/2000/svg">
  <defs
     id="defs1" />
  <path
     d="M 9 22.0001 q -1.2501 0 -2.1249 -0.8751 t -0.8751 -2.1249 q 0 -1.2501 0.8751 -2.1249 t 2.1249 -0.8751 q 1.2501 0 2.1249 0.8751 t 0.8751 2.1249 q 0 1.2501 -0.8751 2.1249 t -2.1249 0.8751 Z m 4.4751 -3.475 q -0.15 -1.3749 -1.0251 -2.4249 t -2.175 -1.425 l 2.65 -2.6749 H 5.9 q -0.7999 0 -1.35 -0.5499 t -0.5499 -1.35 q 0 -0.5 0.2625 -0.9375 T 4.95 8.4501 l 12.15 -7.275 q 0.45 -0.2751 0.9499 -0.1374 t 0.7751 0.5874 q 0.2751 0.45 0.1374 0.9375 T 18.4001 3.3251 L 9 9 h 9.1 q 0.7999 0 1.35 0.5499 t 0.5499 1.35 q 0 0.45 -0.1125 0.8876 T 19.4499 12.5499 L 13.4749 18.525 Z"
     id="path1" />
</svg>
