<?xml version="1.0" encoding="UTF-8" standalone="no"?>
<svg
   height="24px"
   viewBox="0 0 24 24"
   width="24px"
   fill="#000000"
   version="1.1"
   id="svg1"
   sodipodi:docname="laser-off-symbolic.svg"
   inkscape:version="1.4.2 (ebf0e940d0, 2025-05-08)"
   xmlns:inkscape="http://www.inkscape.org/namespaces/inkscape"
   xmlns:sodipodi="http://sodipodi.sourceforge.net/DTD/sodipodi-0.dtd"
   xmlns="http://www.w3.org/2000/svg"
   xmlns:svg="http://www.w3.org/2000/svg">
  <defs
     id="defs1" />
  <sodipodi:namedview
     id="namedview1"
     pagecolor="#ffffff"
     bordercolor="#000000"
     borderopacity="0.25"
     inkscape:showpageshadow="2"
     inkscape:pageopacity="0.0"
     inkscape:pagecheckerboard="0"
     inkscape:deskcolor="#d1d1d1"
     inkscape:zoom="36.916667"
     inkscape:cx="12"
     inkscape:cy="12"
     inkscape:window-width="3840"
     inkscape:window-height="2020"
     inkscape:window-x="0"
     inkscape:window-y="32"
     inkscape:window-maximized="1"
     inkscape:current-layer="svg1" />
  <path
     id="path1"
     d="m 12 2.0001 c -1.3833 0 -2.6838 0.2621 -3.9003 0.7872 -0.4531 0.1955 -0.8838 0.4165 -1.293 0.6641 l 1.4472 1.4355 C 9.3726 4.2954 10.6206 4 12 4 c 2.2333 0 4.1258 0.7742 5.6759 2.3243 1.55 1.55 2.3243 3.4425 2.3243 5.6759 0 1.3525 -0.285 2.5797 -0.8535 3.6818 l 1.4472 1.4335 c 0.2289 -0.3861 0.4359 -0.7902 0.6192 -1.2148 C 21.7378 14.6837 22.0001 13.3833 22.0001 12 c 0 -1.3833 -0.2621 -2.6838 -0.7872 -3.9003 -0.525 -1.2167 -1.2387 -2.2738 -2.1387 -3.1738 -0.9 -0.9 -1.9572 -1.6137 -3.1738 -2.1387 C 14.6837 2.262 13.3833 2.0001 12 2.0001 Z m -6.8065 2.666 c -0.0909 0.0843 -0.1797 0.1719 -0.2676 0.2598 -0.9 0.9 -1.6137 1.9572 -2.1387 3.1738 C 2.262 9.3162 2.0001 10.6167 2.0001 12 c 0 1.3833 0.2621 2.6838 0.7872 3.9003 0.525 1.2167 1.2387 2.2738 2.1387 3.1738 0.9 0.9 1.9572 1.6137 3.1738 2.1387 C 9.3162 21.7378 10.6167 22.0001 12 22.0001 c 1.3833 0 2.6838 -0.2621 3.9003 -0.7872 1.2167 -0.525 2.2738 -1.2387 3.1738 -2.1387 0.1089 -0.1089 0.2151 -0.2185 0.3183 -0.3319 l -1.4062 -1.3945 c -0.1002 0.111 -0.203 0.2205 -0.3106 0.3282 -1.55 1.55 -3.4425 2.3243 -5.6759 2.3243 -2.2333 0 -4.1258 -0.7742 -5.6759 -2.3243 C 4.7742 16.1258 4 14.2333 4 12 c 0 -2.2333 0.7742 -4.1258 2.3243 -5.6759 0.0906 -0.0906 0.1825 -0.1785 0.2754 -0.2637 z M 12.4335 9.0274 14.9688 11.539 C 14.8791 10.9018 14.5978 10.3479 14.1251 9.8751 c -0.4793 -0.4793 -1.0434 -0.7621 -1.6914 -0.8477 z m -2.2559 0.58 c -0.1044 0.0811 -0.2053 0.1701 -0.3027 0.2676 -0.5834 0.5834 -0.8751 1.2916 -0.8751 2.1249 0 0.8333 0.2918 1.5417 0.8751 2.1249 0.5834 0.5834 1.2916 0.8751 2.1249 0.8751 0.8333 0 1.5417 -0.2918 2.1249 -0.8751 0.104 -0.104 0.1977 -0.2124 0.2832 -0.3243 z"
     sodipodi:nodetypes="ssccsssccsssssscsssssssssccsssssccccsccssssscc" />
  <path
     style="opacity:1;fill:none;stroke:#000000;stroke-width:2.0001;stroke-dasharray:none;stroke-opacity:1"
     d="M 2.5463 3.4131 20.9661 21.6703"
     id="path2" />
</svg>
