<?xml version="1.0" encoding="UTF-8" standalone="no"?>
<svg
   height="24px"
   viewBox="0 0 24 24"
   width="24px"
   fill="#000000"
   version="1.1"
   id="svg1"
   sodipodi:docname="license-symbolic.svg"
   inkscape:version="1.4.3 (0d15f75042, 2025-12-25)"
   xmlns:inkscape="http://www.inkscape.org/namespaces/inkscape"
   xmlns:sodipodi="http://sodipodi.sourceforge.net/DTD/sodipodi-0.dtd"
   xmlns="http://www.w3.org/2000/svg"
   xmlns:svg="http://www.w3.org/2000/svg">
  <defs
     id="defs1" />
  <sodipodi:namedview
     id="namedview1"
     pagecolor="#ffffff"
     bordercolor="#000000"
     borderopacity="0.25"
     inkscape:showpageshadow="2"
     inkscape:pageopacity="0.0"
     inkscape:pagecheckerboard="0"
     inkscape:deskcolor="#d1d1d1"
     inkscape:zoom="36.916667"
     inkscape:cx="12"
     inkscape:cy="12"
     inkscape:window-width="3840"
     inkscape:window-height="2020"
     inkscape:window-x="0"
     inkscape:window-y="32"
     inkscape:window-maximized="1"
     inkscape:current-layer="svg1" />
  <path
     d="M 9.8751 12.1249 q -0.8751 -0.8751 -0.8751 -2.1249 t 0.8751 -2.1249 q 0.8751 -0.8751 2.1249 -0.8751 t 2.1249 0.8751 q 0.8751 0.8751 0.8751 2.1249 t -0.8751 2.1249 q -0.8751 0.8751 -2.1249 0.8751 t -2.1249 -0.8751 Z M 6 22.9999 v -7.725 q -0.9499 -1.05 -1.4749 -2.4 t -0.525 -2.8749 q 0 -3.3501 2.325 -5.6749 t 5.6749 -2.325 q 3.3501 0 5.6749 2.325 t 2.325 5.6749 q 0 1.525 -0.525 2.8749 t -1.4749 2.4 v 7.725 l -6 -2.0001 -6 2.0001 Z m 10.2501 -8.7501 q 1.7499 -1.7499 1.7499 -4.25 t -1.7499 -4.25 q -1.7499 -1.7499 -4.25 -1.7499 t -4.25 1.7499 q -1.7499 1.7499 -1.7499 4.25 t 1.7499 4.25 q 1.7499 1.7499 4.25 1.7499 t 4.25 -1.7499 Z M 8.0001 20.025 l 4 -1.0251 4 1.0251 v -3.1 q -0.8751 0.5 -1.8876 0.7875 T 12 18 q -1.0999 0 -2.1124 -0.2874 T 8.0001 16.9251 v 3.1 Z m 4 -1.55 Z"
     id="path1" />
</svg>
