<?xml version="1.0" encoding="UTF-8" standalone="no"?>
<svg
   height="24px"
   viewBox="0 0 32 32"
   width="24px"
   fill="#000000"
   version="1.1"
   id="svg1"
   sodipodi:docname="license-symbolic.svg"
   inkscape:version="1.4.3 (0d15f75042, 2025-12-25)"
   xmlns:inkscape="http://www.inkscape.org/namespaces/inkscape"
   xmlns:sodipodi="http://sodipodi.sourceforge.net/DTD/sodipodi-0.dtd"
   xmlns="http://www.w3.org/2000/svg"
   xmlns:svg="http://www.w3.org/2000/svg">
  <defs
     id="defs1" />
  <sodipodi:namedview
     id="namedview1"
     pagecolor="#ffffff"
     bordercolor="#000000"
     borderopacity="0.25"
     inkscape:showpageshadow="2"
     inkscape:pageopacity="0.0"
     inkscape:pagecheckerboard="0"
     inkscape:deskcolor="#d1d1d1"
     inkscape:zoom="36.916667"
     inkscape:cx="12"
     inkscape:cy="12"
     inkscape:window-width="3840"
     inkscape:window-height="2020"
     inkscape:window-x="0"
     inkscape:window-y="32"
     inkscape:window-maximized="1"
     inkscape:current-layer="svg1" />
  <path
     d="M 13.1667 16.1667 q -1.1667 -1.1667 -1.1667 -2.8333 t 1.1667 -2.8333 q 1.1667 -1.1667 2.8333 -1.1667 t 2.8333 1.1667 q 1.1667 1.1667 1.1667 2.8333 t -1.1667 2.8333 q -1.1667 1.1667 -2.8333 1.1667 t -2.8333 -1.1667 Z M 8 30.6667 v -10.3 q -1.2667 -1.4 -1.9667 -3.2 t -0.7 -3.8333 q 0 -4.4667 3.1 -7.5667 t 7.5667 -3.1 q 4.4667 0 7.5667 3.1 t 3.1 7.5667 q 0 2.0333 -0.7 3.8333 t -1.9667 3.2 v 10.3 l -8 -2.6667 -8 2.6667 Z m 13.6667 -11.6667 q 2.3333 -2.3333 2.3333 -5.6667 t -2.3333 -5.6667 q -2.3333 -2.3333 -5.6667 -2.3333 t -5.6667 2.3333 q -2.3333 2.3333 -2.3333 5.6667 t 2.3333 5.6667 q 2.3333 2.3333 5.6667 2.3333 t 5.6667 -2.3333 Z M 10.6667 26.7 l 5.3333 -1.3667 5.3333 1.3667 v -4.1333 q -1.1667 0.6667 -2.5167 1.05 T 16 24 q -1.4667 0 -2.8167 -0.3833 T 10.6667 22.5667 v 4.1333 Z m 5.3333 -2.0667 Z"
     id="path1" />
</svg>
