<?xml version="1.0" encoding="UTF-8" standalone="no"?>
<svg
   height="24px"
   viewBox="0 0 16 16"
   width="24px"
   fill="#000000"
   version="1.1"
   id="svg1"
   sodipodi:docname="license-symbolic.svg"
   inkscape:version="1.4.3 (0d15f75042, 2025-12-25)"
   xmlns:inkscape="http://www.inkscape.org/namespaces/inkscape"
   xmlns:sodipodi="http://sodipodi.sourceforge.net/DTD/sodipodi-0.dtd"
   xmlns="http://www.w3.org/2000/svg"
   xmlns:svg="http://www.w3.org/2000/svg">
  <defs
     id="defs1" />
  <sodipodi:namedview
     id="namedview1"
     pagecolor="#ffffff"
     bordercolor="#000000"
     borderopacity="0.25"
     inkscape:showpageshadow="2"
     inkscape:pageopacity="0.0"
     inkscape:pagecheckerboard="0"
     inkscape:deskcolor="#d1d1d1"
     inkscape:zoom="36.916667"
     inkscape:cx="12"
     inkscape:cy="12"
     inkscape:window-width="3840"
     inkscape:window-height="2020"
     inkscape:window-x="0"
     inkscape:window-y="32"
     inkscape:window-maximized="1"
     inkscape:current-layer="svg1" />
  <path
     d="M 6.5834 8.0833 q -0.5834 -0.5834 -0.5834 -1.4166 t 0.5834 -1.4166 q 0.5834 -0.5834 1.4166 -0.5834 t 1.4166 0.5834 q 0.5834 0.5834 0.5834 1.4166 t -0.5834 1.4166 q -0.5834 0.5834 -1.4166 0.5834 t -1.4166 -0.5834 Z M 4 15.3333 v -5.15 q -0.6333 -0.7 -0.9833 -1.6 t -0.35 -1.9166 q 0 -2.2334 1.55 -3.7833 t 3.7833 -1.55 q 2.2334 0 3.7833 1.55 t 1.55 3.7833 q 0 1.0167 -0.35 1.9166 t -0.9833 1.6 v 5.15 l -4 -1.3334 -4 1.3334 Z m 6.8334 -5.8334 q 1.1666 -1.1666 1.1666 -2.8333 t -1.1666 -2.8333 q -1.1666 -1.1666 -2.8333 -1.1666 t -2.8333 1.1666 q -1.1666 1.1666 -1.1666 2.8333 t 1.1666 2.8333 q 1.1666 1.1666 2.8333 1.1666 t 2.8333 -1.1666 Z M 5.3334 13.35 l 2.6667 -0.6834 2.6667 0.6834 v -2.0667 q -0.5834 0.3333 -1.2584 0.525 T 8 12 q -0.7333 0 -1.4083 -0.1916 T 5.3334 11.2834 v 2.0667 Z m 2.6667 -1.0333 Z"
     id="path1" />
</svg>
