<?xml version="1.0" encoding="UTF-8" standalone="no"?>
<svg
   height="24px"
   viewBox="0 0 32 32"
   width="24px"
   fill="#000000"
   version="1.1"
   id="svg1"
   sodipodi:docname="lock-symbolic.svg"
   inkscape:version="1.4.2 (ebf0e940d0, 2025-05-08)"
   xmlns:inkscape="http://www.inkscape.org/namespaces/inkscape"
   xmlns:sodipodi="http://sodipodi.sourceforge.net/DTD/sodipodi-0.dtd"
   xmlns="http://www.w3.org/2000/svg"
   xmlns:svg="http://www.w3.org/2000/svg">
  <defs
     id="defs1" />
  <sodipodi:namedview
     id="namedview1"
     pagecolor="#ffffff"
     bordercolor="#000000"
     borderopacity="0.25"
     inkscape:showpageshadow="2"
     inkscape:pageopacity="0.0"
     inkscape:pagecheckerboard="0"
     inkscape:deskcolor="#d1d1d1"
     inkscape:zoom="36.916667"
     inkscape:cx="12"
     inkscape:cy="12"
     inkscape:window-width="3840"
     inkscape:window-height="2020"
     inkscape:window-x="0"
     inkscape:window-y="32"
     inkscape:window-maximized="1"
     inkscape:current-layer="svg1" />
  <path
     d="M 8 29.3333 q -1.1 0 -1.8833 -0.7833 T 5.3333 26.6667 v -13.3333 q 0 -1.1 0.7833 -1.8833 T 8 10.6667 h 1.3333 v -2.6667 q 0 -2.7667 1.95 -4.7167 T 16 1.3333 q 2.7667 0 4.7167 1.95 T 22.6667 8 v 2.6667 h 1.3333 q 1.1 0 1.8833 0.7833 T 26.6667 13.3333 v 13.3333 q 0 1.1 -0.7833 1.8833 T 24 29.3333 H 8 Z m 0 -2.6667 h 16 v -13.3333 H 8 v 13.3333 Z m 8 -4 q 1.1 0 1.8833 -0.7833 T 18.6667 20 q 0 -1.1 -0.7833 -1.8833 T 16 17.3333 q -1.1 0 -1.8833 0.7833 T 13.3333 20 q 0 1.1 0.7833 1.8833 T 16 22.6667 Z M 12 10.6667 h 8 v -2.6667 q 0 -1.6667 -1.1667 -2.8333 t -2.8333 -1.1667 q -1.6667 0 -2.8333 1.1667 t -1.1667 2.8333 v 2.6667 Z M 8 26.6667 v -13.3333 13.3333 Z"
     id="path1" />
</svg>
