<?xml version="1.0" encoding="UTF-8" standalone="no"?>
<svg
   height="24px"
   viewBox="0 0 32 32"
   width="24px"
   fill="#000000"
   version="1.1"
   id="svg1"
   xmlns="http://www.w3.org/2000/svg"
   xmlns:svg="http://www.w3.org/2000/svg">
  <defs
     id="defs1" />
  <path
     d="M 26.3333 30.1 16.2667 20.0333 q -1.0667 1.8 -2.9 2.8833 T 9.3333 24 q -3.3333 0 -5.6667 -2.3333 T 1.3333 16 q 0 -2.2 1.0833 -4.0333 t 2.8833 -2.9 L 1.9 5.6667 l 1.9 -1.8667 24.4 24.4333 -1.8667 1.8667 Z m 1.6667 -18.1 4 4 -6.1 6.1 -4.2333 -4.2 1.6667 -1.2333 2.4 1.8 2.5 -2.4667 -1.3333 -1.3333 H 18.4333 l -2.6667 -2.6667 h 12.2333 Z M 9.3333 21.3333 q 1.7 0 3.0167 -0.9167 T 14.2667 18.0333 l -1.8667 -1.8667 -1.6167 -1.6167 L 9.1667 12.9333 l -1.8667 -1.8667 q -1.4667 0.6 -2.3833 1.9167 T 4 16 q 0 2.2 1.5667 3.7667 t 3.7667 1.5667 Z m 0 -2.6667 q -1.1 0 -1.8833 -0.7833 T 6.6667 16 q 0 -1.1 0.7833 -1.8833 T 9.3333 13.3333 q 1.1 0 1.8833 0.7833 T 12 16 q 0 1.1 -0.7833 1.8833 T 9.3333 18.6667 Z"
     id="path1" />
</svg>
