<?xml version="1.0" encoding="UTF-8" standalone="no"?>
<svg
   height="24px"
   viewBox="0 0 24 24"
   width="24px"
   fill="#000000"
   version="1.1"
   id="svg1"
   sodipodi:docname="lock-symbolic.svg"
   inkscape:version="1.4.2 (ebf0e940d0, 2025-05-08)"
   xmlns:inkscape="http://www.inkscape.org/namespaces/inkscape"
   xmlns:sodipodi="http://sodipodi.sourceforge.net/DTD/sodipodi-0.dtd"
   xmlns="http://www.w3.org/2000/svg"
   xmlns:svg="http://www.w3.org/2000/svg">
  <defs
     id="defs1" />
  <sodipodi:namedview
     id="namedview1"
     pagecolor="#ffffff"
     bordercolor="#000000"
     borderopacity="0.25"
     inkscape:showpageshadow="2"
     inkscape:pageopacity="0.0"
     inkscape:pagecheckerboard="0"
     inkscape:deskcolor="#d1d1d1"
     inkscape:zoom="36.916667"
     inkscape:cx="12"
     inkscape:cy="12"
     inkscape:window-width="3840"
     inkscape:window-height="2020"
     inkscape:window-x="0"
     inkscape:window-y="32"
     inkscape:window-maximized="1"
     inkscape:current-layer="svg1" />
  <path
     d="M 6 22.0001 q -0.825 0 -1.4124 -0.5874 T 4 19.9999 v -9.9999 q 0 -0.825 0.5874 -1.4124 T 6 8.0001 h 0.9999 v -2.0001 q 0 -2.0751 1.4625 -3.5376 T 12 0.9999 q 2.0751 0 3.5376 1.4625 T 16.9999 6 v 2.0001 h 0.9999 q 0.825 0 1.4124 0.5874 T 19.9999 9.9999 v 9.9999 q 0 0.825 -0.5874 1.4124 T 18 22.0001 H 6 Z m 0 -2.0001 h 12 v -9.9999 H 6 v 9.9999 Z m 6 -3 q 0.825 0 1.4124 -0.5874 T 13.9999 15 q 0 -0.825 -0.5874 -1.4124 T 12 13.0001 q -0.825 0 -1.4124 0.5874 T 9.9999 15 q 0 0.825 0.5874 1.4124 T 12 16.9999 Z M 9 8.0001 h 6 v -2.0001 q 0 -1.2501 -0.8751 -2.1249 t -2.1249 -0.8751 q -1.2501 0 -2.1249 0.8751 t -0.8751 2.1249 v 2.0001 Z M 6 19.9999 v -9.9999 9.9999 Z"
     id="path1" />
</svg>
