<?xml version="1.0" encoding="UTF-8" standalone="no"?>
<svg
   height="24px"
   viewBox="0 0 24 24"
   width="24px"
   fill="#000000"
   version="1.1"
   id="svg1"
   xmlns="http://www.w3.org/2000/svg"
   xmlns:svg="http://www.w3.org/2000/svg">
  <defs
     id="defs1" />
  <path
     d="M 19.7501 22.575 12.2001 15.0251 q -0.7999 1.35 -2.175 2.1625 T 6.9999 18 q -2.4999 0 -4.25 -1.7499 T 0.9999 12 q 0 -1.65 0.8124 -3.0249 t 2.1625 -2.175 L 1.425 4.25 l 1.425 -1.4001 18.3 18.3249 -1.4001 1.4001 Z m 1.2501 -13.575 3 3 -4.575 4.575 -3.1749 -3.15 1.2501 -0.9251 1.8 1.35 1.875 -1.85 -0.9999 -0.9999 H 13.8249 l -2.0001 -2.0001 h 9.1749 Z M 6.9999 16.0001 q 1.275 0 2.2626 -0.6875 T 10.7001 13.5251 l -1.4001 -1.4001 -1.2126 -1.2126 L 6.8751 9.6999 l -1.4001 -1.4001 q -1.0999 0.45 -1.7875 1.4376 T 3 12 q 0 1.65 1.1749 2.8251 t 2.8251 1.1749 Z m 0 -2.0001 q -0.825 0 -1.4124 -0.5874 T 5 12 q 0 -0.825 0.5874 -1.4124 T 6.9999 9.9999 q 0.825 0 1.4124 0.5874 T 9 12 q 0 0.825 -0.5874 1.4124 T 6.9999 13.9999 Z"
     id="path1" />
</svg>
