<?xml version="1.0" encoding="UTF-8" standalone="no"?>
<svg
   height="24px"
   viewBox="0 0 16 16"
   width="24px"
   fill="#000000"
   version="1.1"
   id="svg1"
   sodipodi:docname="lock-symbolic.svg"
   inkscape:version="1.4.2 (ebf0e940d0, 2025-05-08)"
   xmlns:inkscape="http://www.inkscape.org/namespaces/inkscape"
   xmlns:sodipodi="http://sodipodi.sourceforge.net/DTD/sodipodi-0.dtd"
   xmlns="http://www.w3.org/2000/svg"
   xmlns:svg="http://www.w3.org/2000/svg">
  <defs
     id="defs1" />
  <sodipodi:namedview
     id="namedview1"
     pagecolor="#ffffff"
     bordercolor="#000000"
     borderopacity="0.25"
     inkscape:showpageshadow="2"
     inkscape:pageopacity="0.0"
     inkscape:pagecheckerboard="0"
     inkscape:deskcolor="#d1d1d1"
     inkscape:zoom="36.916667"
     inkscape:cx="12"
     inkscape:cy="12"
     inkscape:window-width="3840"
     inkscape:window-height="2020"
     inkscape:window-x="0"
     inkscape:window-y="32"
     inkscape:window-maximized="1"
     inkscape:current-layer="svg1" />
  <path
     d="M 4 14.6667 q -0.55 0 -0.9416 -0.3916 T 2.6667 13.3333 v -6.6666 q 0 -0.55 0.3916 -0.9416 T 4 5.3334 h 0.6666 v -1.3334 q 0 -1.3834 0.975 -2.3584 T 8 0.6666 q 1.3834 0 2.3584 0.975 T 11.3333 4 v 1.3334 h 0.6666 q 0.55 0 0.9416 0.3916 T 13.3333 6.6666 v 6.6666 q 0 0.55 -0.3916 0.9416 T 12 14.6667 H 4 Z m 0 -1.3334 h 8 v -6.6666 H 4 v 6.6666 Z m 4 -2 q 0.55 0 0.9416 -0.3916 T 9.3333 10 q 0 -0.55 -0.3916 -0.9416 T 8 8.6667 q -0.55 0 -0.9416 0.3916 T 6.6666 10 q 0 0.55 0.3916 0.9416 T 8 11.3333 Z M 6 5.3334 h 4 v -1.3334 q 0 -0.8334 -0.5834 -1.4166 t -1.4166 -0.5834 q -0.8334 0 -1.4166 0.5834 t -0.5834 1.4166 v 1.3334 Z M 4 13.3333 v -6.6666 6.6666 Z"
     id="path1" />
</svg>
