<?xml version="1.0" encoding="UTF-8" standalone="no"?>
<svg
   height="24px"
   viewBox="0 0 16 16"
   width="24px"
   fill="#000000"
   version="1.1"
   id="svg1"
   xmlns="http://www.w3.org/2000/svg"
   xmlns:svg="http://www.w3.org/2000/svg">
  <defs
     id="defs1" />
  <path
     d="M 13.1667 15.05 8.1334 10.0167 q -0.5333 0.9 -1.45 1.4417 T 4.6666 12 q -1.6666 0 -2.8333 -1.1666 T 0.6666 8 q 0 -1.1 0.5416 -2.0166 t 1.4417 -1.45 L 0.95 2.8333 l 0.95 -0.9334 12.2 12.2166 -0.9334 0.9334 Z m 0.8334 -9.05 2 2 -3.05 3.05 -2.1166 -2.1 0.8334 -0.6167 1.2 0.9 1.25 -1.2333 -0.6666 -0.6666 H 9.2166 l -1.3334 -1.3334 h 6.1166 Z M 4.6666 10.6667 q 0.85 0 1.5084 -0.4583 T 7.1334 9.0167 l -0.9334 -0.9334 -0.8084 -0.8084 L 4.5834 6.4666 l -0.9334 -0.9334 q -0.7333 0.3 -1.1917 0.9584 T 2 8 q 0 1.1 0.7833 1.8834 t 1.8834 0.7833 Z m 0 -1.3334 q -0.55 0 -0.9416 -0.3916 T 3.3333 8 q 0 -0.55 0.3916 -0.9416 T 4.6666 6.6666 q 0.55 0 0.9416 0.3916 T 6 8 q 0 0.55 -0.3916 0.9416 T 4.6666 9.3333 Z"
     id="path1" />
</svg>
