<?xml version="1.0" encoding="UTF-8" standalone="no"?>
<svg
   height="24px"
   viewBox="0 0 16 16"
   width="24px"
   fill="#000000"
   version="1.1"
   id="svg1"
   sodipodi:docname="machine-settings-advanced-symbolic.svg"
   inkscape:version="1.4.2 (ebf0e940d0, 2025-05-08)"
   xmlns:inkscape="http://www.inkscape.org/namespaces/inkscape"
   xmlns:sodipodi="http://sodipodi.sourceforge.net/DTD/sodipodi-0.dtd"
   xmlns="http://www.w3.org/2000/svg"
   xmlns:svg="http://www.w3.org/2000/svg">
  <defs
     id="defs1" />
  <sodipodi:namedview
     id="namedview1"
     pagecolor="#ffffff"
     bordercolor="#000000"
     borderopacity="0.25"
     inkscape:showpageshadow="2"
     inkscape:pageopacity="0.0"
     inkscape:pagecheckerboard="0"
     inkscape:deskcolor="#d1d1d1"
     inkscape:zoom="36.916667"
     inkscape:cx="12"
     inkscape:cy="12"
     inkscape:window-width="3840"
     inkscape:window-height="2020"
     inkscape:window-x="0"
     inkscape:window-y="32"
     inkscape:window-maximized="1"
     inkscape:current-layer="svg1" />
  <path
     d="M 12.6 14 8.95 10.35 l 1.4 -1.4 3.65 3.65 -1.4 1.4 Z m -9.2 0 -1.4 -1.4 4.6 -4.6 -1.1334 -1.1334 -0.4667 0.4667 -0.85 -0.85 v 1.3666 l -0.4667 0.4667 -2.0166 -2.0166 0.4667 -0.4667 h 1.3666 l -0.8334 -0.8334 2.3666 -2.3666 q 0.3333 -0.3333 0.7167 -0.4834 t 0.7833 -0.15 q 0.4 0 0.7833 0.15 t 0.7167 0.4834 l -1.5333 1.5333 0.8334 0.8334 -0.4667 0.4667 1.1334 1.1334 1.5 -1.5 q -0.0667 -0.1834 -0.1084 -0.3834 t -0.0416 -0.4 q 0 -0.9833 0.675 -1.6583 T 11.6834 1.9833 q 0.25 0 0.475 0.05 t 0.4583 0.15 l -1.65 1.65 1.2 1.2 1.65 -1.65 q 0.1167 0.2334 0.1583 0.4583 T 14.0167 4.3167 q 0 0.9833 -0.675 1.6583 T 11.6834 6.65 q -0.2 0 -0.4 -0.0333 t -0.3834 -0.1167 L 3.4 14 Z"
     id="path1" />
</svg>
