<?xml version="1.0" encoding="UTF-8" standalone="no"?>
<svg
   height="24px"
   viewBox="0 0 32 32"
   width="24px"
   fill="#000000"
   version="1.1"
   id="svg1"
   sodipodi:docname="machine-settings-advanced-symbolic.svg"
   inkscape:version="1.4.2 (ebf0e940d0, 2025-05-08)"
   xmlns:inkscape="http://www.inkscape.org/namespaces/inkscape"
   xmlns:sodipodi="http://sodipodi.sourceforge.net/DTD/sodipodi-0.dtd"
   xmlns="http://www.w3.org/2000/svg"
   xmlns:svg="http://www.w3.org/2000/svg">
  <defs
     id="defs1" />
  <sodipodi:namedview
     id="namedview1"
     pagecolor="#ffffff"
     bordercolor="#000000"
     borderopacity="0.25"
     inkscape:showpageshadow="2"
     inkscape:pageopacity="0.0"
     inkscape:pagecheckerboard="0"
     inkscape:deskcolor="#d1d1d1"
     inkscape:zoom="36.916667"
     inkscape:cx="12"
     inkscape:cy="12"
     inkscape:window-width="3840"
     inkscape:window-height="2020"
     inkscape:window-x="0"
     inkscape:window-y="32"
     inkscape:window-maximized="1"
     inkscape:current-layer="svg1" />
  <path
     d="M 25.2 28 17.9 20.7 l 2.8 -2.8 7.3 7.3 -2.8 2.8 Z m -18.4 0 -2.8 -2.8 9.2 -9.2 -2.2667 -2.2667 -0.9333 0.9333 -1.7 -1.7 v 2.7333 l -0.9333 0.9333 -4.0333 -4.0333 0.9333 -0.9333 h 2.7333 l -1.6667 -1.6667 4.7333 -4.7333 q 0.6667 -0.6667 1.4333 -0.9667 t 1.5667 -0.3 q 0.8 0 1.5667 0.3 t 1.4333 0.9667 l -3.0667 3.0667 1.6667 1.6667 -0.9333 0.9333 2.2667 2.2667 3 -3 q -0.1333 -0.3667 -0.2167 -0.7667 t -0.0833 -0.8 q 0 -1.9667 1.35 -3.3167 T 23.3667 3.9667 q 0.5 0 0.95 0.1 t 0.9167 0.3 l -3.3 3.3 2.4 2.4 3.3 -3.3 q 0.2333 0.4667 0.3167 0.9167 T 28.0333 8.6333 q 0 1.9667 -1.35 3.3167 T 23.3667 13.3 q -0.4 0 -0.8 -0.0667 t -0.7667 -0.2333 L 6.8 28 Z"
     id="path1" />
</svg>
