<?xml version="1.0" encoding="UTF-8" standalone="no"?>
<svg
   height="24px"
   viewBox="0 0 24 24"
   width="24px"
   fill="#000000"
   version="1.1"
   id="svg1"
   sodipodi:docname="machine-settings-advanced-symbolic.svg"
   inkscape:version="1.4.2 (ebf0e940d0, 2025-05-08)"
   xmlns:inkscape="http://www.inkscape.org/namespaces/inkscape"
   xmlns:sodipodi="http://sodipodi.sourceforge.net/DTD/sodipodi-0.dtd"
   xmlns="http://www.w3.org/2000/svg"
   xmlns:svg="http://www.w3.org/2000/svg">
  <defs
     id="defs1" />
  <sodipodi:namedview
     id="namedview1"
     pagecolor="#ffffff"
     bordercolor="#000000"
     borderopacity="0.25"
     inkscape:showpageshadow="2"
     inkscape:pageopacity="0.0"
     inkscape:pagecheckerboard="0"
     inkscape:deskcolor="#d1d1d1"
     inkscape:zoom="36.916667"
     inkscape:cx="12"
     inkscape:cy="12"
     inkscape:window-width="3840"
     inkscape:window-height="2020"
     inkscape:window-x="0"
     inkscape:window-y="32"
     inkscape:window-maximized="1"
     inkscape:current-layer="svg1" />
  <path
     d="M 18.9 21 13.425 15.525 l 2.1 -2.1 5.475 5.475 -2.1 2.1 Z m -13.8 0 -2.1 -2.1 6.9 -6.9 -1.7001 -1.7001 -0.7001 0.7001 -1.275 -1.275 v 2.0499 l -0.7001 0.7001 -3.0249 -3.0249 0.7001 -0.7001 h 2.0499 l -1.2501 -1.2501 3.5499 -3.5499 q 0.5 -0.5 1.0751 -0.7251 t 1.1749 -0.225 q 0.6 0 1.1749 0.225 t 1.0751 0.7251 l -2.2999 2.2999 1.2501 1.2501 -0.7001 0.7001 1.7001 1.7001 2.25 -2.25 q -0.1001 -0.2751 -0.1626 -0.5751 t -0.0624 -0.6 q 0 -1.4749 1.0125 -2.4874 T 17.5251 2.975 q 0.375 0 0.7125 0.075 t 0.6875 0.225 l -2.475 2.475 1.8 1.8 2.475 -2.475 q 0.175 0.3501 0.2374 0.6875 T 21.0251 6.475 q 0 1.4749 -1.0125 2.4874 T 17.5251 9.975 q -0.3 0 -0.6 -0.05 t -0.5751 -0.175 L 5.1 21 Z"
     id="path1" />
</svg>
