<?xml version="1.0" encoding="UTF-8" standalone="no"?>
<svg
   height="24px"
   viewBox="0 0 24 24"
   width="24px"
   fill="#000000"
   version="1.1"
   id="svg1"
   sodipodi:docname="material-symbolic.svg"
   inkscape:version="1.4.2 (ebf0e940d0, 2025-05-08)"
   xmlns:inkscape="http://www.inkscape.org/namespaces/inkscape"
   xmlns:sodipodi="http://sodipodi.sourceforge.net/DTD/sodipodi-0.dtd"
   xmlns="http://www.w3.org/2000/svg"
   xmlns:svg="http://www.w3.org/2000/svg">
  <defs
     id="defs1" />
  <sodipodi:namedview
     id="namedview1"
     pagecolor="#ffffff"
     bordercolor="#000000"
     borderopacity="0.25"
     inkscape:showpageshadow="2"
     inkscape:pageopacity="0.0"
     inkscape:pagecheckerboard="0"
     inkscape:deskcolor="#d1d1d1"
     inkscape:zoom="36.916667"
     inkscape:cx="12"
     inkscape:cy="12"
     inkscape:window-width="3840"
     inkscape:window-height="2020"
     inkscape:window-x="0"
     inkscape:window-y="32"
     inkscape:window-maximized="1"
     inkscape:current-layer="svg1" />
  <path
     d="M 4.4 21 q -0.4749 -0.1001 -0.8876 -0.5126 T 3 19.5999 l 16.5999 -16.5999 q 0.525 0.125 0.9 0.5126 t 0.525 0.8876 L 4.4 21 Z m -1.4001 -6.3 v -2.7999 l 8.9 -8.9 h 2.7999 L 3 14.7 Z m 0 -7.7001 v -2.0001 q 0 -0.825 0.5874 -1.4124 T 5 3 h 2.0001 L 3 6.9999 Z m 13.9999 13.9999 4 -4 v 2.0001 q 0 0.825 -0.5874 1.4124 T 19.0001 21 h -2.0001 Z m -7.7001 0 11.7 -11.7 v 2.7999 L 12.0999 21 H 9.3 Z"
     id="path1" />
</svg>
