<?xml version="1.0" encoding="UTF-8" standalone="no"?>
<svg
   height="24px"
   viewBox="0 0 32 32"
   width="24px"
   fill="#000000"
   version="1.1"
   id="svg1"
   sodipodi:docname="material-symbolic.svg"
   inkscape:version="1.4.2 (ebf0e940d0, 2025-05-08)"
   xmlns:inkscape="http://www.inkscape.org/namespaces/inkscape"
   xmlns:sodipodi="http://sodipodi.sourceforge.net/DTD/sodipodi-0.dtd"
   xmlns="http://www.w3.org/2000/svg"
   xmlns:svg="http://www.w3.org/2000/svg">
  <defs
     id="defs1" />
  <sodipodi:namedview
     id="namedview1"
     pagecolor="#ffffff"
     bordercolor="#000000"
     borderopacity="0.25"
     inkscape:showpageshadow="2"
     inkscape:pageopacity="0.0"
     inkscape:pagecheckerboard="0"
     inkscape:deskcolor="#d1d1d1"
     inkscape:zoom="36.916667"
     inkscape:cx="12"
     inkscape:cy="12"
     inkscape:window-width="3840"
     inkscape:window-height="2020"
     inkscape:window-x="0"
     inkscape:window-y="32"
     inkscape:window-maximized="1"
     inkscape:current-layer="svg1" />
  <path
     d="M 5.8667 28 q -0.6333 -0.1333 -1.1833 -0.6833 T 4 26.1333 l 22.1333 -22.1333 q 0.7 0.1667 1.2 0.6833 t 0.7 1.1833 L 5.8667 28 Z m -1.8667 -8.4 v -3.7333 l 11.8667 -11.8667 h 3.7333 L 4 19.6 Z m 0 -10.2667 v -2.6667 q 0 -1.1 0.7833 -1.8833 T 6.6667 4 h 2.6667 L 4 9.3333 Z m 18.6667 18.6667 5.3333 -5.3333 v 2.6667 q 0 1.1 -0.7833 1.8833 T 25.3333 28 h -2.6667 Z m -10.2667 0 15.6 -15.6 v 3.7333 L 16.1333 28 H 12.4 Z"
     id="path1" />
</svg>
