<?xml version="1.0" encoding="UTF-8" standalone="no"?>
<svg
   height="24px"
   viewBox="0 0 16 16"
   width="24px"
   fill="#000000"
   version="1.1"
   id="svg1"
   sodipodi:docname="material-symbolic.svg"
   inkscape:version="1.4.2 (ebf0e940d0, 2025-05-08)"
   xmlns:inkscape="http://www.inkscape.org/namespaces/inkscape"
   xmlns:sodipodi="http://sodipodi.sourceforge.net/DTD/sodipodi-0.dtd"
   xmlns="http://www.w3.org/2000/svg"
   xmlns:svg="http://www.w3.org/2000/svg">
  <defs
     id="defs1" />
  <sodipodi:namedview
     id="namedview1"
     pagecolor="#ffffff"
     bordercolor="#000000"
     borderopacity="0.25"
     inkscape:showpageshadow="2"
     inkscape:pageopacity="0.0"
     inkscape:pagecheckerboard="0"
     inkscape:deskcolor="#d1d1d1"
     inkscape:zoom="36.916667"
     inkscape:cx="12"
     inkscape:cy="12"
     inkscape:window-width="3840"
     inkscape:window-height="2020"
     inkscape:window-x="0"
     inkscape:window-y="32"
     inkscape:window-maximized="1"
     inkscape:current-layer="svg1" />
  <path
     d="M 2.9333 14 q -0.3166 -0.0667 -0.5917 -0.3417 T 2 13.0666 l 11.0666 -11.0666 q 0.35 0.0833 0.6 0.3417 t 0.35 0.5917 L 2.9333 14 Z m -0.9334 -4.2 v -1.8666 l 5.9333 -5.9333 h 1.8666 L 2 9.8 Z m 0 -5.1334 v -1.3334 q 0 -0.55 0.3916 -0.9416 T 3.3333 2 h 1.3334 L 2 4.6666 Z m 9.3333 9.3333 2.6667 -2.6667 v 1.3334 q 0 0.55 -0.3916 0.9416 T 12.6667 14 h -1.3334 Z m -5.1334 0 7.8 -7.8 v 1.8666 L 8.0666 14 H 6.2 Z"
     id="path1" />
</svg>
