<?xml version="1.0" encoding="UTF-8" standalone="no"?>
<svg
   height="24px"
   viewBox="0 0 24 24"
   width="24px"
   fill="#000000"
   version="1.1"
   id="svg1"
   sodipodi:docname="move-symbolic.svg"
   inkscape:version="1.4.4 (dcaf3e7d9e, 2026-05-05)"
   xmlns:inkscape="http://www.inkscape.org/namespaces/inkscape"
   xmlns:sodipodi="http://sodipodi.sourceforge.net/DTD/sodipodi-0.dtd"
   xmlns="http://www.w3.org/2000/svg"
   xmlns:svg="http://www.w3.org/2000/svg">
  <sodipodi:namedview
     id="namedview1"
     pagecolor="#ffffff"
     bordercolor="#000000"
     borderopacity="0.25"
     inkscape:showpageshadow="2"
     inkscape:pageopacity="0.0"
     inkscape:pagecheckerboard="0"
     inkscape:deskcolor="#d1d1d1"
     inkscape:zoom="36.916667"
     inkscape:cx="11.986456"
     inkscape:cy="12"
     inkscape:window-width="3840"
     inkscape:window-height="2020"
     inkscape:window-x="0"
     inkscape:window-y="32"
     inkscape:window-maximized="1"
     inkscape:current-layer="svg1" />
  <defs
     id="defs1" />
  <path
     d="M 12,22 7.75,17.75 9.175,16.325 11,18.15 V 14 h 2 v 4.125 l 1.8,-1.825 1.45,1.45 z M 6.25,16.25 2,12 6.225,7.775 7.65,9.2 5.85,11 H 10 v 2 H 5.875 L 7.7,14.8 Z m 11.5,0 L 16.325,14.825 18.15,13 H 14 v -2 h 4.125 L 16.3,9.2 17.75,7.75 22,12 Z M 11,10 V 5.85 L 9.175,7.675 7.75,6.25 12,2 16.25,6.25 14.825,7.675 13,5.85 V 10 Z"
     id="path1"
     style="stroke-width:0.025" />
</svg>
