<?xml version="1.0" encoding="UTF-8" standalone="no"?>
<svg
   height="24px"
   viewBox="0 0 16 16"
   width="24px"
   fill="#000000"
   version="1.1"
   id="svg1"
   xmlns="http://www.w3.org/2000/svg"
   xmlns:svg="http://www.w3.org/2000/svg">
  <defs
     id="defs1" />
  <path
     d="M 2.6667 13.3333 q -0.55 0 -0.9416 -0.3916 T 1.3334 12 v -8 q 0 -0.55 0.3916 -0.9416 T 2.6667 2.6667 h 4 l 1.3334 1.3334 h 5.3334 q 0.55 0 0.9416 0.3916 T 14.6667 5.3334 H 7.45 l -1.3334 -1.3334 H 2.6667 v 8 l 1.6 -5.3334 h 11.4 L 13.95 12.3834 q -0.1333 0.4334 -0.4916 0.6916 T 12.6667 13.3333 H 2.6667 Z m 1.4 -1.3334 h 8.6 l 1.2 -4 H 5.2667 l -1.2 4 Z m 0 0 1.2 -4 -1.2 4 Z m -1.4 -6.6666 v -1.3334 1.3334 Z"
     id="path1" />
</svg>
