<?xml version="1.0" encoding="UTF-8" standalone="no"?>
<svg
   height="24px"
   viewBox="0 0 24 24"
   width="24px"
   fill="#000000"
   version="1.1"
   id="svg1"
   xmlns="http://www.w3.org/2000/svg"
   xmlns:svg="http://www.w3.org/2000/svg">
  <defs
     id="defs1" />
  <path
     d="M 4 19.9999 q -0.825 0 -1.4124 -0.5874 T 2.0001 18 v -12 q 0 -0.825 0.5874 -1.4124 T 4 4 h 6 l 2.0001 2.0001 h 8.0001 q 0.825 0 1.4124 0.5874 T 22.0001 8.0001 H 11.175 l -2.0001 -2.0001 H 4 v 12 l 2.4 -8.0001 h 17.1 L 20.925 18.5751 q -0.2 0.6501 -0.7374 1.0374 T 19.0001 19.9999 H 4 Z m 2.1 -2.0001 h 12.9 l 1.8 -6 H 7.9001 l -1.8 6 Z m 0 0 1.8 -6 -1.8 6 Z m -2.1 -9.9999 v -2.0001 2.0001 Z"
     id="path1" />
</svg>
