<?xml version="1.0" encoding="UTF-8" standalone="no"?>
<svg
   height="24px"
   viewBox="0 0 32 32"
   width="24px"
   fill="#000000"
   version="1.1"
   id="svg1"
   xmlns="http://www.w3.org/2000/svg"
   xmlns:svg="http://www.w3.org/2000/svg">
  <defs
     id="defs1" />
  <path
     d="M 5.3333 26.6667 q -1.1 0 -1.8833 -0.7833 T 2.6667 24 v -16 q 0 -1.1 0.7833 -1.8833 T 5.3333 5.3333 h 8 l 2.6667 2.6667 h 10.6667 q 1.1 0 1.8833 0.7833 T 29.3333 10.6667 H 14.9 l -2.6667 -2.6667 H 5.3333 v 16 l 3.2 -10.6667 h 22.8 L 27.9 24.7667 q -0.2667 0.8667 -0.9833 1.3833 T 25.3333 26.6667 H 5.3333 Z m 2.8 -2.6667 h 17.2 l 2.4 -8 H 10.5333 l -2.4 8 Z m 0 0 2.4 -8 -2.4 8 Z m -2.8 -13.3333 v -2.6667 2.6667 Z"
     id="path1" />
</svg>
