<?xml version="1.0" encoding="UTF-8" standalone="no"?>
<!-- Created with Inkscape (http://www.inkscape.org/) -->

<svg
   version="1.1"
   id="svg1"
   width="600"
   height="600"
   viewBox="0 0 32 32"
   sodipodi:docname="icon.svg"
   inkscape:version="1.4.2 (ebf0e940d0, 2025-05-08)"
   inkscape:export-filename="icon.png"
   inkscape:export-xdpi="96.04583"
   inkscape:export-ydpi="96.04583"
   xmlns:inkscape="http://www.inkscape.org/namespaces/inkscape"
   xmlns:sodipodi="http://sodipodi.sourceforge.net/DTD/sodipodi-0.dtd"
   xmlns:xlink="http://www.w3.org/1999/xlink"
   xmlns="http://www.w3.org/2000/svg"
   xmlns:svg="http://www.w3.org/2000/svg">
  <sodipodi:namedview
     id="namedview1"
     pagecolor="#ffffff"
     bordercolor="#000000"
     borderopacity="0.25"
     inkscape:showpageshadow="2"
     inkscape:pageopacity="0.0"
     inkscape:pagecheckerboard="0"
     inkscape:deskcolor="#d1d1d1"
     inkscape:zoom="0.5"
     inkscape:cx="-665"
     inkscape:cy="58"
     inkscape:window-width="3840"
     inkscape:window-height="2020"
     inkscape:window-x="0"
     inkscape:window-y="32"
     inkscape:window-maximized="1"
     inkscape:current-layer="g1" />
  <defs
     id="defs1">
    <linearGradient
       id="linearGradient66"
       inkscape:collect="always">
      <stop
         style="stop-color:#b72916;stop-opacity:1"
         offset="0"
         id="stop66" />
      <stop
         style="stop-color:#cd5c18;stop-opacity:1"
         offset="0.5"
         id="stop68" />
      <stop
         style="stop-color:#d6a33f;stop-opacity:1"
         offset="1"
         id="stop67" />
    </linearGradient>
    <linearGradient
       id="linearGradient63"
       inkscape:collect="always">
      <stop
         style="stop-color:#c35f38;stop-opacity:1"
         offset="0"
         id="stop64" />
      <stop
         style="stop-color:#cba774;stop-opacity:1"
         offset="1"
         id="stop65" />
    </linearGradient>
    <linearGradient
       id="linearGradient60"
       inkscape:collect="always">
      <stop
         style="stop-color:#890e0e;stop-opacity:1"
         offset="0"
         id="stop61" />
      <stop
         style="stop-color:#b52318;stop-opacity:1"
         offset="0.5"
         id="stop63" />
      <stop
         style="stop-color:#d59e3e;stop-opacity:1"
         offset="1"
         id="stop62" />
    </linearGradient>
    <linearGradient
       id="linearGradient57"
       inkscape:collect="always">
      <stop
         style="stop-color:#1c0459;stop-opacity:1"
         offset="0"
         id="stop58" />
      <stop
         style="stop-color:#751474;stop-opacity:1"
         offset="0.59831429"
         id="stop60" />
      <stop
         style="stop-color:#b01d6d;stop-opacity:1"
         offset="1"
         id="stop59" />
    </linearGradient>
    <linearGradient
       id="linearGradient54"
       inkscape:collect="always">
      <stop
         style="stop-color:#10002c;stop-opacity:1"
         offset="0"
         id="stop55" />
      <stop
         style="stop-color:#4f0a53;stop-opacity:1"
         offset="0.5"
         id="stop57" />
      <stop
         style="stop-color:#931e5b;stop-opacity:1"
         offset="1"
         id="stop56" />
    </linearGradient>
    <linearGradient
       id="linearGradient52"
       inkscape:collect="always">
      <stop
         style="stop-color:#340c77;stop-opacity:1"
         offset="0"
         id="stop52" />
      <stop
         style="stop-color:#94196d;stop-opacity:1"
         offset="0.5"
         id="stop54" />
      <stop
         style="stop-color:#ca6427;stop-opacity:1"
         offset="1"
         id="stop53" />
    </linearGradient>
    <linearGradient
       id="linearGradient50"
       inkscape:collect="always">
      <stop
         style="stop-color:#600d5d;stop-opacity:1"
         offset="0"
         id="stop50" />
      <stop
         style="stop-color:#230249;stop-opacity:1"
         offset="1"
         id="stop51" />
    </linearGradient>
    <linearGradient
       id="linearGradient48"
       inkscape:collect="always">
      <stop
         style="stop-color:#150032;stop-opacity:1"
         offset="0"
         id="stop48" />
      <stop
         style="stop-color:#290439;stop-opacity:1"
         offset="1"
         id="stop49" />
    </linearGradient>
    <linearGradient
       id="linearGradient43"
       inkscape:collect="always">
      <stop
         style="stop-color:#b92f18;stop-opacity:1"
         offset="0"
         id="stop43" />
      <stop
         style="stop-color:#b6233e;stop-opacity:1"
         offset="0.27955696"
         id="stop45" />
      <stop
         style="stop-color:#990e77;stop-opacity:1"
         offset="1"
         id="stop44" />
    </linearGradient>
    <linearGradient
       id="linearGradient39"
       inkscape:collect="always">
      <stop
         style="stop-color:#ac175d;stop-opacity:1"
         offset="0"
         id="stop39" />
      <stop
         style="stop-color:#550854;stop-opacity:1"
         offset="1"
         id="stop40" />
    </linearGradient>
    <linearGradient
       id="linearGradient36"
       inkscape:collect="always">
      <stop
         style="stop-color:#b62f19;stop-opacity:1"
         offset="0"
         id="stop37" />
      <stop
         style="stop-color:#6d0a47;stop-opacity:1"
         offset="1"
         id="stop38" />
    </linearGradient>
    <linearGradient
       id="linearGradient34"
       inkscape:collect="always">
      <stop
         style="stop-color:#a91d1a;stop-opacity:1"
         offset="0"
         id="stop34" />
      <stop
         style="stop-color:#d4a465;stop-opacity:1"
         offset="0.5"
         id="stop36" />
      <stop
         style="stop-color:#d3802e;stop-opacity:1"
         offset="1"
         id="stop35" />
    </linearGradient>
    <linearGradient
       id="linearGradient32"
       inkscape:collect="always">
      <stop
         style="stop-color:#d1b47c;stop-opacity:1"
         offset="0"
         id="stop32" />
      <stop
         style="stop-color:#b66a37;stop-opacity:1"
         offset="1"
         id="stop33" />
    </linearGradient>
    <linearGradient
       id="linearGradient30"
       inkscape:collect="always">
      <stop
         style="stop-color:#190857;stop-opacity:1"
         offset="0"
         id="stop30" />
      <stop
         style="stop-color:#0a0a51;stop-opacity:1"
         offset="1"
         id="stop31" />
    </linearGradient>
    <linearGradient
       id="linearGradient27"
       inkscape:collect="always">
      <stop
         style="stop-color:#36a4bb;stop-opacity:1"
         offset="0"
         id="stop28" />
      <stop
         style="stop-color:#0f0f74;stop-opacity:1"
         offset="1"
         id="stop29" />
    </linearGradient>
    <linearGradient
       id="linearGradient25"
       inkscape:collect="always">
      <stop
         style="stop-color:#3ebec9;stop-opacity:0.99215686"
         offset="0"
         id="stop25" />
      <stop
         style="stop-color:#1b689e;stop-opacity:1"
         offset="0.5"
         id="stop27" />
      <stop
         style="stop-color:#16106f;stop-opacity:1"
         offset="1"
         id="stop26" />
    </linearGradient>
    <linearGradient
       id="linearGradient23"
       inkscape:collect="always">
      <stop
         style="stop-color:#64c1c7;stop-opacity:1"
         offset="0"
         id="stop23" />
      <stop
         style="stop-color:#409bb9;stop-opacity:1"
         offset="1"
         id="stop24" />
    </linearGradient>
    <linearGradient
       id="linearGradient19"
       inkscape:collect="always">
      <stop
         style="stop-color:#104f7f;stop-opacity:1"
         offset="0"
         id="stop19" />
      <stop
         style="stop-color:#000f47;stop-opacity:1"
         offset="1"
         id="stop20" />
    </linearGradient>
    <linearGradient
       id="linearGradient16"
       inkscape:collect="always">
      <stop
         style="stop-color:#0d3b6e;stop-opacity:1"
         offset="0"
         id="stop16" />
      <stop
         style="stop-color:#02114b;stop-opacity:1"
         offset="1"
         id="stop17" />
    </linearGradient>
    <linearGradient
       id="linearGradient12"
       inkscape:collect="always">
      <stop
         style="stop-color:#000d3e;stop-opacity:1"
         offset="0"
         id="stop13" />
      <stop
         style="stop-color:#00083c;stop-opacity:1"
         offset="1"
         id="stop14" />
    </linearGradient>
    <linearGradient
       id="linearGradient8"
       inkscape:collect="always">
      <stop
         style="stop-color:#2b2b8c;stop-opacity:1"
         offset="0"
         id="stop9" />
      <stop
         style="stop-color:#1f468e;stop-opacity:1"
         offset="0.11542536"
         id="stop11" />
      <stop
         style="stop-color:#37a7b8;stop-opacity:1"
         offset="0.76458484"
         id="stop12" />
      <stop
         style="stop-color:#3caebf;stop-opacity:1"
         offset="1"
         id="stop10" />
    </linearGradient>
    <linearGradient
       id="linearGradient6"
       inkscape:collect="always">
      <stop
         style="stop-color:#32329b;stop-opacity:1"
         offset="0"
         id="stop6" />
      <stop
         style="stop-color:#277ac8;stop-opacity:1"
         offset="0.26659679"
         id="stop8" />
      <stop
         style="stop-color:#4ab9c3;stop-opacity:1"
         offset="1"
         id="stop7" />
    </linearGradient>
    <linearGradient
       inkscape:collect="always"
       xlink:href="#linearGradient6"
       id="linearGradient7"
       x1="17.446917"
       y1="130.45229"
       x2="117.82417"
       y2="12.808147"
       gradientUnits="userSpaceOnUse" />
    <linearGradient
       inkscape:collect="always"
       xlink:href="#linearGradient8"
       id="linearGradient10"
       x1="11.676205"
       y1="152.77197"
       x2="249.23096"
       y2="0.94326878"
       gradientUnits="userSpaceOnUse" />
    <linearGradient
       inkscape:collect="always"
       xlink:href="#linearGradient12"
       id="linearGradient14"
       x1="155.96992"
       y1="71.398338"
       x2="357.71899"
       y2="222.91907"
       gradientUnits="userSpaceOnUse" />
    <linearGradient
       inkscape:collect="always"
       xlink:href="#linearGradient16"
       id="linearGradient17"
       x1="250.01744"
       y1="167.99037"
       x2="174.66995"
       y2="325.70486"
       gradientUnits="userSpaceOnUse" />
    <radialGradient
       inkscape:collect="always"
       xlink:href="#linearGradient19"
       id="radialGradient20"
       cx="7.6231"
       cy="19.4855"
       fx="142.93373"
       fy="365.35358"
       r="3.6115"
       gradientTransform="matrix(0.01820708,-2.186317,2.2999374,0.31665742,-662.98408,513.44555)"
       gradientUnits="userSpaceOnUse" />
    <linearGradient
       inkscape:collect="always"
       xlink:href="#linearGradient23"
       id="linearGradient24"
       x1="394.53079"
       y1="176.68715"
       x2="306.40781"
       y2="262.30252"
       gradientUnits="userSpaceOnUse" />
    <linearGradient
       inkscape:collect="always"
       xlink:href="#linearGradient25"
       id="linearGradient26"
       x1="410.63501"
       y1="138.90289"
       x2="170.75697"
       y2="278.27374"
       gradientUnits="userSpaceOnUse" />
    <linearGradient
       inkscape:collect="always"
       xlink:href="#linearGradient27"
       id="linearGradient29"
       x1="415.25372"
       y1="181.26219"
       x2="248.48155"
       y2="319.54419"
       gradientUnits="userSpaceOnUse" />
    <linearGradient
       inkscape:collect="always"
       xlink:href="#linearGradient30"
       id="linearGradient31"
       x1="124.47583"
       y1="308.71631"
       x2="361.24918"
       y2="308.71631"
       gradientUnits="userSpaceOnUse" />
    <linearGradient
       inkscape:collect="always"
       xlink:href="#linearGradient32"
       id="linearGradient33"
       x1="63.365971"
       y1="286.63831"
       x2="172.519"
       y2="275.26001"
       gradientUnits="userSpaceOnUse" />
    <linearGradient
       inkscape:collect="always"
       xlink:href="#linearGradient34"
       id="linearGradient35"
       x1="174.37985"
       y1="283.86151"
       x2="23.23922"
       y2="427.68301"
       gradientUnits="userSpaceOnUse" />
    <linearGradient
       inkscape:collect="always"
       xlink:href="#linearGradient36"
       id="linearGradient38"
       x1="40.140087"
       y1="397.21991"
       x2="236.08463"
       y2="328.8508"
       gradientUnits="userSpaceOnUse" />
    <linearGradient
       inkscape:collect="always"
       xlink:href="#linearGradient39"
       id="linearGradient42"
       x1="124.32322"
       y1="346.13803"
       x2="347.83752"
       y2="346.13803"
       gradientUnits="userSpaceOnUse" />
    <linearGradient
       inkscape:collect="always"
       xlink:href="#linearGradient43"
       id="linearGradient44"
       x1="59.66814"
       y1="384.3898"
       x2="263.71576"
       y2="368.92834"
       gradientUnits="userSpaceOnUse" />
    <linearGradient
       inkscape:collect="always"
       xlink:href="#linearGradient48"
       id="linearGradient49"
       x1="121.20489"
       y1="386.9458"
       x2="34.252987"
       y2="424.83725"
       gradientUnits="userSpaceOnUse" />
    <linearGradient
       inkscape:collect="always"
       xlink:href="#linearGradient50"
       id="linearGradient51"
       x1="21.788803"
       y1="475.60681"
       x2="125.93628"
       y2="398.15262"
       gradientUnits="userSpaceOnUse" />
    <linearGradient
       inkscape:collect="always"
       xlink:href="#linearGradient52"
       id="linearGradient53"
       x1="74.694061"
       y1="425.29675"
       x2="73.387459"
       y2="584.04883"
       gradientUnits="userSpaceOnUse" />
    <linearGradient
       inkscape:collect="always"
       xlink:href="#linearGradient54"
       id="linearGradient56"
       x1="203.61877"
       y1="382.49686"
       x2="417.75388"
       y2="574.56726"
       gradientUnits="userSpaceOnUse" />
    <linearGradient
       inkscape:collect="always"
       xlink:href="#linearGradient57"
       id="linearGradient59"
       x1="265.00351"
       y1="402.58701"
       x2="421.84854"
       y2="581.59143"
       gradientUnits="userSpaceOnUse" />
    <linearGradient
       inkscape:collect="always"
       xlink:href="#linearGradient60"
       id="linearGradient62"
       x1="182.91319"
       y1="386.88885"
       x2="394.79077"
       y2="580.74854"
       gradientUnits="userSpaceOnUse" />
    <linearGradient
       inkscape:collect="always"
       xlink:href="#linearGradient63"
       id="linearGradient65"
       x1="267.13599"
       y1="430.32281"
       x2="370.47366"
       y2="560.25366"
       gradientUnits="userSpaceOnUse" />
    <linearGradient
       inkscape:collect="always"
       xlink:href="#linearGradient66"
       id="linearGradient67"
       x1="224.625"
       y1="409.25"
       x2="394.625"
       y2="577.125"
       gradientUnits="userSpaceOnUse" />
    <filter
       style="color-interpolation-filters:sRGB;"
       inkscape:label="Color Shift"
       id="filter23"
       x="0"
       y="0"
       width="1"
       height="1" />
    <filter
       inkscape:label="Simulate CMY"
       inkscape:menu="Color"
       inkscape:menu-tooltip="Render Cyan, Magenta and Yellow channels with a colorizable background"
       style="color-interpolation-filters:sRGB"
       id="filter3"
       x="0"
       y="0"
       width="1"
       height="1">
      <feFlood
         flood-color="rgb(255,255,255)"
         result="result6"
         flood-opacity="0"
         id="feFlood1" />
      <feColorMatrix
         result="result3"
         values="0 0 0 0 0 0 0 0 0 1 0 0 0 0 1 -1 0 0 1 0 "
         in="SourceGraphic"
         id="feColorMatrix1" />
      <feBlend
         mode="multiply"
         in2="result6"
         result="result7"
         in="result3"
         id="feBlend1" />
      <feColorMatrix
         result="result2"
         in="SourceGraphic"
         values="0 0 0 0 1 0 0 0 0 0 0 0 0 0 1 0 -1 0 1 0 "
         id="feColorMatrix2" />
      <feBlend
         result="result4"
         in="result2"
         in2="result7"
         mode="multiply"
         id="feBlend2" />
      <feColorMatrix
         result="result1"
         values="0 0 0 0 1 0 0 0 0 1 0 0 0 0 0 0 0 -1 1 0 "
         in="SourceGraphic"
         id="feColorMatrix3" />
      <feBlend
         in2="result4"
         mode="multiply"
         result="result5"
         in="result1"
         id="feBlend3" />
    </filter>
  </defs>
  <g
     inkscape:groupmode="layer"
     inkscape:label="Image"
     id="g1">
    <g
       id="g2"
       transform="matrix(0.87862156,0,0,0.87862156,112.7637,42.771673)">
      <path
         style="fill:url(#linearGradient62);stroke:none;stroke-width:0.0853"
         d="m 7.9711 20.1389 c 0 0 0.4639 0.0586 0.7673 0.3265 0.3034 0.2679 1.3632 1.6643 2.3379 3.477 0.9748 1.8127 2.5294 4.7746 3.7649 5.7834 1.2355 1.0087 2.7464 1.5331 3.8883 1.5331 h 3.7694 c 0 0 -3.529 -2.2108 -4.6609 -3.5624 -1.1318 -1.3516 -1.8818 -2.6746 -2.8474 -3.8213 -0.9656 -1.1468 -1.698 -1.6684 -2.4427 -2.2063 -0.7446 -0.538 -1.4896 -0.8272 -1.9601 -1.0558 -0.4705 -0.2286 -1.2263 -0.4741 -1.2263 -0.4741 z"
         id="path48"
         sodipodi:nodetypes="czzzsczzzzcc"
         inkscape:export-filename="icon.png"
         inkscape:export-xdpi="96.04583"
         inkscape:export-ydpi="96.04583" />
      <path
         style="mix-blend-mode:normal;fill:url(#linearGradient65);fill-opacity:1;stroke:none;stroke-width:0.0853"
         d="m 13.6061 22.4882 c 0.5294 0.4106 1.4229 1.39 1.8334 1.9209 0.4106 0.5309 2.3305 3.3466 3.3919 4.4831 1.0614 1.1364 3.1239 2.0821 3.1239 2.0821 0 0 -0.8095 -0.2889 -1.2806 -0.5048 -0.4711 -0.2159 -0.7526 -0.2719 -1.7412 -1.1411 -0.9886 -0.8692 -2.1575 -2.6094 -2.8864 -3.7125 -0.729 -1.1031 -1.1652 -1.5615 -1.5773 -2.0789 -0.4121 -0.5174 -0.7046 -0.851 -0.8637 -1.0488 z"
         id="path63"
         sodipodi:nodetypes="czzczzzzc" />
      <path
         style="fill:url(#linearGradient56);stroke:none;stroke-width:0.0853"
         d="m 9.2801 20.1378 2.3615 0.0608 c 1.029 0.0265 2.617 -0.2921 3.2353 -0.4394 0.168 0.2417 1.056 0.4199 2.2313 2.2562 l 5.4309 9.2378 c -0.8276 -0.0021 -1.8561 -0.8329 -2.632 -1.3885 C 19.1312 29.3091 18.3619 28.461 17.5871 27.4257 16.8123 26.3903 15.3167 24.1 14.2405 23.0648 13.1643 22.0296 12.3195 21.5057 11.4729 21.0569 10.6263 20.608 9.9056 20.3014 9.2801 20.1378 Z"
         id="path47"
         sodipodi:nodetypes="csccczzzzc" />
      <path
         style="fill:url(#linearGradient51);stroke:none;stroke-width:0.0853"
         d="m 1.0389 25.7967 c 0 0 0.6284 -1.6047 1.2442 -2.2408 0.6158 -0.6361 1.5984 -1.1007 2.3804 -1.3369 0.782 -0.2362 2.985 -0.1742 2.985 -0.1742 v -0.9259 c 0 0 -3.6281 -0.1454 -4.7368 0.5834 -1.1087 0.7289 -1.3868 1.3827 -1.6078 1.925 -0.221 0.5423 -0.265 1.4701 -0.265 1.4701 z"
         id="path46"
         sodipodi:nodetypes="czzcczzcc" />
      <path
         style="fill:url(#linearGradient53);stroke:none;stroke-width:0.0853"
         d="m 7.6483 21.9687 c -1.1557 0 -3.3851 -0.0634 -4.6707 0.9267 -1.2856 0.9901 -1.5775 1.9069 -1.9388 2.8576 v 4.8431 c 0 0.3767 0.2281 0.6229 0.6049 0.6229 H 7.0327 c 0.307 0 0.6155 -0.3159 0.6155 -0.6229 z"
         id="path51"
         sodipodi:nodetypes="czcssssc" />
      <path
         style="fill:url(#linearGradient24);stroke-width:0.0853"
         d="m 12.9237 14.2117 c 0.3054 0.0993 3.8089 0.8247 6.6492 -1.9703 2.8403 -2.795 1.924 -6.4032 1.7298 -6.8357 -0.1128 -0.2513 0.5064 1.6099 -0.1907 3.5691 -0.2604 0.732 -0.4958 1.4889 -1.8121 3.0284 -1.3001 1.5206 -3.0234 1.6583 -4.309 1.9552 -0.9387 0.2168 -2.2199 0.2035 -2.0672 0.2531 z"
         id="path22"
         sodipodi:nodetypes="szsssss" />
      <path
         style="fill:url(#linearGradient14);stroke-width:0.0853"
         d="m 5.7111 6.2463 c 0.5343 0.0939 5.0302 -0.0013 6.2994 0.0348 1.2692 0.0361 3.915 0.6846 3.8917 3.9162 -0.0234 3.2316 -2.7534 3.5747 -3.8085 3.7553 0.3265 0.0081 4.4278 0.7583 6.8552 -1.5452 2.4273 -2.3035 2.7754 -5.2266 2.4446 -6.724 C 20.7559 4.1461 19.9437 3.2391 18.908 2.3925 17.8723 1.546 16.3761 0.6334 15.1392 0.5633 13.9022 0.4932 11.4153 1.1312 9.9418 2.137 8.4682 3.1428 5.1768 6.1524 5.7111 6.2463 Z"
         id="path3"
         sodipodi:nodetypes="zzzczczzzz" />
      <path
         id="path4"
         style="fill:url(#linearGradient17);fill-opacity:0.57778;stroke-width:0.1103"
         d="m 13.1411 8.5892 c -1.23 -0.4636 -2.6847 -0.7318 -4.2436 -0.7318 -1.9655 0 -4.0144 0.8432 -5.407 1.5501 1.3682 0.821 2.8732 1.677 3.6016 2.1402 0.6421 0.4084 1.2223 1.1367 1.3737 1.3588 0.1514 0.2222 0.5777 1.1493 0.5875 1.2649 0 0 -0.0001 0.0001 -0.0001 0.0001 0.0098 0.1157 0.0278 0.2415 0.0277 0.3616 -0.0003 0.2402 -0.0013 0.5011 -0.0469 0.7574 -0 0 -0 0.0001 -0.0001 0.0001 -0.0913 0.5127 -0.2503 1.0738 -0.5983 1.6199 -0.1821 0.2857 -0.4941 0.7064 -0.7774 0.967 0.3823 0.9629 2.2199 1.4483 3.8759 0.7269 1.3839 -0.6029 2.8576 -1.7405 3.9868 -3.0777 0.0199 -0.0717 0.0313 -0.0999 0.0467 -0.1705 0.0057 -0.5687 0.0336 -1.037 -0.0289 -1.4903 -0.0208 -0.1511 -0.0651 -0.3463 -0.098 -0.4934 -0.1319 -0.5879 -0.2478 -1.0812 -0.4329 -1.6302 -0.0012 -0.0035 -0.0024 -0.007 -0.0036 -0.0105 -0.1185 -0.35 -0.2764 -0.7154 -0.4508 -1.0792 -0.0233 -0.0487 -0.0362 -0.0963 -0.0605 -0.1448 l -0.011 0.0039 C 14.1198 9.7869 13.6686 9.086 13.1411 8.5893 Z"
         transform="matrix(0.85877129,-0.51235912,0.51265937,0.85859208,0,0)"
         sodipodi:nodetypes="cscszscsscsccccscscccccc" />
      <path
         style="fill:url(#linearGradient10);stroke-width:0.0853"
         d="M 0.205 7.5176 C 0.2626 7.4734 1.1183 7.2238 1.7401 6.6877 2.362 6.1515 2.464 5.5608 3.4484 4.5668 4.4329 3.5728 6.317 1.9055 7.7123 1.1537 9.1076 0.4019 11.2977 0.0258 11.8717 -0.022 c 0.574 -0.0478 1.4162 0.1084 1.9946 0.2148 0.5783 0.1064 1.776 0.4241 1.5089 0.4153 -0.2671 -0.0088 -1.6793 -0.056 -3.359 0.5357 -1.6797 0.5916 -2.7333 1.4476 -3.6267 2.2639 -0.8935 0.8164 -1.5779 1.6931 -2.2245 2.4466 -0.6466 0.7535 -1.207 1.0538 -2.0364 1.4673 -0.8294 0.4135 -1.733 0.5747 -2.4039 0.562 -0.6709 -0.0127 -1.5773 -0.3219 -1.5197 -0.3662 z"
         id="path2"
         sodipodi:nodetypes="zzzzzzzzzzzzz" />
      <path
         style="fill:url(#linearGradient7);stroke-width:0.0853"
         d="M 0.192 7.5245 C 0.2004 7.5423 0.9473 7.6159 1.6621 6.959 2.3769 6.3021 2.8604 5.1732 3.9144 4.1474 4.9685 3.1216 6.7105 1.6626 8.0774 0.9941 9.4443 0.3257 11.852 -0.0155 11.852 -0.0155 c 0 0 -4.4112 -0.0089 -5.9959 0.4815 C 4.2714 0.9565 3.2549 1.5259 2.4499 2.4222 1.6449 3.3184 1.4751 4.0169 1.3394 4.7365 1.1966 5.7079 0.8382 6.3327 0.6548 6.6659 c -0.1833 0.3332 -0.4713 0.8409 -0.4628 0.8586 z"
         id="path1"
         sodipodi:nodetypes="zzzzczzzzz" />
      <path
         id="path5"
         style="fill:url(#radialGradient20);stroke-width:0.2392"
         d="m 9.6938 13.9078 c -0.8576 -0.5104 -1.9141 -0.7876 -3.0017 -0.7876 -1.1159 0 -2.9632 0.0713 -3.8314 0.6063 0.6075 1.1474 1.3088 3.035 -0.5148 4.8034 0.9183 0.9649 2.7835 2.0398 4.3461 2.0398 0.8922 0 1.7674 -0.1866 2.5304 -0.5396 0.5451 -1.1252 0.7019 -2.3926 0.739 -3.5615 0.0253 -0.7967 -0.0525 -1.7239 -0.2677 -2.5608 z"
         transform="matrix(0.60814417,-0.7938266,0.78026907,0.62544398,0,0)"
         sodipodi:nodetypes="ccccccsc" />
      <path
         style="fill:url(#linearGradient33);stroke-width:0.0853"
         d="m 10.7661 16.1504 c -0.761 -0.4192 -1.8305 -1.0904 -2.4619 -1.3421 -0.8611 -0.3433 -1.1622 -0.7543 -1.6188 -0.8536 -0.6097 0.0018 -1.4071 -0.093 -2.4046 0.2952 -0.8479 0.33 -1.7155 1.0152 -2.2342 1.8165 -0.5186 0.8012 -1.0051 2.3532 -1.0071 3.3208 0.2762 -0.7577 1.3247 -3.231 2.0395 -3.7549 0.7148 -0.5239 1.6556 -1.0189 2.3948 -1.0412 0.9795 -0.0296 1.6911 0.0652 2.4622 0.329 0.901 0.3083 3.0625 1.3584 2.8302 1.2304 z"
         id="path31"
         sodipodi:nodetypes="sscszczsss" />
      <path
         style="fill:url(#linearGradient26);stroke-width:0.0853"
         d="m 21.2288 5.2231 c 0.3076 0.9212 0.9589 3.2382 0.757 4.6374 -0.2019 1.3992 -0.5154 2.02 -1.0883 3.0682 -0.5728 1.0481 -1.6077 2.0848 -2.2833 2.5113 -0.6757 0.4266 -1.9365 1.1293 -3.2253 1.3182 -1.0077 0.1478 -2.3452 0.1948 -3.1903 -0.0928 -0.7117 -0.2422 -1.42 -1.0127 -2.2045 -1.4453 -0.7845 -0.4326 -1.5855 -1.2646 -1.3958 -1.2662 0.7591 -0.0064 3.5733 -0.0348 4.2884 0 0.2253 0.011 4.5211 0.1978 6.2367 -1.3923 1.0123 -0.9382 2.0713 -2.5726 2.1962 -3.7289 0.1249 -1.1563 0.2549 -2.3576 -0.0908 -3.6097 z"
         id="path21"
         sodipodi:nodetypes="czzzsszsszzc" />
      <path
         style="fill:url(#linearGradient42);fill-opacity:1;stroke:none;stroke-width:0.0853"
         d="m 6.5868 17.7248 c 0.7044 -0.221 1.6295 -0.4161 2.4637 -0.4573 1.1421 -0.0564 2.2914 0.0958 3.4181 0.2905 0.6684 0.1155 1.4458 0.394 1.9679 0.5181 0.6489 0.1543 1.2172 0.2786 1.9047 0.2628 0.5838 -0.0134 1.7752 -0.3335 2.3455 -0.5326 -0.488 0.3897 -1.2999 0.8972 -1.9971 1.2643 -0.3913 0.206 -0.7785 0.4891 -1.2195 0.5226 -0.802 0.061 -1.8036 0.0254 -2.6945 -0.0929 -0.9104 -0.1209 -1.7987 -0.3786 -2.6829 -0.6272 -1.5918 -0.4475 -2.5334 -0.9663 -3.506 -1.1483 z"
         id="path38"
         sodipodi:nodetypes="caasscasasc" />
      <path
         style="fill:url(#linearGradient29);stroke-width:0.0853"
         d="m 21.2205 5.1828 c 0.3061 0.5189 1.2424 2.5182 1.2182 4.8984 -0.0243 2.3802 -0.4748 3.4241 -1.0395 4.6283 -0.5646 1.2042 -1.384 1.9046 -2.0907 2.5423 -0.7067 0.6377 -2.2599 0.7763 -3.5538 0.697 -1.2938 -0.0793 -3.5672 -1.1997 -4.017 -1.5155 -0.4498 -0.3158 1.8739 0.4221 3.656 0.1193 1.782 -0.3028 3.3554 -1.0866 4.4086 -2.1973 1.0532 -1.1107 2.0586 -2.9087 2.1719 -4.7851 0.1132 -1.8764 -0.5998 -3.4862 -0.7536 -4.3874 z"
         id="path20"
         sodipodi:nodetypes="czzzzzzzzc" />
      <path
         style="fill:url(#linearGradient49);stroke:none;stroke-width:0.0853"
         d="m 7.9865 20.1372 c -0.2196 -0.0024 -0.3301 0.1602 -0.3367 0.2999 v 0.6855 c -0.7433 -0.0058 -3.1999 0.0333 -4.2564 0.4642 -1.0566 0.4309 -1.6882 1.0486 -2.1323 2.2018 0.0884 -1.0195 0.4683 -1.7838 1.1078 -2.4503 0.6395 -0.6665 1.41 -0.8974 2.1978 -1.061 0.7878 -0.1636 2.5707 -0.1433 3.4199 -0.14 z"
         id="path45"
         sodipodi:nodetypes="ccczczzc" />
      <path
         style="fill:url(#linearGradient38);stroke-width:0.0853"
         d="m 14.4637 18.0855 c -0.4881 -0.1628 -1.218 -0.4913 -1.506 -0.5922 -2.0697 -0.7253 -4.1806 -1.0863 -6.1865 -0.5713 -1.4623 0.3755 -2.7725 1.3884 -3.7514 2.5377 -0.7626 0.8953 -1.2066 2.2104 -1.4866 3.1997 0.7103 -1.4131 0.969 -1.8927 1.6957 -2.648 0.8078 -0.8397 1.7989 -1.5359 2.8687 -1.9976 1.021 -0.4407 2.1532 -0.6683 3.2651 -0.6844 1.1292 -0.0164 1.742 0.0772 3.3428 0.3694 0.359 0.0655 2.5679 0.6518 1.7583 0.3868 z"
         id="path36"
         sodipodi:nodetypes="csaacaassc" />
      <path
         style="fill:url(#linearGradient35);stroke-width:0.0853"
         d="M 13.1795 17.6313 C 10.683 16.7155 7.4355 16.2668 5.1273 17.6366 2.6836 19.0869 1.5087 21.5778 1.0385 25.1171 V 19.4147 c 0 -0.4843 0.2128 -1.2612 0.5167 -1.8103 0.5529 -0.9992 1.4575 -2.1256 2.2919 -2.5464 0.9435 -0.4757 1.858 -0.724 3.1341 -0.5335 1.2761 0.1906 1.6152 0.4667 2.4421 0.9028 0.9262 0.4884 2.7836 1.6605 3.7563 2.204 z"
         id="path33"
         sodipodi:nodetypes="cacsaszsc" />
      <path
         style="fill:url(#linearGradient31);stroke-width:0.0853"
         d="m 6.6891 13.9529 h 1.8978 c 0.0872 0 0.4223 0.7265 1.5543 1.3387 1.132 0.6122 3.2622 2.2273 5.1258 2.5624 0.4889 0.0879 1.6875 0.1368 2.5089 -0.0205 0.509 -0.0975 1.0827 -0.3241 1.4495 -0.5626 0.2129 -0.1384 -0.4553 0.5557 -0.7473 0.6529 -0.5768 0.1919 -1.4197 0.4453 -2.1517 0.4394 -1.0631 -0.0086 -2.1343 -0.2766 -3.1143 -0.6888 -1.0396 -0.4372 -2.0509 -1.2819 -3.1026 -1.8782 -0.6306 -0.3576 -1.2839 -0.6738 -1.9217 -1.0184 -0.5018 -0.271 -1.8246 -0.825 -1.4988 -0.825 z"
         id="path23"
         sodipodi:nodetypes="sszsassasaas" />
      <path
         style="fill:url(#linearGradient44);stroke:none;stroke-width:0.0853"
         d="m 1.4266 23.0407 c 0.3824 -1.003 0.7077 -1.6053 1.3956 -2.077 1.0018 -0.687 2.354 -0.8061 3.554 -0.8061 h 3.0023 c 0.8718 0 1.7114 0.1205 2.8164 0.0396 1.0012 -0.0734 2.8246 -0.3137 3.6241 -0.6804 -0.9736 0.1026 -2.3044 0.0505 -3.4383 -0.121 -1.3169 -0.1992 -2.9182 -0.7269 -3.8559 -1.047 -0.9378 -0.3201 -1.259 -0.6868 -1.929 -0.6101 -1.0975 0.1255 -2.0532 1.0494 -2.8525 1.6869 -0.7206 0.5747 -2.0256 2.0654 -2.3167 3.6152 z"
         id="path42"
         sodipodi:nodetypes="cassscazasc" />
      <path
         style="fill:url(#linearGradient59);fill-opacity:1;stroke:none;stroke-width:0.0853"
         d="m 13.4134 21.1522 c 0.5382 0.0248 1.2917 -0.005 1.8775 0.0547 0.5858 0.0597 1.5459 0.3397 1.8982 0.9404 l 5.1801 8.8344 C 21.7498 30.9458 20.6604 30.1069 19.5299 29.1312 18.3993 28.1555 16.7697 25.5136 16.0266 24.3868 15.2836 23.26 14.3793 21.9486 13.4134 21.1522 Z"
         id="path57"
         sodipodi:nodetypes="czsczzc" />
      <path
         style="fill:url(#linearGradient67);stroke:none;stroke-width:0.0853"
         d="m 11.54 21.4333 c 0 0 1.4019 1.6582 2.3333 2.98 0.9314 1.3218 1.6381 3.8182 3.5667 4.9067 1.9286 1.0884 3.9533 1.6467 3.9533 1.6467 0 0 -1.7686 -0.866 -3.0533 -2.0933 -1.2848 -1.2273 -2.0116 -2.8763 -2.8333 -3.96 -0.8217 -1.0837 -1.7212 -2.0702 -2.46 -2.5733 -0.7388 -0.5032 -1.5067 -0.9067 -1.5067 -0.9067 z"
         id="path65"
         sodipodi:nodetypes="czzczzzc" />
    </g>
  </g>
</svg>
