<?xml version="1.0" encoding="UTF-8" standalone="no"?>
<svg
   height="24px"
   viewBox="0 0 32 32"
   width="24px"
   fill="#000000"
   version="1.1"
   id="svg1"
   sodipodi:docname="post-processor-symbolic.svg"
   inkscape:version="1.4.2 (ebf0e940d0, 2025-05-08)"
   xmlns:inkscape="http://www.inkscape.org/namespaces/inkscape"
   xmlns:sodipodi="http://sodipodi.sourceforge.net/DTD/sodipodi-0.dtd"
   xmlns="http://www.w3.org/2000/svg"
   xmlns:svg="http://www.w3.org/2000/svg">
  <defs
     id="defs1" />
  <sodipodi:namedview
     id="namedview1"
     pagecolor="#ffffff"
     bordercolor="#000000"
     borderopacity="0.25"
     inkscape:showpageshadow="2"
     inkscape:pageopacity="0.0"
     inkscape:pagecheckerboard="0"
     inkscape:deskcolor="#d1d1d1"
     inkscape:zoom="36.916667"
     inkscape:cx="12"
     inkscape:cy="12"
     inkscape:window-width="3840"
     inkscape:window-height="2020"
     inkscape:window-x="0"
     inkscape:window-y="32"
     inkscape:window-maximized="1"
     inkscape:current-layer="svg1" />
  <path
     d="M 4 26.6667 v -2.6667 h 3.6667 l -0.5333 -0.4667 q -1.7333 -1.5333 -2.4333 -3.5 t -0.7 -3.9667 q 0 -3.7 2.2167 -6.5833 T 12 5.6667 v 2.8 q -2.4 0.8667 -3.8667 2.95 T 6.6667 16.0667 q 0 1.5 0.5667 2.9167 t 1.7667 2.6167 l 0.3333 0.3333 v -3.2667 h 2.6667 v 8 H 4 Z m 23.9 -12 h -2.7 q -0.1667 -1.1667 -0.7167 -2.2333 T 23 10.4 l -0.3333 -0.3333 v 3.2667 h -2.6667 v -8 h 8 v 2.6667 H 24.3333 l 0.5333 0.4667 q 1.3667 1.4 2.1 2.9667 t 0.9333 3.2333 Z M 22.6667 30.6667 l -0.4 -2 q -0.4 -0.1667 -0.75 -0.35 T 20.8 27.8667 l -1.9333 0.6 -1.3333 -2.2667 1.5333 -1.3333 q -0.0667 -0.4667 -0.0667 -0.8667 t 0.0667 -0.8667 l -1.5333 -1.3333 1.3333 -2.2667 1.9333 0.6 q 0.3667 -0.2667 0.7167 -0.45 T 22.2667 19.3333 l 0.4 -2 h 2.6667 l 0.4 2 q 0.4 0.1667 0.75 0.3667 t 0.7167 0.5 l 1.9333 -0.6667 1.3333 2.3333 -1.5333 1.3333 q 0.0667 0.4 0.0667 0.8333 t -0.0667 0.8333 l 1.5333 1.3333 -1.3333 2.2667 -1.9333 -0.6 q -0.3667 0.2667 -0.7167 0.45 T 25.7333 28.6667 l -0.4 2 h -2.6667 Z m 1.3333 -4 q 1.1 0 1.8833 -0.7833 T 26.6667 24 q 0 -1.1 -0.7833 -1.8833 T 24 21.3333 q -1.1 0 -1.8833 0.7833 T 21.3333 24 q 0 1.1 0.7833 1.8833 T 24 26.6667 Z"
     id="path1" />
</svg>
