<?xml version="1.0" encoding="UTF-8" standalone="no"?>
<svg
   height="24px"
   viewBox="0 0 24 24"
   width="24px"
   fill="#000000"
   version="1.1"
   id="svg1"
   sodipodi:docname="post-processor-symbolic.svg"
   inkscape:version="1.4.2 (ebf0e940d0, 2025-05-08)"
   xmlns:inkscape="http://www.inkscape.org/namespaces/inkscape"
   xmlns:sodipodi="http://sodipodi.sourceforge.net/DTD/sodipodi-0.dtd"
   xmlns="http://www.w3.org/2000/svg"
   xmlns:svg="http://www.w3.org/2000/svg">
  <defs
     id="defs1" />
  <sodipodi:namedview
     id="namedview1"
     pagecolor="#ffffff"
     bordercolor="#000000"
     borderopacity="0.25"
     inkscape:showpageshadow="2"
     inkscape:pageopacity="0.0"
     inkscape:pagecheckerboard="0"
     inkscape:deskcolor="#d1d1d1"
     inkscape:zoom="36.916667"
     inkscape:cx="12"
     inkscape:cy="12"
     inkscape:window-width="3840"
     inkscape:window-height="2020"
     inkscape:window-x="0"
     inkscape:window-y="32"
     inkscape:window-maximized="1"
     inkscape:current-layer="svg1" />
  <path
     d="M 3 19.9999 v -2.0001 h 2.7501 l -0.3999 -0.3501 q -1.3001 -1.1501 -1.825 -2.625 t -0.525 -2.975 q 0 -2.775 1.6625 -4.9375 T 9 4.25 v 2.1 q -1.8 0.6501 -2.9 2.2125 T 5 12.0501 q 0 1.125 0.4249 2.1876 t 1.3249 1.9625 l 0.2499 0.2499 v -2.4501 h 2.0001 v 6 H 3 Z m 17.925 -9 h -2.025 q -0.125 -0.8751 -0.5376 -1.6749 T 17.25 7.8 l -0.2499 -0.2499 v 2.4501 h -2.0001 v -6 h 6 v 2.0001 H 18.2501 l 0.3999 0.3501 q 1.0251 1.05 1.575 2.225 t 0.7001 2.4249 Z M 16.9999 22.9999 l -0.3 -1.5 q -0.3 -0.125 -0.5625 -0.2625 T 15.6 20.9001 l -1.4501 0.45 -0.9999 -1.7001 1.1501 -0.9999 q -0.05 -0.3501 -0.05 -0.6501 t 0.05 -0.6501 l -1.1501 -0.9999 0.9999 -1.7001 1.4501 0.45 q 0.2751 -0.2 0.5376 -0.3375 T 16.7001 14.5001 l 0.3 -1.5 h 2.0001 l 0.3 1.5 q 0.3 0.125 0.5625 0.2751 t 0.5376 0.375 l 1.4501 -0.5 0.9999 1.7499 -1.1501 0.9999 q 0.05 0.3 0.05 0.625 t -0.05 0.625 l 1.1501 0.9999 -0.9999 1.7001 -1.4501 -0.45 q -0.2751 0.2 -0.5376 0.3375 T 19.2999 21.4999 l -0.3 1.5 h -2.0001 Z m 0.9999 -3 q 0.825 0 1.4124 -0.5874 T 19.9999 18 q 0 -0.825 -0.5874 -1.4124 T 18 16.0001 q -0.825 0 -1.4124 0.5874 T 16.0001 18 q 0 0.825 0.5874 1.4124 T 18 19.9999 Z"
     id="path1" />
</svg>
