<?xml version="1.0" encoding="UTF-8" standalone="no"?>
<svg
   height="24px"
   viewBox="0 0 16 16"
   width="24px"
   fill="#000000"
   version="1.1"
   id="svg1"
   sodipodi:docname="post-processor-symbolic.svg"
   inkscape:version="1.4.2 (ebf0e940d0, 2025-05-08)"
   xmlns:inkscape="http://www.inkscape.org/namespaces/inkscape"
   xmlns:sodipodi="http://sodipodi.sourceforge.net/DTD/sodipodi-0.dtd"
   xmlns="http://www.w3.org/2000/svg"
   xmlns:svg="http://www.w3.org/2000/svg">
  <defs
     id="defs1" />
  <sodipodi:namedview
     id="namedview1"
     pagecolor="#ffffff"
     bordercolor="#000000"
     borderopacity="0.25"
     inkscape:showpageshadow="2"
     inkscape:pageopacity="0.0"
     inkscape:pagecheckerboard="0"
     inkscape:deskcolor="#d1d1d1"
     inkscape:zoom="36.916667"
     inkscape:cx="12"
     inkscape:cy="12"
     inkscape:window-width="3840"
     inkscape:window-height="2020"
     inkscape:window-x="0"
     inkscape:window-y="32"
     inkscape:window-maximized="1"
     inkscape:current-layer="svg1" />
  <path
     d="M 2 13.3333 v -1.3334 h 1.8334 l -0.2666 -0.2334 q -0.8667 -0.7667 -1.2167 -1.75 t -0.35 -1.9833 q 0 -1.85 1.1083 -3.2917 T 6 2.8333 v 1.4 q -1.2 0.4334 -1.9333 1.475 T 3.3333 8.0334 q 0 0.75 0.2833 1.4584 t 0.8833 1.3083 l 0.1666 0.1666 v -1.6334 h 1.3334 v 4 H 2 Z m 11.95 -6 h -1.35 q -0.0833 -0.5834 -0.3584 -1.1166 T 11.5 5.2 l -0.1666 -0.1666 v 1.6334 h -1.3334 v -4 h 4 v 1.3334 H 12.1667 l 0.2666 0.2334 q 0.6834 0.7 1.05 1.4833 t 0.4667 1.6166 Z M 11.3333 15.3333 l -0.2 -1 q -0.2 -0.0833 -0.375 -0.175 T 10.4 13.9334 l -0.9667 0.3 -0.6666 -1.1334 0.7667 -0.6666 q -0.0333 -0.2334 -0.0333 -0.4334 t 0.0333 -0.4334 l -0.7667 -0.6666 0.6666 -1.1334 0.9667 0.3 q 0.1834 -0.1333 0.3584 -0.225 T 11.1334 9.6667 l 0.2 -1 h 1.3334 l 0.2 1 q 0.2 0.0833 0.375 0.1834 t 0.3584 0.25 l 0.9667 -0.3333 0.6666 1.1666 -0.7667 0.6666 q 0.0333 0.2 0.0333 0.4167 t -0.0333 0.4167 l 0.7667 0.6666 -0.6666 1.1334 -0.9667 -0.3 q -0.1834 0.1333 -0.3584 0.225 T 12.8666 14.3333 l -0.2 1 h -1.3334 Z m 0.6666 -2 q 0.55 0 0.9416 -0.3916 T 13.3333 12 q 0 -0.55 -0.3916 -0.9416 T 12 10.6667 q -0.55 0 -0.9416 0.3916 T 10.6667 12 q 0 0.55 0.3916 0.9416 T 12 13.3333 Z"
     id="path1" />
</svg>
