<?xml version="1.0" encoding="UTF-8" standalone="no"?>
<svg
   height="24px"
   viewBox="0 0 24 24"
   width="24px"
   fill="#000000"
   version="1.1"
   id="svg1"
   xmlns="http://www.w3.org/2000/svg"
   xmlns:svg="http://www.w3.org/2000/svg">
  <defs
     id="defs1" />
  <path
     d="M 9 16.9999 q 0.4249 0 0.7125 -0.2874 T 9.9999 16.0001 q 0 -0.4249 -0.2874 -0.7125 T 9 15 q -0.4249 0 -0.7125 0.2874 T 8.0001 16.0001 q 0 0.4249 0.2874 0.7125 T 9 16.9999 Z m 3 0 q 0.4249 0 0.7125 -0.2874 T 13.0001 16.0001 q 0 -0.4249 -0.2874 -0.7125 T 12 15 q -0.4249 0 -0.7125 0.2874 T 11.0001 16.0001 q 0 0.4249 0.2874 0.7125 T 12 16.9999 Z m 3 0 q 0.4249 0 0.7125 -0.2874 T 16.0001 16.0001 q 0 -0.4249 -0.2874 -0.7125 T 15 15 q -0.4249 0 -0.7125 0.2874 T 13.9999 16.0001 q 0 0.4249 0.2874 0.7125 T 15 16.9999 Z M 10.95 13.9999 l 5.625 -5.6499 -1.4001 -1.425 -4.25 4.25 -2.1249 -2.1249 -1.4001 1.4001 3.5499 3.5499 Z m 1.05 8.0001 q -2.0751 0 -3.9 -0.7875 T 4.9249 19.0749 q -1.35 -1.35 -2.1375 -3.1749 T 2.0001 12 q 0 -2.0751 0.7875 -3.9 T 4.9249 4.9249 q 1.35 -1.35 3.1749 -2.1375 T 12 2.0001 q 2.0751 0 3.9 0.7875 T 19.0749 4.9249 q 1.35 1.35 2.1375 3.1749 T 22.0001 12 q 0 2.0751 -0.7875 3.9 T 19.0749 19.0749 q -1.35 1.35 -3.1749 2.1375 T 12 22.0001 Z m 0 -2.0001 q 3.3501 0 5.6749 -2.325 t 2.325 -5.6749 q 0 -3.3501 -2.325 -5.6749 t -5.6749 -2.325 q -3.3501 0 -5.6749 2.325 t -2.325 5.6749 q 0 3.3501 2.325 5.6749 t 5.6749 2.325 Z m 0 -8.0001 Z"
     id="path1" />
</svg>
