<?xml version="1.0" encoding="UTF-8" standalone="no"?>
<svg
   height="24px"
   viewBox="0 0 32 32"
   width="24px"
   fill="#000000"
   version="1.1"
   id="svg1"
   xmlns="http://www.w3.org/2000/svg"
   xmlns:svg="http://www.w3.org/2000/svg">
  <defs
     id="defs1" />
  <path
     d="M 12 22.6667 q 0.5667 0 0.95 -0.3833 T 13.3333 21.3333 q 0 -0.5667 -0.3833 -0.95 T 12 20 q -0.5667 0 -0.95 0.3833 T 10.6667 21.3333 q 0 0.5667 0.3833 0.95 T 12 22.6667 Z m 4 0 q 0.5667 0 0.95 -0.3833 T 17.3333 21.3333 q 0 -0.5667 -0.3833 -0.95 T 16 20 q -0.5667 0 -0.95 0.3833 T 14.6667 21.3333 q 0 0.5667 0.3833 0.95 T 16 22.6667 Z m 4 0 q 0.5667 0 0.95 -0.3833 T 21.3333 21.3333 q 0 -0.5667 -0.3833 -0.95 T 20 20 q -0.5667 0 -0.95 0.3833 T 18.6667 21.3333 q 0 0.5667 0.3833 0.95 T 20 22.6667 Z M 14.6 18.6667 l 7.5 -7.5333 -1.8667 -1.9 -5.6667 5.6667 -2.8333 -2.8333 -1.8667 1.8667 4.7333 4.7333 Z m 1.4 10.6667 q -2.7667 0 -5.2 -1.05 T 6.5667 25.4333 q -1.8 -1.8 -2.85 -4.2333 T 2.6667 16 q 0 -2.7667 1.05 -5.2 T 6.5667 6.5667 q 1.8 -1.8 4.2333 -2.85 T 16 2.6667 q 2.7667 0 5.2 1.05 T 25.4333 6.5667 q 1.8 1.8 2.85 4.2333 T 29.3333 16 q 0 2.7667 -1.05 5.2 T 25.4333 25.4333 q -1.8 1.8 -4.2333 2.85 T 16 29.3333 Z m 0 -2.6667 q 4.4667 0 7.5667 -3.1 t 3.1 -7.5667 q 0 -4.4667 -3.1 -7.5667 t -7.5667 -3.1 q -4.4667 0 -7.5667 3.1 t -3.1 7.5667 q 0 4.4667 3.1 7.5667 t 7.5667 3.1 Z m 0 -10.6667 Z"
     id="path1" />
</svg>
