<?xml version="1.0" encoding="UTF-8" standalone="no"?>
<svg
   height="24px"
   viewBox="0 0 24 24"
   width="24px"
   fill="#000000"
   version="1.1"
   id="svg1"
   xmlns="http://www.w3.org/2000/svg"
   xmlns:svg="http://www.w3.org/2000/svg">
  <defs
     id="defs1" />
  <path
     d="M 12 16.9999 q -2.0499 0 -3.6625 -1.1126 T 6 13.0001 q 0.5 -1.2 1.4001 -2.1 t 2.1 -1.4001 l 1.1749 1.1749 q -0.975 0.2751 -1.7499 0.8625 T 7.65 13.0001 q 0.6501 1.1749 1.8 1.8375 T 12 15.4999 q 0.75 0 1.4501 -0.2 t 1.275 -0.5751 l 1.0751 1.0751 q -0.7999 0.5751 -1.7625 0.8876 T 12 16.9999 Z m 5.2251 -2.6 -1.0751 -1.0751 q 0.05 -0.075 0.1001 -0.1626 t 0.1001 -0.1626 q -0.45 -0.825 -1.1749 -1.4124 T 13.5501 10.725 l -1.725 -1.725 q 2.0499 0 3.75 1.1126 T 18 13.0001 q -0.15 0.375 -0.3375 0.7251 T 17.2249 14.4 Z M 19.7751 22.5999 l -1.6 -1.6 H 5 q -0.825 0 -1.4124 -0.5874 T 3 19.0001 v -13.1751 l -1.6 -1.6251 1.4001 -1.4001 18.4001 18.4001 -1.425 1.4001 Z M 5 19.0001 h 11.175 L 5 7.8249 v 11.175 Z m 16.0001 -0.825 -2.0001 -2.0001 v -8.175 H 10.8249 L 5.8251 3 h 13.1751 q 0.825 0 1.4124 0.5874 T 21 5 v 13.1751 Z"
     id="path1" />
</svg>
