<?xml version="1.0" encoding="UTF-8" standalone="no"?>
<svg
   height="24px"
   viewBox="0 0 16 16"
   width="24px"
   fill="#000000"
   version="1.1"
   id="svg1"
   xmlns="http://www.w3.org/2000/svg"
   xmlns:svg="http://www.w3.org/2000/svg">
  <defs
     id="defs1" />
  <path
     d="M 8 11.3333 q -1.3666 0 -2.4417 -0.7417 T 4 8.6667 q 0.3333 -0.8 0.9334 -1.4 t 1.4 -0.9334 l 0.7833 0.7833 q -0.65 0.1834 -1.1666 0.575 T 5.1 8.6667 q 0.4334 0.7833 1.2 1.225 T 8 10.3333 q 0.5 0 0.9667 -0.1333 t 0.85 -0.3834 l 0.7167 0.7167 q -0.5333 0.3834 -1.175 0.5917 T 8 11.3333 Z m 3.4834 -1.7333 -0.7167 -0.7167 q 0.0333 -0.05 0.0667 -0.1084 t 0.0667 -0.1084 q -0.3 -0.55 -0.7833 -0.9416 T 9.0334 7.15 l -1.15 -1.15 q 1.3666 0 2.5 0.7417 T 12 8.6667 q -0.1 0.25 -0.225 0.4834 T 11.4833 9.6 Z M 13.1834 15.0666 l -1.0667 -1.0667 H 3.3333 q -0.55 0 -0.9416 -0.3916 T 2 12.6667 v -8.7834 l -1.0667 -1.0834 0.9334 -0.9334 12.2667 12.2667 -0.95 0.9334 Z M 3.3333 12.6667 h 7.45 L 3.3333 5.2166 v 7.45 Z m 10.6667 -0.55 -1.3334 -1.3334 v -5.45 H 7.2166 L 3.8834 2 h 8.7834 q 0.55 0 0.9416 0.3916 T 14 3.3333 v 8.7834 Z"
     id="path1" />
</svg>
