<?xml version="1.0" encoding="UTF-8" standalone="no"?>
<svg
   height="24px"
   viewBox="0 0 32 32"
   width="24px"
   fill="#000000"
   version="1.1"
   id="svg1"
   xmlns="http://www.w3.org/2000/svg"
   xmlns:svg="http://www.w3.org/2000/svg">
  <defs
     id="defs1" />
  <path
     d="M 16 22.6667 q -2.7333 0 -4.8833 -1.4833 T 8 17.3333 q 0.6667 -1.6 1.8667 -2.8 t 2.8 -1.8667 l 1.5667 1.5667 q -1.3 0.3667 -2.3333 1.15 T 10.2 17.3333 q 0.8667 1.5667 2.4 2.45 T 16 20.6667 q 1 0 1.9333 -0.2667 t 1.7 -0.7667 l 1.4333 1.4333 q -1.0667 0.7667 -2.35 1.1833 T 16 22.6667 Z m 6.9667 -3.4667 -1.4333 -1.4333 q 0.0667 -0.1 0.1333 -0.2167 t 0.1333 -0.2167 q -0.6 -1.1 -1.5667 -1.8833 T 18.0667 14.3 l -2.3 -2.3 q 2.7333 0 5 1.4833 T 24 17.3333 q -0.2 0.5 -0.45 0.9667 T 22.9667 19.2 Z M 26.3667 30.1333 l -2.1333 -2.1333 H 6.6667 q -1.1 0 -1.8833 -0.7833 T 4 25.3333 v -17.5667 l -2.1333 -2.1667 1.8667 -1.8667 24.5333 24.5333 -1.9 1.8667 Z M 6.6667 25.3333 h 14.9 L 6.6667 10.4333 v 14.9 Z m 21.3333 -1.1 -2.6667 -2.6667 v -10.9 H 14.4333 L 7.7667 4 h 17.5667 q 1.1 0 1.8833 0.7833 T 28 6.6667 v 17.5667 Z"
     id="path1" />
</svg>
