<?xml version="1.0" encoding="UTF-8" standalone="no"?>
<svg
   height="24px"
   viewBox="0 0 16 16"
   width="24px"
   fill="#000000"
   version="1.1"
   id="svg1"
   sodipodi:docname="query-symbolic.svg"
   inkscape:version="1.4.2 (ebf0e940d0, 2025-05-08)"
   xmlns:inkscape="http://www.inkscape.org/namespaces/inkscape"
   xmlns:sodipodi="http://sodipodi.sourceforge.net/DTD/sodipodi-0.dtd"
   xmlns="http://www.w3.org/2000/svg"
   xmlns:svg="http://www.w3.org/2000/svg">
  <defs
     id="defs1" />
  <sodipodi:namedview
     id="namedview1"
     pagecolor="#ffffff"
     bordercolor="#000000"
     borderopacity="0.25"
     inkscape:showpageshadow="2"
     inkscape:pageopacity="0.0"
     inkscape:pagecheckerboard="0"
     inkscape:deskcolor="#d1d1d1"
     inkscape:zoom="36.916667"
     inkscape:cx="12"
     inkscape:cy="12"
     inkscape:window-width="3840"
     inkscape:window-height="2020"
     inkscape:window-x="0"
     inkscape:window-y="32"
     inkscape:window-maximized="1"
     inkscape:current-layer="svg1" />
  <path
     d="M 1.3334 13.6667 v -5.3334 h 5.3334 v 5.3334 H 1.3334 Z m 1.3334 -1.3334 h 2.6667 v -2.6667 H 2.6667 v 2.6667 Z m 1 -5.6666 3.6667 -6 3.6667 6 H 3.6667 Z m 2.3666 -1.3334 h 2.6 l -1.3 -2.1 -1.3 2.1 Z M 14.3834 15.3 12.6166 13.5334 q -0.35 0.2334 -0.7583 0.35 t -0.8583 0.1167 q -1.25 0 -2.125 -0.875 T 8 11 q 0 -1.25 0.875 -2.125 T 11 8 q 1.25 0 2.125 0.875 T 14 11 q 0 0.4334 -0.1167 0.8417 T 13.55 12.6 L 15.3166 14.3666 l -0.9334 0.9334 Z M 11 12.6667 q 0.7 0 1.1833 -0.4834 t 0.4834 -1.1833 q 0 -0.7 -0.4834 -1.1833 t -1.1833 -0.4834 q -0.7 0 -1.1833 0.4834 t -0.4834 1.1833 q 0 0.7 0.4834 1.1833 t 1.1833 0.4834 Z M 5.3334 9.6667 Z m 2 -4.3334 Z"
     id="path1" />
</svg>
