<?xml version="1.0" encoding="UTF-8" standalone="no"?>
<svg
   height="24px"
   viewBox="0 0 32 32"
   width="24px"
   fill="#000000"
   version="1.1"
   id="svg1"
   sodipodi:docname="query-symbolic.svg"
   inkscape:version="1.4.2 (ebf0e940d0, 2025-05-08)"
   xmlns:inkscape="http://www.inkscape.org/namespaces/inkscape"
   xmlns:sodipodi="http://sodipodi.sourceforge.net/DTD/sodipodi-0.dtd"
   xmlns="http://www.w3.org/2000/svg"
   xmlns:svg="http://www.w3.org/2000/svg">
  <defs
     id="defs1" />
  <sodipodi:namedview
     id="namedview1"
     pagecolor="#ffffff"
     bordercolor="#000000"
     borderopacity="0.25"
     inkscape:showpageshadow="2"
     inkscape:pageopacity="0.0"
     inkscape:pagecheckerboard="0"
     inkscape:deskcolor="#d1d1d1"
     inkscape:zoom="36.916667"
     inkscape:cx="12"
     inkscape:cy="12"
     inkscape:window-width="3840"
     inkscape:window-height="2020"
     inkscape:window-x="0"
     inkscape:window-y="32"
     inkscape:window-maximized="1"
     inkscape:current-layer="svg1" />
  <path
     d="M 2.6667 27.3333 v -10.6667 h 10.6667 v 10.6667 H 2.6667 Z m 2.6667 -2.6667 h 5.3333 v -5.3333 H 5.3333 v 5.3333 Z m 2 -11.3333 7.3333 -12 7.3333 12 H 7.3333 Z m 4.7333 -2.6667 h 5.2 l -2.6 -4.2 -2.6 4.2 Z M 28.7667 30.6 25.2333 27.0667 q -0.7 0.4667 -1.5167 0.7 t -1.7167 0.2333 q -2.5 0 -4.25 -1.75 T 16 22 q 0 -2.5 1.75 -4.25 T 22 16 q 2.5 0 4.25 1.75 T 28 22 q 0 0.8667 -0.2333 1.6833 T 27.1 25.2 L 30.6333 28.7333 l -1.8667 1.8667 Z M 22 25.3333 q 1.4 0 2.3667 -0.9667 t 0.9667 -2.3667 q 0 -1.4 -0.9667 -2.3667 t -2.3667 -0.9667 q -1.4 0 -2.3667 0.9667 t -0.9667 2.3667 q 0 1.4 0.9667 2.3667 t 2.3667 0.9667 Z M 10.6667 19.3333 Z m 4 -8.6667 Z"
     id="path1" />
</svg>
