<?xml version="1.0" encoding="UTF-8" standalone="no"?>
<svg
   height="24px"
   viewBox="0 0 24 24"
   width="24px"
   fill="#000000"
   version="1.1"
   id="svg1"
   sodipodi:docname="query-symbolic.svg"
   inkscape:version="1.4.2 (ebf0e940d0, 2025-05-08)"
   xmlns:inkscape="http://www.inkscape.org/namespaces/inkscape"
   xmlns:sodipodi="http://sodipodi.sourceforge.net/DTD/sodipodi-0.dtd"
   xmlns="http://www.w3.org/2000/svg"
   xmlns:svg="http://www.w3.org/2000/svg">
  <defs
     id="defs1" />
  <sodipodi:namedview
     id="namedview1"
     pagecolor="#ffffff"
     bordercolor="#000000"
     borderopacity="0.25"
     inkscape:showpageshadow="2"
     inkscape:pageopacity="0.0"
     inkscape:pagecheckerboard="0"
     inkscape:deskcolor="#d1d1d1"
     inkscape:zoom="36.916667"
     inkscape:cx="12"
     inkscape:cy="12"
     inkscape:window-width="3840"
     inkscape:window-height="2020"
     inkscape:window-x="0"
     inkscape:window-y="32"
     inkscape:window-maximized="1"
     inkscape:current-layer="svg1" />
  <path
     d="M 2.0001 20.5001 v -8.0001 h 8.0001 v 8.0001 H 2.0001 Z m 2.0001 -2.0001 h 4 v -4 H 4 v 4 Z m 1.5 -8.4999 5.5 -9 5.5 9 H 5.5 Z m 3.5499 -2.0001 h 3.9 l -1.95 -3.15 -1.95 3.15 Z M 21.5751 22.95 18.9249 20.3001 q -0.525 0.3501 -1.1374 0.525 t -1.2874 0.175 q -1.875 0 -3.1875 -1.3125 T 12 16.5 q 0 -1.875 1.3125 -3.1875 T 16.5 12 q 1.875 0 3.1875 1.3125 T 21 16.5 q 0 0.6501 -0.175 1.2626 T 20.325 18.9 L 22.9749 21.5499 l -1.4001 1.4001 Z M 16.5 19.0001 q 1.05 0 1.775 -0.7251 t 0.7251 -1.775 q 0 -1.05 -0.7251 -1.775 t -1.775 -0.7251 q -1.05 0 -1.775 0.7251 t -0.7251 1.775 q 0 1.05 0.7251 1.775 t 1.775 0.7251 Z M 8.0001 14.5001 Z m 3 -6.5001 Z"
     id="path1" />
</svg>
