<?xml version="1.0" encoding="UTF-8" standalone="no"?>
<svg
   height="24px"
   viewBox="0 0 24 24"
   width="24px"
   fill="#000000"
   version="1.1"
   id="svg1"
   xmlns="http://www.w3.org/2000/svg"
   xmlns:svg="http://www.w3.org/2000/svg">
  <defs
     id="defs1" />
  <path
     d="M 5 21 q -0.825 0 -1.4124 -0.5874 T 3 19.0001 v -4 h 2.0001 v 4 h 4 v 2.0001 H 5 Z m 13.9999 0 H 15 v -2.0001 h 4 v -4 h 2.0001 v 4 q 0 0.825 -0.5874 1.4124 T 19.0001 21 Z M 3 5 q 0 -0.825 0.5874 -1.4124 T 5 3 h 4 v 2.0001 H 5 v 4 h -2.0001 v -4 Z m 18 0 v 4 h -2.0001 v -4 H 15 v -2.0001 h 4 q 0.825 0 1.4124 0.5874 T 21 5 Z M 12 18 q 0.525 0 0.8876 -0.3625 T 13.2499 16.7501 q 0 -0.525 -0.3625 -0.8876 T 12 15.4999 q -0.525 0 -0.8876 0.3625 T 10.7499 16.7501 q 0 0.525 0.3625 0.8876 T 12 18 Z m -0.9 -3.825 h 1.825 q 0 -0.8499 0.2 -1.3001 t 0.8751 -1.125 q 0.8751 -0.8751 1.1625 -1.4124 T 15.45 9.0501 q 0 -1.35 -0.975 -2.2001 t -2.475 -0.8499 q -1.2501 0 -2.15 0.6501 t -1.3001 1.85 l 1.65 0.675 q 0.175 -0.6501 0.6624 -1.0626 T 12 7.7001 q 0.7251 0 1.1625 0.3876 T 13.5999 9.1251 q 0 0.5 -0.2374 0.9375 T 12.5499 10.975 q -0.825 0.7251 -1.1374 1.4001 T 11.1 14.175 Z"
     id="path1" />
</svg>
