<?xml version="1.0" encoding="UTF-8" standalone="no"?>
<svg
   height="24px"
   viewBox="0 0 32 32"
   width="24px"
   fill="#000000"
   version="1.1"
   id="svg1"
   xmlns="http://www.w3.org/2000/svg"
   xmlns:svg="http://www.w3.org/2000/svg">
  <defs
     id="defs1" />
  <path
     d="M 14.1333 21.3333 q 0 -2.7 0.4833 -3.8833 T 16.6667 14.8667 q 1.3667 -1.2 2.0833 -2.0833 T 19.4667 10.7667 q 0 -1.3667 -0.9167 -2.2667 T 16 7.6 q -1.7 0 -2.5833 1.0333 T 12.1667 10.7333 l -3.4333 -1.4667 q 0.7 -2.1333 2.5667 -3.7 t 4.7 -1.5667 q 3.5 0 5.3833 1.95 T 23.2667 10.6333 q 0 1.6667 -0.7167 2.85 T 20.3 16.1667 q -1.6333 1.5667 -1.9833 2.3833 T 17.9667 21.3333 H 14.1333 Z m 1.8667 8 q -1.1 0 -1.8833 -0.7833 T 13.3333 26.6667 q 0 -1.1 0.7833 -1.8833 T 16 24 q 1.1 0 1.8833 0.7833 T 18.6667 26.6667 q 0 1.1 -0.7833 1.8833 T 16 29.3333 Z"
     id="path1" />
</svg>
