<?xml version="1.0" encoding="UTF-8" standalone="no"?>
<svg
   height="24px"
   viewBox="0 0 16 16"
   width="24px"
   fill="#000000"
   version="1.1"
   id="svg1"
   xmlns="http://www.w3.org/2000/svg"
   xmlns:svg="http://www.w3.org/2000/svg">
  <defs
     id="defs1" />
  <path
     d="M 3.3333 14 q -0.55 0 -0.9416 -0.3916 T 2 12.6667 v -2.6667 h 1.3334 v 2.6667 h 2.6667 v 1.3334 H 3.3333 Z m 9.3333 0 H 10 v -1.3334 h 2.6667 v -2.6667 h 1.3334 v 2.6667 q 0 0.55 -0.3916 0.9416 T 12.6667 14 Z M 2 3.3333 q 0 -0.55 0.3916 -0.9416 T 3.3333 2 h 2.6667 v 1.3334 H 3.3333 v 2.6667 h -1.3334 v -2.6667 Z m 12 0 v 2.6667 h -1.3334 v -2.6667 H 10 v -1.3334 h 2.6667 q 0.55 0 0.9416 0.3916 T 14 3.3333 Z M 8 12 q 0.35 0 0.5917 -0.2417 T 8.8333 11.1667 q 0 -0.35 -0.2417 -0.5917 T 8 10.3333 q -0.35 0 -0.5917 0.2417 T 7.1666 11.1667 q 0 0.35 0.2417 0.5917 T 8 12 Z m -0.6 -2.55 h 1.2167 q 0 -0.5666 0.1333 -0.8667 t 0.5834 -0.75 q 0.5834 -0.5834 0.775 -0.9416 T 10.3 6.0334 q 0 -0.9 -0.65 -1.4667 t -1.65 -0.5666 q -0.8334 0 -1.4333 0.4334 t -0.8667 1.2333 l 1.1 0.45 q 0.1167 -0.4334 0.4416 -0.7084 T 8 5.1334 q 0.4834 0 0.775 0.2584 T 9.0666 6.0834 q 0 0.3333 -0.1583 0.625 T 8.3666 7.3167 q -0.55 0.4834 -0.7583 0.9334 T 7.4 9.45 Z"
     id="path1" />
</svg>
