<?xml version="1.0" encoding="UTF-8" standalone="no"?>
<svg
   height="24px"
   viewBox="0 0 16 16"
   width="24px"
   fill="#000000"
   version="1.1"
   id="svg1"
   xmlns="http://www.w3.org/2000/svg"
   xmlns:svg="http://www.w3.org/2000/svg">
  <defs
     id="defs1" />
  <path
     d="M 7.0667 10.6667 q 0 -1.35 0.2417 -1.9417 T 8.3333 7.4333 q 0.6834 -0.6 1.0416 -1.0416 T 9.7333 5.3834 q 0 -0.6834 -0.4583 -1.1334 T 8 3.8 q -0.85 0 -1.2916 0.5167 T 6.0834 5.3666 l -1.7167 -0.7333 q 0.35 -1.0667 1.2833 -1.85 t 2.35 -0.7833 q 1.75 0 2.6917 0.975 T 11.6334 5.3167 q 0 0.8334 -0.3584 1.425 T 10.15 8.0833 q -0.8166 0.7833 -0.9917 1.1917 T 8.9833 10.6667 H 7.0667 Z m 0.9334 4 q -0.55 0 -0.9416 -0.3916 T 6.6666 13.3333 q 0 -0.55 0.3916 -0.9416 T 8 12 q 0.55 0 0.9416 0.3916 T 9.3333 13.3333 q 0 0.55 -0.3916 0.9416 T 8 14.6667 Z"
     id="path1" />
</svg>
