<?xml version="1.0" encoding="UTF-8" standalone="no"?>
<svg
   height="24px"
   viewBox="0 0 24 24"
   width="24px"
   fill="#000000"
   version="1.1"
   id="svg1"
   xmlns="http://www.w3.org/2000/svg"
   xmlns:svg="http://www.w3.org/2000/svg">
  <defs
     id="defs1" />
  <path
     d="M 10.6 16.0001 q 0 -2.025 0.3625 -2.9125 T 12.4999 11.15 q 1.0251 -0.9 1.5624 -1.5624 T 14.5999 8.0751 q 0 -1.0251 -0.6875 -1.7001 T 12 5.7 q -1.275 0 -1.9374 0.7751 T 9.1251 8.0499 l -2.5751 -1.0999 q 0.525 -1.6 1.925 -2.775 t 3.525 -1.1749 q 2.625 0 4.0375 1.4625 T 17.4501 7.975 q 0 1.2501 -0.5376 2.1375 T 15.225 12.1249 q -1.2249 1.1749 -1.4876 1.7875 T 13.4749 16.0001 H 10.6 Z m 1.4001 6 q -0.825 0 -1.4124 -0.5874 T 9.9999 19.9999 q 0 -0.825 0.5874 -1.4124 T 12 18 q 0.825 0 1.4124 0.5874 T 13.9999 19.9999 q 0 0.825 -0.5874 1.4124 T 12 22.0001 Z"
     id="path1" />
</svg>
