<?xml version="1.0" encoding="UTF-8" standalone="no"?>
<svg
   height="24px"
   viewBox="0 0 32 32"
   width="24px"
   fill="#000000"
   version="1.1"
   id="svg1"
   xmlns="http://www.w3.org/2000/svg"
   xmlns:svg="http://www.w3.org/2000/svg">
  <defs
     id="defs1" />
  <path
     d="M 6.6667 28 q -1.1 0 -1.8833 -0.7833 T 4 25.3333 v -5.3333 h 2.6667 v 5.3333 h 5.3333 v 2.6667 H 6.6667 Z m 18.6667 0 H 20 v -2.6667 h 5.3333 v -5.3333 h 2.6667 v 5.3333 q 0 1.1 -0.7833 1.8833 T 25.3333 28 Z M 4 6.6667 q 0 -1.1 0.7833 -1.8833 T 6.6667 4 h 5.3333 v 2.6667 H 6.6667 v 5.3333 h -2.6667 v -5.3333 Z m 24 0 v 5.3333 h -2.6667 v -5.3333 H 20 v -2.6667 h 5.3333 q 1.1 0 1.8833 0.7833 T 28 6.6667 Z M 16 24 q 0.7 0 1.1833 -0.4833 T 17.6667 22.3333 q 0 -0.7 -0.4833 -1.1833 T 16 20.6667 q -0.7 0 -1.1833 0.4833 T 14.3333 22.3333 q 0 0.7 0.4833 1.1833 T 16 24 Z m -1.2 -5.1 h 2.4333 q 0 -1.1333 0.2667 -1.7333 t 1.1667 -1.5 q 1.1667 -1.1667 1.55 -1.8833 T 20.6 12.0667 q 0 -1.8 -1.3 -2.9333 t -3.3 -1.1333 q -1.6667 0 -2.8667 0.8667 t -1.7333 2.4667 l 2.2 0.9 q 0.2333 -0.8667 0.8833 -1.4167 T 16 10.2667 q 0.9667 0 1.55 0.5167 T 18.1333 12.1667 q 0 0.6667 -0.3167 1.25 T 16.7333 14.6333 q -1.1 0.9667 -1.5167 1.8667 T 14.8 18.9 Z"
     id="path1" />
</svg>
