<?xml version="1.0" encoding="UTF-8" standalone="no"?>
<svg
   height="24px"
   viewBox="0 0 32 32"
   width="24px"
   fill="#000000"
   version="1.1"
   id="svg1"
   xmlns="http://www.w3.org/2000/svg"
   xmlns:svg="http://www.w3.org/2000/svg">
  <defs
     id="defs1" />
  <path
     d="M 11.3333 14.6667 q 1.4 0 2.3667 -0.9667 t 0.9667 -2.3667 v -3.3333 H 8 v 3.3333 q 0 1.4 0.9667 2.3667 t 2.3667 0.9667 Z M 8 24 h 6.6667 v -3.3333 q 0 -1.4 -0.9667 -2.3667 t -2.3667 -0.9667 q -1.4 0 -2.3667 0.9667 t -0.9667 2.3667 v 3.3333 Z m -4.6667 2.6667 v -2.6667 h 2 v -3.3333 q 0 -1.4 0.6 -2.6 t 1.6667 -2.0667 q -1.0667 -0.8667 -1.6667 -2.0667 t -0.6 -2.6 v -3.3333 h -2 v -2.6667 h 16 v 2.6667 h -2 v 3.3333 q 0 1.4 -0.6 2.6 t -1.6667 2.0667 q 1.0667 0.8667 1.6667 2.0667 t 0.6 2.6 v 3.3333 h 2 v 2.6667 H 3.3333 Z m 22.6667 0 L 21.3333 22 l 1.9 -1.8667 1.4333 1.4333 v -16.2333 h 2.6667 v 16.2667 l 1.4667 -1.4667 1.8667 1.8667 -4.6667 4.6667 Z M 11.3333 8 Z m 0 16 Z"
     id="path1" />
</svg>
