<?xml version="1.0" encoding="UTF-8" standalone="no"?>
<svg
   height="24px"
   viewBox="0 0 16 16"
   width="24px"
   fill="#000000"
   version="1.1"
   id="svg1"
   xmlns="http://www.w3.org/2000/svg"
   xmlns:svg="http://www.w3.org/2000/svg">
  <defs
     id="defs1" />
  <path
     d="M 5.6666 7.3334 q 0.7 0 1.1833 -0.4834 t 0.4834 -1.1833 v -1.6666 H 4 v 1.6666 q 0 0.7 0.4834 1.1833 t 1.1833 0.4834 Z M 4 12 h 3.3333 v -1.6666 q 0 -0.7 -0.4834 -1.1833 t -1.1833 -0.4834 q -0.7 0 -1.1833 0.4834 t -0.4834 1.1833 v 1.6666 Z m -2.3333 1.3334 v -1.3334 h 1 v -1.6666 q 0 -0.7 0.3 -1.3 t 0.8334 -1.0333 q -0.5333 -0.4334 -0.8334 -1.0333 t -0.3 -1.3 v -1.6666 h -1 v -1.3334 h 8 v 1.3334 h -1 v 1.6666 q 0 0.7 -0.3 1.3 t -0.8334 1.0333 q 0.5333 0.4334 0.8334 1.0333 t 0.3 1.3 v 1.6666 h 1 v 1.3334 H 1.6666 Z m 11.3333 0 L 10.6667 11 l 0.95 -0.9334 0.7167 0.7167 v -8.1166 h 1.3334 v 8.1334 l 0.7333 -0.7333 0.9334 0.9334 -2.3333 2.3333 Z M 5.6666 4 Z m 0 8 Z"
     id="path1" />
</svg>
