<?xml version="1.0" encoding="UTF-8" standalone="no"?>
<svg
   height="24px"
   viewBox="0 0 24 24"
   width="24px"
   fill="#000000"
   version="1.1"
   id="svg1"
   xmlns="http://www.w3.org/2000/svg"
   xmlns:svg="http://www.w3.org/2000/svg">
  <defs
     id="defs1" />
  <path
     d="M 8.4999 11.0001 q 1.05 0 1.775 -0.7251 t 0.7251 -1.775 v -2.4999 H 6 v 2.4999 q 0 1.05 0.7251 1.775 t 1.775 0.7251 Z M 6 18 h 5 v -2.4999 q 0 -1.05 -0.7251 -1.775 t -1.775 -0.7251 q -1.05 0 -1.775 0.7251 t -0.7251 1.775 v 2.4999 Z m -3.5 2.0001 v -2.0001 h 1.5 v -2.4999 q 0 -1.05 0.45 -1.95 t 1.2501 -1.55 q -0.7999 -0.6501 -1.2501 -1.55 t -0.45 -1.95 v -2.4999 h -1.5 v -2.0001 h 12 v 2.0001 h -1.5 v 2.4999 q 0 1.05 -0.45 1.95 t -1.2501 1.55 q 0.7999 0.6501 1.2501 1.55 t 0.45 1.95 v 2.4999 h 1.5 v 2.0001 H 2.4999 Z m 16.9999 0 L 16.0001 16.5 l 1.425 -1.4001 1.0751 1.0751 v -12.1749 h 2.0001 v 12.2001 l 1.0999 -1.0999 1.4001 1.4001 -3.5 3.5 Z M 8.4999 6 Z m 0 12 Z"
     id="path1" />
</svg>
