<?xml version="1.0" encoding="UTF-8" standalone="no"?>
<svg
   height="24px"
   viewBox="0 0 24 24"
   width="24px"
   fill="#000000"
   version="1.1"
   id="svg1"
   sodipodi:docname="recipe-symbolic.svg"
   inkscape:version="1.4.2 (ebf0e940d0, 2025-05-08)"
   xmlns:inkscape="http://www.inkscape.org/namespaces/inkscape"
   xmlns:sodipodi="http://sodipodi.sourceforge.net/DTD/sodipodi-0.dtd"
   xmlns="http://www.w3.org/2000/svg"
   xmlns:svg="http://www.w3.org/2000/svg">
  <defs
     id="defs1" />
  <sodipodi:namedview
     id="namedview1"
     pagecolor="#ffffff"
     bordercolor="#000000"
     borderopacity="0.25"
     inkscape:showpageshadow="2"
     inkscape:pageopacity="0.0"
     inkscape:pagecheckerboard="0"
     inkscape:deskcolor="#d1d1d1"
     inkscape:zoom="36.916667"
     inkscape:cx="12"
     inkscape:cy="12"
     inkscape:window-width="3840"
     inkscape:window-height="2020"
     inkscape:window-x="0"
     inkscape:window-y="32"
     inkscape:window-maximized="1"
     inkscape:current-layer="svg1" />
  <path
     d="M 9 13.9999 h 2.0001 v -5 h -2.0001 v 5 Z m -4 -1.5 q -1.1501 -0.5751 -1.825 -1.6625 T 2.4999 8.475 q 0 -1.875 1.2874 -3.1749 T 6.9501 4 q 0.3 0 0.6124 0.05 t 0.6124 0.125 q 0.625 -1.0251 1.6251 -1.6 t 2.2001 -0.5751 q 1.2 0 2.2001 0.5751 t 1.6251 1.6 q 0.3 -0.075 0.6 -0.125 t 0.625 -0.05 q 1.875 0 3.1626 1.3001 T 21.4999 8.475 q 0 1.275 -0.675 2.3625 T 19.0001 12.4999 v 5.5 H 5 v -5.5 Z m 8.0001 1.5 h 2.0001 v -5 h -2.0001 v 5 Z m -6 2.0001 h 9.9999 v -4.725 l 1.0999 -0.5499 q 0.6501 -0.3251 1.0251 -0.9124 t 0.375 -1.3125 q 0 -1.05 -0.7125 -1.775 T 17.0499 6 q -0.2751 0 -0.5 0.05 t -0.4749 0.125 l -1.1749 0.3251 -0.7751 -1.3001 q -0.3501 -0.5751 -0.9124 -0.8876 T 12 4 q -0.6501 0 -1.2126 0.3126 T 9.8751 5.2001 l -0.7751 1.3001 -1.2 -0.3251 q -0.2499 -0.05 -0.4875 -0.1125 T 6.9249 6 q -1.0251 0 -1.725 0.7251 t -0.7001 1.775 q 0 0.7251 0.375 1.3125 t 1.0251 0.9124 l 1.0999 0.5499 v 4.725 Z m -2.0001 2.0001 h 2.0001 v 2.0001 h 9.9999 v -2.0001 h 2.0001 v 4 H 5 v -4 Z m 6.9999 -2.0001 Z"
     id="path1" />
</svg>
