<?xml version="1.0" encoding="UTF-8" standalone="no"?>
<svg
   height="24px"
   viewBox="0 0 32 32"
   width="24px"
   fill="#000000"
   version="1.1"
   id="svg1"
   sodipodi:docname="recipe-symbolic.svg"
   inkscape:version="1.4.2 (ebf0e940d0, 2025-05-08)"
   xmlns:inkscape="http://www.inkscape.org/namespaces/inkscape"
   xmlns:sodipodi="http://sodipodi.sourceforge.net/DTD/sodipodi-0.dtd"
   xmlns="http://www.w3.org/2000/svg"
   xmlns:svg="http://www.w3.org/2000/svg">
  <defs
     id="defs1" />
  <sodipodi:namedview
     id="namedview1"
     pagecolor="#ffffff"
     bordercolor="#000000"
     borderopacity="0.25"
     inkscape:showpageshadow="2"
     inkscape:pageopacity="0.0"
     inkscape:pagecheckerboard="0"
     inkscape:deskcolor="#d1d1d1"
     inkscape:zoom="36.916667"
     inkscape:cx="12"
     inkscape:cy="12"
     inkscape:window-width="3840"
     inkscape:window-height="2020"
     inkscape:window-x="0"
     inkscape:window-y="32"
     inkscape:window-maximized="1"
     inkscape:current-layer="svg1" />
  <path
     d="M 12 18.6667 h 2.6667 v -6.6667 h -2.6667 v 6.6667 Z m -5.3333 -2 q -1.5333 -0.7667 -2.4333 -2.2167 T 3.3333 11.3 q 0 -2.5 1.7167 -4.2333 T 9.2667 5.3333 q 0.4 0 0.8167 0.0667 t 0.8167 0.1667 q 0.8333 -1.3667 2.1667 -2.1333 t 2.9333 -0.7667 q 1.6 0 2.9333 0.7667 t 2.1667 2.1333 q 0.4 -0.1 0.8 -0.1667 t 0.8333 -0.0667 q 2.5 0 4.2167 1.7333 T 28.6667 11.3 q 0 1.7 -0.9 3.15 T 25.3333 16.6667 v 7.3333 H 6.6667 v -7.3333 Z m 10.6667 2 h 2.6667 v -6.6667 h -2.6667 v 6.6667 Z m -8 2.6667 h 13.3333 v -6.3 l 1.4667 -0.7333 q 0.8667 -0.4333 1.3667 -1.2167 t 0.5 -1.75 q 0 -1.4 -0.95 -2.3667 T 22.7333 8 q -0.3667 0 -0.6667 0.0667 t -0.6333 0.1667 l -1.5667 0.4333 -1.0333 -1.7333 q -0.4667 -0.7667 -1.2167 -1.1833 T 16 5.3333 q -0.8667 0 -1.6167 0.4167 T 13.1667 6.9333 l -1.0333 1.7333 -1.6 -0.4333 q -0.3333 -0.0667 -0.65 -0.15 T 9.2333 8 q -1.3667 0 -2.3 0.9667 t -0.9333 2.3667 q 0 0.9667 0.5 1.75 t 1.3667 1.2167 l 1.4667 0.7333 v 6.3 Z m -2.6667 2.6667 h 2.6667 v 2.6667 h 13.3333 v -2.6667 h 2.6667 v 5.3333 H 6.6667 v -5.3333 Z m 9.3333 -2.6667 Z"
     id="path1" />
</svg>
