<?xml version="1.0" encoding="UTF-8" standalone="no"?>
<svg
   height="24px"
   viewBox="0 0 16 16"
   width="24px"
   fill="#000000"
   version="1.1"
   id="svg1"
   sodipodi:docname="recipe-symbolic.svg"
   inkscape:version="1.4.2 (ebf0e940d0, 2025-05-08)"
   xmlns:inkscape="http://www.inkscape.org/namespaces/inkscape"
   xmlns:sodipodi="http://sodipodi.sourceforge.net/DTD/sodipodi-0.dtd"
   xmlns="http://www.w3.org/2000/svg"
   xmlns:svg="http://www.w3.org/2000/svg">
  <defs
     id="defs1" />
  <sodipodi:namedview
     id="namedview1"
     pagecolor="#ffffff"
     bordercolor="#000000"
     borderopacity="0.25"
     inkscape:showpageshadow="2"
     inkscape:pageopacity="0.0"
     inkscape:pagecheckerboard="0"
     inkscape:deskcolor="#d1d1d1"
     inkscape:zoom="36.916667"
     inkscape:cx="12"
     inkscape:cy="12"
     inkscape:window-width="3840"
     inkscape:window-height="2020"
     inkscape:window-x="0"
     inkscape:window-y="32"
     inkscape:window-maximized="1"
     inkscape:current-layer="svg1" />
  <path
     d="M 6 9.3333 h 1.3334 v -3.3333 h -1.3334 v 3.3333 Z m -2.6667 -1 q -0.7667 -0.3834 -1.2167 -1.1083 T 1.6666 5.65 q 0 -1.25 0.8583 -2.1166 T 4.6334 2.6667 q 0.2 0 0.4083 0.0333 t 0.4083 0.0833 q 0.4167 -0.6834 1.0834 -1.0667 t 1.4667 -0.3834 q 0.8 0 1.4667 0.3834 t 1.0834 1.0667 q 0.2 -0.05 0.4 -0.0833 t 0.4167 -0.0333 q 1.25 0 2.1084 0.8667 T 14.3333 5.65 q 0 0.85 -0.45 1.575 T 12.6667 8.3333 v 3.6667 H 3.3333 v -3.6667 Z m 5.3334 1 h 1.3334 v -3.3333 h -1.3334 v 3.3333 Z m -4 1.3334 h 6.6666 v -3.15 l 0.7333 -0.3666 q 0.4334 -0.2167 0.6834 -0.6083 t 0.25 -0.875 q 0 -0.7 -0.475 -1.1833 T 11.3666 4 q -0.1834 0 -0.3333 0.0333 t -0.3166 0.0833 l -0.7833 0.2167 -0.5167 -0.8667 q -0.2334 -0.3834 -0.6083 -0.5917 T 8 2.6667 q -0.4334 0 -0.8084 0.2084 T 6.5834 3.4667 l -0.5167 0.8667 -0.8 -0.2167 q -0.1666 -0.0333 -0.325 -0.075 T 4.6166 4 q -0.6834 0 -1.15 0.4834 t -0.4667 1.1833 q 0 0.4834 0.25 0.875 t 0.6834 0.6083 l 0.7333 0.3666 v 3.15 Z m -1.3334 1.3334 h 1.3334 v 1.3334 h 6.6666 v -1.3334 h 1.3334 v 2.6667 H 3.3333 v -2.6667 Z m 4.6666 -1.3334 Z"
     id="path1" />
</svg>
