<?xml version="1.0" encoding="UTF-8" standalone="no"?>
<svg
   height="24px"
   viewBox="0 0 24 24"
   width="24px"
   fill="#000000"
   version="1.1"
   id="svg1"
   xmlns="http://www.w3.org/2000/svg"
   xmlns:svg="http://www.w3.org/2000/svg">
  <defs
     id="defs1" />
  <path
     d="m 4 21 v -2.0001 h 2.35 c -1.0333 -0.8333 -1.85 -1.8541 -2.4501 -3.0625 -0.6 -1.2083 -0.9 -2.5208 -0.9 -3.9375 0 -1.2501 0.2374 -2.4208 0.7125 -3.5126 0.4749 -1.0917 1.1166 -2.0416 1.925 -2.85 0.8084 -0.8084 1.7583 -1.4501 2.85 -1.925 1.0917 -0.4749 2.2626 -0.7125 3.5126 -0.7125 2.15 0 4.0375 0.6624 5.6625 1.9875 1.6251 1.3249 2.6625 2.9958 3.1125 5.0126 h -2.0751 c -0.4334 -1.4667 -1.2584 -2.6667 -2.475 -3.6 -1.2167 -0.9333 -2.625 -1.4001 -4.225 -1.4001 -1.95 0 -3.6042 0.6792 -4.9625 2.0375 -1.3582 1.3582 -2.0375 3.0126 -2.0375 4.9625 0 1.2 0.2707 2.2999 0.8124 3.3 0.5416 0.9999 1.2708 1.8167 2.1876 2.4501 v -2.7501 h 2.0001 v 6 z m 9.5001 0.9999 c -0.4167 0 -0.7709 -0.1458 -1.0626 -0.4375 C 12.1458 21.2709 12 20.9166 12 20.5001 v -6.9999 c 0 -0.4167 0.1458 -0.7709 0.4375 -1.0626 0.2918 -0.2918 0.6458 -0.4375 1.0626 -0.4375 h 6.9999 c 0.4167 0 0.7709 0.1458 1.0626 0.4375 0.2918 0.2918 0.4375 0.6458 0.4375 1.0626 v 6.9999 c 0 0.4167 -0.1458 0.7709 -0.4375 1.0626 C 21.2709 21.8541 20.9166 22.0001 20.5001 22.0001 Z m 0.5 -2.0001 H 19.9999 V 13.9932 H 13.9999 Z"
     id="path1" />
</svg>
