<?xml version="1.0" encoding="UTF-8" standalone="no"?>
<svg
   height="24px"
   viewBox="0 0 32 32"
   width="24px"
   fill="#000000"
   version="1.1"
   id="svg1"
   xmlns="http://www.w3.org/2000/svg"
   xmlns:svg="http://www.w3.org/2000/svg">
  <defs
     id="defs1" />
  <path
     d="m 5.3333 28 v -2.6667 h 3.1333 c -1.3778 -1.1111 -2.4667 -2.4722 -3.2667 -4.0833 -0.8 -1.6111 -1.2 -3.3611 -1.2 -5.25 0 -1.6667 0.3167 -3.2278 0.95 -4.6833 0.6333 -1.4556 1.4889 -2.7222 2.5667 -3.8 1.0778 -1.0778 2.3444 -1.9333 3.8 -2.5667 1.4556 -0.6333 3.0167 -0.95 4.6833 -0.95 2.8667 0 5.3833 0.8833 7.55 2.65 2.1667 1.7667 3.55 3.9944 4.15 6.6833 h -2.7667 c -0.5778 -1.9556 -1.6778 -3.5556 -3.3 -4.8 -1.6222 -1.2444 -3.5 -1.8667 -5.6333 -1.8667 -2.6 0 -4.8056 0.9056 -6.6167 2.7167 -1.8111 1.8111 -2.7167 4.0167 -2.7167 6.6167 0 1.6 0.3611 3.0667 1.0833 4.4 0.7222 1.3333 1.6944 2.4222 2.9167 3.2667 v -3.6667 h 2.6667 v 8 z m 12.6667 1.3333 c -0.5556 0 -1.0278 -0.1944 -1.4167 -0.5833 C 16.1944 28.3611 16 27.8889 16 27.3333 v -9.3333 c 0 -0.5556 0.1944 -1.0278 0.5833 -1.4167 0.3889 -0.3889 0.8611 -0.5833 1.4167 -0.5833 h 9.3333 c 0.5556 0 1.0278 0.1944 1.4167 0.5833 0.3889 0.3889 0.5833 0.8611 0.5833 1.4167 v 9.3333 c 0 0.5556 -0.1944 1.0278 -0.5833 1.4167 C 28.3611 29.1389 27.8889 29.3333 27.3333 29.3333 Z m 0.6667 -2.6667 H 26.6667 V 18.6576 H 18.6667 Z"
     id="path1" />
</svg>
