<?xml version="1.0" encoding="UTF-8" standalone="no"?>
<svg
   height="24px"
   viewBox="0 0 16 16"
   width="24px"
   fill="#000000"
   version="1.1"
   id="svg1"
   xmlns="http://www.w3.org/2000/svg"
   xmlns:svg="http://www.w3.org/2000/svg">
  <defs
     id="defs1" />
  <path
     d="m 2.6667 14 v -1.3334 h 1.5667 c -0.6889 -0.5555 -1.2333 -1.2361 -1.6334 -2.0417 -0.4 -0.8055 -0.6 -1.6805 -0.6 -2.625 0 -0.8334 0.1583 -1.6139 0.475 -2.3417 0.3166 -0.7278 0.7444 -1.3611 1.2833 -1.9 0.5389 -0.5389 1.1722 -0.9667 1.9 -1.2833 0.7278 -0.3166 1.5084 -0.475 2.3417 -0.475 1.4333 0 2.6917 0.4416 3.775 1.325 1.0834 0.8833 1.775 1.9972 2.075 3.3417 h -1.3834 c -0.2889 -0.9778 -0.8389 -1.7778 -1.65 -2.4 -0.8111 -0.6222 -1.75 -0.9334 -2.8167 -0.9334 -1.3 0 -2.4028 0.4528 -3.3083 1.3583 -0.9055 0.9055 -1.3583 2.0084 -1.3583 3.3083 0 0.8 0.1805 1.5333 0.5416 2.2 0.3611 0.6666 0.8472 1.2111 1.4584 1.6334 v -1.8334 h 1.3334 v 4 z m 6.3334 0.6666 c -0.2778 0 -0.5139 -0.0972 -0.7084 -0.2917 C 8.0972 14.1806 8 13.9444 8 13.6667 v -4.6666 c 0 -0.2778 0.0972 -0.5139 0.2917 -0.7084 0.1945 -0.1945 0.4305 -0.2917 0.7084 -0.2917 h 4.6666 c 0.2778 0 0.5139 0.0972 0.7084 0.2917 0.1945 0.1945 0.2917 0.4305 0.2917 0.7084 v 4.6666 c 0 0.2778 -0.0972 0.5139 -0.2917 0.7084 C 14.1806 14.5694 13.9444 14.6667 13.6667 14.6667 Z m 0.3333 -1.3334 H 13.3333 V 9.3288 H 9.3333 Z"
     id="path1" />
</svg>
