<?xml version="1.0" encoding="UTF-8" standalone="no"?>
<svg
   height="24px"
   viewBox="0 0 24 24"
   width="24px"
   fill="#000000"
   version="1.1"
   id="svg1"
   xmlns="http://www.w3.org/2000/svg"
   xmlns:svg="http://www.w3.org/2000/svg">
  <defs
     id="defs1" />
  <path
     d="M 5 21 q -0.825 0 -1.4124 -0.5874 T 3 19.0001 v -13.9999 q 0 -0.825 0.5874 -1.4124 T 5 3 h 12 l 4 4 v 5.2999 q -0.4749 -0.2 -0.9874 -0.2625 t -1.0125 0.0124 v -4.225 L 16.1751 5 H 5 v 13.9999 h 6 v 2.0001 H 5 Z m 0 -16.0001 v 13.9999 -13.9999 Z M 13.0001 22.9999 v -3.075 l 5.525 -5.5 q 0.225 -0.225 0.5 -0.3251 t 0.5499 -0.1001 q 0.3 0 0.5751 0.1125 t 0.5 0.3375 l 0.9251 0.9251 q 0.2 0.225 0.3126 0.5 t 0.1125 0.5499 q 0 0.2751 -0.1001 0.5625 T 21.5751 17.5001 L 16.0749 22.9999 H 13.0001 Z m 7.5 -6.5751 -0.9251 -0.9251 0.9251 0.9251 Z M 14.5001 21.4999 h 0.9499 l 3.0249 -3.0499 -0.45 -0.4749 -0.4749 -0.45 -3.0499 3.0249 v 0.9499 Z m 3.525 -3.525 -0.4749 -0.45 0.9251 0.9251 -0.45 -0.4749 Z M 6 9.9999 h 9 v -4 H 6 v 4 Z m 6 8.0001 h 0.1001 l 2.9 -2.8749 v -0.125 q 0 -1.2501 -0.8751 -2.1249 t -2.1249 -0.8751 q -1.2501 0 -2.1249 0.8751 t -0.8751 2.1249 q 0 1.2501 0.8751 2.1249 t 2.1249 0.8751 Z"
     id="path1" />
</svg>
