<?xml version="1.0" encoding="UTF-8" standalone="no"?>
<svg
   height="24px"
   viewBox="0 0 24 24"
   width="24px"
   fill="#000000"
   version="1.1"
   id="svg1"
   xmlns="http://www.w3.org/2000/svg"
   xmlns:svg="http://www.w3.org/2000/svg">
  <defs
     id="defs1" />
  <path
     d="M 21 6.9999 v 12 q 0 0.825 -0.5874 1.4124 T 19.0001 21 H 5 q -0.825 0 -1.4124 -0.5874 T 3 19.0001 v -13.9999 q 0 -0.825 0.5874 -1.4124 T 5 3 h 12 l 4 4 Z m -2.0001 0.8499 L 16.1501 5 H 5 v 13.9999 h 13.9999 v -11.15 Z M 12 18 q 1.2501 0 2.1249 -0.8751 t 0.8751 -2.1249 q 0 -1.2501 -0.8751 -2.1249 t -2.1249 -0.8751 q -1.2501 0 -2.1249 0.8751 t -0.8751 2.1249 q 0 1.2501 0.8751 2.1249 t 2.1249 0.8751 Z M 6 9.9999 h 9 v -4 H 6 v 4 Z m -0.9999 -2.15 v 11.15 -13.9999 2.85 Z"
     id="path1" />
</svg>
