<?xml version="1.0" encoding="UTF-8" standalone="no"?>
<svg
   height="24px"
   viewBox="0 0 16 16"
   width="24px"
   fill="#000000"
   version="1.1"
   id="svg1"
   xmlns="http://www.w3.org/2000/svg"
   xmlns:svg="http://www.w3.org/2000/svg">
  <defs
     id="defs1" />
  <path
     d="M 14 4.6666 v 8 q 0 0.55 -0.3916 0.9416 T 12.6667 14 H 3.3333 q -0.55 0 -0.9416 -0.3916 T 2 12.6667 v -9.3333 q 0 -0.55 0.3916 -0.9416 T 3.3333 2 h 8 l 2.6667 2.6667 Z m -1.3334 0.5666 L 10.7667 3.3333 H 3.3333 v 9.3333 h 9.3333 v -7.4333 Z M 8 12 q 0.8334 0 1.4166 -0.5834 t 0.5834 -1.4166 q 0 -0.8334 -0.5834 -1.4166 t -1.4166 -0.5834 q -0.8334 0 -1.4166 0.5834 t -0.5834 1.4166 q 0 0.8334 0.5834 1.4166 t 1.4166 0.5834 Z M 4 6.6666 h 6 v -2.6667 H 4 v 2.6667 Z m -0.6666 -1.4333 v 7.4333 -9.3333 1.9 Z"
     id="path1" />
</svg>
