<?xml version="1.0" encoding="UTF-8" standalone="no"?>
<svg
   height="24px"
   viewBox="0 0 32 32"
   width="24px"
   fill="#000000"
   version="1.1"
   id="svg1"
   xmlns="http://www.w3.org/2000/svg"
   xmlns:svg="http://www.w3.org/2000/svg">
  <defs
     id="defs1" />
  <path
     d="M 6.6667 28 q -1.1 0 -1.8833 -0.7833 T 4 25.3333 v -18.6667 q 0 -1.1 0.7833 -1.8833 T 6.6667 4 h 16 l 5.3333 5.3333 v 7.0667 q -0.6333 -0.2667 -1.3167 -0.35 t -1.35 0.0167 v -5.6333 L 21.5667 6.6667 H 6.6667 v 18.6667 h 8 v 2.6667 H 6.6667 Z m 0 -21.3333 v 18.6667 -18.6667 Z M 17.3333 30.6667 v -4.1 l 7.3667 -7.3333 q 0.3 -0.3 0.6667 -0.4333 t 0.7333 -0.1333 q 0.4 0 0.7667 0.15 t 0.6667 0.45 l 1.2333 1.2333 q 0.2667 0.3 0.4167 0.6667 t 0.15 0.7333 q 0 0.3667 -0.1333 0.75 T 28.7667 23.3333 L 21.4333 30.6667 H 17.3333 Z m 10 -8.7667 -1.2333 -1.2333 1.2333 1.2333 Z M 19.3333 28.6667 h 1.2667 l 4.0333 -4.0667 -0.6 -0.6333 -0.6333 -0.6 -4.0667 4.0333 v 1.2667 Z m 4.7 -4.7 -0.6333 -0.6 1.2333 1.2333 -0.6 -0.6333 Z M 8 13.3333 h 12 v -5.3333 H 8 v 5.3333 Z m 8 10.6667 h 0.1333 l 3.8667 -3.8333 v -0.1667 q 0 -1.6667 -1.1667 -2.8333 t -2.8333 -1.1667 q -1.6667 0 -2.8333 1.1667 t -1.1667 2.8333 q 0 1.6667 1.1667 2.8333 t 2.8333 1.1667 Z"
     id="path1" />
</svg>
