<?xml version="1.0" encoding="UTF-8" standalone="no"?>
<svg
   height="24px"
   viewBox="0 0 32 32"
   width="24px"
   fill="#000000"
   version="1.1"
   id="svg1"
   xmlns="http://www.w3.org/2000/svg"
   xmlns:svg="http://www.w3.org/2000/svg">
  <defs
     id="defs1" />
  <path
     d="M 28 9.3333 v 16 q 0 1.1 -0.7833 1.8833 T 25.3333 28 H 6.6667 q -1.1 0 -1.8833 -0.7833 T 4 25.3333 v -18.6667 q 0 -1.1 0.7833 -1.8833 T 6.6667 4 h 16 l 5.3333 5.3333 Z m -2.6667 1.1333 L 21.5333 6.6667 H 6.6667 v 18.6667 h 18.6667 v -14.8667 Z M 16 24 q 1.6667 0 2.8333 -1.1667 t 1.1667 -2.8333 q 0 -1.6667 -1.1667 -2.8333 t -2.8333 -1.1667 q -1.6667 0 -2.8333 1.1667 t -1.1667 2.8333 q 0 1.6667 1.1667 2.8333 t 2.8333 1.1667 Z M 8 13.3333 h 12 v -5.3333 H 8 v 5.3333 Z m -1.3333 -2.8667 v 14.8667 -18.6667 3.8 Z"
     id="path1" />
</svg>
