<?xml version="1.0" encoding="UTF-8" standalone="no"?>
<svg
   height="24px"
   viewBox="0 0 16 16"
   width="24px"
   fill="#000000"
   version="1.1"
   id="svg1"
   xmlns="http://www.w3.org/2000/svg"
   xmlns:svg="http://www.w3.org/2000/svg">
  <defs
     id="defs1" />
  <path
     d="M 3.3333 14 q -0.55 0 -0.9416 -0.3916 T 2 12.6667 v -9.3333 q 0 -0.55 0.3916 -0.9416 T 3.3333 2 h 8 l 2.6667 2.6667 v 3.5333 q -0.3166 -0.1333 -0.6583 -0.175 t -0.675 0.0083 v -2.8167 L 10.7834 3.3333 H 3.3333 v 9.3333 h 4 v 1.3334 H 3.3333 Z m 0 -10.6667 v 9.3333 -9.3333 Z M 8.6667 15.3333 v -2.05 l 3.6833 -3.6667 q 0.15 -0.15 0.3333 -0.2167 t 0.3666 -0.0667 q 0.2 0 0.3834 0.075 t 0.3333 0.225 l 0.6167 0.6167 q 0.1333 0.15 0.2084 0.3333 t 0.075 0.3666 q 0 0.1834 -0.0667 0.375 T 14.3834 11.6667 L 10.7166 15.3333 H 8.6667 Z m 5 -4.3834 -0.6167 -0.6167 0.6167 0.6167 Z M 9.6667 14.3333 h 0.6333 l 2.0166 -2.0333 -0.3 -0.3166 -0.3166 -0.3 -2.0333 2.0166 v 0.6333 Z m 2.35 -2.35 -0.3166 -0.3 0.6167 0.6167 -0.3 -0.3166 Z M 4 6.6666 h 6 v -2.6667 H 4 v 2.6667 Z m 4 5.3334 h 0.0667 l 1.9333 -1.9166 v -0.0833 q 0 -0.8334 -0.5834 -1.4166 t -1.4166 -0.5834 q -0.8334 0 -1.4166 0.5834 t -0.5834 1.4166 q 0 0.8334 0.5834 1.4166 t 1.4166 0.5834 Z"
     id="path1" />
</svg>
