<?xml version="1.0" encoding="UTF-8" standalone="no"?>
<svg
   height="24px"
   viewBox="0 0 32 32"
   width="24px"
   fill="#000000"
   version="1.1"
   id="svg1"
   xmlns="http://www.w3.org/2000/svg"
   xmlns:svg="http://www.w3.org/2000/svg">
  <defs
     id="defs1" />
  <path
     d="m 12.3333 29.3333 -0.5333 -4.2667 q -0.4333 -0.1667 -0.8167 -0.4 T 10.2333 24.1667 l -3.9667 1.6667 L 2.6 19.5 l 3.4333 -2.6 q -0.0333 -0.2333 -0.0333 -0.45 v -0.9 q 0 -0.2167 0.0333 -0.45 L 2.6 12.5 l 3.6667 -6.3333 3.9667 1.6667 q 0.3667 -0.2667 0.7667 -0.5 t 0.8 -0.4 l 0.5333 -4.2667 h 7.3333 l 0.5333 4.2667 q 0.4333 0.1667 0.8167 0.4 t 0.75 0.5 l 3.9667 -1.6667 3.6667 6.3333 -3.4333 2.6 q 0.0333 0.2333 0.0333 0.45 v 0.9 q 0 0.2167 -0.0667 0.45 l 3.4333 2.6 -3.6667 6.3333 -3.9333 -1.6667 q -0.3667 0.2667 -0.7667 0.5 t -0.8 0.4 L 19.6667 29.3333 H 12.3333 Z m 2.3333 -2.6667 h 2.6333 l 0.4667 -3.5333 q 1.0333 -0.2667 1.9167 -0.7833 T 21.3 21.1 l 3.3 1.3667 1.3 -2.2667 -2.8667 -2.1667 q 0.1667 -0.4667 0.2333 -0.9833 t 0.0667 -1.05 q 0 -0.5333 -0.0667 -1.05 t -0.2333 -0.9833 l 2.8667 -2.1667 -1.3 -2.2667 -3.3 1.4 q -0.7333 -0.7667 -1.6167 -1.2833 T 17.7667 8.8667 l -0.4333 -3.5333 h -2.6333 l -0.4667 3.5333 q -1.0333 0.2667 -1.9167 0.7833 T 10.7 10.9 l -3.3 -1.3667 -1.3 2.2667 2.8667 2.1333 q -0.1667 0.5 -0.2333 1 t -0.0667 1.0667 q 0 0.5333 0.0667 1.0333 t 0.2333 1 l -2.8667 2.1667 1.3 2.2667 3.3 -1.4 q 0.7333 0.7667 1.6167 1.2833 T 14.2333 23.1333 l 0.4333 3.5333 Z m 1.4 -6 q 1.9333 0 3.3 -1.3667 t 1.3667 -3.3 q 0 -1.9333 -1.3667 -3.3 t -3.3 -1.3667 q -1.9667 0 -3.3167 1.3667 T 11.4 16 q 0 1.9333 1.35 3.3 t 3.3167 1.3667 Z m -0.0667 -4.6667 Z"
     id="path1" />
</svg>
