<?xml version="1.0" encoding="UTF-8" standalone="no"?>
<svg
   height="24px"
   viewBox="0 0 16 16"
   width="24px"
   fill="#000000"
   version="1.1"
   id="svg1"
   xmlns="http://www.w3.org/2000/svg"
   xmlns:svg="http://www.w3.org/2000/svg">
  <defs
     id="defs1" />
  <path
     d="m 6.1666 14.6667 -0.2666 -2.1334 q -0.2167 -0.0833 -0.4083 -0.2 T 5.1166 12.0833 l -1.9833 0.8334 L 1.3 9.75 l 1.7167 -1.3 q -0.0167 -0.1167 -0.0167 -0.225 v -0.45 q 0 -0.1084 0.0167 -0.225 L 1.3 6.25 l 1.8334 -3.1667 1.9833 0.8334 q 0.1834 -0.1333 0.3834 -0.25 t 0.4 -0.2 l 0.2666 -2.1334 h 3.6667 l 0.2666 2.1334 q 0.2167 0.0833 0.4083 0.2 t 0.375 0.25 l 1.9833 -0.8334 1.8334 3.1667 -1.7167 1.3 q 0.0167 0.1167 0.0167 0.225 v 0.45 q 0 0.1084 -0.0333 0.225 l 1.7167 1.3 -1.8334 3.1667 -1.9667 -0.8334 q -0.1834 0.1333 -0.3834 0.25 t -0.4 0.2 L 9.8333 14.6667 H 6.1666 Z m 1.1666 -1.3334 h 1.3167 l 0.2334 -1.7667 q 0.5167 -0.1333 0.9584 -0.3916 T 10.65 10.55 l 1.65 0.6834 0.65 -1.1334 -1.4333 -1.0834 q 0.0833 -0.2334 0.1167 -0.4916 t 0.0333 -0.525 q 0 -0.2666 -0.0333 -0.525 t -0.1167 -0.4916 l 1.4333 -1.0834 -0.65 -1.1334 -1.65 0.7 q -0.3666 -0.3834 -0.8084 -0.6417 T 8.8834 4.4333 l -0.2167 -1.7667 h -1.3167 l -0.2334 1.7667 q -0.5167 0.1333 -0.9584 0.3916 T 5.35 5.45 l -1.65 -0.6834 -0.65 1.1334 1.4333 1.0667 q -0.0833 0.25 -0.1167 0.5 t -0.0333 0.5333 q 0 0.2666 0.0333 0.5167 t 0.1167 0.5 l -1.4333 1.0834 0.65 1.1334 1.65 -0.7 q 0.3666 0.3834 0.8084 0.6417 T 7.1166 11.5666 l 0.2167 1.7667 Z m 0.7 -3 q 0.9667 0 1.65 -0.6834 t 0.6834 -1.65 q 0 -0.9667 -0.6834 -1.65 t -1.65 -0.6834 q -0.9833 0 -1.6583 0.6834 T 5.7 8 q 0 0.9667 0.675 1.65 t 1.6583 0.6834 Z m -0.0333 -2.3333 Z"
     id="path1" />
</svg>
