<?xml version="1.0" encoding="UTF-8" standalone="no"?>
<svg
   height="24px"
   viewBox="0 0 24 24"
   width="24px"
   fill="#000000"
   version="1.1"
   id="svg1"
   xmlns="http://www.w3.org/2000/svg"
   xmlns:svg="http://www.w3.org/2000/svg">
  <defs
     id="defs1" />
  <path
     d="m 9.2499 22.0001 -0.3999 -3.2001 q -0.3251 -0.125 -0.6124 -0.3 T 7.6749 18.1249 l -2.975 1.2501 L 1.95 14.625 l 2.5751 -1.95 q -0.025 -0.175 -0.025 -0.3375 v -0.675 q 0 -0.1626 0.025 -0.3375 L 1.95 9.375 l 2.7501 -4.75 2.975 1.2501 q 0.2751 -0.2 0.5751 -0.375 t 0.6 -0.3 l 0.3999 -3.2001 h 5.5 l 0.3999 3.2001 q 0.3251 0.125 0.6124 0.3 t 0.5625 0.375 l 2.975 -1.2501 2.7501 4.75 -2.5751 1.95 q 0.025 0.175 0.025 0.3375 v 0.675 q 0 0.1626 -0.05 0.3375 l 2.5751 1.95 -2.7501 4.75 -2.9501 -1.2501 q -0.2751 0.2 -0.5751 0.375 t -0.6 0.3 L 14.7499 22.0001 H 9.2499 Z m 1.7499 -2.0001 h 1.975 l 0.3501 -2.65 q 0.7751 -0.2 1.4376 -0.5874 T 15.975 15.825 l 2.475 1.0251 0.975 -1.7001 -2.15 -1.6251 q 0.125 -0.3501 0.175 -0.7374 t 0.05 -0.7875 q 0 -0.3999 -0.05 -0.7875 t -0.175 -0.7374 l 2.15 -1.6251 -0.975 -1.7001 -2.475 1.05 q -0.5499 -0.5751 -1.2126 -0.9626 T 13.3251 6.65 l -0.3251 -2.65 h -1.975 l -0.3501 2.65 q -0.7751 0.2 -1.4376 0.5874 T 8.025 8.175 l -2.475 -1.0251 -0.975 1.7001 2.15 1.6 q -0.125 0.375 -0.175 0.75 t -0.05 0.7999 q 0 0.3999 0.05 0.7751 t 0.175 0.75 l -2.15 1.6251 0.975 1.7001 2.475 -1.05 q 0.5499 0.5751 1.2126 0.9626 T 10.6749 17.3499 l 0.3251 2.65 Z m 1.05 -4.5 q 1.4501 0 2.475 -1.0251 t 1.0251 -2.475 q 0 -1.4501 -1.0251 -2.475 t -2.475 -1.0251 q -1.4749 0 -2.4874 1.0251 T 8.55 12 q 0 1.4501 1.0125 2.475 t 2.4874 1.0251 Z m -0.05 -3.5 Z"
     id="path1" />
</svg>
