<?xml version="1.0" encoding="UTF-8" standalone="no"?>
<svg
   height="24px"
   viewBox="0 0 16 16"
   width="24px"
   fill="#000000"
   version="1.1"
   id="svg1"
   xmlns="http://www.w3.org/2000/svg"
   xmlns:svg="http://www.w3.org/2000/svg">
  <defs
     id="defs1" />
  <path
     d="M 2.6667 12.6667 h 10.6667 v -1.3334 H 2.6667 v 1.3334 Z m 2.6667 -4 h 1.3334 v -2 q 0 -0.55 0.3916 -0.9416 T 8 5.3334 v -1.3334 q -1.1 0 -1.8834 0.7833 t -0.7833 1.8834 v 2 Z m 2.6667 2.6667 Z m -3.3333 -1.3334 h 6.6666 v -3.3333 q 0 -1.3834 -0.975 -2.3584 T 8 3.3333 q -1.3834 0 -2.3584 0.975 T 4.6666 6.6666 v 3.3333 Z M 2.6667 14 q -0.55 0 -0.9416 -0.3916 T 1.3334 12.6667 v -1.3334 q 0 -0.55 0.3916 -0.9416 T 2.6667 10 h 0.6666 v -3.3333 q 0 -1.95 1.3583 -3.3083 T 8 2 q 1.95 0 3.3083 1.3583 T 12.6667 6.6666 v 3.3333 h 0.6666 q 0.55 0 0.9416 0.3916 T 14.6667 11.3333 v 1.3334 q 0 0.55 -0.3916 0.9416 T 13.3333 14 H 2.6667 Z m 5.3334 -4 Z"
     id="path1" />
</svg>
