<?xml version="1.0" encoding="UTF-8" standalone="no"?>
<svg
   height="24px"
   viewBox="0 0 32 32"
   width="24px"
   fill="#000000"
   version="1.1"
   id="svg1"
   xmlns="http://www.w3.org/2000/svg"
   xmlns:svg="http://www.w3.org/2000/svg">
  <defs
     id="defs1" />
  <path
     d="M 5.3333 25.3333 h 21.3333 v -2.6667 H 5.3333 v 2.6667 Z m 5.3333 -8 h 2.6667 v -4 q 0 -1.1 0.7833 -1.8833 T 16 10.6667 v -2.6667 q -2.2 0 -3.7667 1.5667 t -1.5667 3.7667 v 4 Z m 5.3333 5.3333 Z m -6.6667 -2.6667 h 13.3333 v -6.6667 q 0 -2.7667 -1.95 -4.7167 T 16 6.6667 q -2.7667 0 -4.7167 1.95 T 9.3333 13.3333 v 6.6667 Z M 5.3333 28 q -1.1 0 -1.8833 -0.7833 T 2.6667 25.3333 v -2.6667 q 0 -1.1 0.7833 -1.8833 T 5.3333 20 h 1.3333 v -6.6667 q 0 -3.9 2.7167 -6.6167 T 16 4 q 3.9 0 6.6167 2.7167 T 25.3333 13.3333 v 6.6667 h 1.3333 q 1.1 0 1.8833 0.7833 T 29.3333 22.6667 v 2.6667 q 0 1.1 -0.7833 1.8833 T 26.6667 28 H 5.3333 Z m 10.6667 -8 Z"
     id="path1" />
</svg>
