<?xml version="1.0" encoding="UTF-8" standalone="no"?>
<svg
   height="24px"
   viewBox="0 0 24 24"
   width="24px"
   fill="#000000"
   version="1.1"
   id="svg1"
   xmlns="http://www.w3.org/2000/svg"
   xmlns:svg="http://www.w3.org/2000/svg">
  <defs
     id="defs1" />
  <path
     d="M 4 19.0001 h 16.0001 v -2.0001 H 4 v 2.0001 Z m 4 -6 h 2.0001 v -3 q 0 -0.825 0.5874 -1.4124 T 12 8.0001 v -2.0001 q -1.65 0 -2.8251 1.1749 t -1.1749 2.8251 v 3 Z m 4 4 Z m -5 -2.0001 h 9.9999 v -5 q 0 -2.0751 -1.4625 -3.5376 T 12 5 q -2.0751 0 -3.5376 1.4625 T 6.9999 9.9999 v 5 Z M 4 21 q -0.825 0 -1.4124 -0.5874 T 2.0001 19.0001 v -2.0001 q 0 -0.825 0.5874 -1.4124 T 4 15 h 0.9999 v -5 q 0 -2.925 2.0375 -4.9625 T 12 3 q 2.925 0 4.9625 2.0375 T 19.0001 9.9999 v 5 h 0.9999 q 0.825 0 1.4124 0.5874 T 22.0001 16.9999 v 2.0001 q 0 0.825 -0.5874 1.4124 T 19.9999 21 H 4 Z m 8.0001 -6 Z"
     id="path1" />
</svg>
