<?xml version="1.0" encoding="UTF-8" standalone="no"?>
<svg
   height="24px"
   viewBox="0 0 24 24"
   width="24px"
   fill="#000000"
   version="1.1"
   id="svg1"
   sodipodi:docname="sketch-rounded-rect-symbolic.svg"
   inkscape:version="1.4.3 (0d15f75042, 2025-12-25)"
   xmlns:inkscape="http://www.inkscape.org/namespaces/inkscape"
   xmlns:sodipodi="http://sodipodi.sourceforge.net/DTD/sodipodi-0.dtd"
   xmlns="http://www.w3.org/2000/svg"
   xmlns:svg="http://www.w3.org/2000/svg">
  <defs
     id="defs1" />
  <sodipodi:namedview
     id="namedview1"
     pagecolor="#ffffff"
     bordercolor="#000000"
     borderopacity="0.25"
     inkscape:showpageshadow="2"
     inkscape:pageopacity="0.0"
     inkscape:pagecheckerboard="0"
     inkscape:deskcolor="#d1d1d1"
     inkscape:zoom="73.833333"
     inkscape:cx="14.207675"
     inkscape:cy="10.659142"
     inkscape:window-width="3840"
     inkscape:window-height="2020"
     inkscape:window-x="0"
     inkscape:window-y="32"
     inkscape:window-maximized="1"
     inkscape:current-layer="svg1" />
  <path
     d="m 5 19.0001 c -0.5499 0 -1.0208 -0.1958 -1.4124 -0.5874 C 3.1958 18.0208 3 17.55 3 16.9999 v -9.9999 c 0 -0.5499 0.1958 -1.0208 0.5874 -1.4124 0.3916 -0.3916 0.8625 -0.5874 1.4124 -0.5874 h 13.9999 c 0.5499 0 1.0208 0.1958 1.4124 0.5874 0.3916 0.3916 0.5874 0.8625 0.5874 1.4124 v 9.9999 c 0 0.5499 -0.1958 1.0208 -0.5874 1.4124 -0.3916 0.3916 -0.8625 0.5874 -1.4124 0.5874 z m 0.1896 -2.2167 C 5.4201 17.0136 5.9853 16.9999 5.9853 16.9999 H 12 18.0552 c 0 0 0.5295 0.0495 0.7551 -0.1761 C 19.0359 16.5983 19.0001 16.0305 19.0001 16.0305 V 12 8.0779 c 0 0 0.0622 -0.6364 -0.1761 -0.8746 C 18.5856 6.9648 18.0552 6.9999 18.0552 6.9999 H 12 5.9853 c 0 0 -0.512 -0.0401 -0.7551 0.2031 C 4.987 7.4463 5 8.0779 5 8.0779 V 12 16.0305 c 0 0 -0.0408 0.5224 0.1896 0.7529 z m 0 0 L 5 16.0305 V 12 8.0779 l 0.2303 -0.8746 L 5 8.0779 V 12 16.0305 Z"
     id="path1"
     sodipodi:nodetypes="ssssssssssssszccczccczccczccczzccczcccz" />
</svg>
