<?xml version="1.0" encoding="UTF-8" standalone="no"?>
<svg
   height="24px"
   viewBox="0 0 16 16"
   width="24px"
   fill="#000000"
   version="1.1"
   id="svg1"
   sodipodi:docname="sketch-line-symbolic.svg"
   inkscape:version="1.4.2 (ebf0e940d0, 2025-05-08)"
   xmlns:inkscape="http://www.inkscape.org/namespaces/inkscape"
   xmlns:sodipodi="http://sodipodi.sourceforge.net/DTD/sodipodi-0.dtd"
   xmlns="http://www.w3.org/2000/svg"
   xmlns:svg="http://www.w3.org/2000/svg">
  <defs
     id="defs1" />
  <sodipodi:namedview
     id="namedview1"
     pagecolor="#ffffff"
     bordercolor="#000000"
     borderopacity="0.25"
     inkscape:showpageshadow="2"
     inkscape:pageopacity="0.0"
     inkscape:pagecheckerboard="0"
     inkscape:deskcolor="#d1d1d1"
     inkscape:zoom="36.916667"
     inkscape:cx="12"
     inkscape:cy="12"
     inkscape:window-width="3840"
     inkscape:window-height="2020"
     inkscape:window-x="0"
     inkscape:window-y="32"
     inkscape:window-maximized="1"
     inkscape:current-layer="svg1" />
  <path
     d="M 12.6667 14.6667 q -0.8334 0 -1.4166 -0.5834 t -0.5834 -1.4166 q 0 -0.2334 0.05 -0.45 t 0.15 -0.4167 L 4.2 5.1334 q -0.2 0.1 -0.4167 0.15 t -0.45 0.05 q -0.8334 0 -1.4166 -0.5834 t -0.5834 -1.4166 q 0 -0.8334 0.5834 -1.4166 t 1.4166 -0.5834 q 0.8334 0 1.4166 0.5834 t 0.5834 1.4166 q 0 0.2334 -0.05 0.45 t -0.15 0.4167 l 6.6666 6.6666 q 0.2 -0.1 0.4167 -0.15 t 0.45 -0.05 q 0.8334 0 1.4166 0.5834 t 0.5834 1.4166 q 0 0.8334 -0.5834 1.4166 t -1.4166 0.5834 Z"
     id="path1" />
</svg>
