<?xml version="1.0" encoding="UTF-8" standalone="no"?>
<svg
   height="24px"
   viewBox="0 0 24 24"
   width="24px"
   fill="#000000"
   version="1.1"
   id="svg1"
   sodipodi:docname="sketch-fillet-symbolic.svg"
   inkscape:version="1.4.3 (0d15f75042, 2025-12-25)"
   xmlns:inkscape="http://www.inkscape.org/namespaces/inkscape"
   xmlns:sodipodi="http://sodipodi.sourceforge.net/DTD/sodipodi-0.dtd"
   xmlns="http://www.w3.org/2000/svg"
   xmlns:svg="http://www.w3.org/2000/svg">
  <defs
     id="defs1" />
  <sodipodi:namedview
     id="namedview1"
     pagecolor="#ffffff"
     bordercolor="#000000"
     borderopacity="0.25"
     inkscape:showpageshadow="2"
     inkscape:pageopacity="0.0"
     inkscape:pagecheckerboard="0"
     inkscape:deskcolor="#d1d1d1"
     inkscape:zoom="36.916667"
     inkscape:cx="12"
     inkscape:cy="12"
     inkscape:window-width="3840"
     inkscape:window-height="2020"
     inkscape:window-x="0"
     inkscape:window-y="32"
     inkscape:window-maximized="1"
     inkscape:current-layer="svg1" />
  <path
     d="M 3 21 v -2.0001 h 2.0001 v 2.0001 h -2.0001 Z m 0 -4 v -2.0001 h 2.0001 v 2.0001 h -2.0001 Z m 0 -4 v -2.0001 h 2.0001 v 2.0001 h -2.0001 Z m 0 -4 v -2.0001 h 2.0001 v 2.0001 h -2.0001 Z m 0 -4 v -2.0001 h 2.0001 v 2.0001 h -2.0001 Z m 4 16.0001 v -2.0001 h 2.0001 v 2.0001 h -2.0001 Z m 0 -16.0001 v -2.0001 h 2.0001 v 2.0001 h -2.0001 Z m 4 16.0001 v -2.0001 h 2.0001 v 2.0001 h -2.0001 Z m 4 0 v -2.0001 h 2.0001 v 2.0001 h -2.0001 Z m 4 0 v -2.0001 h 2.0001 v 2.0001 h -2.0001 Z m 0 -4 v -2.0001 h 2.0001 v 2.0001 h -2.0001 Z m 2.0001 -4 h -2.0001 v -5 q 0 -1.2501 -0.8751 -2.1249 t -2.1249 -0.8751 H 11.0001 v -2.0001 h 5 q 2.0751 0 3.5376 1.4625 T 21 8.0001 v 5 Z"
     id="path1" />
</svg>
