<?xml version="1.0" encoding="UTF-8" standalone="no"?>
<svg
   height="24px"
   viewBox="0 0 16 16"
   width="24px"
   fill="#000000"
   version="1.1"
   id="svg1"
   sodipodi:docname="sketch-constrain-point-symbolic.svg"
   inkscape:version="1.4.3 (0d15f75042, 2025-12-25)"
   xmlns:inkscape="http://www.inkscape.org/namespaces/inkscape"
   xmlns:sodipodi="http://sodipodi.sourceforge.net/DTD/sodipodi-0.dtd"
   xmlns="http://www.w3.org/2000/svg"
   xmlns:svg="http://www.w3.org/2000/svg">
  <defs
     id="defs1" />
  <sodipodi:namedview
     id="namedview1"
     pagecolor="#ffffff"
     bordercolor="#000000"
     borderopacity="0.25"
     inkscape:showpageshadow="2"
     inkscape:pageopacity="0.0"
     inkscape:pagecheckerboard="0"
     inkscape:deskcolor="#d1d1d1"
     inkscape:zoom="13.052013"
     inkscape:cx="16.089472"
     inkscape:cy="45.127139"
     inkscape:window-width="3840"
     inkscape:window-height="2020"
     inkscape:window-x="0"
     inkscape:window-y="32"
     inkscape:window-maximized="1"
     inkscape:current-layer="g6" />
  <g
     id="g6"
     transform="matrix(0.82281092,-0.82281092,0.82281092,0.82281092,480.00001,309.89848)">
    <path
       d="m -103.36619,-468.63761 c -0.2241,0 -0.4359,-0.043 -0.6353,-0.1291 -0.1995,-0.0861 -0.3737,-0.2036 -0.5226,-0.3525 -0.1489,-0.1489 -0.2665,-0.3231 -0.3525,-0.5226 -0.0861,-0.1995 -0.1291,-0.4113 -0.1291,-0.6353 0,-0.2268 0.043,-0.4393 0.1291,-0.6374 0.0861,-0.1981 0.2036,-0.3716 0.3525,-0.5206 0.1489,-0.1489 0.3231,-0.2665 0.5226,-0.3525 0.1995,-0.0861 0.4113,-0.1291 0.6353,-0.1291 0.2268,0 0.4393,0.043 0.6374,0.1291 0.1981,0.0861 0.3716,0.2036 0.5206,0.3525 0.1489,0.1489 0.2665,0.3225 0.3525,0.5206 0.0861,0.1981 0.1291,0.4106 0.1291,0.6374 0,0.2241 -0.043,0.4359 -0.1291,0.6353 -0.0861,0.1995 -0.2036,0.3737 -0.3525,0.5226 -0.1489,0.1489 -0.3225,0.2665 -0.5206,0.3525 -0.1981,0.0861 -0.4106,0.1291 -0.6374,0.1291 z"
       id="path1"
       style="stroke:none;stroke-width:0.0041"
       sodipodi:nodetypes="sssssssssssssssss" />
    <path
       style="fill:none;stroke:#000000;stroke-width:1.5714;stroke-dasharray:none;stroke-dashoffset:0"
       d="m -110.06949,-470.27721 h 3.6839"
       id="path2" />
    <path
       style="fill:none;stroke:#000000;stroke-width:1.5714;stroke-dasharray:none;stroke-dashoffset:0"
       d="m -100.34669,-470.27721 h 3.684002"
       id="path3" />
    <path
       style="fill:none;stroke:#000000;stroke-width:1.5714;stroke-dasharray:none;stroke-dashoffset:0"
       d="m -103.36619,-476.98061 v 3.6839"
       id="path5" />
    <path
       style="fill:none;stroke:#000000;stroke-width:1.5714;stroke-dasharray:none;stroke-dashoffset:0"
       d="m -103.36619,-467.25781 v 3.6839"
       id="path6" />
  </g>
</svg>
