<?xml version="1.0" encoding="UTF-8" standalone="no"?>
<svg
   height="24px"
   viewBox="0 0 16 16"
   width="24px"
   fill="#000000"
   version="1.1"
   id="svg1"
   sodipodi:docname="sketch-fill-symbolic.svg"
   inkscape:version="1.4.2 (ebf0e940d0, 2025-05-08)"
   xmlns:inkscape="http://www.inkscape.org/namespaces/inkscape"
   xmlns:sodipodi="http://sodipodi.sourceforge.net/DTD/sodipodi-0.dtd"
   xmlns="http://www.w3.org/2000/svg"
   xmlns:svg="http://www.w3.org/2000/svg">
  <defs
     id="defs1" />
  <sodipodi:namedview
     id="namedview1"
     pagecolor="#ffffff"
     bordercolor="#000000"
     borderopacity="0.25"
     inkscape:showpageshadow="2"
     inkscape:pageopacity="0.0"
     inkscape:pagecheckerboard="0"
     inkscape:deskcolor="#d1d1d1"
     inkscape:zoom="36.916667"
     inkscape:cx="12"
     inkscape:cy="12"
     inkscape:window-width="3840"
     inkscape:window-height="2020"
     inkscape:window-x="0"
     inkscape:window-y="32"
     inkscape:window-maximized="1"
     inkscape:current-layer="svg1" />
  <path
     d="M 5.7667 13.6667 1.6666 9.5666 q -0.1666 -0.1666 -0.25 -0.3666 t -0.0833 -0.4167 q 0 -0.2167 0.0833 -0.4167 t 0.25 -0.3666 l 3.8333 -3.8167 -1.7667 -1.7667 1.0333 -1.0834 6.6666 6.6666 q 0.1666 0.1666 0.2417 0.3666 t 0.075 0.4167 q 0 0.2167 -0.075 0.4167 T 11.4334 9.5666 L 7.3334 13.6667 q -0.1666 0.1666 -0.3666 0.25 t -0.4167 0.0833 q -0.2167 0 -0.4167 -0.0833 t -0.3666 -0.25 Z m 0.7833 -8.4334 L 2.9834 8.8 h 7.1334 L 6.55 5.2333 Z m 6.65 8.7667 q -0.6 0 -1.0167 -0.425 T 11.7667 12.5334 q 0 -0.45 0.225 -0.85 t 0.5083 -0.7833 l 0.7 -0.9 0.7333 0.9 q 0.2666 0.3834 0.5 0.7833 t 0.2334 0.85 q 0 0.6167 -0.4334 1.0416 T 13.2 14 Z"
     id="path1" />
</svg>
