<?xml version="1.0" encoding="UTF-8" standalone="no"?>
<svg
   height="24px"
   viewBox="0 -960 960 960"
   width="24px"
   fill="#000000"
   version="1.1"
   id="svg1"
   sodipodi:docname="sketch-constrain-point-symbolic.svg"
   inkscape:version="1.4.2 (ebf0e940d0, 2025-05-08)"
   xmlns:inkscape="http://www.inkscape.org/namespaces/inkscape"
   xmlns:sodipodi="http://sodipodi.sourceforge.net/DTD/sodipodi-0.dtd"
   xmlns="http://www.w3.org/2000/svg"
   xmlns:svg="http://www.w3.org/2000/svg">
  <defs
     id="defs1" />
  <sodipodi:namedview
     id="namedview1"
     pagecolor="#ffffff"
     bordercolor="#000000"
     borderopacity="0.25"
     inkscape:showpageshadow="2"
     inkscape:pageopacity="0.0"
     inkscape:pagecheckerboard="0"
     inkscape:deskcolor="#d1d1d1"
     inkscape:zoom="36.916667"
     inkscape:cx="12"
     inkscape:cy="12"
     inkscape:window-width="3840"
     inkscape:window-height="2020"
     inkscape:window-x="0"
     inkscape:window-y="32"
     inkscape:window-maximized="1"
     inkscape:current-layer="svg1" />
  <path
     d="M480-80q-82 0-155-31.5t-127.5-86Q143-252 111.5-325T80-480q0-83 31.5-155.5t86-127Q252-817 325-848.5T480-880q83 0 155.5 31.5t127 86q54.5 54.5 86 127T880-480q0 82-31.5 155t-86 127.5q-54.5 54.5-127 86T480-80Zm0-160q100 0 170-70t70-170q0-100-70-170t-170-70q-100 0-170 70t-70 170q0 100 70 170t170 70Z"
     id="path1" />
</svg>
