<?xml version="1.0" encoding="UTF-8" standalone="no"?>
<svg
   height="24px"
   viewBox="0 0 16 16"
   width="24px"
   fill="#000000"
   version="1.1"
   id="svg1"
   sodipodi:docname="sketch-text-symbolic.svg"
   inkscape:version="1.4.3 (0d15f75042, 2025-12-25)"
   xmlns:inkscape="http://www.inkscape.org/namespaces/inkscape"
   xmlns:sodipodi="http://sodipodi.sourceforge.net/DTD/sodipodi-0.dtd"
   xmlns="http://www.w3.org/2000/svg"
   xmlns:svg="http://www.w3.org/2000/svg">
  <defs
     id="defs1" />
  <sodipodi:namedview
     id="namedview1"
     pagecolor="#ffffff"
     bordercolor="#000000"
     borderopacity="0.25"
     inkscape:showpageshadow="2"
     inkscape:pageopacity="0.0"
     inkscape:pagecheckerboard="0"
     inkscape:deskcolor="#d1d1d1"
     inkscape:zoom="36.916667"
     inkscape:cx="11.986456"
     inkscape:cy="12"
     inkscape:window-width="2641"
     inkscape:window-height="1718"
     inkscape:window-x="50"
     inkscape:window-y="82"
     inkscape:window-maximized="0"
     inkscape:current-layer="svg1" />
  <path
     d="M 4.2667 12 h 1.4 l 0.7333 -2.0333 h 3.2 l 0.7333 2.0333 h 1.4 L 8.7 4 h -1.4 L 4.2667 12 Z m 2.5333 -3.2 1.1666 -3.3 h 0.0667 l 1.1666 3.3 H 6.8 Z M 2.6667 14.6667 q -0.55 0 -0.9416 -0.3916 T 1.3334 13.3333 v -10.6667 q 0 -0.55 0.3916 -0.9416 T 2.6667 1.3334 h 10.6667 q 0.55 0 0.9416 0.3916 T 14.6667 2.6667 v 10.6667 q 0 0.55 -0.3916 0.9416 T 13.3333 14.6667 H 2.6667 Z m 0 -1.3334 h 10.6667 v -10.6667 H 2.6667 v 10.6667 Z m 0 -10.6667 v 10.6667 -10.6667 Z"
     id="path1" />
</svg>
