<?xml version="1.0" encoding="UTF-8" standalone="no"?>
<svg
   height="24px"
   viewBox="0 0 32 32"
   width="24px"
   fill="#000000"
   version="1.1"
   id="svg1"
   sodipodi:docname="sketch-fill-symbolic.svg"
   inkscape:version="1.4.2 (ebf0e940d0, 2025-05-08)"
   xmlns:inkscape="http://www.inkscape.org/namespaces/inkscape"
   xmlns:sodipodi="http://sodipodi.sourceforge.net/DTD/sodipodi-0.dtd"
   xmlns="http://www.w3.org/2000/svg"
   xmlns:svg="http://www.w3.org/2000/svg">
  <defs
     id="defs1" />
  <sodipodi:namedview
     id="namedview1"
     pagecolor="#ffffff"
     bordercolor="#000000"
     borderopacity="0.25"
     inkscape:showpageshadow="2"
     inkscape:pageopacity="0.0"
     inkscape:pagecheckerboard="0"
     inkscape:deskcolor="#d1d1d1"
     inkscape:zoom="36.916667"
     inkscape:cx="12"
     inkscape:cy="12"
     inkscape:window-width="3840"
     inkscape:window-height="2020"
     inkscape:window-x="0"
     inkscape:window-y="32"
     inkscape:window-maximized="1"
     inkscape:current-layer="svg1" />
  <path
     d="M 11.5333 27.3333 3.3333 19.1333 q -0.3333 -0.3333 -0.5 -0.7333 t -0.1667 -0.8333 q 0 -0.4333 0.1667 -0.8333 t 0.5 -0.7333 l 7.6667 -7.6333 -3.5333 -3.5333 2.0667 -2.1667 13.3333 13.3333 q 0.3333 0.3333 0.4833 0.7333 t 0.15 0.8333 q 0 0.4333 -0.15 0.8333 T 22.8667 19.1333 L 14.6667 27.3333 q -0.3333 0.3333 -0.7333 0.5 t -0.8333 0.1667 q -0.4333 0 -0.8333 -0.1667 t -0.7333 -0.5 Z m 1.5667 -16.8667 L 5.9667 17.6 h 14.2667 L 13.1 10.4667 Z m 13.3 17.5333 q -1.2 0 -2.0333 -0.85 T 23.5333 25.0667 q 0 -0.9 0.45 -1.7 t 1.0167 -1.5667 l 1.4 -1.8 1.4667 1.8 q 0.5333 0.7667 1 1.5667 t 0.4667 1.7 q 0 1.2333 -0.8667 2.0833 T 26.4 28 Z"
     id="path1" />
</svg>
