<?xml version="1.0" encoding="UTF-8" standalone="no"?>
<svg
   height="24px"
   viewBox="0 0 32 32"
   width="24px"
   fill="#000000"
   version="1.1"
   id="svg1"
   sodipodi:docname="sketch-text-symbolic.svg"
   inkscape:version="1.4.3 (0d15f75042, 2025-12-25)"
   xmlns:inkscape="http://www.inkscape.org/namespaces/inkscape"
   xmlns:sodipodi="http://sodipodi.sourceforge.net/DTD/sodipodi-0.dtd"
   xmlns="http://www.w3.org/2000/svg"
   xmlns:svg="http://www.w3.org/2000/svg">
  <defs
     id="defs1" />
  <sodipodi:namedview
     id="namedview1"
     pagecolor="#ffffff"
     bordercolor="#000000"
     borderopacity="0.25"
     inkscape:showpageshadow="2"
     inkscape:pageopacity="0.0"
     inkscape:pagecheckerboard="0"
     inkscape:deskcolor="#d1d1d1"
     inkscape:zoom="36.916667"
     inkscape:cx="11.986456"
     inkscape:cy="12"
     inkscape:window-width="2641"
     inkscape:window-height="1718"
     inkscape:window-x="50"
     inkscape:window-y="82"
     inkscape:window-maximized="0"
     inkscape:current-layer="svg1" />
  <path
     d="M 8.5333 24 h 2.8 l 1.4667 -4.0667 h 6.4 l 1.4667 4.0667 h 2.8 L 17.4 8 h -2.8 L 8.5333 24 Z m 5.0667 -6.4 2.3333 -6.6 h 0.1333 l 2.3333 6.6 H 13.6 Z M 5.3333 29.3333 q -1.1 0 -1.8833 -0.7833 T 2.6667 26.6667 v -21.3333 q 0 -1.1 0.7833 -1.8833 T 5.3333 2.6667 h 21.3333 q 1.1 0 1.8833 0.7833 T 29.3333 5.3333 v 21.3333 q 0 1.1 -0.7833 1.8833 T 26.6667 29.3333 H 5.3333 Z m 0 -2.6667 h 21.3333 v -21.3333 H 5.3333 v 21.3333 Z m 0 -21.3333 v 21.3333 -21.3333 Z"
     id="path1" />
</svg>
