<?xml version="1.0" encoding="UTF-8" standalone="no"?>
<svg
   height="32"
   viewBox="0 0 16 16"
   width="32"
   fill="#000000"
   version="1.1"
   id="svg1"
   sodipodi:docname="sketch-grid-symbolic.svg"
   inkscape:version="1.4.3 (0d15f75042, 2025-12-25)"
   xmlns:inkscape="http://www.inkscape.org/namespaces/inkscape"
   xmlns:sodipodi="http://sodipodi.sourceforge.net/DTD/sodipodi-0.dtd"
   xmlns="http://www.w3.org/2000/svg"
   xmlns:svg="http://www.w3.org/2000/svg">
  <defs
     id="defs1" />
  <sodipodi:namedview
     id="namedview1"
     pagecolor="#ffffff"
     bordercolor="#000000"
     borderopacity="0.25"
     inkscape:showpageshadow="2"
     inkscape:pageopacity="0.0"
     inkscape:pagecheckerboard="0"
     inkscape:deskcolor="#d1d1d1"
     inkscape:zoom="36.916667"
     inkscape:cx="20.939052"
     inkscape:cy="23.512415"
     inkscape:window-width="3840"
     inkscape:window-height="2020"
     inkscape:window-x="0"
     inkscape:window-y="32"
     inkscape:window-maximized="1"
     inkscape:current-layer="svg1" />
  <path
     d="m 3.4948 13.7924 q -0.531 0 -0.9091 -0.3781 Q 2.2076 13.0362 2.2076 12.5052 V 3.4948 q 0 -0.531 0.3781 -0.9091 0.3781 -0.3781 0.9091 -0.3781 H 12.5052 q 0.531 0 0.9091 0.3781 0.3781 0.3781 0.3781 0.9091 V 12.5052 q 0 0.531 -0.3781 0.9091 -0.3781 0.3781 -0.9091 0.3781 z m 0 -1.2872 H 5.6348 V 10.3652 H 3.4948 Z m 3.4272 0 h 2.1561 v -2.14 h -2.1561 z m 3.4433 0 H 12.5052 V 10.3652 H 10.3652 Z M 3.4948 9.078 H 5.6348 V 6.922 H 3.4948 Z m 3.4272 0 h 2.1561 v -2.1561 h -2.1561 z m 3.4433 0 H 12.5052 V 6.922 H 10.3652 Z M 3.4948 5.6348 H 5.6348 V 3.4948 H 3.4948 Z m 3.4272 0 h 2.1561 V 3.4948 h -2.1561 z m 3.4433 0 H 12.5052 V 3.4948 h -2.14 z"
     id="path1"
     style="stroke-width:0.0161" />
</svg>
