<?xml version="1.0" encoding="UTF-8" standalone="no"?>
<svg
   height="24px"
   viewBox="0 0 16 16"
   width="24px"
   fill="#000000"
   version="1.1"
   id="svg1"
   sodipodi:docname="sketch-edit-symbolic.svg"
   inkscape:version="1.4.2 (ebf0e940d0, 2025-05-08)"
   xmlns:inkscape="http://www.inkscape.org/namespaces/inkscape"
   xmlns:sodipodi="http://sodipodi.sourceforge.net/DTD/sodipodi-0.dtd"
   xmlns="http://www.w3.org/2000/svg"
   xmlns:svg="http://www.w3.org/2000/svg">
  <defs
     id="defs1" />
  <sodipodi:namedview
     id="namedview1"
     pagecolor="#ffffff"
     bordercolor="#000000"
     borderopacity="0.25"
     inkscape:showpageshadow="2"
     inkscape:pageopacity="0.0"
     inkscape:pagecheckerboard="0"
     inkscape:deskcolor="#d1d1d1"
     inkscape:zoom="36.916667"
     inkscape:cx="12"
     inkscape:cy="12"
     inkscape:window-width="3840"
     inkscape:window-height="2020"
     inkscape:window-x="0"
     inkscape:window-y="32"
     inkscape:window-maximized="1"
     inkscape:current-layer="svg1" />
  <path
     d="m 5.7107 7.2488 1.5381 -1.556 -1.0016 -1.0195 -0.787 0.787 -1.0016 -1.0016 0.7691 -0.787 -0.8048 -0.8048 -1.556 1.556 z m 5.8665 5.8844 1.556 -1.556 -0.8048 -0.8048 -0.787 0.7691 -1.0016 -1.0016 0.7691 -0.787 -1.0195 -1.0016 -1.5381 1.5381 z m 0.4293 -10.1411 1.0195 1.0195 z M 4.6018 14.4389 H 1.5612 V 11.3983 L 4.6912 8.2683 0.8458 4.4229 4.4229 0.8458 8.2861 4.7091 10.9869 1.9905 q 0.2147 -0.2147 0.4829 -0.322 0.2683 -0.1073 0.5544 -0.1073 0.2862 0 0.5544 0.1073 0.2683 0.1073 0.4829 0.322 l 0.9479 0.9658 q 0.2147 0.2147 0.322 0.4829 0.1073 0.2683 0.1073 0.5544 0 0.2862 -0.1073 0.5455 -0.1073 0.2594 -0.322 0.4739 L 11.3088 7.7317 15.1542 11.5771 11.5771 15.1542 7.7317 11.3088 Z m -1.6097 -1.4308 h 1.0016 l 7.0111 -6.9933 -1.0195 -1.0195 -6.9933 7.0111 z m 7.5119 -7.4941 -0.5187 -0.5187 1.0195 1.0195 z"
     id="path1"
     style="stroke-width:0.0179" />
</svg>
