<?xml version="1.0" encoding="UTF-8" standalone="no"?>
<svg
   height="24px"
   viewBox="0 0 32 32"
   width="24px"
   fill="#000000"
   version="1.1"
   id="svg1"
   sodipodi:docname="sketch-line-symbolic.svg"
   inkscape:version="1.4.2 (ebf0e940d0, 2025-05-08)"
   xmlns:inkscape="http://www.inkscape.org/namespaces/inkscape"
   xmlns:sodipodi="http://sodipodi.sourceforge.net/DTD/sodipodi-0.dtd"
   xmlns="http://www.w3.org/2000/svg"
   xmlns:svg="http://www.w3.org/2000/svg">
  <defs
     id="defs1" />
  <sodipodi:namedview
     id="namedview1"
     pagecolor="#ffffff"
     bordercolor="#000000"
     borderopacity="0.25"
     inkscape:showpageshadow="2"
     inkscape:pageopacity="0.0"
     inkscape:pagecheckerboard="0"
     inkscape:deskcolor="#d1d1d1"
     inkscape:zoom="36.916667"
     inkscape:cx="12"
     inkscape:cy="12"
     inkscape:window-width="3840"
     inkscape:window-height="2020"
     inkscape:window-x="0"
     inkscape:window-y="32"
     inkscape:window-maximized="1"
     inkscape:current-layer="svg1" />
  <path
     d="M 25.3333 29.3333 q -1.6667 0 -2.8333 -1.1667 t -1.1667 -2.8333 q 0 -0.4667 0.1 -0.9 t 0.3 -0.8333 L 8.4 10.2667 q -0.4 0.2 -0.8333 0.3 t -0.9 0.1 q -1.6667 0 -2.8333 -1.1667 t -1.1667 -2.8333 q 0 -1.6667 1.1667 -2.8333 t 2.8333 -1.1667 q 1.6667 0 2.8333 1.1667 t 1.1667 2.8333 q 0 0.4667 -0.1 0.9 t -0.3 0.8333 l 13.3333 13.3333 q 0.4 -0.2 0.8333 -0.3 t 0.9 -0.1 q 1.6667 0 2.8333 1.1667 t 1.1667 2.8333 q 0 1.6667 -1.1667 2.8333 t -2.8333 1.1667 Z"
     id="path1" />
</svg>
