<?xml version="1.0" encoding="UTF-8" standalone="no"?>
<svg
   height="24px"
   viewBox="0 0 32 32"
   width="24px"
   fill="#000000"
   version="1.1"
   id="svg1"
   sodipodi:docname="sketch-rounded-rect-symbolic.svg"
   inkscape:version="1.4.3 (0d15f75042, 2025-12-25)"
   xmlns:inkscape="http://www.inkscape.org/namespaces/inkscape"
   xmlns:sodipodi="http://sodipodi.sourceforge.net/DTD/sodipodi-0.dtd"
   xmlns="http://www.w3.org/2000/svg"
   xmlns:svg="http://www.w3.org/2000/svg">
  <defs
     id="defs1" />
  <sodipodi:namedview
     id="namedview1"
     pagecolor="#ffffff"
     bordercolor="#000000"
     borderopacity="0.25"
     inkscape:showpageshadow="2"
     inkscape:pageopacity="0.0"
     inkscape:pagecheckerboard="0"
     inkscape:deskcolor="#d1d1d1"
     inkscape:zoom="73.833333"
     inkscape:cx="14.207675"
     inkscape:cy="10.659142"
     inkscape:window-width="3840"
     inkscape:window-height="2020"
     inkscape:window-x="0"
     inkscape:window-y="32"
     inkscape:window-maximized="1"
     inkscape:current-layer="svg1" />
  <path
     d="m 6.6667 25.3333 c -0.7333 0 -1.3611 -0.2611 -1.8833 -0.7833 C 4.2611 24.0278 4 23.4 4 22.6667 v -13.3333 c 0 -0.7333 0.2611 -1.3611 0.7833 -1.8833 0.5222 -0.5222 1.15 -0.7833 1.8833 -0.7833 h 18.6667 c 0.7333 0 1.3611 0.2611 1.8833 0.7833 0.5222 0.5222 0.7833 1.15 0.7833 1.8833 v 13.3333 c 0 0.7333 -0.2611 1.3611 -0.7833 1.8833 -0.5222 0.5222 -1.15 0.7833 -1.8833 0.7833 z m 0.2528 -2.9556 C 7.2267 22.6849 7.9804 22.6667 7.9804 22.6667 H 16 24.0737 c 0 0 0.706 0.066 1.0068 -0.2348 C 25.3813 22.1311 25.3333 21.374 25.3333 21.374 V 16 10.7705 c 0 0 0.0831 -0.8485 -0.2348 -1.1663 C 24.7808 9.2864 24.0737 9.3333 24.0737 9.3333 H 16 7.9804 c 0 0 -0.6826 -0.0533 -1.0068 0.2709 C 6.6495 9.9284 6.6667 10.7705 6.6667 10.7705 V 16 21.374 c 0 0 -0.0544 0.6966 0.2528 1.0038 z m 0 0 L 6.6667 21.374 V 16 10.7705 l 0.307 -1.1663 L 6.6667 10.7705 V 16 21.374 Z"
     id="path1"
     sodipodi:nodetypes="ssssssssssssszccczccczccczccczzccczcccz" />
</svg>
