<?xml version="1.0" encoding="UTF-8" standalone="no"?>
<svg
   height="24px"
   viewBox="0 0 24 24"
   width="24px"
   fill="#000000"
   version="1.1"
   id="svg1"
   sodipodi:docname="sketch-constrain-point-symbolic.svg"
   inkscape:version="1.4.3 (0d15f75042, 2025-12-25)"
   xmlns:inkscape="http://www.inkscape.org/namespaces/inkscape"
   xmlns:sodipodi="http://sodipodi.sourceforge.net/DTD/sodipodi-0.dtd"
   xmlns="http://www.w3.org/2000/svg"
   xmlns:svg="http://www.w3.org/2000/svg">
  <defs
     id="defs1" />
  <sodipodi:namedview
     id="namedview1"
     pagecolor="#ffffff"
     bordercolor="#000000"
     borderopacity="0.25"
     inkscape:showpageshadow="2"
     inkscape:pageopacity="0.0"
     inkscape:pagecheckerboard="0"
     inkscape:deskcolor="#d1d1d1"
     inkscape:zoom="6.5260065"
     inkscape:cx="-37.235636"
     inkscape:cy="61.599693"
     inkscape:window-width="3840"
     inkscape:window-height="2020"
     inkscape:window-x="0"
     inkscape:window-y="32"
     inkscape:window-maximized="1"
     inkscape:current-layer="g6" />
  <g
     id="g6"
     transform="matrix(0.82281092,-0.82281092,0.82281092,0.82281092,480.00001,309.89848)">
    <path
       d="m -103.36623,-462.95643 c -0.3362,0 -0.6539,-0.0645 -0.9529,-0.1936 -0.2993,-0.1291 -0.5605,-0.3054 -0.7839,-0.5287 -0.2233,-0.2233 -0.3998,-0.4847 -0.5287,-0.7839 -0.1291,-0.2993 -0.1936,-0.6169 -0.1936,-0.9529 0,-0.3402 0.0645,-0.659 0.1936,-0.9561 0.1291,-0.2972 0.3054,-0.5574 0.5287,-0.7809 0.2233,-0.2233 0.4847,-0.3998 0.7839,-0.5287 0.2993,-0.1291 0.6169,-0.1936 0.9529,-0.1936 0.3402,0 0.659,0.0645 0.9561,0.1936 0.2972,0.1291 0.5574,0.3054 0.7809,0.5287 0.2233,0.2233 0.3998,0.4838 0.5287,0.7809 0.1291,0.2972 0.1936,0.6159 0.1936,0.9561 0,0.3362 -0.0645,0.6539 -0.1936,0.9529 -0.1291,0.2993 -0.3054,0.5605 -0.5287,0.7839 -0.2233,0.2233 -0.4838,0.3998 -0.7809,0.5287 -0.2972,0.1291 -0.6159,0.1936 -0.9561,0.1936 z"
       id="path1"
       style="stroke:none;stroke-width:0.0062"
       sodipodi:nodetypes="sssssssssssssssss" />
    <path
       style="fill:none;stroke:#000000;stroke-width:2.3571;stroke-dasharray:none;stroke-dashoffset:0"
       d="m -113.42113,-465.41583 h 5.5259"
       id="path2" />
    <path
       style="fill:none;stroke:#000000;stroke-width:2.3571;stroke-dasharray:none;stroke-dashoffset:0"
       d="m -98.836931,-465.41583 h 5.526"
       id="path3" />
    <path
       style="fill:none;stroke:#000000;stroke-width:2.3571;stroke-dasharray:none;stroke-dashoffset:0"
       d="m -103.36623,-475.47093 v 5.5259"
       id="path5" />
    <path
       style="fill:none;stroke:#000000;stroke-width:2.3571;stroke-dasharray:none;stroke-dashoffset:0"
       d="m -103.36623,-460.88673 v 5.5259"
       id="path6" />
  </g>
</svg>
