<?xml version="1.0" encoding="UTF-8" standalone="no"?>
<svg
   height="24px"
   viewBox="0 0 32 32"
   width="24px"
   fill="#000000"
   version="1.1"
   id="svg1"
   sodipodi:docname="sketch-edit-symbolic.svg"
   inkscape:version="1.4.2 (ebf0e940d0, 2025-05-08)"
   xmlns:inkscape="http://www.inkscape.org/namespaces/inkscape"
   xmlns:sodipodi="http://sodipodi.sourceforge.net/DTD/sodipodi-0.dtd"
   xmlns="http://www.w3.org/2000/svg"
   xmlns:svg="http://www.w3.org/2000/svg">
  <defs
     id="defs1" />
  <sodipodi:namedview
     id="namedview1"
     pagecolor="#ffffff"
     bordercolor="#000000"
     borderopacity="0.25"
     inkscape:showpageshadow="2"
     inkscape:pageopacity="0.0"
     inkscape:pagecheckerboard="0"
     inkscape:deskcolor="#d1d1d1"
     inkscape:zoom="36.916667"
     inkscape:cx="12"
     inkscape:cy="12"
     inkscape:window-width="3840"
     inkscape:window-height="2020"
     inkscape:window-x="0"
     inkscape:window-y="32"
     inkscape:window-maximized="1"
     inkscape:current-layer="svg1" />
  <path
     d="m 11.4213 14.4976 3.0763 -3.1121 -2.0032 -2.039 -1.5739 1.5739 -2.0032 -2.0032 1.5382 -1.5739 -1.6097 -1.6097 -3.1121 3.1121 z m 11.733 11.7687 3.1121 -3.1121 -1.6097 -1.6097 -1.5739 1.5382 -2.0032 -2.0032 1.5382 -1.5739 -2.039 -2.0032 -3.0763 3.0763 z m 0.8585 -20.2823 2.039 2.039 z M 9.2035 28.8777 H 3.1223 V 22.7965 L 9.3823 16.5366 1.6915 8.8457 8.8457 1.6915 16.5723 9.4181 21.9738 3.9809 q 0.4293 -0.4293 0.9658 -0.6439 0.5366 -0.2146 1.1089 -0.2146 0.5723 0 1.1089 0.2146 0.5366 0.2146 0.9658 0.6439 l 1.8959 1.9316 q 0.4293 0.4293 0.6439 0.9658 0.2146 0.5366 0.2146 1.1089 0 0.5723 -0.2146 1.091 -0.2146 0.5187 -0.6439 0.9479 L 22.6177 15.4634 30.3085 23.1543 23.1543 30.3085 15.4634 22.6177 Z m -3.2194 -2.8617 h 2.0032 l 14.0223 -13.9866 -2.039 -2.039 -13.9866 14.0223 z m 15.0239 -14.9882 -1.0374 -1.0374 2.039 2.039 z"
     id="path1"
     style="stroke-width:0.0358" />
</svg>
