<?xml version="1.0" encoding="UTF-8" standalone="no"?>
<svg
   height="24px"
   viewBox="0 0 16 16"
   width="24px"
   fill="#000000"
   version="1.1"
   id="svg1"
   sodipodi:docname="sketch-rounded-rect-symbolic.svg"
   inkscape:version="1.4.3 (0d15f75042, 2025-12-25)"
   xmlns:inkscape="http://www.inkscape.org/namespaces/inkscape"
   xmlns:sodipodi="http://sodipodi.sourceforge.net/DTD/sodipodi-0.dtd"
   xmlns="http://www.w3.org/2000/svg"
   xmlns:svg="http://www.w3.org/2000/svg">
  <defs
     id="defs1" />
  <sodipodi:namedview
     id="namedview1"
     pagecolor="#ffffff"
     bordercolor="#000000"
     borderopacity="0.25"
     inkscape:showpageshadow="2"
     inkscape:pageopacity="0.0"
     inkscape:pagecheckerboard="0"
     inkscape:deskcolor="#d1d1d1"
     inkscape:zoom="73.833333"
     inkscape:cx="14.207675"
     inkscape:cy="10.659142"
     inkscape:window-width="3840"
     inkscape:window-height="2020"
     inkscape:window-x="0"
     inkscape:window-y="32"
     inkscape:window-maximized="1"
     inkscape:current-layer="svg1" />
  <path
     d="m 3.3333 12.6667 c -0.3666 0 -0.6805 -0.1305 -0.9416 -0.3916 C 2.1305 12.0139 2 11.7 2 11.3333 v -6.6666 c 0 -0.3666 0.1305 -0.6805 0.3916 -0.9416 0.2611 -0.2611 0.575 -0.3916 0.9416 -0.3916 h 9.3333 c 0.3666 0 0.6805 0.1305 0.9416 0.3916 0.2611 0.2611 0.3916 0.575 0.3916 0.9416 v 6.6666 c 0 0.3666 -0.1305 0.6805 -0.3916 0.9416 -0.2611 0.2611 -0.575 0.3916 -0.9416 0.3916 z m 0.1264 -1.4778 C 3.6134 11.3424 3.9902 11.3333 3.9902 11.3333 H 8 12.0368 c 0 0 0.353 0.033 0.5034 -0.1174 C 12.6906 11.0655 12.6667 10.687 12.6667 10.687 V 8 5.3853 c 0 0 0.0415 -0.4243 -0.1174 -0.5831 C 12.3904 4.6432 12.0368 4.6666 12.0368 4.6666 H 8 3.9902 c 0 0 -0.3413 -0.0267 -0.5034 0.1354 C 3.3247 4.9642 3.3333 5.3853 3.3333 5.3853 V 8 10.687 c 0 0 -0.0272 0.3483 0.1264 0.5019 z m 0 0 L 3.3333 10.687 V 8 5.3853 l 0.1535 -0.5831 L 3.3333 5.3853 V 8 10.687 Z"
     id="path1"
     sodipodi:nodetypes="ssssssssssssszccczccczccczccczzccczcccz" />
</svg>
