<?xml version="1.0" encoding="UTF-8" standalone="no"?>
<svg
   height="32"
   viewBox="0 0 24 24"
   width="32"
   fill="#000000"
   version="1.1"
   id="svg1"
   sodipodi:docname="sketch-grid-symbolic.svg"
   inkscape:version="1.4.3 (0d15f75042, 2025-12-25)"
   xmlns:inkscape="http://www.inkscape.org/namespaces/inkscape"
   xmlns:sodipodi="http://sodipodi.sourceforge.net/DTD/sodipodi-0.dtd"
   xmlns="http://www.w3.org/2000/svg"
   xmlns:svg="http://www.w3.org/2000/svg">
  <defs
     id="defs1" />
  <sodipodi:namedview
     id="namedview1"
     pagecolor="#ffffff"
     bordercolor="#000000"
     borderopacity="0.25"
     inkscape:showpageshadow="2"
     inkscape:pageopacity="0.0"
     inkscape:pagecheckerboard="0"
     inkscape:deskcolor="#d1d1d1"
     inkscape:zoom="36.916667"
     inkscape:cx="20.939052"
     inkscape:cy="23.512415"
     inkscape:window-width="3840"
     inkscape:window-height="2020"
     inkscape:window-x="0"
     inkscape:window-y="32"
     inkscape:window-maximized="1"
     inkscape:current-layer="svg1" />
  <path
     d="m 5.2422 20.6886 q -0.7965 0 -1.3637 -0.5672 Q 3.3114 19.5543 3.3114 18.7578 V 5.2422 q 0 -0.7965 0.5672 -1.3637 0.5672 -0.5672 1.3637 -0.5672 H 18.7578 q 0.7965 0 1.3637 0.5672 0.5672 0.5672 0.5672 1.3637 V 18.7578 q 0 0.7965 -0.5672 1.3637 -0.5672 0.5672 -1.3637 0.5672 z m 0 -1.9308 H 8.4522 V 15.5478 H 5.2422 Z m 5.1408 0 h 3.2341 v -3.21 h -3.2341 z m 5.1649 0 H 18.7578 V 15.5478 H 15.5478 Z M 5.2422 13.617 H 8.4522 V 10.383 H 5.2422 Z m 5.1408 0 h 3.2341 v -3.2341 h -3.2341 z m 5.1649 0 H 18.7578 V 10.383 H 15.5478 Z M 5.2422 8.4522 H 8.4522 V 5.2422 H 5.2422 Z m 5.1408 0 h 3.2341 V 5.2422 h -3.2341 z m 5.1649 0 H 18.7578 V 5.2422 h -3.21 z"
     id="path1"
     style="stroke-width:0.0241" />
</svg>
