<?xml version="1.0" encoding="UTF-8" standalone="no"?>
<svg
   height="24px"
   viewBox="0 0 24 24"
   width="24px"
   fill="#000000"
   version="1.1"
   id="svg1"
   sodipodi:docname="sketch-text-symbolic.svg"
   inkscape:version="1.4.3 (0d15f75042, 2025-12-25)"
   xmlns:inkscape="http://www.inkscape.org/namespaces/inkscape"
   xmlns:sodipodi="http://sodipodi.sourceforge.net/DTD/sodipodi-0.dtd"
   xmlns="http://www.w3.org/2000/svg"
   xmlns:svg="http://www.w3.org/2000/svg">
  <defs
     id="defs1" />
  <sodipodi:namedview
     id="namedview1"
     pagecolor="#ffffff"
     bordercolor="#000000"
     borderopacity="0.25"
     inkscape:showpageshadow="2"
     inkscape:pageopacity="0.0"
     inkscape:pagecheckerboard="0"
     inkscape:deskcolor="#d1d1d1"
     inkscape:zoom="36.916667"
     inkscape:cx="11.986456"
     inkscape:cy="12"
     inkscape:window-width="2641"
     inkscape:window-height="1718"
     inkscape:window-x="50"
     inkscape:window-y="82"
     inkscape:window-maximized="0"
     inkscape:current-layer="svg1" />
  <path
     d="M 6.4001 18 h 2.1 l 1.0999 -3.0499 h 4.8 l 1.0999 3.0499 h 2.1 L 13.05 6 h -2.1 L 6.4001 18 Z m 3.7999 -4.8 1.7499 -4.95 h 0.1001 l 1.7499 4.95 H 10.2 Z M 4 22.0001 q -0.825 0 -1.4124 -0.5874 T 2.0001 19.9999 v -16.0001 q 0 -0.825 0.5874 -1.4124 T 4 2.0001 h 16.0001 q 0.825 0 1.4124 0.5874 T 22.0001 4 v 16.0001 q 0 0.825 -0.5874 1.4124 T 19.9999 22.0001 H 4 Z m 0 -2.0001 h 16.0001 v -16.0001 H 4 v 16.0001 Z m 0 -16.0001 v 16.0001 -16.0001 Z"
     id="path1" />
</svg>
