<?xml version="1.0" encoding="UTF-8" standalone="no"?>
<svg
   height="24px"
   viewBox="0 0 24 24"
   width="24px"
   fill="#000000"
   version="1.1"
   id="svg1"
   sodipodi:docname="sketch-edit-symbolic.svg"
   inkscape:version="1.4.2 (ebf0e940d0, 2025-05-08)"
   xmlns:inkscape="http://www.inkscape.org/namespaces/inkscape"
   xmlns:sodipodi="http://sodipodi.sourceforge.net/DTD/sodipodi-0.dtd"
   xmlns="http://www.w3.org/2000/svg"
   xmlns:svg="http://www.w3.org/2000/svg">
  <defs
     id="defs1" />
  <sodipodi:namedview
     id="namedview1"
     pagecolor="#ffffff"
     bordercolor="#000000"
     borderopacity="0.25"
     inkscape:showpageshadow="2"
     inkscape:pageopacity="0.0"
     inkscape:pagecheckerboard="0"
     inkscape:deskcolor="#d1d1d1"
     inkscape:zoom="36.916667"
     inkscape:cx="12"
     inkscape:cy="12"
     inkscape:window-width="3840"
     inkscape:window-height="2020"
     inkscape:window-x="0"
     inkscape:window-y="32"
     inkscape:window-maximized="1"
     inkscape:current-layer="svg1" />
  <path
     d="m 8.5661 10.8732 2.3072 -2.334 -1.5024 -1.5293 -1.1805 1.1805 -1.5024 -1.5024 1.1537 -1.1805 -1.2072 -1.2072 -2.334 2.334 z m 8.7997 8.8266 2.334 -2.334 -1.2072 -1.2072 -1.1805 1.1537 -1.5024 -1.5024 1.1537 -1.1805 -1.5293 -1.5024 -2.3072 2.3072 z m 0.644 -15.2116 1.5293 1.5293 z M 6.9027 21.6583 H 2.3418 V 17.0975 L 7.0368 12.4024 1.2687 6.6344 6.6344 1.2687 12.4291 7.0637 16.4804 2.9857 q 0.3221 -0.3221 0.7244 -0.483 0.4024 -0.161 0.8316 -0.161 0.4293 0 0.8316 0.161 0.4024 0.161 0.7244 0.483 l 1.4219 1.4487 q 0.3221 0.3221 0.483 0.7244 0.161 0.4024 0.161 0.8316 0 0.4293 -0.161 0.8182 -0.161 0.3891 -0.483 0.7108 L 16.9632 11.5976 22.7313 17.3656 17.3656 22.7313 11.5976 16.9632 Z m -2.4145 -2.1462 h 1.5024 l 10.5167 -10.49 -1.5293 -1.5293 -10.49 10.5167 z m 11.2678 -11.2412 -0.7781 -0.7781 1.5293 1.5293 z"
     id="path1"
     style="stroke-width:0.0268" />
</svg>
