<?xml version="1.0" encoding="UTF-8" standalone="no"?>
<svg
   height="24px"
   viewBox="0 0 24 24"
   width="24px"
   fill="#000000"
   version="1.1"
   id="svg1"
   sodipodi:docname="sketch-line-symbolic.svg"
   inkscape:version="1.4.2 (ebf0e940d0, 2025-05-08)"
   xmlns:inkscape="http://www.inkscape.org/namespaces/inkscape"
   xmlns:sodipodi="http://sodipodi.sourceforge.net/DTD/sodipodi-0.dtd"
   xmlns="http://www.w3.org/2000/svg"
   xmlns:svg="http://www.w3.org/2000/svg">
  <defs
     id="defs1" />
  <sodipodi:namedview
     id="namedview1"
     pagecolor="#ffffff"
     bordercolor="#000000"
     borderopacity="0.25"
     inkscape:showpageshadow="2"
     inkscape:pageopacity="0.0"
     inkscape:pagecheckerboard="0"
     inkscape:deskcolor="#d1d1d1"
     inkscape:zoom="36.916667"
     inkscape:cx="12"
     inkscape:cy="12"
     inkscape:window-width="3840"
     inkscape:window-height="2020"
     inkscape:window-x="0"
     inkscape:window-y="32"
     inkscape:window-maximized="1"
     inkscape:current-layer="svg1" />
  <path
     d="M 19.0001 22.0001 q -1.2501 0 -2.1249 -0.8751 t -0.8751 -2.1249 q 0 -0.3501 0.075 -0.675 t 0.225 -0.625 L 6.3 7.7001 q -0.3 0.15 -0.625 0.225 t -0.675 0.075 q -1.2501 0 -2.1249 -0.8751 t -0.8751 -2.1249 q 0 -1.2501 0.8751 -2.1249 t 2.1249 -0.8751 q 1.2501 0 2.1249 0.8751 t 0.8751 2.1249 q 0 0.3501 -0.075 0.675 t -0.225 0.625 l 9.9999 9.9999 q 0.3 -0.15 0.625 -0.225 t 0.675 -0.075 q 1.2501 0 2.1249 0.8751 t 0.8751 2.1249 q 0 1.2501 -0.8751 2.1249 t -2.1249 0.8751 Z"
     id="path1" />
</svg>
