<?xml version="1.0" encoding="UTF-8" standalone="no"?>
<svg
   height="24px"
   viewBox="0 0 32 32"
   width="24px"
   fill="#000000"
   version="1.1"
   id="svg1"
   sodipodi:docname="sketch-fillet-symbolic.svg"
   inkscape:version="1.4.3 (0d15f75042, 2025-12-25)"
   xmlns:inkscape="http://www.inkscape.org/namespaces/inkscape"
   xmlns:sodipodi="http://sodipodi.sourceforge.net/DTD/sodipodi-0.dtd"
   xmlns="http://www.w3.org/2000/svg"
   xmlns:svg="http://www.w3.org/2000/svg">
  <defs
     id="defs1" />
  <sodipodi:namedview
     id="namedview1"
     pagecolor="#ffffff"
     bordercolor="#000000"
     borderopacity="0.25"
     inkscape:showpageshadow="2"
     inkscape:pageopacity="0.0"
     inkscape:pagecheckerboard="0"
     inkscape:deskcolor="#d1d1d1"
     inkscape:zoom="36.916667"
     inkscape:cx="12"
     inkscape:cy="12"
     inkscape:window-width="3840"
     inkscape:window-height="2020"
     inkscape:window-x="0"
     inkscape:window-y="32"
     inkscape:window-maximized="1"
     inkscape:current-layer="svg1" />
  <path
     d="M 4 28 v -2.6667 h 2.6667 v 2.6667 h -2.6667 Z m 0 -5.3333 v -2.6667 h 2.6667 v 2.6667 h -2.6667 Z m 0 -5.3333 v -2.6667 h 2.6667 v 2.6667 h -2.6667 Z m 0 -5.3333 v -2.6667 h 2.6667 v 2.6667 h -2.6667 Z m 0 -5.3333 v -2.6667 h 2.6667 v 2.6667 h -2.6667 Z m 5.3333 21.3333 v -2.6667 h 2.6667 v 2.6667 h -2.6667 Z m 0 -21.3333 v -2.6667 h 2.6667 v 2.6667 h -2.6667 Z m 5.3333 21.3333 v -2.6667 h 2.6667 v 2.6667 h -2.6667 Z m 5.3333 0 v -2.6667 h 2.6667 v 2.6667 h -2.6667 Z m 5.3333 0 v -2.6667 h 2.6667 v 2.6667 h -2.6667 Z m 0 -5.3333 v -2.6667 h 2.6667 v 2.6667 h -2.6667 Z m 2.6667 -5.3333 h -2.6667 v -6.6667 q 0 -1.6667 -1.1667 -2.8333 t -2.8333 -1.1667 H 14.6667 v -2.6667 h 6.6667 q 2.7667 0 4.7167 1.95 T 28 10.6667 v 6.6667 Z"
     id="path1" />
</svg>
