<?xml version="1.0" encoding="UTF-8" standalone="no"?>
<svg
   height="24px"
   viewBox="0 0 32 32"
   width="24px"
   fill="#000000"
   version="1.1"
   id="svg1"
   sodipodi:docname="sketch-constrain-point-symbolic.svg"
   inkscape:version="1.4.3 (0d15f75042, 2025-12-25)"
   xmlns:inkscape="http://www.inkscape.org/namespaces/inkscape"
   xmlns:sodipodi="http://sodipodi.sourceforge.net/DTD/sodipodi-0.dtd"
   xmlns="http://www.w3.org/2000/svg"
   xmlns:svg="http://www.w3.org/2000/svg">
  <defs
     id="defs1" />
  <sodipodi:namedview
     id="namedview1"
     pagecolor="#ffffff"
     bordercolor="#000000"
     borderopacity="0.25"
     inkscape:showpageshadow="2"
     inkscape:pageopacity="0.0"
     inkscape:pagecheckerboard="0"
     inkscape:deskcolor="#d1d1d1"
     inkscape:zoom="36.916667"
     inkscape:cx="-1.4356659"
     inkscape:cy="8.2076749"
     inkscape:window-width="3840"
     inkscape:window-height="2020"
     inkscape:window-x="0"
     inkscape:window-y="32"
     inkscape:window-maximized="1"
     inkscape:current-layer="g6" />
  <g
     id="g6"
     transform="matrix(0.82281092,-0.82281092,0.82281092,0.82281092,480.00001,309.89848)">
    <path
       d="m -103.36611,-457.27517 c -0.4482,0 -0.8717,-0.0861 -1.2707,-0.2582 -0.399,-0.1722 -0.7474,-0.4072 -1.0453,-0.7051 -0.2979,-0.2979 -0.5329,-0.6463 -0.7051,-1.0453 -0.1722,-0.399 -0.2582,-0.8226 -0.2582,-1.2707 0,-0.4536 0.0861,-0.8786 0.2582,-1.2748 0.1722,-0.3962 0.4072,-0.7433 0.7051,-1.0412 0.2979,-0.2979 0.6463,-0.5329 1.0453,-0.7051 0.399,-0.1722 0.8226,-0.2582 1.2707,-0.2582 0.4536,0 0.8786,0.0861 1.2748,0.2582 0.3962,0.1722 0.7433,0.4072 1.0412,0.7051 0.2979,0.2979 0.5329,0.6449 0.7051,1.0412 0.1722,0.3962 0.2582,0.8212 0.2582,1.2748 0,0.4482 -0.0861,0.8717 -0.2582,1.2707 -0.1722,0.399 -0.4072,0.7474 -0.7051,1.0453 -0.2979,0.2979 -0.6449,0.5329 -1.0412,0.7051 -0.3962,0.1722 -0.8212,0.2582 -1.2748,0.2582 z"
       id="path1"
       style="stroke:none;stroke-width:0.0082"
       sodipodi:nodetypes="sssssssssssssssss" />
    <path
       style="fill:none;stroke:#000000;stroke-width:3.1427;stroke-dasharray:none;stroke-dashoffset:0"
       d="m -116.77282,-460.55446 h 7.3679"
       id="path2" />
    <path
       style="fill:none;stroke:#000000;stroke-width:3.1427;stroke-dasharray:none;stroke-dashoffset:0"
       d="m -97.327298,-460.55447 h 7.367903"
       id="path3" />
    <path
       style="fill:none;stroke:#000000;stroke-width:3.1427;stroke-dasharray:none;stroke-dashoffset:0"
       d="m -103.36611,-473.96118 v 7.3679"
       id="path5" />
    <path
       style="fill:none;stroke:#000000;stroke-width:3.1427;stroke-dasharray:none;stroke-dashoffset:0"
       d="m -103.36611,-454.51565 v 7.3679"
       id="path6" />
  </g>
</svg>
