<?xml version="1.0" encoding="UTF-8" standalone="no"?>
<svg
   height="24px"
   viewBox="0 0 24 24"
   width="24px"
   fill="#000000"
   version="1.1"
   id="svg1"
   sodipodi:docname="sketch-fill-symbolic.svg"
   inkscape:version="1.4.2 (ebf0e940d0, 2025-05-08)"
   xmlns:inkscape="http://www.inkscape.org/namespaces/inkscape"
   xmlns:sodipodi="http://sodipodi.sourceforge.net/DTD/sodipodi-0.dtd"
   xmlns="http://www.w3.org/2000/svg"
   xmlns:svg="http://www.w3.org/2000/svg">
  <defs
     id="defs1" />
  <sodipodi:namedview
     id="namedview1"
     pagecolor="#ffffff"
     bordercolor="#000000"
     borderopacity="0.25"
     inkscape:showpageshadow="2"
     inkscape:pageopacity="0.0"
     inkscape:pagecheckerboard="0"
     inkscape:deskcolor="#d1d1d1"
     inkscape:zoom="36.916667"
     inkscape:cx="12"
     inkscape:cy="12"
     inkscape:window-width="3840"
     inkscape:window-height="2020"
     inkscape:window-x="0"
     inkscape:window-y="32"
     inkscape:window-maximized="1"
     inkscape:current-layer="svg1" />
  <path
     d="M 8.6501 20.5001 2.4999 14.3499 q -0.2499 -0.2499 -0.375 -0.5499 t -0.125 -0.625 q 0 -0.3251 0.125 -0.625 t 0.375 -0.5499 l 5.75 -5.725 -2.65 -2.65 1.55 -1.6251 9.9999 9.9999 q 0.2499 0.2499 0.3625 0.5499 t 0.1125 0.625 q 0 0.3251 -0.1125 0.625 T 17.1501 14.3499 L 11.0001 20.5001 q -0.2499 0.2499 -0.5499 0.375 t -0.625 0.125 q -0.3251 0 -0.625 -0.125 t -0.5499 -0.375 Z m 1.1749 -12.6501 L 4.4751 13.2 h 10.7001 L 9.825 7.8499 Z m 9.975 13.1501 q -0.9 0 -1.525 -0.6375 T 17.6501 18.8001 q 0 -0.675 0.3375 -1.275 t 0.7624 -1.1749 l 1.05 -1.35 1.0999 1.35 q 0.3999 0.5751 0.75 1.1749 t 0.3501 1.275 q 0 0.9251 -0.6501 1.5624 T 19.8 21 Z"
     id="path1" />
</svg>
