<?xml version="1.0" encoding="UTF-8" standalone="no"?>
<svg
   height="24px"
   viewBox="0 0 32 32"
   width="24px"
   fill="#000000"
   version="1.1"
   id="svg1"
   xmlns="http://www.w3.org/2000/svg"
   xmlns:svg="http://www.w3.org/2000/svg">
  <defs
     id="defs1" />
  <path
     d="M 16.1333 29.3333 q -2.8 0 -5.25 -1.0667 t -4.2667 -2.8833 Q 4.8 23.5667 3.7333 21.1167 T 2.6667 15.8667 q 0 -4.8667 3.1 -8.5833 T 13.6667 2.6667 q -0.6 3.3 0.3667 6.45 T 17.3667 14.6333 q 2.3667 2.3667 5.5167 3.3333 T 29.3333 18.3333 q -0.8667 4.8 -4.6 7.9 T 16.1333 29.3333 Z m 0 -2.6667 q 2.9333 0 5.4333 -1.4667 t 3.9333 -4.0333 q -2.8667 -0.2667 -5.4333 -1.45 T 15.4667 16.5 q -2.0333 -2.0333 -3.2333 -4.6 t -1.4333 -5.4333 q -2.5667 1.4333 -4.0167 3.95 T 5.3333 15.8667 q 0 4.5 3.15 7.65 T 16.1333 26.6667 Z m -0.6667 -10.1667 Z"
     id="path1" />
</svg>
