<?xml version="1.0" encoding="UTF-8" standalone="no"?>
<svg
   height="24px"
   viewBox="0 0 16 16"
   width="24px"
   fill="#000000"
   version="1.1"
   id="svg1"
   xmlns="http://www.w3.org/2000/svg"
   xmlns:svg="http://www.w3.org/2000/svg">
  <defs
     id="defs1" />
  <path
     d="M 8.0666 14.6667 q -1.4 0 -2.625 -0.5333 t -2.1334 -1.4417 Q 2.4 11.7834 1.8666 10.5584 T 1.3334 7.9333 q 0 -2.4333 1.55 -4.2916 T 6.8334 1.3334 q -0.3 1.65 0.1834 3.225 T 8.6834 7.3167 q 1.1833 1.1833 2.7584 1.6666 T 14.6667 9.1667 q -0.4334 2.4 -2.3 3.95 T 8.0666 14.6667 Z m 0 -1.3334 q 1.4667 0 2.7167 -0.7333 t 1.9667 -2.0166 q -1.4333 -0.1333 -2.7167 -0.725 T 7.7333 8.25 q -1.0167 -1.0167 -1.6166 -2.3 t -0.7167 -2.7167 q -1.2833 0.7167 -2.0084 1.975 T 2.6667 7.9333 q 0 2.25 1.575 3.825 T 8.0666 13.3333 Z m -0.3333 -5.0834 Z"
     id="path1" />
</svg>
