<?xml version="1.0" encoding="UTF-8" standalone="no"?>
<svg
   height="24px"
   viewBox="0 0 24 24"
   width="24px"
   fill="#000000"
   version="1.1"
   id="svg1"
   xmlns="http://www.w3.org/2000/svg"
   xmlns:svg="http://www.w3.org/2000/svg">
  <defs
     id="defs1" />
  <path
     d="M 12.0999 22.0001 q -2.1 0 -3.9375 -0.7999 t -3.2001 -2.1625 Q 3.6 17.6751 2.7999 15.8376 T 2.0001 11.9 q 0 -3.65 2.325 -6.4374 T 10.2501 2.0001 q -0.45 2.475 0.2751 4.8375 T 13.0251 10.975 q 1.775 1.775 4.1376 2.4999 T 22.0001 13.7501 q -0.6501 3.6 -3.45 5.925 T 12.0999 22.0001 Z m 0 -2.0001 q 2.2001 0 4.0751 -1.0999 t 2.9501 -3.0249 q -2.15 -0.2 -4.0751 -1.0875 T 11.5999 12.375 q -1.525 -1.525 -2.4249 -3.45 t -1.0751 -4.0751 q -1.925 1.0751 -3.0126 2.9625 T 4 11.9 q 0 3.375 2.3625 5.7375 T 12.0999 19.9999 Z m -0.5 -7.6251 Z"
     id="path1" />
</svg>
