<?xml version="1.0" encoding="UTF-8" standalone="no"?>
<svg
   height="24px"
   viewBox="0 0 32 32"
   width="24px"
   fill="#000000"
   version="1.1"
   id="svg1"
   sodipodi:docname="status-offline-symbolic.svg"
   inkscape:version="1.4.2 (ebf0e940d0, 2025-05-08)"
   xmlns:inkscape="http://www.inkscape.org/namespaces/inkscape"
   xmlns:sodipodi="http://sodipodi.sourceforge.net/DTD/sodipodi-0.dtd"
   xmlns="http://www.w3.org/2000/svg"
   xmlns:svg="http://www.w3.org/2000/svg">
  <defs
     id="defs1" />
  <sodipodi:namedview
     id="namedview1"
     pagecolor="#ffffff"
     bordercolor="#000000"
     borderopacity="0.25"
     inkscape:showpageshadow="2"
     inkscape:pageopacity="0.0"
     inkscape:pagecheckerboard="0"
     inkscape:deskcolor="#d1d1d1"
     inkscape:zoom="36.916667"
     inkscape:cx="12"
     inkscape:cy="12"
     inkscape:window-width="3840"
     inkscape:window-height="2020"
     inkscape:window-x="0"
     inkscape:window-y="32"
     inkscape:window-maximized="1"
     inkscape:current-layer="svg1" />
  <path
     d="M 9.3333 26.6667 v -1.3333 h -1.3333 q -1.6667 0 -2.8333 -1.1667 t -1.1667 -2.8333 v -4 H 1.3333 v -2.6667 h 2.6667 v -4 q 0 -1.6667 1.1667 -2.8333 t 2.8333 -1.1667 h 1.3333 v -1.3333 h 2.6667 v 21.3333 h -2.6667 Z m -1.3333 -4 h 1.3333 v -13.3333 h -1.3333 q -0.5667 0 -0.95 0.3833 T 6.6667 10.6667 v 10.6667 q 0 0.5667 0.3833 0.95 T 8 22.6667 Z m 12 4 v -5.3333 H 14.6667 v -2.6667 h 5.3333 v -5.3333 H 14.6667 v -2.6667 h 5.3333 v -5.3333 h 2.6667 v 1.3333 h 1.3333 q 1.6667 0 2.8333 1.1667 t 1.1667 2.8333 v 4 h 2.6667 v 2.6667 h -2.6667 v 4 q 0 1.6667 -1.1667 2.8333 t -2.8333 1.1667 h -1.3333 v 1.3333 h -2.6667 Z m 2.6667 -4 h 1.3333 q 0.5667 0 0.95 -0.3833 T 25.3333 21.3333 v -10.6667 q 0 -0.5667 -0.3833 -0.95 T 24 9.3333 h -1.3333 v 13.3333 Z M 9.3333 16 Z m 13.3333 0 Z"
     id="path1" />
</svg>
