<?xml version="1.0" encoding="UTF-8" standalone="no"?>
<svg
   height="24px"
   viewBox="0 0 16 16"
   width="24px"
   fill="#000000"
   version="1.1"
   id="svg1"
   sodipodi:docname="status-check-symbolic.svg"
   inkscape:version="1.4.2 (ebf0e940d0, 2025-05-08)"
   xmlns:inkscape="http://www.inkscape.org/namespaces/inkscape"
   xmlns:sodipodi="http://sodipodi.sourceforge.net/DTD/sodipodi-0.dtd"
   xmlns="http://www.w3.org/2000/svg"
   xmlns:svg="http://www.w3.org/2000/svg">
  <defs
     id="defs1" />
  <sodipodi:namedview
     id="namedview1"
     pagecolor="#ffffff"
     bordercolor="#000000"
     borderopacity="0.25"
     inkscape:showpageshadow="2"
     inkscape:pageopacity="0.0"
     inkscape:pagecheckerboard="0"
     inkscape:deskcolor="#d1d1d1"
     inkscape:zoom="36.916667"
     inkscape:cx="12"
     inkscape:cy="12"
     inkscape:window-width="3840"
     inkscape:window-height="2020"
     inkscape:window-x="0"
     inkscape:window-y="32"
     inkscape:window-maximized="1"
     inkscape:current-layer="svg1" />
  <path
     d="M 4 15.3333 H 2 q -0.55 0 -0.9416 -0.3916 T 0.6666 14 v -2 h 1.3334 v 2 h 2 v 1.3334 Z m 8 0 v -1.3334 h 2 v -2 h 1.3334 v 2 q 0 0.55 -0.3916 0.9416 T 14 15.3333 H 12 Z M 8 12.3333 q -2 0 -3.625 -1.1833 T 2 8 q 0.75 -1.9667 2.375 -3.15 T 8 3.6667 q 2 0 3.625 1.1833 T 14 8 q -0.75 1.9667 -2.375 3.15 T 8 12.3333 Z m 0 -1.3334 q 1.4667 0 2.6833 -0.8 t 1.8666 -2.2 q -0.65 -1.4 -1.8666 -2.2 t -2.6833 -0.8 q -1.4667 0 -2.6833 0.8 T 3.45 8 q 0.65 1.4 1.8666 2.2 t 2.6833 0.8 Z m 0 -0.6666 q 0.9667 0 1.65 -0.6834 t 0.6834 -1.65 q 0 -0.9667 -0.6834 -1.65 t -1.65 -0.6834 q -0.9667 0 -1.65 0.6834 t -0.6834 1.65 q 0 0.9667 0.6834 1.65 t 1.65 0.6834 Z m 0 -1.3334 q -0.4167 0 -0.7084 -0.2917 T 7 8 q 0 -0.4167 0.2917 -0.7084 T 8 7 q 0.4167 0 0.7084 0.2917 T 9 8 q 0 0.4167 -0.2917 0.7084 T 8 9 Z M 0.6666 4 v -2 q 0 -0.55 0.3916 -0.9416 T 2 0.6666 h 2 v 1.3334 H 2 v 2 H 0.6666 Z m 13.3333 0 v -2 H 12 v -1.3334 h 2 q 0.55 0 0.9416 0.3916 T 15.3333 2 v 2 h -1.3334 Z M 8 8 Z"
     id="path1" />
</svg>
