<?xml version="1.0" encoding="UTF-8" standalone="no"?>
<svg
   height="24px"
   viewBox="0 0 16 16"
   width="24px"
   fill="#000000"
   version="1.1"
   id="svg1"
   sodipodi:docname="status-connecting-symbolic.svg"
   inkscape:version="1.4.2 (ebf0e940d0, 2025-05-08)"
   xmlns:inkscape="http://www.inkscape.org/namespaces/inkscape"
   xmlns:sodipodi="http://sodipodi.sourceforge.net/DTD/sodipodi-0.dtd"
   xmlns="http://www.w3.org/2000/svg"
   xmlns:svg="http://www.w3.org/2000/svg">
  <defs
     id="defs1" />
  <sodipodi:namedview
     id="namedview1"
     pagecolor="#ffffff"
     bordercolor="#000000"
     borderopacity="0.25"
     inkscape:showpageshadow="2"
     inkscape:pageopacity="0.0"
     inkscape:pagecheckerboard="0"
     inkscape:deskcolor="#d1d1d1"
     inkscape:zoom="36.916667"
     inkscape:cx="12"
     inkscape:cy="12"
     inkscape:window-width="3840"
     inkscape:window-height="2020"
     inkscape:window-x="0"
     inkscape:window-y="32"
     inkscape:window-maximized="1"
     inkscape:current-layer="svg1" />
  <path
     d="m 2 14.6667 v -4.6666 h 2 v -2.6667 h 3.3333 v -1.3334 H 5.3334 v -4.6666 h 5.3334 v 4.6666 H 8.6667 v 1.3334 7.3334 -6 H 5.3334 v 1.3334 H 7.3334 V 14.6667 Z M 6.6666 4.6666 H 9.3333 V 2.6667 H 6.6666 Z M 3.3333 13.3333 H 6 V 11.3333 H 3.3333 Z"
     id="path1"
     sodipodi:nodetypes="ccccccccccccccccccccccccccccc" />
  <path
     d="m 12.1422 10.6577 c 0.3234 0 0.5968 -0.1116 0.82 -0.335 0.2233 -0.2233 0.335 -0.4966 0.335 -0.82 v -1.155 H 10.9872 v 1.155 c 0 0.3234 0.1116 0.5968 0.335 0.82 0.2233 0.2233 0.4966 0.335 0.82 0.335 z m -1.155 3.234 h 2.31 v -1.155 c 0 -0.3234 -0.1116 -0.5968 -0.335 -0.82 -0.2233 -0.2233 -0.4966 -0.335 -0.82 -0.335 -0.3234 0 -0.5968 0.1116 -0.82 0.335 -0.2233 0.2233 -0.335 0.4966 -0.335 0.82 z m -1.617 0.924 v -0.924 h 0.693 v -1.155 c 0 -0.3234 0.0693 -0.6237 0.2079 -0.9009 0.1386 -0.2772 0.3311 -0.5159 0.5775 -0.7161 -0.2464 -0.2002 -0.4389 -0.4389 -0.5775 -0.7161 -0.1386 -0.2772 -0.2079 -0.5775 -0.2079 -0.9009 v -1.155 h -0.693 v -0.924 h 5.544 v 0.924 h -0.693 v 1.155 c 0 0.3234 -0.0693 0.6237 -0.2079 0.9009 -0.1386 0.2772 -0.3311 0.5159 -0.5775 0.7161 0.2464 0.2002 0.4389 0.4389 0.5775 0.7161 0.1386 0.2772 0.2079 0.5775 0.2079 0.9009 v 1.155 h 0.693 v 0.924 z"
     id="path1-5"
     sodipodi:nodetypes="sssccsssccsssssccccsscssccccccsscsscccc"
     style="stroke-width:0.0115" />
</svg>
