<?xml version="1.0" encoding="UTF-8" standalone="no"?>
<svg
   height="24px"
   viewBox="0 0 32 32"
   width="24px"
   fill="#000000"
   version="1.1"
   id="svg1"
   sodipodi:docname="status-idle-symbolic.svg"
   inkscape:version="1.4.2 (ebf0e940d0, 2025-05-08)"
   xmlns:inkscape="http://www.inkscape.org/namespaces/inkscape"
   xmlns:sodipodi="http://sodipodi.sourceforge.net/DTD/sodipodi-0.dtd"
   xmlns="http://www.w3.org/2000/svg"
   xmlns:svg="http://www.w3.org/2000/svg">
  <defs
     id="defs1" />
  <sodipodi:namedview
     id="namedview1"
     pagecolor="#ffffff"
     bordercolor="#000000"
     borderopacity="0.25"
     inkscape:showpageshadow="2"
     inkscape:pageopacity="0.0"
     inkscape:pagecheckerboard="0"
     inkscape:deskcolor="#d1d1d1"
     inkscape:zoom="36.916667"
     inkscape:cx="12"
     inkscape:cy="12"
     inkscape:window-width="3840"
     inkscape:window-height="2020"
     inkscape:window-x="0"
     inkscape:window-y="32"
     inkscape:window-maximized="1"
     inkscape:current-layer="svg1" />
  <path
     d="M 12.6667 20.8667 h 6.6667 v -2 H 15.6 l 3.7333 -4.2 v -1.8 H 12.6667 v 2 h 3.8 L 12.6667 19.1333 v 1.7333 Z M 16 29.3333 q -2.5 0 -4.6833 -0.95 t -3.8 -2.5667 q -1.6167 -1.6167 -2.5667 -3.8 T 4 17.3333 q 0 -2.5 0.95 -4.6833 t 2.5667 -3.8 q 1.6167 -1.6167 3.8 -2.5667 T 16 5.3333 q 2.5 0 4.6833 0.95 t 3.8 2.5667 q 1.6167 1.6167 2.5667 3.8 T 28 17.3333 q 0 2.5 -0.95 4.6833 t -2.5667 3.8 q -1.6167 1.6167 -3.8 2.5667 T 16 29.3333 Z m 0 -12 Z M 7.4667 3.1333 l 1.8667 1.8667 -5.6667 5.6667 -1.8667 -1.8667 5.6667 -5.6667 Z m 17.0667 0 5.6667 5.6667 -1.8667 1.8667 -5.6667 -5.6667 1.8667 -1.8667 Z M 16 26.6667 q 3.9 0 6.6167 -2.7167 T 25.3333 17.3333 q 0 -3.9 -2.7167 -6.6167 T 16 8 q -3.9 0 -6.6167 2.7167 T 6.6667 17.3333 q 0 3.9 2.7167 6.6167 T 16 26.6667 Z"
     id="path1" />
</svg>
