<?xml version="1.0" encoding="UTF-8" standalone="no"?>
<svg
   height="24px"
   viewBox="0 0 24 24"
   width="24px"
   fill="#000000"
   version="1.1"
   id="svg1"
   sodipodi:docname="status-connecting-symbolic.svg"
   inkscape:version="1.4.2 (ebf0e940d0, 2025-05-08)"
   xmlns:inkscape="http://www.inkscape.org/namespaces/inkscape"
   xmlns:sodipodi="http://sodipodi.sourceforge.net/DTD/sodipodi-0.dtd"
   xmlns="http://www.w3.org/2000/svg"
   xmlns:svg="http://www.w3.org/2000/svg">
  <defs
     id="defs1" />
  <sodipodi:namedview
     id="namedview1"
     pagecolor="#ffffff"
     bordercolor="#000000"
     borderopacity="0.25"
     inkscape:showpageshadow="2"
     inkscape:pageopacity="0.0"
     inkscape:pagecheckerboard="0"
     inkscape:deskcolor="#d1d1d1"
     inkscape:zoom="36.916667"
     inkscape:cx="12"
     inkscape:cy="12"
     inkscape:window-width="3840"
     inkscape:window-height="2020"
     inkscape:window-x="0"
     inkscape:window-y="32"
     inkscape:window-maximized="1"
     inkscape:current-layer="svg1" />
  <path
     d="m 3 22.0001 v -6.9999 h 3 v -4 h 5 v -2.0001 H 8.0001 v -6.9999 h 8.0001 v 6.9999 H 13.0001 v 2.0001 11.0001 -9 H 8.0001 v 2.0001 H 11.0001 V 22.0001 Z M 9.9999 6.9999 H 13.9999 V 4 H 9.9999 Z M 5 19.9999 H 9 V 16.9999 H 5 Z"
     id="path1"
     sodipodi:nodetypes="ccccccccccccccccccccccccccccc" />
  <path
     d="m 18.2133 15.9866 c 0.4851 0 0.8952 -0.1674 1.23 -0.5025 0.3349 -0.3349 0.5025 -0.7449 0.5025 -1.23 v -1.7325 H 16.4808 v 1.7325 c 0 0.4851 0.1674 0.8952 0.5025 1.23 0.3349 0.3349 0.7449 0.5025 1.23 0.5025 z m -1.7325 4.851 h 3.465 v -1.7325 c 0 -0.4851 -0.1674 -0.8952 -0.5025 -1.23 -0.3349 -0.3349 -0.7449 -0.5025 -1.23 -0.5025 -0.4851 0 -0.8952 0.1674 -1.23 0.5025 -0.3349 0.3349 -0.5025 0.7449 -0.5025 1.23 z m -2.4255 1.386 v -1.386 h 1.0395 v -1.7325 c 0 -0.4851 0.104 -0.9356 0.3119 -1.3514 0.2079 -0.4158 0.4967 -0.7739 0.8662 -1.0741 -0.3696 -0.3003 -0.6583 -0.6583 -0.8662 -1.0741 -0.2079 -0.4158 -0.3119 -0.8662 -0.3119 -1.3514 v -1.7325 h -1.0395 v -1.386 h 8.316 v 1.386 h -1.0395 v 1.7325 c 0 0.4851 -0.104 0.9356 -0.3119 1.3514 -0.2079 0.4158 -0.4967 0.7739 -0.8662 1.0741 0.3696 0.3003 0.6583 0.6583 0.8662 1.0741 0.2079 0.4158 0.3119 0.8662 0.3119 1.3514 v 1.7325 h 1.0395 v 1.386 z"
     id="path1-5"
     sodipodi:nodetypes="sssccsssccsssssccccsscssccccccsscsscccc"
     style="stroke-width:0.0173" />
</svg>
