<?xml version="1.0" encoding="UTF-8" standalone="no"?>
<svg
   height="24px"
   viewBox="0 0 24 24"
   width="24px"
   fill="#000000"
   version="1.1"
   id="svg1"
   sodipodi:docname="status-idle-symbolic.svg"
   inkscape:version="1.4.2 (ebf0e940d0, 2025-05-08)"
   xmlns:inkscape="http://www.inkscape.org/namespaces/inkscape"
   xmlns:sodipodi="http://sodipodi.sourceforge.net/DTD/sodipodi-0.dtd"
   xmlns="http://www.w3.org/2000/svg"
   xmlns:svg="http://www.w3.org/2000/svg">
  <defs
     id="defs1" />
  <sodipodi:namedview
     id="namedview1"
     pagecolor="#ffffff"
     bordercolor="#000000"
     borderopacity="0.25"
     inkscape:showpageshadow="2"
     inkscape:pageopacity="0.0"
     inkscape:pagecheckerboard="0"
     inkscape:deskcolor="#d1d1d1"
     inkscape:zoom="36.916667"
     inkscape:cx="12"
     inkscape:cy="12"
     inkscape:window-width="3840"
     inkscape:window-height="2020"
     inkscape:window-x="0"
     inkscape:window-y="32"
     inkscape:window-maximized="1"
     inkscape:current-layer="svg1" />
  <path
     d="M 9.5001 15.6501 h 5 v -1.5 H 11.7 l 2.7999 -3.15 v -1.35 H 9.5001 v 1.5 h 2.85 L 9.5001 14.3499 v 1.3001 Z M 12 22.0001 q -1.875 0 -3.5126 -0.7125 t -2.85 -1.925 q -1.2126 -1.2126 -1.925 -2.85 T 3 13.0001 q 0 -1.875 0.7125 -3.5126 t 1.925 -2.85 q 1.2126 -1.2126 2.85 -1.925 T 12 4 q 1.875 0 3.5126 0.7125 t 2.85 1.925 q 1.2126 1.2126 1.925 2.85 T 21 13.0001 q 0 1.875 -0.7125 3.5126 t -1.925 2.85 q -1.2126 1.2126 -2.85 1.925 T 12 22.0001 Z m 0 -9 Z M 5.6001 2.35 l 1.4001 1.4001 -4.25 4.25 -1.4001 -1.4001 4.25 -4.25 Z m 12.8001 0 4.25 4.25 -1.4001 1.4001 -4.25 -4.25 1.4001 -1.4001 Z M 12 19.9999 q 2.925 0 4.9625 -2.0375 T 19.0001 13.0001 q 0 -2.925 -2.0375 -4.9625 T 12 6 q -2.925 0 -4.9625 2.0375 T 5 13.0001 q 0 2.925 2.0375 4.9625 T 12 19.9999 Z"
     id="path1" />
</svg>
