<?xml version="1.0" encoding="UTF-8" standalone="no"?>
<svg
   height="24px"
   viewBox="0 0 24 24"
   width="24px"
   fill="#000000"
   version="1.1"
   id="svg1"
   sodipodi:docname="status-check-symbolic.svg"
   inkscape:version="1.4.2 (ebf0e940d0, 2025-05-08)"
   xmlns:inkscape="http://www.inkscape.org/namespaces/inkscape"
   xmlns:sodipodi="http://sodipodi.sourceforge.net/DTD/sodipodi-0.dtd"
   xmlns="http://www.w3.org/2000/svg"
   xmlns:svg="http://www.w3.org/2000/svg">
  <defs
     id="defs1" />
  <sodipodi:namedview
     id="namedview1"
     pagecolor="#ffffff"
     bordercolor="#000000"
     borderopacity="0.25"
     inkscape:showpageshadow="2"
     inkscape:pageopacity="0.0"
     inkscape:pagecheckerboard="0"
     inkscape:deskcolor="#d1d1d1"
     inkscape:zoom="36.916667"
     inkscape:cx="12"
     inkscape:cy="12"
     inkscape:window-width="3840"
     inkscape:window-height="2020"
     inkscape:window-x="0"
     inkscape:window-y="32"
     inkscape:window-maximized="1"
     inkscape:current-layer="svg1" />
  <path
     d="M 6 22.9999 H 3 q -0.825 0 -1.4124 -0.5874 T 0.9999 21 v -3 h 2.0001 v 3 h 3 v 2.0001 Z m 12 0 v -2.0001 h 3 v -3 h 2.0001 v 3 q 0 0.825 -0.5874 1.4124 T 21 22.9999 H 18 Z M 12 18.4999 q -3 0 -5.4375 -1.775 T 3 12 q 1.125 -2.9501 3.5625 -4.725 T 12 5.5 q 3 0 5.4375 1.775 T 21 12 q -1.125 2.9501 -3.5625 4.725 T 12 18.4999 Z m 0 -2.0001 q 2.2001 0 4.025 -1.2 t 2.7999 -3.3 q -0.975 -2.1 -2.7999 -3.3 t -4.025 -1.2 q -2.2001 0 -4.025 1.2 T 5.175 12 q 0.975 2.1 2.7999 3.3 t 4.025 1.2 Z m 0 -0.9999 q 1.4501 0 2.475 -1.0251 t 1.0251 -2.475 q 0 -1.4501 -1.0251 -2.475 t -2.475 -1.0251 q -1.4501 0 -2.475 1.0251 t -1.0251 2.475 q 0 1.4501 1.0251 2.475 t 2.475 1.0251 Z m 0 -2.0001 q -0.625 0 -1.0626 -0.4375 T 10.5 12 q 0 -0.625 0.4375 -1.0626 T 12 10.5 q 0.625 0 1.0626 0.4375 T 13.5 12 q 0 0.625 -0.4375 1.0626 T 12 13.5 Z M 0.9999 6 v -3 q 0 -0.825 0.5874 -1.4124 T 3 0.9999 h 3 v 2.0001 H 3 v 3 H 0.9999 Z m 19.9999 0 v -3 H 18 v -2.0001 h 3 q 0.825 0 1.4124 0.5874 T 22.9999 3 v 3 h -2.0001 Z M 12 12 Z"
     id="path1" />
</svg>
