<?xml version="1.0" encoding="UTF-8" standalone="no"?>
<svg
   height="24px"
   viewBox="0 0 32 32"
   width="24px"
   fill="#000000"
   version="1.1"
   id="svg1"
   sodipodi:docname="status-check-symbolic.svg"
   inkscape:version="1.4.2 (ebf0e940d0, 2025-05-08)"
   xmlns:inkscape="http://www.inkscape.org/namespaces/inkscape"
   xmlns:sodipodi="http://sodipodi.sourceforge.net/DTD/sodipodi-0.dtd"
   xmlns="http://www.w3.org/2000/svg"
   xmlns:svg="http://www.w3.org/2000/svg">
  <defs
     id="defs1" />
  <sodipodi:namedview
     id="namedview1"
     pagecolor="#ffffff"
     bordercolor="#000000"
     borderopacity="0.25"
     inkscape:showpageshadow="2"
     inkscape:pageopacity="0.0"
     inkscape:pagecheckerboard="0"
     inkscape:deskcolor="#d1d1d1"
     inkscape:zoom="36.916667"
     inkscape:cx="12"
     inkscape:cy="12"
     inkscape:window-width="3840"
     inkscape:window-height="2020"
     inkscape:window-x="0"
     inkscape:window-y="32"
     inkscape:window-maximized="1"
     inkscape:current-layer="svg1" />
  <path
     d="M 8 30.6667 H 4 q -1.1 0 -1.8833 -0.7833 T 1.3333 28 v -4 h 2.6667 v 4 h 4 v 2.6667 Z m 16 0 v -2.6667 h 4 v -4 h 2.6667 v 4 q 0 1.1 -0.7833 1.8833 T 28 30.6667 H 24 Z M 16 24.6667 q -4 0 -7.25 -2.3667 T 4 16 q 1.5 -3.9333 4.75 -6.3 T 16 7.3333 q 4 0 7.25 2.3667 T 28 16 q -1.5 3.9333 -4.75 6.3 T 16 24.6667 Z m 0 -2.6667 q 2.9333 0 5.3667 -1.6 t 3.7333 -4.4 q -1.3 -2.8 -3.7333 -4.4 t -5.3667 -1.6 q -2.9333 0 -5.3667 1.6 T 6.9 16 q 1.3 2.8 3.7333 4.4 t 5.3667 1.6 Z m 0 -1.3333 q 1.9333 0 3.3 -1.3667 t 1.3667 -3.3 q 0 -1.9333 -1.3667 -3.3 t -3.3 -1.3667 q -1.9333 0 -3.3 1.3667 t -1.3667 3.3 q 0 1.9333 1.3667 3.3 t 3.3 1.3667 Z m 0 -2.6667 q -0.8333 0 -1.4167 -0.5833 T 14 16 q 0 -0.8333 0.5833 -1.4167 T 16 14 q 0.8333 0 1.4167 0.5833 T 18 16 q 0 0.8333 -0.5833 1.4167 T 16 18 Z M 1.3333 8 v -4 q 0 -1.1 0.7833 -1.8833 T 4 1.3333 h 4 v 2.6667 H 4 v 4 H 1.3333 Z m 26.6667 0 v -4 H 24 v -2.6667 h 4 q 1.1 0 1.8833 0.7833 T 30.6667 4 v 4 h -2.6667 Z M 16 16 Z"
     id="path1" />
</svg>
