<?xml version="1.0" encoding="UTF-8" standalone="no"?>
<svg
   height="24px"
   viewBox="0 0 16 16"
   width="24px"
   fill="#000000"
   version="1.1"
   id="svg1"
   sodipodi:docname="status-idle-symbolic.svg"
   inkscape:version="1.4.2 (ebf0e940d0, 2025-05-08)"
   xmlns:inkscape="http://www.inkscape.org/namespaces/inkscape"
   xmlns:sodipodi="http://sodipodi.sourceforge.net/DTD/sodipodi-0.dtd"
   xmlns="http://www.w3.org/2000/svg"
   xmlns:svg="http://www.w3.org/2000/svg">
  <defs
     id="defs1" />
  <sodipodi:namedview
     id="namedview1"
     pagecolor="#ffffff"
     bordercolor="#000000"
     borderopacity="0.25"
     inkscape:showpageshadow="2"
     inkscape:pageopacity="0.0"
     inkscape:pagecheckerboard="0"
     inkscape:deskcolor="#d1d1d1"
     inkscape:zoom="36.916667"
     inkscape:cx="12"
     inkscape:cy="12"
     inkscape:window-width="3840"
     inkscape:window-height="2020"
     inkscape:window-x="0"
     inkscape:window-y="32"
     inkscape:window-maximized="1"
     inkscape:current-layer="svg1" />
  <path
     d="M 6.3334 10.4334 h 3.3333 v -1 H 7.8 l 1.8666 -2.1 v -0.9 H 6.3334 v 1 h 1.9 L 6.3334 9.5666 v 0.8667 Z M 8 14.6667 q -1.25 0 -2.3417 -0.475 t -1.9 -1.2833 q -0.8084 -0.8084 -1.2833 -1.9 T 2 8.6667 q 0 -1.25 0.475 -2.3417 t 1.2833 -1.9 q 0.8084 -0.8084 1.9 -1.2833 T 8 2.6667 q 1.25 0 2.3417 0.475 t 1.9 1.2833 q 0.8084 0.8084 1.2833 1.9 T 14 8.6667 q 0 1.25 -0.475 2.3417 t -1.2833 1.9 q -0.8084 0.8084 -1.9 1.2833 T 8 14.6667 Z m 0 -6 Z M 3.7334 1.5667 l 0.9334 0.9334 -2.8333 2.8333 -0.9334 -0.9334 2.8333 -2.8333 Z m 8.5334 0 2.8333 2.8333 -0.9334 0.9334 -2.8333 -2.8333 0.9334 -0.9334 Z M 8 13.3333 q 1.95 0 3.3083 -1.3583 T 12.6667 8.6667 q 0 -1.95 -1.3583 -3.3083 T 8 4 q -1.95 0 -3.3083 1.3583 T 3.3333 8.6667 q 0 1.95 1.3583 3.3083 T 8 13.3333 Z"
     id="path1" />
</svg>
