<?xml version="1.0" encoding="UTF-8" standalone="no"?>
<svg
   height="24px"
   viewBox="0 0 32 32"
   width="24px"
   fill="#000000"
   version="1.1"
   id="svg1"
   sodipodi:docname="status-connecting-symbolic.svg"
   inkscape:version="1.4.2 (ebf0e940d0, 2025-05-08)"
   xmlns:inkscape="http://www.inkscape.org/namespaces/inkscape"
   xmlns:sodipodi="http://sodipodi.sourceforge.net/DTD/sodipodi-0.dtd"
   xmlns="http://www.w3.org/2000/svg"
   xmlns:svg="http://www.w3.org/2000/svg">
  <defs
     id="defs1" />
  <sodipodi:namedview
     id="namedview1"
     pagecolor="#ffffff"
     bordercolor="#000000"
     borderopacity="0.25"
     inkscape:showpageshadow="2"
     inkscape:pageopacity="0.0"
     inkscape:pagecheckerboard="0"
     inkscape:deskcolor="#d1d1d1"
     inkscape:zoom="36.916667"
     inkscape:cx="12"
     inkscape:cy="12"
     inkscape:window-width="3840"
     inkscape:window-height="2020"
     inkscape:window-x="0"
     inkscape:window-y="32"
     inkscape:window-maximized="1"
     inkscape:current-layer="svg1" />
  <path
     d="m 4 29.3333 v -9.3333 h 4 v -5.3333 h 6.6667 v -2.6667 H 10.6667 v -9.3333 h 10.6667 v 9.3333 H 17.3333 v 2.6667 14.6667 -12 H 10.6667 v 2.6667 H 14.6667 V 29.3333 Z M 13.3333 9.3333 H 18.6667 V 5.3333 H 13.3333 Z M 6.6667 26.6667 H 12 V 22.6667 H 6.6667 Z"
     id="path1"
     sodipodi:nodetypes="ccccccccccccccccccccccccccccc" />
  <path
     d="m 24.2844 21.3153 c 0.6468 0 1.1935 -0.2233 1.6401 -0.6699 0.4466 -0.4466 0.6699 -0.9933 0.6699 -1.6401 v -2.31 H 21.9744 v 2.31 c 0 0.6468 0.2233 1.1935 0.6699 1.6401 0.4466 0.4466 0.9933 0.6699 1.6401 0.6699 z m -2.31 6.468 h 4.62 v -2.31 c 0 -0.6468 -0.2233 -1.1935 -0.6699 -1.6401 -0.4466 -0.4466 -0.9933 -0.6699 -1.6401 -0.6699 -0.6468 0 -1.1935 0.2233 -1.6401 0.6699 -0.4466 0.4466 -0.6699 0.9933 -0.6699 1.6401 z m -3.234 1.848 v -1.848 h 1.386 v -2.31 c 0 -0.6468 0.1386 -1.2474 0.4158 -1.8018 0.2772 -0.5544 0.6622 -1.0318 1.155 -1.4322 -0.4928 -0.4004 -0.8778 -0.8778 -1.155 -1.4322 -0.2772 -0.5544 -0.4158 -1.155 -0.4158 -1.8018 v -2.31 h -1.386 v -1.848 h 11.088 v 1.848 h -1.386 v 2.31 c 0 0.6468 -0.1386 1.2474 -0.4158 1.8018 -0.2772 0.5544 -0.6622 1.0318 -1.155 1.4322 0.4928 0.4004 0.8778 0.8778 1.155 1.4322 0.2772 0.5544 0.4158 1.155 0.4158 1.8018 v 2.31 h 1.386 v 1.848 z"
     id="path1-5"
     sodipodi:nodetypes="sssccsssccsssssccccsscssccccccsscsscccc"
     style="stroke-width:0.0231" />
</svg>
