<?xml version="1.0" encoding="UTF-8" standalone="no"?>
<svg
   height="24px"
   viewBox="0 0 16 16"
   width="24px"
   fill="#000000"
   version="1.1"
   id="svg1"
   sodipodi:docname="status-offline-symbolic.svg"
   inkscape:version="1.4.2 (ebf0e940d0, 2025-05-08)"
   xmlns:inkscape="http://www.inkscape.org/namespaces/inkscape"
   xmlns:sodipodi="http://sodipodi.sourceforge.net/DTD/sodipodi-0.dtd"
   xmlns="http://www.w3.org/2000/svg"
   xmlns:svg="http://www.w3.org/2000/svg">
  <defs
     id="defs1" />
  <sodipodi:namedview
     id="namedview1"
     pagecolor="#ffffff"
     bordercolor="#000000"
     borderopacity="0.25"
     inkscape:showpageshadow="2"
     inkscape:pageopacity="0.0"
     inkscape:pagecheckerboard="0"
     inkscape:deskcolor="#d1d1d1"
     inkscape:zoom="36.916667"
     inkscape:cx="12"
     inkscape:cy="12"
     inkscape:window-width="3840"
     inkscape:window-height="2020"
     inkscape:window-x="0"
     inkscape:window-y="32"
     inkscape:window-maximized="1"
     inkscape:current-layer="svg1" />
  <path
     d="M 4.6666 13.3333 v -0.6666 h -0.6666 q -0.8334 0 -1.4166 -0.5834 t -0.5834 -1.4166 v -2 H 0.6666 v -1.3334 h 1.3334 v -2 q 0 -0.8334 0.5834 -1.4166 t 1.4166 -0.5834 h 0.6666 v -0.6666 h 1.3334 v 10.6667 h -1.3334 Z m -0.6666 -2 h 0.6666 v -6.6666 h -0.6666 q -0.2833 0 -0.475 0.1916 T 3.3333 5.3334 v 5.3334 q 0 0.2833 0.1916 0.475 T 4 11.3333 Z m 6 2 v -2.6667 H 7.3334 v -1.3334 h 2.6667 v -2.6667 H 7.3334 v -1.3334 h 2.6667 v -2.6667 h 1.3334 v 0.6666 h 0.6666 q 0.8334 0 1.4166 0.5834 t 0.5834 1.4166 v 2 h 1.3334 v 1.3334 h -1.3334 v 2 q 0 0.8334 -0.5834 1.4166 t -1.4166 0.5834 h -0.6666 v 0.6666 h -1.3334 Z m 1.3334 -2 h 0.6666 q 0.2833 0 0.475 -0.1916 T 12.6667 10.6667 v -5.3334 q 0 -0.2833 -0.1916 -0.475 T 12 4.6666 h -0.6666 v 6.6666 Z M 4.6666 8 Z m 6.6666 0 Z"
     id="path1" />
</svg>
