<?xml version="1.0" encoding="UTF-8" standalone="no"?>
<svg
   height="24px"
   viewBox="0 0 16 16"
   width="24px"
   fill="#000000"
   version="1.1"
   id="svg1"
   sodipodi:docname="step-settings-symbolic.svg"
   inkscape:version="1.4.2 (ebf0e940d0, 2025-05-08)"
   xmlns:inkscape="http://www.inkscape.org/namespaces/inkscape"
   xmlns:sodipodi="http://sodipodi.sourceforge.net/DTD/sodipodi-0.dtd"
   xmlns="http://www.w3.org/2000/svg"
   xmlns:svg="http://www.w3.org/2000/svg">
  <defs
     id="defs1" />
  <sodipodi:namedview
     id="namedview1"
     pagecolor="#ffffff"
     bordercolor="#000000"
     borderopacity="0.25"
     inkscape:showpageshadow="2"
     inkscape:pageopacity="0.0"
     inkscape:pagecheckerboard="0"
     inkscape:deskcolor="#d1d1d1"
     inkscape:zoom="36.916667"
     inkscape:cx="12"
     inkscape:cy="12"
     inkscape:window-width="3840"
     inkscape:window-height="2020"
     inkscape:window-x="0"
     inkscape:window-y="32"
     inkscape:window-maximized="1"
     inkscape:current-layer="svg1" />
  <path
     d="M 11.8333 13.5 q -1.05 0 -1.775 -0.725 T 9.3333 11 q 0 -1.05 0.725 -1.775 T 11.8333 8.5 q 1.05 0 1.775 0.725 T 14.3333 11 q 0 1.05 -0.725 1.775 T 11.8333 13.5 Z m 0 -1.3334 q 0.4834 0 0.825 -0.3417 T 13 11 q 0 -0.4834 -0.3417 -0.825 T 11.8333 9.8333 q -0.4834 0 -0.825 0.3417 T 10.6667 11 q 0 0.4834 0.3417 0.825 T 11.8333 12.1667 Z m -9.1667 -0.5 v -1.3334 h 5.3334 v 1.3334 H 2.6667 Z m 1.5 -4.1666 q -1.05 0 -1.775 -0.725 T 1.6666 5 q 0 -1.05 0.725 -1.775 T 4.1666 2.5 q 1.05 0 1.775 0.725 T 6.6666 5 q 0 1.05 -0.725 1.775 T 4.1666 7.5 Z m 0 -1.3334 q 0.4834 0 0.825 -0.3417 T 5.3334 5 q 0 -0.4834 -0.3417 -0.825 T 4.1666 3.8333 q -0.4834 0 -0.825 0.3417 T 3 5 q 0 0.4834 0.3417 0.825 T 4.1666 6.1666 Z m 3.8333 -0.5 v -1.3334 h 5.3334 v 1.3334 H 8 Z m 3.8333 5.3334 Z M 4.1666 5 Z"
     id="path1" />
</svg>
