<?xml version="1.0" encoding="UTF-8" standalone="no"?>
<svg
   height="24px"
   viewBox="0 0 24 24"
   width="24px"
   fill="#000000"
   version="1.1"
   id="svg1"
   sodipodi:docname="step-settings-symbolic.svg"
   inkscape:version="1.4.2 (ebf0e940d0, 2025-05-08)"
   xmlns:inkscape="http://www.inkscape.org/namespaces/inkscape"
   xmlns:sodipodi="http://sodipodi.sourceforge.net/DTD/sodipodi-0.dtd"
   xmlns="http://www.w3.org/2000/svg"
   xmlns:svg="http://www.w3.org/2000/svg">
  <defs
     id="defs1" />
  <sodipodi:namedview
     id="namedview1"
     pagecolor="#ffffff"
     bordercolor="#000000"
     borderopacity="0.25"
     inkscape:showpageshadow="2"
     inkscape:pageopacity="0.0"
     inkscape:pagecheckerboard="0"
     inkscape:deskcolor="#d1d1d1"
     inkscape:zoom="36.916667"
     inkscape:cx="12"
     inkscape:cy="12"
     inkscape:window-width="3840"
     inkscape:window-height="2020"
     inkscape:window-x="0"
     inkscape:window-y="32"
     inkscape:window-maximized="1"
     inkscape:current-layer="svg1" />
  <path
     d="M 17.7499 20.25 q -1.575 0 -2.6625 -1.0875 T 13.9999 16.5 q 0 -1.575 1.0875 -2.6625 T 17.7499 12.75 q 1.575 0 2.6625 1.0875 T 21.4999 16.5 q 0 1.575 -1.0875 2.6625 T 17.7499 20.25 Z m 0 -2.0001 q 0.7251 0 1.2375 -0.5126 T 19.5 16.5 q 0 -0.7251 -0.5126 -1.2375 T 17.7499 14.7499 q -0.7251 0 -1.2375 0.5126 T 16.0001 16.5 q 0 0.7251 0.5126 1.2375 T 17.7499 18.2501 Z m -13.7501 -0.75 v -2.0001 h 8.0001 v 2.0001 H 4 Z m 2.25 -6.2499 q -1.575 0 -2.6625 -1.0875 T 2.4999 7.5 q 0 -1.575 1.0875 -2.6625 T 6.2499 3.75 q 1.575 0 2.6625 1.0875 T 9.9999 7.5 q 0 1.575 -1.0875 2.6625 T 6.2499 11.25 Z m 0 -2.0001 q 0.7251 0 1.2375 -0.5126 T 8.0001 7.5 q 0 -0.7251 -0.5126 -1.2375 T 6.2499 5.75 q -0.7251 0 -1.2375 0.5126 T 4.5 7.5 q 0 0.7251 0.5126 1.2375 T 6.2499 9.2499 Z m 5.75 -0.75 v -2.0001 h 8.0001 v 2.0001 H 12 Z m 5.75 8.0001 Z M 6.2499 7.5 Z"
     id="path1" />
</svg>
