<?xml version="1.0" encoding="UTF-8" standalone="no"?>
<svg
   height="24px"
   viewBox="0 0 32 32"
   width="24px"
   fill="#000000"
   version="1.1"
   id="svg1"
   sodipodi:docname="step-settings-symbolic.svg"
   inkscape:version="1.4.2 (ebf0e940d0, 2025-05-08)"
   xmlns:inkscape="http://www.inkscape.org/namespaces/inkscape"
   xmlns:sodipodi="http://sodipodi.sourceforge.net/DTD/sodipodi-0.dtd"
   xmlns="http://www.w3.org/2000/svg"
   xmlns:svg="http://www.w3.org/2000/svg">
  <defs
     id="defs1" />
  <sodipodi:namedview
     id="namedview1"
     pagecolor="#ffffff"
     bordercolor="#000000"
     borderopacity="0.25"
     inkscape:showpageshadow="2"
     inkscape:pageopacity="0.0"
     inkscape:pagecheckerboard="0"
     inkscape:deskcolor="#d1d1d1"
     inkscape:zoom="36.916667"
     inkscape:cx="12"
     inkscape:cy="12"
     inkscape:window-width="3840"
     inkscape:window-height="2020"
     inkscape:window-x="0"
     inkscape:window-y="32"
     inkscape:window-maximized="1"
     inkscape:current-layer="svg1" />
  <path
     d="M 23.6667 27 q -2.1 0 -3.55 -1.45 T 18.6667 22 q 0 -2.1 1.45 -3.55 T 23.6667 17 q 2.1 0 3.55 1.45 T 28.6667 22 q 0 2.1 -1.45 3.55 T 23.6667 27 Z m 0 -2.6667 q 0.9667 0 1.65 -0.6833 T 26 22 q 0 -0.9667 -0.6833 -1.65 T 23.6667 19.6667 q -0.9667 0 -1.65 0.6833 T 21.3333 22 q 0 0.9667 0.6833 1.65 T 23.6667 24.3333 Z m -18.3333 -1 v -2.6667 h 10.6667 v 2.6667 H 5.3333 Z m 3 -8.3333 q -2.1 0 -3.55 -1.45 T 3.3333 10 q 0 -2.1 1.45 -3.55 T 8.3333 5 q 2.1 0 3.55 1.45 T 13.3333 10 q 0 2.1 -1.45 3.55 T 8.3333 15 Z m 0 -2.6667 q 0.9667 0 1.65 -0.6833 T 10.6667 10 q 0 -0.9667 -0.6833 -1.65 T 8.3333 7.6667 q -0.9667 0 -1.65 0.6833 T 6 10 q 0 0.9667 0.6833 1.65 T 8.3333 12.3333 Z m 7.6667 -1 v -2.6667 h 10.6667 v 2.6667 H 16 Z m 7.6667 10.6667 Z M 8.3333 10 Z"
     id="path1" />
</svg>
