<?xml version="1.0" encoding="UTF-8" standalone="no"?>
<svg
   height="24px"
   viewBox="0 0 16 16"
   width="24px"
   fill="#000000"
   version="1.1"
   id="svg1"
   xmlns="http://www.w3.org/2000/svg"
   xmlns:svg="http://www.w3.org/2000/svg">
  <defs
     id="defs1" />
  <path
     d="m 3.3333 14 c -0.3666 0 -0.6805 -0.1305 -0.9416 -0.3916 C 2.1305 13.3472 2 13.0334 2 12.6667 v -9.3333 c 0 -0.3666 0.1305 -0.6805 0.3916 -0.9416 0.2611 -0.2611 0.575 -0.3916 0.9416 -0.3916 h 9.3333 c 0.3666 0 0.6805 0.1305 0.9416 0.3916 0.2611 0.2611 0.3916 0.575 0.3916 0.9416 v 9.3333 c 0 0.3666 -0.1305 0.6805 -0.3916 0.9416 -0.2611 0.2611 -0.575 0.3916 -0.9416 0.3916 z m 0 -1.3334 H 12.6667 V 3.3333 H 3.3333 Z m 0 -9.3333 v 9.3333 z"
     id="path1" />
</svg>
