<?xml version="1.0" encoding="UTF-8" standalone="no"?>
<svg
   height="24px"
   viewBox="0 0 32 32"
   width="24px"
   fill="#000000"
   version="1.1"
   id="svg1"
   xmlns="http://www.w3.org/2000/svg"
   xmlns:svg="http://www.w3.org/2000/svg">
  <defs
     id="defs1" />
  <path
     d="m 6.6667 28 c -0.7333 0 -1.3611 -0.2611 -1.8833 -0.7833 C 4.2611 26.6944 4 26.0667 4 25.3333 v -18.6667 c 0 -0.7333 0.2611 -1.3611 0.7833 -1.8833 0.5222 -0.5222 1.15 -0.7833 1.8833 -0.7833 h 18.6667 c 0.7333 0 1.3611 0.2611 1.8833 0.7833 0.5222 0.5222 0.7833 1.15 0.7833 1.8833 v 18.6667 c 0 0.7333 -0.2611 1.3611 -0.7833 1.8833 -0.5222 0.5222 -1.15 0.7833 -1.8833 0.7833 z m 0 -2.6667 H 25.3333 V 6.6667 H 6.6667 Z m 0 -18.6667 v 18.6667 z"
     id="path1" />
</svg>
