<?xml version="1.0" encoding="UTF-8" standalone="no"?>
<svg
   height="24px"
   viewBox="0 0 24 24"
   width="24px"
   fill="#000000"
   version="1.1"
   id="svg1"
   xmlns="http://www.w3.org/2000/svg"
   xmlns:svg="http://www.w3.org/2000/svg">
  <defs
     id="defs1" />
  <path
     d="m 5 21 c -0.5499 0 -1.0208 -0.1958 -1.4124 -0.5874 C 3.1958 20.0208 3 19.5501 3 19.0001 v -13.9999 c 0 -0.5499 0.1958 -1.0208 0.5874 -1.4124 0.3916 -0.3916 0.8625 -0.5874 1.4124 -0.5874 h 13.9999 c 0.5499 0 1.0208 0.1958 1.4124 0.5874 0.3916 0.3916 0.5874 0.8625 0.5874 1.4124 v 13.9999 c 0 0.5499 -0.1958 1.0208 -0.5874 1.4124 -0.3916 0.3916 -0.8625 0.5874 -1.4124 0.5874 z m 0 -2.0001 H 19.0001 V 5 H 5 Z m 0 -13.9999 v 13.9999 z"
     id="path1" />
</svg>
