<?xml version="1.0" encoding="UTF-8" standalone="no"?>
<svg
   height="24px"
   viewBox="0 0 16 16"
   width="24px"
   fill="#000000"
   version="1.1"
   id="svg1"
   xmlns="http://www.w3.org/2000/svg"
   xmlns:svg="http://www.w3.org/2000/svg">
  <defs
     id="defs1" />
  <path
     d="M 5.3334 10.6667 h 5.3334 v -5.3334 H 5.3334 v 5.3334 Z M 8 14.6667 q -1.3834 0 -2.6 -0.525 T 3.2833 12.7166 q -0.9 -0.9 -1.425 -2.1166 T 1.3334 8 q 0 -1.3834 0.525 -2.6 T 3.2833 3.2833 q 0.9 -0.9 2.1166 -1.425 T 8 1.3334 q 1.3834 0 2.6 0.525 T 12.7166 3.2833 q 0.9 0.9 1.425 2.1166 T 14.6667 8 q 0 1.3834 -0.525 2.6 T 12.7166 12.7166 q -0.9 0.9 -2.1166 1.425 T 8 14.6667 Z m 0 -1.3334 q 2.2334 0 3.7833 -1.55 t 1.55 -3.7833 q 0 -2.2334 -1.55 -3.7833 t -3.7833 -1.55 q -2.2334 0 -3.7833 1.55 t -1.55 3.7833 q 0 2.2334 1.55 3.7833 t 3.7833 1.55 Z m 0 -5.3334 Z"
     id="path1" />
</svg>
