<?xml version="1.0" encoding="UTF-8" standalone="no"?>
<svg
   height="24px"
   viewBox="0 0 16 16"
   width="24px"
   fill="#000000"
   version="1.1"
   id="svg1"
   xmlns="http://www.w3.org/2000/svg"
   xmlns:svg="http://www.w3.org/2000/svg">
  <defs
     id="defs1" />
  <path
     d="m 10.7269 12.8098 c 0.4557 0 0.8431 -0.1608 1.1622 -0.4825 0.319 -0.3217 0.4785 -0.7123 0.4785 -1.1719 0 -0.4596 -0.1595 -0.8502 -0.4785 -1.1719 -0.319 -0.3217 -0.7064 -0.4825 -1.1622 -0.4825 -0.4557 0 -0.8431 0.1608 -1.1622 0.4825 -0.319 0.3217 -0.4785 0.7123 -0.4785 1.1719 0 0.4596 0.1595 0.8502 0.4785 1.1719 0.319 0.3217 0.7064 0.4825 1.1622 0.4825 z m 0 -0.6617 c -0.2735 0 -0.5059 -0.0965 -0.6973 -0.2895 -0.1914 -0.193 -0.2871 -0.4274 -0.2871 -0.7031 0 -0.2757 0.0957 -0.5101 0.2871 -0.7031 0.1914 -0.193 0.4239 -0.2895 0.6973 -0.2895 0.2735 0 0.5059 0.0965 0.6973 0.2895 0.1914 0.193 0.2871 0.4274 0.2871 0.7031 0 0.2757 -0.0957 0.5101 -0.2871 0.7031 -0.1914 0.193 -0.4239 0.2895 -0.6973 0.2895 z m 0 1.7647 c -0.8872 0 -1.6953 -0.2497 -2.4245 -0.7491 -0.7292 -0.4994 -1.2578 -1.1688 -1.586 -2.0082 0.3281 -0.8395 0.8568 -1.5089 1.586 -2.0082 0.7292 -0.4994 1.5373 -0.7491 2.4245 -0.7491 0.8872 0 1.6953 0.2497 2.4245 0.7491 0.7292 0.4994 1.2578 1.1688 1.586 2.0082 -0.3281 0.8395 -0.8568 1.5089 -1.586 2.0082 -0.7292 0.4994 -1.5373 0.7491 -2.4245 0.7491 z m 0 -0.7353 c 0.6866 0 1.3171 -0.1823 1.8914 -0.5468 0.5743 -0.3646 1.0132 -0.8563 1.3171 -1.4752 -0.3039 -0.6189 -0.7429 -1.1106 -1.3171 -1.4752 -0.5743 -0.3646 -1.2047 -0.5468 -1.8914 -0.5468 -0.6866 0 -1.3171 0.1823 -1.8914 0.5468 -0.5743 0.3646 -1.0132 0.8563 -1.3171 1.4752 0.3039 0.6189 0.7429 1.1106 1.3171 1.4752 0.5743 0.3646 1.2047 0.5468 1.8914 0.5468 z"
     id="path1"
     style="stroke-width:0.0092" />
  <path
     d="M 11.3333 7.7291 H 10 V 4.6666 c 0 -0.5666 -0.2 -1.0416 -0.6 -1.425 -0.4 -0.3834 -0.8667 -0.575 -1.4 -0.575 -0.5333 0 -1 0.1916 -1.4 0.575 -0.4 0.3834 -0.6 0.8583 -0.6 1.425 v 6.6666 c 0 0.5333 0.2 1 0.6 1.4 0.4 0.4 0.65 0.5097 1.1833 0.5097 v 1.3334 C 6.8388 14.5763 6.2639 14.3472 5.625 13.7083 4.9861 13.0694 4.6666 12.2778 4.6666 11.3333 v -6.6666 c 0 -0.9445 0.3195 -1.7361 0.9584 -2.375 0.6389 -0.6389 1.4305 -0.9584 2.375 -0.9584 0.9445 0 1.7361 0.3195 2.375 0.9584 0.6389 0.6389 0.9584 1.4305 0.9584 2.375 z"
     id="path1-2" />
</svg>
