<?xml version="1.0" encoding="UTF-8" standalone="no"?>
<svg
   height="24px"
   viewBox="0 0 24 24"
   width="24px"
   fill="#000000"
   version="1.1"
   id="svg1"
   xmlns="http://www.w3.org/2000/svg"
   xmlns:svg="http://www.w3.org/2000/svg">
  <defs
     id="defs1" />
  <path
     d="m 16.0904 19.2147 c 0.6835 0 1.2647 -0.2412 1.7433 -0.7238 0.4785 -0.4825 0.7177 -1.0685 0.7177 -1.7578 0 -0.6894 -0.2393 -1.2753 -0.7177 -1.7578 -0.4785 -0.4825 -1.0596 -0.7238 -1.7433 -0.7238 -0.6835 0 -1.2647 0.2412 -1.7433 0.7238 -0.4785 0.4825 -0.7177 1.0685 -0.7177 1.7578 0 0.6894 0.2393 1.2753 0.7177 1.7578 0.4785 0.4825 1.0596 0.7238 1.7433 0.7238 z m 0 -0.9925 c -0.4103 0 -0.7589 -0.1447 -1.0459 -0.4342 -0.2871 -0.2895 -0.4307 -0.6411 -0.4307 -1.0546 0 -0.4135 0.1435 -0.7651 0.4307 -1.0546 0.2871 -0.2895 0.6359 -0.4342 1.0459 -0.4342 0.4103 0 0.7589 0.1447 1.0459 0.4342 0.2871 0.2895 0.4307 0.6411 0.4307 1.0546 0 0.4135 -0.1435 0.7651 -0.4307 1.0546 -0.2871 0.2895 -0.6359 0.4342 -1.0459 0.4342 z m 0 2.6471 c -1.3308 0 -2.543 -0.3745 -3.6368 -1.1237 -1.0938 -0.7491 -1.8867 -1.7532 -2.379 -3.0123 0.4921 -1.2592 1.2852 -2.2633 2.379 -3.0123 1.0938 -0.7491 2.306 -1.1237 3.6368 -1.1237 1.3308 0 2.543 0.3745 3.6368 1.1237 1.0938 0.7491 1.8867 1.7532 2.379 3.0123 -0.4921 1.2592 -1.2852 2.2633 -2.379 3.0123 -1.0938 0.7491 -2.306 1.1237 -3.6368 1.1237 z m 0 -1.1029 c 1.0299 0 1.9756 -0.2734 2.8371 -0.8202 0.8615 -0.5469 1.5198 -1.2844 1.9756 -2.2128 -0.4558 -0.9284 -1.1143 -1.6659 -1.9756 -2.2128 -0.8615 -0.5469 -1.8071 -0.8202 -2.8371 -0.8202 -1.0299 0 -1.9756 0.2734 -2.8371 0.8202 -0.8615 0.5469 -1.5198 1.2844 -1.9756 2.2128 0.4558 0.9284 1.1143 1.6659 1.9756 2.2128 0.8615 0.5469 1.8071 0.8202 2.8371 0.8202 z"
     id="path1"
     style="stroke-width:0.0138" />
  <path
     d="M 16.9999 11.5937 H 15 V 6.9999 c 0 -0.8499 -0.3 -1.5624 -0.9 -2.1375 -0.6 -0.5751 -1.3001 -0.8625 -2.1 -0.8625 -0.7999 0 -1.5 0.2874 -2.1 0.8625 -0.6 0.5751 -0.9 1.2874 -0.9 2.1375 v 9.9999 c 0 0.7999 0.3 1.5 0.9 2.1 0.6 0.6 0.975 0.7646 1.775 0.7646 v 2.0001 C 10.2582 21.8644 9.3958 21.5208 8.4375 20.5624 7.4792 19.6041 6.9999 18.4167 6.9999 16.9999 v -9.9999 c 0 -1.4167 0.4793 -2.6041 1.4376 -3.5625 0.9584 -0.9584 2.1458 -1.4376 3.5625 -1.4376 1.4167 0 2.6041 0.4793 3.5625 1.4376 0.9584 0.9584 1.4376 2.1458 1.4376 3.5625 z"
     id="path1-2" />
</svg>
