<?xml version="1.0" encoding="UTF-8" standalone="no"?>
<svg
   height="24px"
   viewBox="0 0 32 32"
   width="24px"
   fill="#000000"
   version="1.1"
   id="svg1"
   xmlns="http://www.w3.org/2000/svg"
   xmlns:svg="http://www.w3.org/2000/svg">
  <defs
     id="defs1" />
  <path
     d="m 21.4537 25.6196 c 0.9115 0 1.6862 -0.3217 2.3243 -0.9651 0.638 -0.6434 0.9571 -1.4246 0.9571 -2.3437 0 -0.9191 -0.319 -1.7004 -0.9571 -2.3437 -0.638 -0.6434 -1.4128 -0.9651 -2.3243 -0.9651 -0.9115 0 -1.6862 0.3217 -2.3243 0.9651 -0.638 0.6434 -0.9571 1.4246 -0.9571 2.3437 0 0.9191 0.319 1.7004 0.9571 2.3437 0.638 0.6434 1.4128 0.9651 2.3243 0.9651 z m 0 -1.3235 c -0.5469 0 -1.0117 -0.193 -1.3946 -0.579 -0.3828 -0.386 -0.5742 -0.8548 -0.5742 -1.4062 0 -0.5515 0.1914 -1.0202 0.5742 -1.4062 0.3828 -0.386 0.8477 -0.579 1.3946 -0.579 0.5469 0 1.0117 0.193 1.3946 0.579 0.3828 0.386 0.5742 0.8548 0.5742 1.4062 0 0.5515 -0.1914 1.0202 -0.5742 1.4062 -0.3828 0.386 -0.8477 0.579 -1.3946 0.579 z m 0 3.5294 c -1.7744 0 -3.3907 -0.4994 -4.8491 -1.4982 -1.4584 -0.9988 -2.5157 -2.3376 -3.172 -4.0165 0.6563 -1.6789 1.7136 -3.0178 3.172 -4.0165 1.4584 -0.9988 3.0747 -1.4982 4.8491 -1.4982 1.7744 0 3.3907 0.4994 4.8491 1.4982 1.4584 0.9988 2.5157 2.3376 3.172 4.0165 -0.6563 1.6789 -1.7136 3.0178 -3.172 4.0165 -1.4584 0.9988 -3.0747 1.4982 -4.8491 1.4982 z m 0 -1.4706 c 1.3733 0 2.6342 -0.3646 3.7827 -1.0937 1.1485 -0.7292 2.0265 -1.7126 2.6342 -2.9504 -0.6077 -1.2377 -1.4857 -2.2212 -2.6342 -2.9504 -1.1485 -0.7292 -2.4094 -1.0937 -3.7827 -1.0937 -1.3733 0 -2.6342 0.3646 -3.7827 1.0937 -1.1485 0.7292 -2.0265 1.7126 -2.6342 2.9504 0.6077 1.2377 1.4857 2.2212 2.6342 2.9504 1.1485 0.7292 2.4094 1.0937 3.7827 1.0937 z"
     id="path1"
     style="stroke-width:0.0183" />
  <path
     d="M 22.6667 15.4582 H 20 V 9.3333 c 0 -1.1333 -0.4 -2.0833 -1.2 -2.85 -0.8 -0.7667 -1.7333 -1.15 -2.8 -1.15 -1.0667 0 -2 0.3833 -2.8 1.15 -0.8 0.7667 -1.2 1.7167 -1.2 2.85 v 13.3333 c 0 1.0667 0.4 2 1.2 2.8 0.8 0.8 1.2999 1.0194 2.3666 1.0194 v 2.6667 C 13.6777 29.1527 12.5278 28.6944 11.25 27.4167 9.9722 26.1389 9.3333 24.5556 9.3333 22.6667 v -13.3333 c 0 -1.8889 0.6389 -3.4722 1.9167 -4.75 1.2778 -1.2778 2.8611 -1.9167 4.75 -1.9167 1.8889 0 3.4722 0.6389 4.75 1.9167 1.2778 1.2778 1.9167 2.8611 1.9167 4.75 z"
     id="path1-2" />
</svg>
