<?xml version="1.0" encoding="UTF-8" standalone="no"?>
<svg
   height="24px"
   viewBox="0 0 32 32"
   width="24px"
   fill="#000000"
   version="1.1"
   id="svg1"
   sodipodi:docname="timer-symbolic.svg"
   inkscape:version="1.4.3 (0d15f75042, 2025-12-25)"
   xmlns:inkscape="http://www.inkscape.org/namespaces/inkscape"
   xmlns:sodipodi="http://sodipodi.sourceforge.net/DTD/sodipodi-0.dtd"
   xmlns="http://www.w3.org/2000/svg"
   xmlns:svg="http://www.w3.org/2000/svg">
  <defs
     id="defs1" />
  <sodipodi:namedview
     id="namedview1"
     pagecolor="#ffffff"
     bordercolor="#000000"
     borderopacity="0.25"
     inkscape:showpageshadow="2"
     inkscape:pageopacity="0.0"
     inkscape:pagecheckerboard="0"
     inkscape:deskcolor="#d1d1d1"
     inkscape:zoom="36.916667"
     inkscape:cx="12"
     inkscape:cy="12"
     inkscape:window-width="3840"
     inkscape:window-height="2020"
     inkscape:window-x="0"
     inkscape:window-y="32"
     inkscape:window-maximized="1"
     inkscape:current-layer="svg1" />
  <path
     d="M 12 4 v -2.6667 h 8 v 2.6667 H 12 Z m 2.6667 14.6667 h 2.6667 v -8 h -2.6667 v 8 Z m 1.3333 10.6667 q -2.4667 0 -4.65 -0.95 T 7.5333 25.8 q -1.6333 -1.6333 -2.5833 -3.8167 T 4 17.3333 q 0 -2.4667 0.95 -4.65 T 7.5333 8.8667 q 1.6333 -1.6333 3.8167 -2.5833 T 16 5.3333 q 2.0667 0 3.9667 0.6667 t 3.5667 1.9333 l 1.8667 -1.8667 1.8667 1.8667 -1.8667 1.8667 q 1.2667 1.6667 1.9333 3.5667 t 0.6667 3.9667 q 0 2.4667 -0.95 4.65 T 24.4667 25.8 q -1.6333 1.6333 -3.8167 2.5833 T 16 29.3333 Z m 0 -2.6667 q 3.8667 0 6.6 -2.7333 t 2.7333 -6.6 q 0 -3.8667 -2.7333 -6.6 t -6.6 -2.7333 q -3.8667 0 -6.6 2.7333 t -2.7333 6.6 q 0 3.8667 2.7333 6.6 t 6.6 2.7333 Z m 0 -9.3333 Z"
     id="path1" />
</svg>
