<?xml version="1.0" encoding="UTF-8" standalone="no"?>
<svg
   height="24px"
   viewBox="0 0 24 24"
   width="24px"
   fill="#000000"
   version="1.1"
   id="svg2"
   xmlns="http://www.w3.org/2000/svg"
   xmlns:svg="http://www.w3.org/2000/svg">
  <defs
     id="defs2" />
  <path
     d="M 0 0 h 24 v 24 H 0 V 0 z"
     fill="none"
     id="path1" />
  <path
     d="M 19.5 9.5001 c -1.0299 0 -1.9 0.62 -2.29 1.5 h -2.9199 c -0.39 -0.88 -1.26 -1.5 -2.29 -1.5 s -1.9 0.62 -2.29 1.5 H 6.79 c -0.39 -0.88 -1.26 -1.5 -2.29 -1.5 C 3.12 9.5001 2.0001 10.62 2.0001 12 s 1.12 2.4999 2.4999 2.4999 c 1.0299 0 1.9 -0.62 2.29 -1.5 h 2.9199 c 0.39 0.88 1.26 1.5 2.29 1.5 s 1.9 -0.62 2.29 -1.5 h 2.9199 c 0.39 0.88 1.26 1.5 2.29 1.5 1.38 0 2.4999 -1.12 2.4999 -2.4999 s -1.12 -2.4999 -2.4999 -2.4999 z"
     id="path2" />
</svg>
