<?xml version="1.0" encoding="UTF-8" standalone="no"?>
<svg
   height="24px"
   viewBox="0 0 32 32"
   width="24px"
   fill="#000000"
   version="1.1"
   id="svg2"
   xmlns="http://www.w3.org/2000/svg"
   xmlns:svg="http://www.w3.org/2000/svg">
  <defs
     id="defs2" />
  <path
     d="M 0 0 h 32 v 32 H 0 V 0 z"
     fill="none"
     id="path1" />
  <path
     d="M 26 12.6667 c -1.3733 0 -2.5333 0.8267 -3.0533 2 h -3.8933 c -0.52 -1.1733 -1.68 -2 -3.0533 -2 s -2.5333 0.8267 -3.0533 2 H 9.0533 c -0.52 -1.1733 -1.68 -2 -3.0533 -2 C 4.16 12.6667 2.6667 14.16 2.6667 16 s 1.4933 3.3333 3.3333 3.3333 c 1.3733 0 2.5333 -0.8267 3.0533 -2 h 3.8933 c 0.52 1.1733 1.68 2 3.0533 2 s 2.5333 -0.8267 3.0533 -2 h 3.8933 c 0.52 1.1733 1.68 2 3.0533 2 1.84 0 3.3333 -1.4933 3.3333 -3.3333 s -1.4933 -3.3333 -3.3333 -3.3333 z"
     id="path2" />
</svg>
