<?xml version="1.0" encoding="UTF-8" standalone="no"?>
<svg
   height="24px"
   viewBox="0 0 16 16"
   width="24px"
   fill="#000000"
   version="1.1"
   id="svg2"
   xmlns="http://www.w3.org/2000/svg"
   xmlns:svg="http://www.w3.org/2000/svg">
  <defs
     id="defs2" />
  <path
     d="M 0 0 h 16 v 16 H 0 V 0 z"
     fill="none"
     id="path1" />
  <path
     d="M 13 6.3334 c -0.6866 0 -1.2667 0.4133 -1.5267 1 h -1.9466 c -0.26 -0.5867 -0.84 -1 -1.5267 -1 s -1.2667 0.4133 -1.5267 1 H 4.5267 c -0.26 -0.5867 -0.84 -1 -1.5267 -1 C 2.08 6.3334 1.3334 7.08 1.3334 8 s 0.7467 1.6666 1.6666 1.6666 c 0.6866 0 1.2667 -0.4133 1.5267 -1 h 1.9466 c 0.26 0.5867 0.84 1 1.5267 1 s 1.2667 -0.4133 1.5267 -1 h 1.9466 c 0.26 0.5867 0.84 1 1.5267 1 0.92 0 1.6666 -0.7467 1.6666 -1.6666 s -0.7467 -1.6666 -1.6666 -1.6666 z"
     id="path2" />
</svg>
