<?xml version="1.0" encoding="UTF-8" standalone="no"?>
<svg
   height="24px"
   viewBox="0 0 24 24"
   width="24px"
   fill="#000000"
   version="1.1"
   id="svg1"
   sodipodi:docname="timer-symbolic.svg"
   inkscape:version="1.4.3 (0d15f75042, 2025-12-25)"
   xmlns:inkscape="http://www.inkscape.org/namespaces/inkscape"
   xmlns:sodipodi="http://sodipodi.sourceforge.net/DTD/sodipodi-0.dtd"
   xmlns="http://www.w3.org/2000/svg"
   xmlns:svg="http://www.w3.org/2000/svg">
  <defs
     id="defs1" />
  <sodipodi:namedview
     id="namedview1"
     pagecolor="#ffffff"
     bordercolor="#000000"
     borderopacity="0.25"
     inkscape:showpageshadow="2"
     inkscape:pageopacity="0.0"
     inkscape:pagecheckerboard="0"
     inkscape:deskcolor="#d1d1d1"
     inkscape:zoom="36.916667"
     inkscape:cx="12"
     inkscape:cy="12"
     inkscape:window-width="3840"
     inkscape:window-height="2020"
     inkscape:window-x="0"
     inkscape:window-y="32"
     inkscape:window-maximized="1"
     inkscape:current-layer="svg1" />
  <path
     d="M 9 3 v -2.0001 h 6 v 2.0001 H 9 Z m 2.0001 11.0001 h 2.0001 v -6 h -2.0001 v 6 Z m 0.9999 8.0001 q -1.85 0 -3.4875 -0.7125 T 5.6499 19.35 q -1.2249 -1.2249 -1.9374 -2.8624 T 3 13.0001 q 0 -1.85 0.7125 -3.4875 T 5.6499 6.65 q 1.2249 -1.2249 2.8624 -1.9374 T 12 4 q 1.55 0 2.975 0.5 t 2.6749 1.4501 l 1.4001 -1.4001 1.4001 1.4001 -1.4001 1.4001 q 0.9499 1.2501 1.4501 2.6749 t 0.5 2.975 q 0 1.85 -0.7125 3.4875 T 18.3499 19.35 q -1.2249 1.2249 -2.8624 1.9374 T 12 22.0001 Z m 0 -2.0001 q 2.9 0 4.95 -2.0499 t 2.0499 -4.95 q 0 -2.9 -2.0499 -4.95 t -4.95 -2.0499 q -2.9 0 -4.95 2.0499 t -2.0499 4.95 q 0 2.9 2.0499 4.95 t 4.95 2.0499 Z m 0 -6.9999 Z"
     id="path1" />
</svg>
