<?xml version="1.0" encoding="UTF-8" standalone="no"?>
<svg
   height="24px"
   viewBox="0 0 16 16"
   width="24px"
   fill="#000000"
   version="1.1"
   id="svg1"
   sodipodi:docname="timer-symbolic.svg"
   inkscape:version="1.4.3 (0d15f75042, 2025-12-25)"
   xmlns:inkscape="http://www.inkscape.org/namespaces/inkscape"
   xmlns:sodipodi="http://sodipodi.sourceforge.net/DTD/sodipodi-0.dtd"
   xmlns="http://www.w3.org/2000/svg"
   xmlns:svg="http://www.w3.org/2000/svg">
  <defs
     id="defs1" />
  <sodipodi:namedview
     id="namedview1"
     pagecolor="#ffffff"
     bordercolor="#000000"
     borderopacity="0.25"
     inkscape:showpageshadow="2"
     inkscape:pageopacity="0.0"
     inkscape:pagecheckerboard="0"
     inkscape:deskcolor="#d1d1d1"
     inkscape:zoom="36.916667"
     inkscape:cx="12"
     inkscape:cy="12"
     inkscape:window-width="3840"
     inkscape:window-height="2020"
     inkscape:window-x="0"
     inkscape:window-y="32"
     inkscape:window-maximized="1"
     inkscape:current-layer="svg1" />
  <path
     d="M 6 2 v -1.3334 h 4 v 1.3334 H 6 Z m 1.3334 7.3334 h 1.3334 v -4 h -1.3334 v 4 Z m 0.6666 5.3334 q -1.2333 0 -2.325 -0.475 T 3.7666 12.9 q -0.8166 -0.8166 -1.2916 -1.9083 T 2 8.6667 q 0 -1.2333 0.475 -2.325 T 3.7666 4.4333 q 0.8166 -0.8166 1.9083 -1.2916 T 8 2.6667 q 1.0333 0 1.9833 0.3333 t 1.7833 0.9667 l 0.9334 -0.9334 0.9334 0.9334 -0.9334 0.9334 q 0.6333 0.8334 0.9667 1.7833 t 0.3333 1.9833 q 0 1.2333 -0.475 2.325 T 12.2333 12.9 q -0.8166 0.8166 -1.9083 1.2916 T 8 14.6667 Z m 0 -1.3334 q 1.9333 0 3.3 -1.3666 t 1.3666 -3.3 q 0 -1.9333 -1.3666 -3.3 t -3.3 -1.3666 q -1.9333 0 -3.3 1.3666 t -1.3666 3.3 q 0 1.9333 1.3666 3.3 t 3.3 1.3666 Z m 0 -4.6666 Z"
     id="path1" />
</svg>
