<?xml version="1.0" encoding="UTF-8" standalone="no"?>
<svg
   height="24px"
   viewBox="0 0 32 32"
   width="24px"
   fill="#000000"
   version="1.1"
   id="svg1"
   xmlns="http://www.w3.org/2000/svg"
   xmlns:svg="http://www.w3.org/2000/svg">
  <defs
     id="defs1" />
  <path
     d="m 21.7667 25.0667 -2.9333 2.9333 -2.8333 -2.8333 2.9333 -2.9333 q -0.1333 -0.3667 -0.2 -0.7667 t -0.0667 -0.8 q 0 -1.9333 1.3667 -3.3 t 3.3 -1.3667 q 0.6 0 1.1667 0.15 t 1.0667 0.4167 l -3.1667 3.1667 1.8667 1.8667 3.1667 -3.1333 q 0.2667 0.5 0.4167 1.05 T 28 20.6667 q 0 1.9333 -1.3667 3.3 t -3.3 1.3667 q -0.4333 0 -0.8167 -0.0667 t -0.75 -0.2 Z m 5.9333 -11.7333 h -2.7667 q -0.8667 -2.9333 -3.3 -4.8 t -5.6333 -1.8667 q -3.9 0 -6.6167 2.7167 T 6.6667 16 q 0 2.4 1.0833 4.4 t 2.9167 3.2667 v -3.6667 h 2.6667 v 8 H 5.3333 v -2.6667 h 3.1333 q -2.0667 -1.6667 -3.2667 -4.0833 T 4 16 q 0 -2.5 0.95 -4.6833 t 2.5667 -3.8 q 1.6167 -1.6167 3.8 -2.5667 T 16 4 q 4.3 0 7.55 2.65 T 27.7 13.3333 Z"
     id="path1" />
</svg>
