<?xml version="1.0" encoding="UTF-8" standalone="no"?>
<svg
   height="24px"
   viewBox="0 0 16 16"
   width="24px"
   fill="#000000"
   version="1.1"
   id="svg1"
   xmlns="http://www.w3.org/2000/svg"
   xmlns:svg="http://www.w3.org/2000/svg">
  <defs
     id="defs1" />
  <path
     d="m 10.8834 12.5334 -1.4667 1.4667 -1.4166 -1.4166 1.4667 -1.4667 q -0.0667 -0.1834 -0.1 -0.3834 t -0.0333 -0.4 q 0 -0.9667 0.6834 -1.65 t 1.65 -0.6834 q 0.3 0 0.5834 0.075 t 0.5333 0.2084 l -1.5834 1.5834 0.9334 0.9334 1.5834 -1.5667 q 0.1333 0.25 0.2084 0.525 T 14 10.3333 q 0 0.9667 -0.6834 1.65 t -1.65 0.6834 q -0.2167 0 -0.4083 -0.0333 t -0.375 -0.1 Z m 2.9667 -5.8666 h -1.3834 q -0.4334 -1.4667 -1.65 -2.4 t -2.8167 -0.9334 q -1.95 0 -3.3083 1.3583 T 3.3333 8 q 0 1.2 0.5416 2.2 t 1.4584 1.6334 v -1.8334 h 1.3334 v 4 H 2.6667 v -1.3334 h 1.5667 q -1.0333 -0.8334 -1.6334 -2.0417 T 2 8 q 0 -1.25 0.475 -2.3417 t 1.2833 -1.9 q 0.8084 -0.8084 1.9 -1.2833 T 8 2 q 2.15 0 3.775 1.325 T 13.85 6.6666 Z"
     id="path1" />
</svg>
