<?xml version="1.0" encoding="UTF-8" standalone="no"?>
<svg
   height="24px"
   viewBox="0 0 24 24"
   width="24px"
   fill="#000000"
   version="1.1"
   id="svg1"
   xmlns="http://www.w3.org/2000/svg"
   xmlns:svg="http://www.w3.org/2000/svg">
  <defs
     id="defs1" />
  <path
     d="m 16.3251 18.8001 -2.2001 2.2001 -2.1249 -2.1249 2.2001 -2.2001 q -0.1001 -0.2751 -0.15 -0.5751 t -0.05 -0.6 q 0 -1.4501 1.0251 -2.475 t 2.475 -1.0251 q 0.45 0 0.8751 0.1125 t 0.7999 0.3126 l -2.3751 2.3751 1.4001 1.4001 2.3751 -2.35 q 0.2 0.375 0.3126 0.7875 T 21 15.4999 q 0 1.4501 -1.0251 2.475 t -2.475 1.0251 q -0.3251 0 -0.6124 -0.05 t -0.5625 -0.15 Z m 4.4501 -8.7999 h -2.0751 q -0.6501 -2.2001 -2.475 -3.6 t -4.225 -1.4001 q -2.925 0 -4.9625 2.0375 T 5 12 q 0 1.8 0.8124 3.3 t 2.1876 2.4501 v -2.7501 h 2.0001 v 6 H 4 v -2.0001 h 2.35 q -1.55 -1.2501 -2.4501 -3.0625 T 3 12 q 0 -1.875 0.7125 -3.5126 t 1.925 -2.85 q 1.2126 -1.2126 2.85 -1.925 T 12 3 q 3.225 0 5.6625 1.9875 T 20.775 9.9999 Z"
     id="path1" />
</svg>
