<?xml version="1.0" encoding="UTF-8" standalone="no"?>
<svg
   height="24px"
   viewBox="0 0 24 24"
   width="24px"
   fill="#000000"
   version="1.1"
   id="svg1"
   sodipodi:docname="top-right-symbolic.svg"
   inkscape:version="1.4.3 (0d15f75042, 2025-12-25)"
   xmlns:inkscape="http://www.inkscape.org/namespaces/inkscape"
   xmlns:sodipodi="http://sodipodi.sourceforge.net/DTD/sodipodi-0.dtd"
   xmlns="http://www.w3.org/2000/svg"
   xmlns:svg="http://www.w3.org/2000/svg">
  <defs
     id="defs1" />
  <sodipodi:namedview
     id="namedview1"
     pagecolor="#ffffff"
     bordercolor="#000000"
     borderopacity="0.25"
     inkscape:showpageshadow="2"
     inkscape:pageopacity="0.0"
     inkscape:pagecheckerboard="0"
     inkscape:deskcolor="#d1d1d1"
     inkscape:zoom="36.916667"
     inkscape:cx="12"
     inkscape:cy="12"
     inkscape:window-width="3840"
     inkscape:window-height="2020"
     inkscape:window-x="0"
     inkscape:window-y="32"
     inkscape:window-maximized="1"
     inkscape:current-layer="svg1" />
  <path
     d="M 21 21 H 19.0001 V 5 H 3 v -2.0001 h 16.0001 q 0.825 0 1.4124 0.5874 Q 21 4.1749 21 5 Z M 16.4124 10.4125 Q 15.825 11.0001 15 11.0001 14.175 11.0001 13.5876 10.4125 13.0001 9.825 13.0001 9 q 0 -0.825 0.5874 -1.4124 0.5874 -0.5874 1.4124 -0.5874 0.825 0 1.4124 0.5874 0.5874 0.5874 0.5874 1.4124 0 0.825 -0.5874 1.4124 z M 12 19.0001 h -2.0001 v -3.6 l -5.6001 5.6001 -1.4001 -1.4001 5.6001 -5.6001 H 5 v -2.0001 h 6.9999 z"
     id="path1" />
</svg>
