<?xml version="1.0" encoding="UTF-8" standalone="no"?>
<svg
   height="24px"
   viewBox="0 0 16 16"
   width="24px"
   fill="#000000"
   version="1.1"
   id="svg1"
   sodipodi:docname="top-right-symbolic.svg"
   inkscape:version="1.4.3 (0d15f75042, 2025-12-25)"
   xmlns:inkscape="http://www.inkscape.org/namespaces/inkscape"
   xmlns:sodipodi="http://sodipodi.sourceforge.net/DTD/sodipodi-0.dtd"
   xmlns="http://www.w3.org/2000/svg"
   xmlns:svg="http://www.w3.org/2000/svg">
  <defs
     id="defs1" />
  <sodipodi:namedview
     id="namedview1"
     pagecolor="#ffffff"
     bordercolor="#000000"
     borderopacity="0.25"
     inkscape:showpageshadow="2"
     inkscape:pageopacity="0.0"
     inkscape:pagecheckerboard="0"
     inkscape:deskcolor="#d1d1d1"
     inkscape:zoom="36.916667"
     inkscape:cx="12"
     inkscape:cy="12"
     inkscape:window-width="3840"
     inkscape:window-height="2020"
     inkscape:window-x="0"
     inkscape:window-y="32"
     inkscape:window-maximized="1"
     inkscape:current-layer="svg1" />
  <path
     d="M 14 14 H 12.6667 V 3.3333 H 2 v -1.3334 h 10.6667 q 0.55 0 0.9416 0.3916 Q 14 2.7833 14 3.3333 Z M 10.9416 6.9417 Q 10.55 7.3334 10 7.3334 9.45 7.3334 9.0584 6.9417 8.6667 6.55 8.6667 6 q 0 -0.55 0.3916 -0.9416 0.3916 -0.3916 0.9416 -0.3916 0.55 0 0.9416 0.3916 0.3916 0.3916 0.3916 0.9416 0 0.55 -0.3916 0.9416 z M 8 12.6667 h -1.3334 v -2.4 l -3.7334 3.7334 -0.9334 -0.9334 3.7334 -3.7334 H 3.3333 v -1.3334 h 4.6666 z"
     id="path1" />
</svg>
