<?xml version="1.0" encoding="UTF-8" standalone="no"?>
<svg
   height="24px"
   viewBox="0 0 16 16"
   width="24px"
   fill="#000000"
   version="1.1"
   id="svg1"
   sodipodi:docname="ui-settings-symbolic.svg"
   inkscape:version="1.4.2 (ebf0e940d0, 2025-05-08)"
   xmlns:inkscape="http://www.inkscape.org/namespaces/inkscape"
   xmlns:sodipodi="http://sodipodi.sourceforge.net/DTD/sodipodi-0.dtd"
   xmlns="http://www.w3.org/2000/svg"
   xmlns:svg="http://www.w3.org/2000/svg">
  <defs
     id="defs1" />
  <sodipodi:namedview
     id="namedview1"
     pagecolor="#ffffff"
     bordercolor="#000000"
     borderopacity="0.25"
     inkscape:showpageshadow="2"
     inkscape:pageopacity="0.0"
     inkscape:pagecheckerboard="0"
     inkscape:deskcolor="#d1d1d1"
     inkscape:zoom="36.916667"
     inkscape:cx="12"
     inkscape:cy="12"
     inkscape:window-width="3840"
     inkscape:window-height="2020"
     inkscape:window-x="0"
     inkscape:window-y="32"
     inkscape:window-maximized="1"
     inkscape:current-layer="svg1" />
  <path
     d="M 5.8334 12 q 0.7667 0 1.3 -0.5333 t 0.5333 -1.3 q 0 -0.7667 -0.5333 -1.3 t -1.3 -0.5333 q -0.7667 0 -1.3 0.5333 t -0.5333 1.3 q 0 0.7667 0.5333 1.3 t 1.3 0.5333 Z m 4.3334 0 q 0.7667 0 1.3 -0.5333 t 0.5333 -1.3 q 0 -0.7667 -0.5333 -1.3 t -1.3 -0.5333 q -0.7667 0 -1.3 0.5333 t -0.5333 1.3 q 0 0.7667 0.5333 1.3 t 1.3 0.5333 Z m -4.3334 -1.3334 q -0.2 0 -0.35 -0.15 t -0.15 -0.35 q 0 -0.2 0.15 -0.35 t 0.35 -0.15 q 0.2 0 0.35 0.15 t 0.15 0.35 q 0 0.2 -0.15 0.35 t -0.35 0.15 Z m 4.3334 0 q -0.2 0 -0.35 -0.15 t -0.15 -0.35 q 0 -0.2 0.15 -0.35 t 0.35 -0.15 q 0.2 0 0.35 0.15 t 0.15 0.35 q 0 0.2 -0.15 0.35 t -0.35 0.15 Z M 5.6666 7.3334 h 4.6666 q 0.7 0 1.1833 -0.4834 t 0.4834 -1.1833 q 0 -0.7 -0.4834 -1.1833 t -1.1833 -0.4834 H 5.6666 q -0.7 0 -1.1833 0.4834 t -0.4834 1.1833 q 0 0.7 0.4834 1.1833 t 1.1833 0.4834 Z m 0 -1.3334 q -0.1333 0 -0.2334 -0.1 t -0.1 -0.2334 q 0 -0.1333 0.1 -0.2334 t 0.2334 -0.1 h 4.6666 q 0.1333 0 0.2334 0.1 t 0.1 0.2334 q 0 0.1333 -0.1 0.2334 t -0.2334 0.1 H 5.6666 Z M 3.3333 14 q -0.55 0 -0.9416 -0.3916 T 2 12.6667 v -9.3333 q 0 -0.55 0.3916 -0.9416 T 3.3333 2 h 9.3333 q 0.55 0 0.9416 0.3916 T 14 3.3333 v 9.3333 q 0 0.55 -0.3916 0.9416 T 12.6667 14 H 3.3333 Z m 0 -1.3334 h 9.3333 v -9.3333 H 3.3333 v 9.3333 Z m 0 -9.3333 v 9.3333 -9.3333 Z"
     id="path1" />
</svg>
