<?xml version="1.0" encoding="UTF-8" standalone="no"?>
<svg
   height="24px"
   viewBox="0 0 32 32"
   width="24px"
   fill="#000000"
   version="1.1"
   id="svg1"
   sodipodi:docname="ui-settings-symbolic.svg"
   inkscape:version="1.4.2 (ebf0e940d0, 2025-05-08)"
   xmlns:inkscape="http://www.inkscape.org/namespaces/inkscape"
   xmlns:sodipodi="http://sodipodi.sourceforge.net/DTD/sodipodi-0.dtd"
   xmlns="http://www.w3.org/2000/svg"
   xmlns:svg="http://www.w3.org/2000/svg">
  <defs
     id="defs1" />
  <sodipodi:namedview
     id="namedview1"
     pagecolor="#ffffff"
     bordercolor="#000000"
     borderopacity="0.25"
     inkscape:showpageshadow="2"
     inkscape:pageopacity="0.0"
     inkscape:pagecheckerboard="0"
     inkscape:deskcolor="#d1d1d1"
     inkscape:zoom="36.916667"
     inkscape:cx="12"
     inkscape:cy="12"
     inkscape:window-width="3840"
     inkscape:window-height="2020"
     inkscape:window-x="0"
     inkscape:window-y="32"
     inkscape:window-maximized="1"
     inkscape:current-layer="svg1" />
  <path
     d="M 11.6667 24 q 1.5333 0 2.6 -1.0667 t 1.0667 -2.6 q 0 -1.5333 -1.0667 -2.6 t -2.6 -1.0667 q -1.5333 0 -2.6 1.0667 t -1.0667 2.6 q 0 1.5333 1.0667 2.6 t 2.6 1.0667 Z m 8.6667 0 q 1.5333 0 2.6 -1.0667 t 1.0667 -2.6 q 0 -1.5333 -1.0667 -2.6 t -2.6 -1.0667 q -1.5333 0 -2.6 1.0667 t -1.0667 2.6 q 0 1.5333 1.0667 2.6 t 2.6 1.0667 Z m -8.6667 -2.6667 q -0.4 0 -0.7 -0.3 t -0.3 -0.7 q 0 -0.4 0.3 -0.7 t 0.7 -0.3 q 0.4 0 0.7 0.3 t 0.3 0.7 q 0 0.4 -0.3 0.7 t -0.7 0.3 Z m 8.6667 0 q -0.4 0 -0.7 -0.3 t -0.3 -0.7 q 0 -0.4 0.3 -0.7 t 0.7 -0.3 q 0.4 0 0.7 0.3 t 0.3 0.7 q 0 0.4 -0.3 0.7 t -0.7 0.3 Z M 11.3333 14.6667 h 9.3333 q 1.4 0 2.3667 -0.9667 t 0.9667 -2.3667 q 0 -1.4 -0.9667 -2.3667 t -2.3667 -0.9667 H 11.3333 q -1.4 0 -2.3667 0.9667 t -0.9667 2.3667 q 0 1.4 0.9667 2.3667 t 2.3667 0.9667 Z m 0 -2.6667 q -0.2667 0 -0.4667 -0.2 t -0.2 -0.4667 q 0 -0.2667 0.2 -0.4667 t 0.4667 -0.2 h 9.3333 q 0.2667 0 0.4667 0.2 t 0.2 0.4667 q 0 0.2667 -0.2 0.4667 t -0.4667 0.2 H 11.3333 Z M 6.6667 28 q -1.1 0 -1.8833 -0.7833 T 4 25.3333 v -18.6667 q 0 -1.1 0.7833 -1.8833 T 6.6667 4 h 18.6667 q 1.1 0 1.8833 0.7833 T 28 6.6667 v 18.6667 q 0 1.1 -0.7833 1.8833 T 25.3333 28 H 6.6667 Z m 0 -2.6667 h 18.6667 v -18.6667 H 6.6667 v 18.6667 Z m 0 -18.6667 v 18.6667 -18.6667 Z"
     id="path1" />
</svg>
