<?xml version="1.0" encoding="UTF-8" standalone="no"?>
<svg
   height="24px"
   viewBox="0 0 24 24"
   width="24px"
   fill="#000000"
   version="1.1"
   id="svg1"
   sodipodi:docname="ui-settings-symbolic.svg"
   inkscape:version="1.4.2 (ebf0e940d0, 2025-05-08)"
   xmlns:inkscape="http://www.inkscape.org/namespaces/inkscape"
   xmlns:sodipodi="http://sodipodi.sourceforge.net/DTD/sodipodi-0.dtd"
   xmlns="http://www.w3.org/2000/svg"
   xmlns:svg="http://www.w3.org/2000/svg">
  <defs
     id="defs1" />
  <sodipodi:namedview
     id="namedview1"
     pagecolor="#ffffff"
     bordercolor="#000000"
     borderopacity="0.25"
     inkscape:showpageshadow="2"
     inkscape:pageopacity="0.0"
     inkscape:pagecheckerboard="0"
     inkscape:deskcolor="#d1d1d1"
     inkscape:zoom="36.916667"
     inkscape:cx="12"
     inkscape:cy="12"
     inkscape:window-width="3840"
     inkscape:window-height="2020"
     inkscape:window-x="0"
     inkscape:window-y="32"
     inkscape:window-maximized="1"
     inkscape:current-layer="svg1" />
  <path
     d="M 8.7501 18 q 1.1501 0 1.95 -0.7999 t 0.7999 -1.95 q 0 -1.1501 -0.7999 -1.95 t -1.95 -0.7999 q -1.1501 0 -1.95 0.7999 t -0.7999 1.95 q 0 1.1501 0.7999 1.95 t 1.95 0.7999 Z m 6.5001 0 q 1.1501 0 1.95 -0.7999 t 0.7999 -1.95 q 0 -1.1501 -0.7999 -1.95 t -1.95 -0.7999 q -1.1501 0 -1.95 0.7999 t -0.7999 1.95 q 0 1.1501 0.7999 1.95 t 1.95 0.7999 Z m -6.5001 -2.0001 q -0.3 0 -0.525 -0.225 t -0.225 -0.525 q 0 -0.3 0.225 -0.525 t 0.525 -0.225 q 0.3 0 0.525 0.225 t 0.225 0.525 q 0 0.3 -0.225 0.525 t -0.525 0.225 Z m 6.5001 0 q -0.3 0 -0.525 -0.225 t -0.225 -0.525 q 0 -0.3 0.225 -0.525 t 0.525 -0.225 q 0.3 0 0.525 0.225 t 0.225 0.525 q 0 0.3 -0.225 0.525 t -0.525 0.225 Z M 8.4999 11.0001 h 6.9999 q 1.05 0 1.775 -0.7251 t 0.7251 -1.775 q 0 -1.05 -0.7251 -1.775 t -1.775 -0.7251 H 8.4999 q -1.05 0 -1.775 0.7251 t -0.7251 1.775 q 0 1.05 0.7251 1.775 t 1.775 0.7251 Z m 0 -2.0001 q -0.2 0 -0.3501 -0.15 t -0.15 -0.3501 q 0 -0.2 0.15 -0.3501 t 0.3501 -0.15 h 6.9999 q 0.2 0 0.3501 0.15 t 0.15 0.3501 q 0 0.2 -0.15 0.3501 t -0.3501 0.15 H 8.4999 Z M 5 21 q -0.825 0 -1.4124 -0.5874 T 3 19.0001 v -13.9999 q 0 -0.825 0.5874 -1.4124 T 5 3 h 13.9999 q 0.825 0 1.4124 0.5874 T 21 5 v 13.9999 q 0 0.825 -0.5874 1.4124 T 19.0001 21 H 5 Z m 0 -2.0001 h 13.9999 v -13.9999 H 5 v 13.9999 Z m 0 -13.9999 v 13.9999 -13.9999 Z"
     id="path1" />
</svg>
