<?xml version="1.0" encoding="UTF-8" standalone="no"?>
<svg
   height="24px"
   viewBox="0 0 24 24"
   width="24px"
   fill="#000000"
   version="1.1"
   id="svg1"
   xmlns="http://www.w3.org/2000/svg"
   xmlns:svg="http://www.w3.org/2000/svg">
  <defs
     id="defs1" />
  <path
     d="M 6.9999 13.9999 q -0.825 0 -1.4124 -0.5874 T 5 12 q 0 -0.825 0.5874 -1.4124 T 6.9999 9.9999 q 0.825 0 1.4124 0.5874 T 9 12 q 0 0.825 -0.5874 1.4124 T 6.9999 13.9999 Z m 0 4 q -2.4999 0 -4.25 -1.7499 T 0.9999 12 q 0 -2.4999 1.7499 -4.25 t 4.25 -1.7499 q 1.6749 0 3.0375 0.825 t 2.1625 2.175 h 8.7999 l 3 3 -4.5 4.5 -2.0001 -1.5 -2.0001 1.5 -2.1249 -1.5 h -1.1749 q -0.7999 1.35 -2.1625 2.175 T 6.9999 18 Z m 0 -2.0001 q 1.4001 0 2.4625 -0.8499 t 1.4124 -2.15 h 3.125 l 1.4501 1.0251 2.0499 -1.525 1.775 1.3749 1.875 -1.875 -0.9999 -0.9999 H 10.875 q -0.3501 -1.3001 -1.4124 -2.15 T 6.9999 8.0001 q -1.65 0 -2.8251 1.1749 t -1.1749 2.8251 q 0 1.65 1.1749 2.8251 t 2.8251 1.1749 Z"
     id="path1" />
</svg>
