<?xml version="1.0" encoding="UTF-8" standalone="no"?>
<svg
   height="24px"
   viewBox="0 0 32 32"
   width="24px"
   fill="#000000"
   version="1.1"
   id="svg1"
   xmlns="http://www.w3.org/2000/svg"
   xmlns:svg="http://www.w3.org/2000/svg">
  <defs
     id="defs1" />
  <path
     d="M 9.3333 18.6667 q -1.1 0 -1.8833 -0.7833 T 6.6667 16 q 0 -1.1 0.7833 -1.8833 T 9.3333 13.3333 q 1.1 0 1.8833 0.7833 T 12 16 q 0 1.1 -0.7833 1.8833 T 9.3333 18.6667 Z m 0 5.3333 q -3.3333 0 -5.6667 -2.3333 T 1.3333 16 q 0 -3.3333 2.3333 -5.6667 t 5.6667 -2.3333 q 2.2333 0 4.05 1.1 t 2.8833 2.9 h 11.7333 l 4 4 -6 6 -2.6667 -2 -2.6667 2 -2.8333 -2 h -1.5667 q -1.0667 1.8 -2.8833 2.9 T 9.3333 24 Z m 0 -2.6667 q 1.8667 0 3.2833 -1.1333 t 1.8833 -2.8667 h 4.1667 l 1.9333 1.3667 2.7333 -2.0333 2.3667 1.8333 2.5 -2.5 -1.3333 -1.3333 H 14.5 q -0.4667 -1.7333 -1.8833 -2.8667 T 9.3333 10.6667 q -2.2 0 -3.7667 1.5667 t -1.5667 3.7667 q 0 2.2 1.5667 3.7667 t 3.7667 1.5667 Z"
     id="path1" />
</svg>
