<?xml version="1.0" encoding="UTF-8" standalone="no"?>
<svg
   height="24px"
   viewBox="0 0 16 16"
   width="24px"
   fill="#000000"
   version="1.1"
   id="svg1"
   xmlns="http://www.w3.org/2000/svg"
   xmlns:svg="http://www.w3.org/2000/svg">
  <defs
     id="defs1" />
  <path
     d="M 4.6666 9.3333 q -0.55 0 -0.9416 -0.3916 T 3.3333 8 q 0 -0.55 0.3916 -0.9416 T 4.6666 6.6666 q 0.55 0 0.9416 0.3916 T 6 8 q 0 0.55 -0.3916 0.9416 T 4.6666 9.3333 Z m 0 2.6667 q -1.6666 0 -2.8333 -1.1666 T 0.6666 8 q 0 -1.6666 1.1666 -2.8333 t 2.8333 -1.1666 q 1.1166 0 2.025 0.55 t 1.4417 1.45 h 5.8666 l 2 2 -3 3 -1.3334 -1 -1.3334 1 -1.4166 -1 h -0.7833 q -0.5333 0.9 -1.4417 1.45 T 4.6666 12 Z m 0 -1.3334 q 0.9334 0 1.6417 -0.5666 t 0.9416 -1.4333 h 2.0833 l 0.9667 0.6834 1.3666 -1.0167 1.1833 0.9166 1.25 -1.25 -0.6666 -0.6666 H 7.25 q -0.2334 -0.8667 -0.9416 -1.4333 T 4.6666 5.3334 q -1.1 0 -1.8834 0.7833 t -0.7833 1.8834 q 0 1.1 0.7833 1.8834 t 1.8834 0.7833 Z"
     id="path1" />
</svg>
