<?xml version="1.0" encoding="UTF-8" standalone="no"?>
<svg
   height="24px"
   viewBox="0 0 32 32"
   width="24px"
   fill="#000000"
   version="1.1"
   id="svg1"
   xmlns="http://www.w3.org/2000/svg"
   xmlns:svg="http://www.w3.org/2000/svg">
  <defs
     id="defs1" />
  <path
     d="M 18.6667 26.6667 v -2.6667 h 4 q 0.5667 0 0.95 -0.3833 T 24 22.6667 v -2.6667 q 0 -1.2667 0.7333 -2.3 t 1.9333 -1.4667 v -0.4667 q -1.2 -0.4333 -1.9333 -1.4667 t -0.7333 -2.3 v -2.6667 q 0 -0.5667 -0.3833 -0.95 T 22.6667 8 H 18.6667 v -2.6667 h 4 q 1.6667 0 2.8333 1.1667 t 1.1667 2.8333 v 2.6667 q 0 0.5667 0.3833 0.95 T 28 13.3333 h 1.3333 v 5.3333 h -1.3333 q -0.5667 0 -0.95 0.3833 T 26.6667 20 v 2.6667 q 0 1.6667 -1.1667 2.8333 t -2.8333 1.1667 H 18.6667 Z m -9.3333 0 q -1.6667 0 -2.8333 -1.1667 t -1.1667 -2.8333 v -2.6667 q 0 -0.5667 -0.3833 -0.95 T 4 18.6667 H 2.6667 v -5.3333 h 1.3333 q 0.5667 0 0.95 -0.3833 T 5.3333 12 v -2.6667 q 0 -1.6667 1.1667 -2.8333 t 2.8333 -1.1667 h 4 v 2.6667 H 9.3333 q -0.5667 0 -0.95 0.3833 T 8 9.3333 v 2.6667 q 0 1.2667 -0.7333 2.3 t -1.9333 1.4667 v 0.4667 q 1.2 0.4333 1.9333 1.4667 t 0.7333 2.3 v 2.6667 q 0 0.5667 0.3833 0.95 T 9.3333 24 h 4 v 2.6667 H 9.3333 Z"
     id="path1" />
</svg>
