<?xml version="1.0" encoding="UTF-8" standalone="no"?>
<svg
   height="24px"
   viewBox="0 0 24 24"
   width="24px"
   fill="#000000"
   version="1.1"
   id="svg1"
   xmlns="http://www.w3.org/2000/svg"
   xmlns:svg="http://www.w3.org/2000/svg">
  <defs
     id="defs1" />
  <path
     d="M 13.9999 19.9999 v -2.0001 h 3 q 0.4249 0 0.7125 -0.2874 T 18 16.9999 v -2.0001 q 0 -0.9499 0.5499 -1.725 t 1.4501 -1.0999 v -0.3501 q -0.9 -0.3251 -1.4501 -1.0999 t -0.5499 -1.725 v -2.0001 q 0 -0.4249 -0.2874 -0.7125 T 16.9999 6 H 13.9999 v -2.0001 h 3 q 1.2501 0 2.1249 0.8751 t 0.8751 2.1249 v 2.0001 q 0 0.4249 0.2874 0.7125 T 21 9.9999 h 0.9999 v 4 h -0.9999 q -0.4249 0 -0.7125 0.2874 T 19.9999 15 v 2.0001 q 0 1.2501 -0.8751 2.1249 t -2.1249 0.8751 H 13.9999 Z m -6.9999 0 q -1.2501 0 -2.1249 -0.8751 t -0.8751 -2.1249 v -2.0001 q 0 -0.4249 -0.2874 -0.7125 T 3 13.9999 H 2.0001 v -4 h 0.9999 q 0.4249 0 0.7125 -0.2874 T 4 9 v -2.0001 q 0 -1.2501 0.8751 -2.1249 t 2.1249 -0.8751 h 3 v 2.0001 H 6.9999 q -0.4249 0 -0.7125 0.2874 T 6 6.9999 v 2.0001 q 0 0.9499 -0.5499 1.725 t -1.4501 1.0999 v 0.3501 q 0.9 0.3251 1.4501 1.0999 t 0.5499 1.725 v 2.0001 q 0 0.4249 0.2874 0.7125 T 6.9999 18 h 3 v 2.0001 H 6.9999 Z"
     id="path1" />
</svg>
