<?xml version="1.0" encoding="UTF-8" standalone="no"?>
<svg
   height="24px"
   viewBox="0 0 16 16"
   width="24px"
   fill="#000000"
   version="1.1"
   id="svg1"
   xmlns="http://www.w3.org/2000/svg"
   xmlns:svg="http://www.w3.org/2000/svg">
  <defs
     id="defs1" />
  <path
     d="M 9.3333 13.3333 v -1.3334 h 2 q 0.2833 0 0.475 -0.1916 T 12 11.3333 v -1.3334 q 0 -0.6333 0.3666 -1.15 t 0.9667 -0.7333 v -0.2334 q -0.6 -0.2167 -0.9667 -0.7333 t -0.3666 -1.15 v -1.3334 q 0 -0.2833 -0.1916 -0.475 T 11.3333 4 H 9.3333 v -1.3334 h 2 q 0.8334 0 1.4166 0.5834 t 0.5834 1.4166 v 1.3334 q 0 0.2833 0.1916 0.475 T 14 6.6666 h 0.6666 v 2.6667 h -0.6666 q -0.2833 0 -0.475 0.1916 T 13.3333 10 v 1.3334 q 0 0.8334 -0.5834 1.4166 t -1.4166 0.5834 H 9.3333 Z m -4.6666 0 q -0.8334 0 -1.4166 -0.5834 t -0.5834 -1.4166 v -1.3334 q 0 -0.2833 -0.1916 -0.475 T 2 9.3333 H 1.3334 v -2.6667 h 0.6666 q 0.2833 0 0.475 -0.1916 T 2.6667 6 v -1.3334 q 0 -0.8334 0.5834 -1.4166 t 1.4166 -0.5834 h 2 v 1.3334 H 4.6666 q -0.2833 0 -0.475 0.1916 T 4 4.6666 v 1.3334 q 0 0.6333 -0.3666 1.15 t -0.9667 0.7333 v 0.2334 q 0.6 0.2167 0.9667 0.7333 t 0.3666 1.15 v 1.3334 q 0 0.2833 0.1916 0.475 T 4.6666 12 h 2 v 1.3334 H 4.6666 Z"
     id="path1" />
</svg>
