<?xml version="1.0" encoding="UTF-8" standalone="no"?>
<svg
   height="24px"
   viewBox="0 0 16 16"
   width="24px"
   fill="#000000"
   version="1.1"
   id="svg1"
   xmlns="http://www.w3.org/2000/svg"
   xmlns:svg="http://www.w3.org/2000/svg">
  <defs
     id="defs1" />
  <path
     d="m 10.7333 8.8666 -0.9667 -0.9667 q 0.15 -0.7833 -0.45 -1.4667 t -1.55 -0.5333 l -0.9667 -0.9667 q 0.2833 -0.1333 0.575 -0.2 t 0.625 -0.0667 q 1.25 0 2.125 0.875 T 11 7.6666 q 0 0.3333 -0.0667 0.625 T 10.7333 8.8666 Z m 2.1334 2.1 -0.9667 -0.9334 q 0.6333 -0.4834 1.125 -1.0583 T 13.8666 7.6666 q -0.8334 -1.6833 -2.3916 -2.675 T 8 4 q -0.4834 0 -0.95 0.0667 t -0.9166 0.2 l -1.0333 -1.0333 q 0.6834 -0.2833 1.4 -0.425 t 1.5 -0.1416 q 2.5166 0 4.4833 1.3917 T 15.3333 7.6666 q -0.3834 0.9833 -1.0084 1.825 T 12.8666 10.9666 Z m 0.3333 4.1 L 10.4 12.3 q -0.5834 0.1834 -1.175 0.275 T 8 12.6667 q -2.5166 0 -4.4833 -1.3917 T 0.6666 7.6666 q 0.35 -0.8833 0.8833 -1.6417 t 1.2167 -1.3583 L 0.9334 2.8 l 0.9334 -0.9334 12.2667 12.2667 -0.9334 0.9334 Z M 3.7 5.6 q -0.4834 0.4334 -0.8833 0.95 t -0.6834 1.1166 q 0.8334 1.6833 2.3916 2.675 T 8 11.3333 q 0.3333 0 0.65 -0.0416 t 0.65 -0.0916 l -0.6 -0.6333 q -0.1834 0.05 -0.35 0.075 t -0.35 0.025 q -1.25 0 -2.125 -0.875 T 5 7.6666 q 0 -0.1834 0.025 -0.35 t 0.075 -0.35 l -1.4 -1.3666 Z m 5.3167 1.55 Z m -2.5166 1.25 Z"
     id="path1" />
</svg>
