<?xml version="1.0" encoding="UTF-8" standalone="no"?>
<svg
   height="24px"
   viewBox="0 0 32 32"
   width="24px"
   fill="#000000"
   version="1.1"
   id="svg1"
   xmlns="http://www.w3.org/2000/svg"
   xmlns:svg="http://www.w3.org/2000/svg">
  <defs
     id="defs1" />
  <path
     d="M 16 21.3333 q 2.5 0 4.25 -1.75 T 22 15.3333 q 0 -2.5 -1.75 -4.25 T 16 9.3333 q -2.5 0 -4.25 1.75 T 10 15.3333 q 0 2.5 1.75 4.25 T 16 21.3333 Z m 0 -2.4 q -1.5 0 -2.55 -1.05 T 12.4 15.3333 q 0 -1.5 1.05 -2.55 T 16 11.7333 q 1.5 0 2.55 1.05 T 19.6 15.3333 q 0 1.5 -1.05 2.55 T 16 18.9333 Z m 0 6.4 q -4.8667 0 -8.8667 -2.7167 T 1.3333 15.3333 q 1.8 -4.5667 5.8 -7.2833 T 16 5.3333 q 4.8667 0 8.8667 2.7167 T 30.6667 15.3333 q -1.8 4.5667 -5.8 7.2833 T 16 25.3333 Z m 0 -10 Z m 0 7.3333 q 3.7667 0 6.9167 -1.9833 T 27.7333 15.3333 q -1.6667 -3.3667 -4.8167 -5.35 T 16 8 q -3.7667 0 -6.9167 1.9833 T 4.2667 15.3333 q 1.6667 3.3667 4.8167 5.35 T 16 22.6667 Z"
     id="path1" />
</svg>
