<?xml version="1.0" encoding="UTF-8" standalone="no"?>
<svg
   height="24px"
   viewBox="0 0 32 32"
   width="24px"
   fill="#000000"
   version="1.1"
   id="svg1"
   xmlns="http://www.w3.org/2000/svg"
   xmlns:svg="http://www.w3.org/2000/svg">
  <defs
     id="defs1" />
  <path
     d="m 21.4667 17.7333 -1.9333 -1.9333 q 0.3 -1.5667 -0.9 -2.9333 t -3.1 -1.0667 l -1.9333 -1.9333 q 0.5667 -0.2667 1.15 -0.4 t 1.25 -0.1333 q 2.5 0 4.25 1.75 T 22 15.3333 q 0 0.6667 -0.1333 1.25 T 21.4667 17.7333 Z m 4.2667 4.2 -1.9333 -1.8667 q 1.2667 -0.9667 2.25 -2.1167 T 27.7333 15.3333 q -1.6667 -3.3667 -4.7833 -5.35 T 16 8 q -0.9667 0 -1.9 0.1333 t -1.8333 0.4 l -2.0667 -2.0667 q 1.3667 -0.5667 2.8 -0.85 t 3 -0.2833 q 5.0333 0 8.9667 2.7833 T 30.6667 15.3333 q -0.7667 1.9667 -2.0167 3.65 T 25.7333 21.9333 Z m 0.6667 8.2 L 20.8 24.6 q -1.1667 0.3667 -2.35 0.55 T 16 25.3333 q -5.0333 0 -8.9667 -2.7833 T 1.3333 15.3333 q 0.7 -1.7667 1.7667 -3.2833 t 2.4333 -2.7167 L 1.8667 5.6 l 1.8667 -1.8667 24.5333 24.5333 -1.8667 1.8667 Z M 7.4 11.2 q -0.9667 0.8667 -1.7667 1.9 t -1.3667 2.2333 q 1.6667 3.3667 4.7833 5.35 T 16 22.6667 q 0.6667 0 1.3 -0.0833 t 1.3 -0.1833 l -1.2 -1.2667 q -0.3667 0.1 -0.7 0.15 t -0.7 0.05 q -2.5 0 -4.25 -1.75 T 10 15.3333 q 0 -0.3667 0.05 -0.7 t 0.15 -0.7 l -2.8 -2.7333 Z m 10.6333 3.1 Z m -5.0333 2.5 Z"
     id="path1" />
</svg>
