<?xml version="1.0" encoding="UTF-8" standalone="no"?>
<svg
   height="24px"
   viewBox="0 0 24 24"
   width="24px"
   fill="#000000"
   version="1.1"
   id="svg1"
   xmlns="http://www.w3.org/2000/svg"
   xmlns:svg="http://www.w3.org/2000/svg">
  <defs
     id="defs1" />
  <path
     d="m 16.0999 13.2999 -1.4501 -1.4501 q 0.225 -1.1749 -0.675 -2.2001 t -2.325 -0.7999 l -1.4501 -1.4501 q 0.4249 -0.2 0.8625 -0.3 t 0.9375 -0.1001 q 1.875 0 3.1875 1.3125 T 16.5 11.4999 q 0 0.5 -0.1001 0.9375 T 16.0999 13.2999 Z m 3.2001 3.15 -1.4501 -1.4001 q 0.9499 -0.7251 1.6875 -1.5875 T 20.7999 11.4999 q -1.2501 -2.525 -3.5874 -4.0125 T 12 6 q -0.7251 0 -1.425 0.1001 t -1.3749 0.3 l -1.55 -1.55 q 1.0251 -0.4249 2.1 -0.6375 t 2.25 -0.2124 q 3.7749 0 6.7249 2.0875 T 22.9999 11.4999 q -0.5751 1.4749 -1.5126 2.7375 T 19.2999 16.4499 Z m 0.5 6.15 L 15.6 18.45 q -0.8751 0.2751 -1.7625 0.4125 T 12 19.0001 q -3.7749 0 -6.7249 -2.0875 T 0.9999 11.4999 q 0.525 -1.3249 1.3249 -2.4625 t 1.825 -2.0375 L 1.4001 4.2 l 1.4001 -1.4001 18.4001 18.4001 -1.4001 1.4001 Z M 5.55 8.4 q -0.7251 0.6501 -1.3249 1.425 t -1.0251 1.6749 q 1.2501 2.525 3.5874 4.0125 T 12 16.9999 q 0.5 0 0.975 -0.0624 t 0.975 -0.1374 l -0.9 -0.9499 q -0.2751 0.075 -0.525 0.1125 t -0.525 0.0375 q -1.875 0 -3.1875 -1.3125 T 7.5 11.4999 q 0 -0.2751 0.0375 -0.525 t 0.1125 -0.525 l -2.1 -2.0499 Z m 7.975 2.325 Z m -3.7749 1.875 Z"
     id="path1" />
</svg>
