<?xml version="1.0" encoding="UTF-8" standalone="no"?>
<svg
   height="24px"
   viewBox="0 0 24 24"
   width="24px"
   fill="#000000"
   version="1.1"
   id="svg1"
   xmlns="http://www.w3.org/2000/svg"
   xmlns:svg="http://www.w3.org/2000/svg">
  <defs
     id="defs1" />
  <path
     d="M 12 16.0001 q 1.875 0 3.1875 -1.3125 T 16.5 11.4999 q 0 -1.875 -1.3125 -3.1875 T 12 6.9999 q -1.875 0 -3.1875 1.3125 T 7.5 11.4999 q 0 1.875 1.3125 3.1875 T 12 16.0001 Z m 0 -1.8 q -1.125 0 -1.9125 -0.7875 T 9.3 11.4999 q 0 -1.125 0.7875 -1.9125 T 12 8.7999 q 1.125 0 1.9125 0.7875 T 14.7 11.4999 q 0 1.125 -0.7875 1.9125 T 12 14.1999 Z m 0 4.8 q -3.65 0 -6.65 -2.0375 T 0.9999 11.4999 q 1.35 -3.4249 4.35 -5.4624 T 12 4 q 3.65 0 6.65 2.0375 T 22.9999 11.4999 q -1.35 3.4249 -4.35 5.4624 T 12 19.0001 Z m 0 -7.5 Z m 0 5.5 q 2.8251 0 5.1875 -1.4876 T 20.7999 11.4999 q -1.2501 -2.525 -3.6124 -4.0125 T 12 6 q -2.8251 0 -5.1875 1.4876 T 3.2001 11.4999 q 1.2501 2.525 3.6124 4.0125 T 12 16.9999 Z"
     id="path1" />
</svg>
