<?xml version="1.0" encoding="UTF-8" standalone="no"?>
<svg
   height="24px"
   viewBox="0 0 16 16"
   width="24px"
   fill="#000000"
   version="1.1"
   id="svg1"
   xmlns="http://www.w3.org/2000/svg"
   xmlns:svg="http://www.w3.org/2000/svg">
  <defs
     id="defs1" />
  <path
     d="M 8 10.6667 q 1.25 0 2.125 -0.875 T 11 7.6666 q 0 -1.25 -0.875 -2.125 T 8 4.6666 q -1.25 0 -2.125 0.875 T 5 7.6666 q 0 1.25 0.875 2.125 T 8 10.6667 Z m 0 -1.2 q -0.75 0 -1.275 -0.525 T 6.2 7.6666 q 0 -0.75 0.525 -1.275 T 8 5.8666 q 0.75 0 1.275 0.525 T 9.8 7.6666 q 0 0.75 -0.525 1.275 T 8 9.4666 Z m 0 3.2 q -2.4333 0 -4.4333 -1.3583 T 0.6666 7.6666 q 0.9 -2.2833 2.9 -3.6416 T 8 2.6667 q 2.4333 0 4.4333 1.3583 T 15.3333 7.6666 q -0.9 2.2833 -2.9 3.6416 T 8 12.6667 Z m 0 -5 Z m 0 3.6667 q 1.8834 0 3.4583 -0.9917 T 13.8666 7.6666 q -0.8334 -1.6833 -2.4083 -2.675 T 8 4 q -1.8834 0 -3.4583 0.9917 T 2.1334 7.6666 q 0.8334 1.6833 2.4083 2.675 T 8 11.3333 Z"
     id="path1" />
</svg>
