<?xml version="1.0" encoding="UTF-8" standalone="no"?>
<svg
   height="24px"
   viewBox="0 0 24 24"
   width="24px"
   fill="#000000"
   version="1.1"
   id="svg1"
   sodipodi:docname="zero-here-symbolic.svg"
   inkscape:version="1.4.3 (0d15f75042, 2025-12-25)"
   xmlns:inkscape="http://www.inkscape.org/namespaces/inkscape"
   xmlns:sodipodi="http://sodipodi.sourceforge.net/DTD/sodipodi-0.dtd"
   xmlns="http://www.w3.org/2000/svg"
   xmlns:svg="http://www.w3.org/2000/svg">
  <defs
     id="defs1" />
  <sodipodi:namedview
     id="namedview1"
     pagecolor="#ffffff"
     bordercolor="#000000"
     borderopacity="0.25"
     inkscape:showpageshadow="2"
     inkscape:pageopacity="0.0"
     inkscape:pagecheckerboard="0"
     inkscape:deskcolor="#d1d1d1"
     inkscape:zoom="36.916667"
     inkscape:cx="12"
     inkscape:cy="12"
     inkscape:window-width="3840"
     inkscape:window-height="2020"
     inkscape:window-x="0"
     inkscape:window-y="32"
     inkscape:window-maximized="1"
     inkscape:current-layer="svg1" />
  <path
     d="M 11.0001 22.9999 v -4.1749 l -1.0999 1.0751 -1.4001 -1.4001 3.5 -3.5 3.5 3.5 -1.4001 1.4001 -1.0999 -1.0751 v 4.1749 h -2.0001 Z M 5.5 15.4999 l -1.4001 -1.4001 1.0751 -1.0999 H 0.9999 v -2.0001 h 4.1749 l -1.0751 -1.0999 1.4001 -1.4001 3.5 3.5 -3.5 3.5 Z m 13.0001 0 L 15 12 l 3.5 -3.5 1.4001 1.4001 -1.0751 1.0999 h 4.1749 v 2.0001 H 18.825 l 1.0751 1.0999 -1.4001 1.4001 Z m -6.5001 -2.0001 q -0.625 0 -1.0626 -0.4375 T 10.5 12 q 0 -0.625 0.4375 -1.0626 T 12 10.5 q 0.625 0 1.0626 0.4375 T 13.5 12 q 0 0.625 -0.4375 1.0626 T 12 13.5 Z m 0 -4.5 L 8.4999 5.5 l 1.4001 -1.4001 1.0999 1.0751 v -4.1749 h 2.0001 v 4.1749 l 1.0999 -1.0751 1.4001 1.4001 -3.5 3.5 Z"
     id="path1" />
</svg>
