<?xml version="1.0" encoding="UTF-8" standalone="no"?>
<svg
   height="24px"
   version="1.1"
   id="svg1"
   viewBox="0 0 24 24"
   width="24px"
   fill="#000000"
   sodipodi:docname="zoom-fit-best-symbolic.svg"
   inkscape:version="1.4.3 (0d15f75042, 2025-12-25)"
   xmlns:inkscape="http://www.inkscape.org/namespaces/inkscape"
   xmlns:sodipodi="http://sodipodi.sourceforge.net/DTD/sodipodi-0.dtd"
   xmlns="http://www.w3.org/2000/svg"
   xmlns:svg="http://www.w3.org/2000/svg">
  <defs
     id="defs1" />
  <sodipodi:namedview
     id="namedview1"
     pagecolor="#ffffff"
     bordercolor="#000000"
     borderopacity="0.25"
     inkscape:showpageshadow="2"
     inkscape:pageopacity="0.0"
     inkscape:pagecheckerboard="0"
     inkscape:deskcolor="#d1d1d1"
     inkscape:zoom="36.916667"
     inkscape:cx="11.986456"
     inkscape:cy="12"
     inkscape:window-width="3840"
     inkscape:window-height="2020"
     inkscape:window-x="0"
     inkscape:window-y="32"
     inkscape:window-maximized="1"
     inkscape:current-layer="svg1" />
  <path
     d="M 5 21 q -0.825 0 -1.4124 -0.5874 T 3 19.0001 v -4 h 2.0001 v 4 h 4 v 2.0001 H 5 Z m 9.9999 0 v -2.0001 h 4 v -4 h 2.0001 v 4 q 0 0.825 -0.5874 1.4124 T 19.0001 21 H 15 Z M 3 9 v -4 q 0 -0.825 0.5874 -1.4124 T 5 3 h 4 v 2.0001 H 5 v 4 h -2.0001 Z m 16.0001 0 v -4 H 15 v -2.0001 h 4 q 0.825 0 1.4124 0.5874 T 21 5 v 4 h -2.0001 Z M 8.4626 15.5374 Q 6.9999 14.0751 6.9999 12 t 1.4625 -3.5376 Q 9.9249 6.9999 12 6.9999 t 3.5376 1.4625 Q 16.9999 9.9249 16.9999 12 t -1.4625 3.5376 Q 14.0751 16.9999 12 16.9999 t -3.5376 -1.4625 Z M 14.1251 14.1251 q 0.8751 -0.8751 0.8751 -2.1249 t -0.8751 -2.1249 q -0.8751 -0.8751 -2.1249 -0.8751 t -2.1249 0.8751 q -0.8751 0.8751 -0.8751 2.1249 t 0.8751 2.1249 q 0.8751 0.8751 2.1249 0.8751 t 2.1249 -0.8751 Z m -2.1249 -2.1249 Z"
     id="path1" />
</svg>
