<?xml version="1.0" encoding="UTF-8" standalone="no"?>
<svg
   height="24px"
   version="1.1"
   id="svg1"
   viewBox="0 0 32 32"
   width="24px"
   fill="#000000"
   sodipodi:docname="zoom-fit-best-symbolic.svg"
   inkscape:version="1.4.3 (0d15f75042, 2025-12-25)"
   xmlns:inkscape="http://www.inkscape.org/namespaces/inkscape"
   xmlns:sodipodi="http://sodipodi.sourceforge.net/DTD/sodipodi-0.dtd"
   xmlns="http://www.w3.org/2000/svg"
   xmlns:svg="http://www.w3.org/2000/svg">
  <defs
     id="defs1" />
  <sodipodi:namedview
     id="namedview1"
     pagecolor="#ffffff"
     bordercolor="#000000"
     borderopacity="0.25"
     inkscape:showpageshadow="2"
     inkscape:pageopacity="0.0"
     inkscape:pagecheckerboard="0"
     inkscape:deskcolor="#d1d1d1"
     inkscape:zoom="36.916667"
     inkscape:cx="11.986456"
     inkscape:cy="12"
     inkscape:window-width="3840"
     inkscape:window-height="2020"
     inkscape:window-x="0"
     inkscape:window-y="32"
     inkscape:window-maximized="1"
     inkscape:current-layer="svg1" />
  <path
     d="M 6.6667 28 q -1.1 0 -1.8833 -0.7833 T 4 25.3333 v -5.3333 h 2.6667 v 5.3333 h 5.3333 v 2.6667 H 6.6667 Z m 13.3333 0 v -2.6667 h 5.3333 v -5.3333 h 2.6667 v 5.3333 q 0 1.1 -0.7833 1.8833 T 25.3333 28 H 20 Z M 4 12 v -5.3333 q 0 -1.1 0.7833 -1.8833 T 6.6667 4 h 5.3333 v 2.6667 H 6.6667 v 5.3333 h -2.6667 Z m 21.3333 0 v -5.3333 H 20 v -2.6667 h 5.3333 q 1.1 0 1.8833 0.7833 T 28 6.6667 v 5.3333 h -2.6667 Z M 11.2833 20.7167 Q 9.3333 18.7667 9.3333 16 t 1.95 -4.7167 Q 13.2333 9.3333 16 9.3333 t 4.7167 1.95 Q 22.6667 13.2333 22.6667 16 t -1.95 4.7167 Q 18.7667 22.6667 16 22.6667 t -4.7167 -1.95 Z M 18.8333 18.8333 q 1.1667 -1.1667 1.1667 -2.8333 t -1.1667 -2.8333 q -1.1667 -1.1667 -2.8333 -1.1667 t -2.8333 1.1667 q -1.1667 1.1667 -1.1667 2.8333 t 1.1667 2.8333 q 1.1667 1.1667 2.8333 1.1667 t 2.8333 -1.1667 Z m -2.8333 -2.8333 Z"
     id="path1" />
</svg>
