<?xml version="1.0" encoding="UTF-8" standalone="no"?>
<svg
   height="24px"
   version="1.1"
   id="svg1"
   viewBox="0 0 24 24"
   width="24px"
   fill="#000000"
   sodipodi:docname="zoom-out-symbolic.svg"
   inkscape:version="1.4.3 (0d15f75042, 2025-12-25)"
   xmlns:inkscape="http://www.inkscape.org/namespaces/inkscape"
   xmlns:sodipodi="http://sodipodi.sourceforge.net/DTD/sodipodi-0.dtd"
   xmlns="http://www.w3.org/2000/svg"
   xmlns:svg="http://www.w3.org/2000/svg">
  <defs
     id="defs1" />
  <sodipodi:namedview
     id="namedview1"
     pagecolor="#ffffff"
     bordercolor="#000000"
     borderopacity="0.25"
     inkscape:showpageshadow="2"
     inkscape:pageopacity="0.0"
     inkscape:pagecheckerboard="0"
     inkscape:deskcolor="#d1d1d1"
     inkscape:zoom="36.916667"
     inkscape:cx="11.986456"
     inkscape:cy="12"
     inkscape:window-width="3840"
     inkscape:window-height="2020"
     inkscape:window-x="0"
     inkscape:window-y="32"
     inkscape:window-maximized="1"
     inkscape:current-layer="svg1" />
  <path
     d="M 19.5999 21 13.2999 14.7 q -0.75 0.6 -1.725 0.9499 t -2.0751 0.3501 q -2.725 0 -4.6125 -1.8876 T 3 9.5001 q 0 -2.725 1.8876 -4.6125 T 9.5001 3 q 2.725 0 4.6125 1.8876 T 16.0001 9.5001 q 0 1.0999 -0.3501 2.0751 t -0.9499 1.725 l 6.3 6.3 -1.4001 1.4001 Z M 9.5001 13.9999 q 1.875 0 3.1875 -1.3125 T 13.9999 9.5001 q 0 -1.875 -1.3125 -3.1875 T 9.5001 5 q -1.875 0 -3.1875 1.3125 T 5 9.5001 q 0 1.875 1.3125 3.1875 T 9.5001 13.9999 Z M 6.9999 10.5 v -2.0001 h 5 v 2.0001 H 6.9999 Z"
     id="path1" />
</svg>
