<?xml version="1.0" encoding="UTF-8" standalone="no"?>
<svg
   height="24px"
   version="1.1"
   id="svg1"
   viewBox="0 0 32 32"
   width="24px"
   fill="#000000"
   sodipodi:docname="zoom-in-symbolic.svg"
   inkscape:version="1.4.3 (0d15f75042, 2025-12-25)"
   xmlns:inkscape="http://www.inkscape.org/namespaces/inkscape"
   xmlns:sodipodi="http://sodipodi.sourceforge.net/DTD/sodipodi-0.dtd"
   xmlns="http://www.w3.org/2000/svg"
   xmlns:svg="http://www.w3.org/2000/svg">
  <defs
     id="defs1" />
  <sodipodi:namedview
     id="namedview1"
     pagecolor="#ffffff"
     bordercolor="#000000"
     borderopacity="0.25"
     inkscape:showpageshadow="2"
     inkscape:pageopacity="0.0"
     inkscape:pagecheckerboard="0"
     inkscape:deskcolor="#d1d1d1"
     inkscape:zoom="36.916667"
     inkscape:cx="11.986456"
     inkscape:cy="12"
     inkscape:window-width="3840"
     inkscape:window-height="2020"
     inkscape:window-x="0"
     inkscape:window-y="32"
     inkscape:window-maximized="1"
     inkscape:current-layer="svg1" />
  <path
     d="M 26.1333 28 17.7333 19.6 q -1 0.8 -2.3 1.2667 t -2.7667 0.4667 q -3.6333 0 -6.15 -2.5167 T 4 12.6667 q 0 -3.6333 2.5167 -6.15 T 12.6667 4 q 3.6333 0 6.15 2.5167 T 21.3333 12.6667 q 0 1.4667 -0.4667 2.7667 t -1.2667 2.3 l 8.4 8.4 -1.8667 1.8667 Z M 12.6667 18.6667 q 2.5 0 4.25 -1.75 T 18.6667 12.6667 q 0 -2.5 -1.75 -4.25 T 12.6667 6.6667 q -2.5 0 -4.25 1.75 T 6.6667 12.6667 q 0 2.5 1.75 4.25 T 12.6667 18.6667 Z m -1.3333 -2 v -2.6667 h -2.6667 v -2.6667 h 2.6667 v -2.6667 h 2.6667 v 2.6667 h 2.6667 v 2.6667 h -2.6667 v 2.6667 h -2.6667 Z"
     id="path1" />
</svg>
