<?xml version="1.0" encoding="UTF-8" standalone="no"?>
<svg
   height="24px"
   version="1.1"
   id="svg1"
   viewBox="0 0 16 16"
   width="24px"
   fill="#000000"
   sodipodi:docname="zoom-fit-best-symbolic.svg"
   inkscape:version="1.4.3 (0d15f75042, 2025-12-25)"
   xmlns:inkscape="http://www.inkscape.org/namespaces/inkscape"
   xmlns:sodipodi="http://sodipodi.sourceforge.net/DTD/sodipodi-0.dtd"
   xmlns="http://www.w3.org/2000/svg"
   xmlns:svg="http://www.w3.org/2000/svg">
  <defs
     id="defs1" />
  <sodipodi:namedview
     id="namedview1"
     pagecolor="#ffffff"
     bordercolor="#000000"
     borderopacity="0.25"
     inkscape:showpageshadow="2"
     inkscape:pageopacity="0.0"
     inkscape:pagecheckerboard="0"
     inkscape:deskcolor="#d1d1d1"
     inkscape:zoom="36.916667"
     inkscape:cx="11.986456"
     inkscape:cy="12"
     inkscape:window-width="3840"
     inkscape:window-height="2020"
     inkscape:window-x="0"
     inkscape:window-y="32"
     inkscape:window-maximized="1"
     inkscape:current-layer="svg1" />
  <path
     d="M 3.3333 14 q -0.55 0 -0.9416 -0.3916 T 2 12.6667 v -2.6667 h 1.3334 v 2.6667 h 2.6667 v 1.3334 H 3.3333 Z m 6.6666 0 v -1.3334 h 2.6667 v -2.6667 h 1.3334 v 2.6667 q 0 0.55 -0.3916 0.9416 T 12.6667 14 H 10 Z M 2 6 v -2.6667 q 0 -0.55 0.3916 -0.9416 T 3.3333 2 h 2.6667 v 1.3334 H 3.3333 v 2.6667 h -1.3334 Z m 10.6667 0 v -2.6667 H 10 v -1.3334 h 2.6667 q 0.55 0 0.9416 0.3916 T 14 3.3333 v 2.6667 h -1.3334 Z M 5.6417 10.3583 Q 4.6666 9.3834 4.6666 8 t 0.975 -2.3584 Q 6.6166 4.6666 8 4.6666 t 2.3584 0.975 Q 11.3333 6.6166 11.3333 8 t -0.975 2.3584 Q 9.3834 11.3333 8 11.3333 t -2.3584 -0.975 Z M 9.4167 9.4167 q 0.5834 -0.5834 0.5834 -1.4166 t -0.5834 -1.4166 q -0.5834 -0.5834 -1.4166 -0.5834 t -1.4166 0.5834 q -0.5834 0.5834 -0.5834 1.4166 t 0.5834 1.4166 q 0.5834 0.5834 1.4166 0.5834 t 1.4166 -0.5834 Z m -1.4166 -1.4166 Z"
     id="path1" />
</svg>
