<?xml version="1.0" encoding="UTF-8" standalone="no"?>
<svg
   height="24px"
   version="1.1"
   id="svg1"
   viewBox="0 0 16 16"
   width="24px"
   fill="#000000"
   sodipodi:docname="zoom-out-symbolic.svg"
   inkscape:version="1.4.3 (0d15f75042, 2025-12-25)"
   xmlns:inkscape="http://www.inkscape.org/namespaces/inkscape"
   xmlns:sodipodi="http://sodipodi.sourceforge.net/DTD/sodipodi-0.dtd"
   xmlns="http://www.w3.org/2000/svg"
   xmlns:svg="http://www.w3.org/2000/svg">
  <defs
     id="defs1" />
  <sodipodi:namedview
     id="namedview1"
     pagecolor="#ffffff"
     bordercolor="#000000"
     borderopacity="0.25"
     inkscape:showpageshadow="2"
     inkscape:pageopacity="0.0"
     inkscape:pagecheckerboard="0"
     inkscape:deskcolor="#d1d1d1"
     inkscape:zoom="36.916667"
     inkscape:cx="11.986456"
     inkscape:cy="12"
     inkscape:window-width="3840"
     inkscape:window-height="2020"
     inkscape:window-x="0"
     inkscape:window-y="32"
     inkscape:window-maximized="1"
     inkscape:current-layer="svg1" />
  <path
     d="M 13.0666 14 8.8666 9.8 q -0.5 0.4 -1.15 0.6333 t -1.3834 0.2334 q -1.8167 0 -3.075 -1.2584 T 2 6.3334 q 0 -1.8167 1.2584 -3.075 T 6.3334 2 q 1.8167 0 3.075 1.2584 T 10.6667 6.3334 q 0 0.7333 -0.2334 1.3834 t -0.6333 1.15 l 4.2 4.2 -0.9334 0.9334 Z M 6.3334 9.3333 q 1.25 0 2.125 -0.875 T 9.3333 6.3334 q 0 -1.25 -0.875 -2.125 T 6.3334 3.3333 q -1.25 0 -2.125 0.875 T 3.3333 6.3334 q 0 1.25 0.875 2.125 T 6.3334 9.3333 Z M 4.6666 7 v -1.3334 h 3.3333 v 1.3334 H 4.6666 Z"
     id="path1" />
</svg>
