<?xml version="1.0" encoding="UTF-8" standalone="no"?>
<svg
   height="24px"
   viewBox="0 0 24 24"
   width="24px"
   fill="#000000"
   version="1.1"
   id="svg1"
   sodipodi:docname="step-shrinkwrap-symbolic.svg"
   inkscape:version="1.4.3 (0d15f75042, 2025-12-25)"
   xmlns:inkscape="http://www.inkscape.org/namespaces/inkscape"
   xmlns:sodipodi="http://sodipodi.sourceforge.net/DTD/sodipodi-0.dtd"
   xmlns="http://www.w3.org/2000/svg"
   xmlns:svg="http://www.w3.org/2000/svg">
  <sodipodi:namedview
     id="namedview1"
     pagecolor="#ffffff"
     bordercolor="#000000"
     borderopacity="0.25"
     inkscape:showpageshadow="2"
     inkscape:pageopacity="0.0"
     inkscape:pagecheckerboard="0"
     inkscape:deskcolor="#d1d1d1"
     inkscape:zoom="52.208052"
     inkscape:cx="5.7653942"
     inkscape:cy="16.625788"
     inkscape:window-width="3840"
     inkscape:window-height="2020"
     inkscape:window-x="0"
     inkscape:window-y="32"
     inkscape:window-maximized="1"
     inkscape:current-layer="g2" />
  <defs
     id="defs1" />
  <g
     id="g2"
     transform="matrix(1.2825508,0,0,1.2825508,12.88731,12.938632)">
    <path
       d="M -6.1495109,4.7259867 C -6.546406,4.7029816 -6.945425,4.5733221 -7.250754,4.2679931 -7.556239,3.9624302 -7.708903,3.5953492 -7.708903,3.1664383 v -7.7968841 c 0,-0.428755 0.152664,-0.7959139 0.457993,-1.101243 0.305329,-0.305329 0.7043484,-0.4349825 1.1012431,-0.4579935 1.8889068,-0.1095144 3.5657556,1.5593924 5.4578345,1.5593924 1.8920789,0 3.5689277,-1.6689069 5.4578345,-1.5593924 0.3968947,0.023011 0.7959139,0.1526645 1.1012429,0.4579935 0.305329,0.3053291 0.4579936,0.672488 0.4579936,1.101243 v 7.7968841 c 0,0.4287549 -0.1526646,0.7959139 -0.4579936,1.1012429 C 5.561916,4.5730103 5.1628965,4.7026592 4.7660021,4.7256748 2.8771357,4.8352085 1.2002995,3.1663883 -0.6917544,3.1664383 c -1.8920539,5e-5 -3.5688587,1.6690338 -5.4577565,1.5595484 z m 0.1478304,-1.7283526 c 0.1797199,0.179486 0.4061666,0.1747359 0.6204042,0.1688042 1.6467378,-0.045594 3.037275,-1.5577368 4.68963875,-1.5593924 C 0.96072621,1.6053859 2.3738925,3.0919697 4.029579,3.1664383 4.2308912,3.1754928 4.4424282,3.2050333 4.6183276,3.0291338 4.7942271,2.8533123 4.766314,2.4106008 4.766314,2.4106008 V -0.73196481 -3.7900113 c 0,0 0.048497,-0.4961987 -0.1373045,-0.6819223 -0.1858796,-0.1859575 -0.3928398,-0.1648281 -0.5994305,-0.1585902 -1.6566054,0.050021 -3.06885279,1.5610481 -4.72121655,1.5593924 -1.65236375,-0.00166 -3.04296895,-1.5114075 -4.68963875,-1.5593924 -0.2031382,-0.00592 -0.3992044,-0.031266 -0.5887486,0.1583563 -0.1896221,0.1897001 -0.179486,0.6821562 -0.179486,0.6821562 v 3.05804649 3.14256561 c 0,0 -0.031812,0.4073133 0.1478304,0.5870333 z m 0,0 -0.1478304,-0.5870333 V -0.73196481 -3.7900113 l 0.179564,-0.6819223 -0.179564,0.6819223 v 3.05804649 3.14256561 z"
       id="path1"
       sodipodi:nodetypes="assssazassssazazazazccczazazccczzccczcccz"
       style="stroke-width:0.779696" />
  </g>
</svg>
